<svg width="1823" height="1089" viewBox="0 0 1823 1089" fill="none" xmlns="http://www.w3.org/2000/svg">
    <path d="M1427.56 765.984C1419.69 986.413 607.178 1059.61 306.315 1048.86C5.45107 1038.11 10.473 756.431 18.3491 536.002C26.2252 315.573 724.572 25.011 1025.44 35.7611C1326.3 46.5112 1435.44 545.554 1427.56 765.984Z" fill="#F4F7FA"/>
    <path d="M1342.58 591.704C1549.01 593.997 1307.61 800.242 1408.09 535.952C1433.16 470.019 1645.99 412.757 1701.07 493.519C1756.53 574.844 1791.45 382.096 1821.21 402.81" stroke="#2B2A29" stroke-width="2.11762" stroke-miterlimit="22.9256" stroke-linecap="round" stroke-dasharray="2.12 10.58"/>
    <path fill-rule="evenodd" clip-rule="evenodd" d="M1254.9 535.139C1253.88 534.972 1253.15 533.889 1253.24 533.028C1253.48 530.802 1256.13 530.431 1257.1 531.373C1258.3 532.537 1257.78 535.605 1254.9 535.139ZM1268.46 548.701C1268.34 548.058 1268.2 547.389 1268 546.695C1266.69 541.972 1264.97 539.111 1260.61 534.811C1261.37 527.181 1254.09 526.179 1251.16 529.843C1249.36 532.091 1249.75 535.232 1251.47 536.966C1253.91 539.418 1256.17 538.581 1258.42 537.808C1263.22 541.803 1265.16 548.134 1265.06 552.386C1265.05 552.735 1265.04 553.073 1265.02 553.399L1268.46 548.701L1268.46 548.701Z" fill="#1A1A1A"/>
    <path fill-rule="evenodd" clip-rule="evenodd" d="M1272.02 543.922C1281.97 544.801 1310.59 549.527 1317.93 547.189C1329.88 543.378 1335.57 528.415 1326.91 517.405C1318.81 507.118 1304.18 509.178 1294.42 517.622C1292.19 519.553 1290.48 520.848 1288.23 523.099C1284.35 526.964 1273.75 539.768 1272.02 543.922V543.922ZM1279.67 541.088C1287.56 541.785 1310.24 545.53 1316.05 543.677C1325.53 540.656 1330.03 528.798 1323.17 520.072C1316.76 511.92 1305.16 513.552 1297.43 520.244C1295.66 521.775 1294.31 522.801 1292.52 524.585C1289.45 527.649 1281.05 537.796 1279.67 541.088L1279.67 541.088Z" fill="#1A1A1A"/>
    <path fill-rule="evenodd" clip-rule="evenodd" d="M1308.63 519.109C1303.94 519.722 1297.94 523.816 1295.87 526.511C1294.38 528.454 1296.49 530.603 1298.48 529.062C1299.84 528.013 1300.65 526.94 1302.07 525.922C1303.6 524.826 1304.47 524.201 1306.4 523.392C1307.48 522.94 1310.8 522.651 1311.4 521.973C1312.97 520.204 1311.17 518.778 1308.63 519.109L1308.63 519.109Z" fill="#1A1A1A"/>
    <path fill-rule="evenodd" clip-rule="evenodd" d="M1314.77 520.804C1314.24 521.048 1313.75 520.961 1313.54 522.094C1313.24 523.752 1316.17 526.189 1317.72 525.569C1320.52 524.454 1316.78 519.896 1314.77 520.804Z" fill="#1A1A1A"/>
    <path d="M1303.83 579.592L1292.12 578.469L1284.8 562.249L1315.94 565.323L1322.8 581.493L1303.83 579.592V579.592ZM1253.36 575.294L1273.34 547.764L1287.28 578.594L1267.25 606.404L1253.36 575.294ZM1309.1 549.793L1314.61 562.681L1283.69 559.669L1277.59 546.826L1309.1 549.793L1309.1 549.793ZM1326.51 582.524L1311.63 547.434L1272.24 543.482L1272.12 543.47L1271.68 544.08L1271.68 544.085L1253.09 569.897C1249.29 572.772 1249.14 576.24 1251.98 580.196L1265.15 609.325L1265.46 610.016L1266.22 610.092L1303.56 613.833L1303.94 613.87L1326.51 582.525L1326.51 582.524Z" fill="#1A1A1A"/>
    <path fill-rule="evenodd" clip-rule="evenodd" d="M1273.34 547.762L1287.28 578.593L1267.25 606.402L1255.67 580.454C1252.55 577.226 1252.09 574.005 1256.59 570.845L1273.34 547.762L1273.34 547.762Z" fill="#FFCC00"/>
    <path fill-rule="evenodd" clip-rule="evenodd" d="M1309.1 549.793L1314.61 562.681L1283.69 559.669L1277.59 546.826L1309.1 549.793Z" fill="#FFCC00"/>
    <path fill-rule="evenodd" clip-rule="evenodd" d="M1315.94 565.322L1322.8 581.491L1292.12 578.467L1284.6 562.281L1315.94 565.322Z" fill="#FFCC00"/>
    <path fill-rule="evenodd" clip-rule="evenodd" d="M1269.81 564.142C1273.12 564.496 1275.52 567.463 1275.17 570.77C1274.82 574.077 1271.84 576.47 1268.53 576.116C1265.22 575.761 1262.82 572.794 1263.18 569.487C1263.53 566.18 1266.5 563.787 1269.81 564.142Z" fill="#1A1A1A"/>
    <path d="M1294.44 592.991C1294.48 593.165 1294.73 593.222 1294.87 593.24L1300.87 593.918C1301.73 594.013 1303.13 593.357 1303.93 592.484C1304.33 592.051 1304.44 591.724 1304.4 591.575C1304.37 591.393 1304.12 591.341 1303.98 591.327L1303.56 591.28C1302.5 592.246 1300.99 592.889 1299.95 592.77L1294.82 592.191C1294.51 592.565 1294.41 592.849 1294.44 592.991L1294.44 592.991ZM1298.36 589.46L1304.36 590.138C1305.02 590.212 1305.45 590.55 1305.57 591.089C1305.69 591.696 1305.39 592.462 1304.72 593.189C1303.59 594.405 1301.74 595.248 1300.49 595.107L1294.49 594.43C1294.13 594.388 1293.83 594.268 1293.62 594.079C1293.45 593.923 1293.33 593.72 1293.28 593.475C1293.15 592.867 1293.46 592.104 1294.13 591.377C1295.25 590.161 1297.11 589.319 1298.36 589.46L1298.36 589.46Z" fill="#FFCC00"/>
</svg>
