<svg width="1453" height="1089" viewBox="0 0 1453 1089" fill="none" xmlns="http://www.w3.org/2000/svg">
<path d="M1427.15 765.523C1419.27 985.952 606.763 1059.15 305.9 1048.4C5.03609 1037.65 10.058 755.97 17.9341 535.541C25.8102 315.112 724.157 24.5501 1025.02 35.3002C1325.88 46.0502 1435.02 545.094 1427.15 765.523Z" fill="#F4F7FA"/>
<path d="M819.196 181.54C821.036 168.597 949.519 215.807 926.104 234.783C924.081 236.423 916.14 241.039 912.791 244.831C883.013 278.547 889.103 264.596 874.592 309.169C863.341 343.726 867.601 346.93 889.459 372.435C903.809 389.178 927.442 387.517 947.313 387.601C955.454 387.635 984.961 403.195 982.755 411.516C982.155 413.777 987.999 437.136 993.42 441.777C1015.26 460.472 1023.24 449.188 1046.44 436.379C1068.86 423.996 1078.84 389.173 1127.41 413.068C1171.14 434.582 1148.21 500.236 1125.21 533.348C1115.91 546.746 1102.83 586.615 1103.73 601.941C1104.56 616.015 1101.67 618.755 1105.32 634.873C1113.84 672.497 1131.93 667.049 1158.09 687.271C1164.7 692.384 1215.67 692.232 1225.61 688.307C1261.75 674.041 1309.56 593.536 1327.01 587.013C1344.45 580.491 1353.4 589.48 1362.97 599.36" stroke="#F36F56" stroke-width="2.11652" stroke-miterlimit="22.9256" stroke-linecap="round" stroke-dasharray="2.12 10.58"/>
</svg>
