<svg width="825" height="808" viewBox="0 0 825 808" fill="none" xmlns="http://www.w3.org/2000/svg">
<path d="M216.252 664.927C282.734 762.615 605.773 608.975 714.477 534.996C823.181 461.018 740.1 335.026 673.618 237.338C607.136 139.649 263.849 168.946 155.145 242.924C46.441 316.903 149.771 567.238 216.252 664.927Z" fill="#EBF3FA"/>
<path d="M648.205 159.77C659.301 159.77 668.311 168.889 668.311 180.154C668.311 191.403 648.205 216.441 648.205 216.441C648.205 216.441 628.1 191.418 628.1 180.154C628.116 168.904 637.11 159.77 648.205 159.77ZM648.205 189.478C653.387 189.478 657.604 185.218 657.604 179.948C657.604 174.695 653.403 170.419 648.205 170.419C643.023 170.419 638.806 174.679 638.806 179.948C638.822 185.218 643.023 189.478 648.205 189.478Z" fill="#FFCC00"/>
<path d="M500.99 414.453C564.654 388.597 597.485 454.468 574.895 312.276C569.26 276.803 600.886 261.674 634.053 293.915C667.451 326.381 657.664 267.596 651.531 242.375" stroke="#F36F56" stroke-width="2.11762" stroke-miterlimit="22.9256" stroke-linecap="round" stroke-dasharray="2.12 10.58"/>
</svg>
