<svg width="2589" height="912" viewBox="0 0 2589 912" fill="none" xmlns="http://www.w3.org/2000/svg">
<path d="M927.287 661.993C927.287 661.993 828.131 776.421 361.116 633.154C154.09 592.48 187.249 516.486 114.832 501.625C17.6604 481.591 18.986 123.414 196.266 183.079C388.83 247.806 275.216 63.7907 396.743 61.2002C529.03 58.3885 533.08 171.355 632.832 145.375C769.188 109.843 832.567 144.273 867.081 196.885C904.932 254.592 907.994 334.226 934.597 367.144C935.201 367.904 935.78 368.61 936.402 369.276C989.08 428.015 1008.19 478.544 1009.38 520.238C1012.22 612.728 927.287 661.993 927.287 661.993Z" fill="#F4F7FA"/>
<path d="M879.425 605.98C867.156 596.702 773.408 587.804 762.813 611.207C761.897 613.229 756.222 619.984 755.94 624.032C753.429 660.02 745.871 648.077 776.847 683.894C800.861 711.663 810.404 711.729 869.745 717.955C908.7 722.042 939.408 709.782 966.922 700.436C978.193 696.607 1036.71 692.754 1043.19 699.203C1044.95 700.955 1079.74 713.364 1092.52 713.813C1144.04 715.626 1142.16 704.517 1159.5 685.224C1176.27 666.573 1150.2 639.231 1244.55 631.777C1329.5 625.065 1325.84 717.614 1332 750.001C1334.49 763.106 1363 795.372 1389 777.001C1406.25 785.749 1486.52 702.203 1510 710.945C1564.81 731.352 1541.38 794.612 1600.61 795.372C1615.59 795.563 1685.74 771.351 1694.96 764.098C1728.5 737.736 1651.39 644.267 1668 631.777C1684.61 619.287 1758.21 639.451 1782.71 641.342" stroke="#F36F56" stroke-width="2.11652" stroke-miterlimit="22.9256" stroke-linecap="round" stroke-dasharray="2.12 10.58"/>
<g opacity="0.45">
<path d="M813.517 189.16H737.012V549.17H813.517V189.16Z" fill="#C4D9ED"/>
<path d="M830.695 189.156H754.191V549.166H830.695V189.156Z" fill="#D5E7F7"/>
<path d="M754.199 209.824H830.704V189H754.199V209.824Z" fill="#C4D9ED"/>
<path d="M754.199 254.988H830.704V234.164H754.199V254.988Z" fill="#C4D9ED"/>
<path d="M754.199 300.102H830.704V279.277H754.199V300.102Z" fill="#C4D9ED"/>
<path d="M754.199 345.215H830.704V324.39H754.199V345.215Z" fill="#C4D9ED"/>
<path d="M754.199 390.332H830.704V369.507H754.199V390.332Z" fill="#C4D9ED"/>
<path d="M754.199 435.445H830.704V414.621H754.199V435.445Z" fill="#C4D9ED"/>
<path d="M754.199 480.559H830.704V459.734H754.199V480.559Z" fill="#C4D9ED"/>
<path d="M754.199 525.676H830.704V504.851H754.199V525.676Z" fill="#C4D9ED"/>
<path d="M935.814 240.082H859.31V549.165H935.814V240.082Z" fill="#C4D9ED"/>
<path d="M952.993 240.082H876.488V549.165H952.993V240.082Z" fill="#D5E7F7"/>
<path d="M876.495 257.871H953V239.994H876.495V257.871Z" fill="#C4D9ED"/>
<path d="M876.495 296.59H953V278.713H876.495V296.59Z" fill="#C4D9ED"/>
<path d="M876.495 335.312H953V317.435H876.495V335.312Z" fill="#C4D9ED"/>
<path d="M876.495 374.086H953V356.209H876.495V374.086Z" fill="#C4D9ED"/>
<path d="M876.495 412.809H953V394.931H876.495V412.809Z" fill="#C4D9ED"/>
<path d="M876.495 451.531H953V433.654H876.495V451.531Z" fill="#C4D9ED"/>
<path d="M876.495 490.254H953V472.377H876.495V490.254Z" fill="#C4D9ED"/>
<path d="M876.495 529.023H953V511.146H876.495V529.023Z" fill="#C4D9ED"/>
<path d="M695.578 583.34H727.638V538.115H695.578V583.34Z" fill="#DCEAF9"/>
<path d="M705.352 476.452V601.979H365.925H363.627L276.985 601.206C276.935 601.061 276.836 600.916 276.736 600.771C276.586 600.53 276.436 600.24 276.236 599.902C276.186 599.805 276.087 599.66 276.037 599.563C275.787 599.129 275.487 598.597 275.188 598.017C274.788 597.341 274.339 596.519 273.839 595.65C272.042 592.364 269.595 587.774 266.848 582.073C265.949 580.188 265 578.207 264.052 576.13C263.652 575.308 263.302 574.439 262.903 573.569C262.503 572.748 262.154 571.878 261.754 570.96C261.754 570.911 261.704 570.911 261.704 570.863C261.455 570.235 261.155 569.655 260.905 569.027C260.606 568.399 260.356 567.723 260.056 567.094C258.658 563.712 257.21 560.137 255.762 556.368C255.712 556.271 255.662 556.175 255.662 556.078C254.713 553.614 253.764 551.053 252.865 548.444C252.366 546.995 251.867 545.545 251.317 544.047C251.267 543.951 251.267 543.854 251.217 543.757C251.018 543.081 250.768 542.453 250.568 541.776C250.369 541.197 250.219 540.665 250.019 540.085C249.62 538.926 249.27 537.718 248.87 536.558C248.371 535.012 247.922 533.466 247.422 531.92C246.773 529.794 246.174 527.62 245.575 525.397C245.375 524.721 245.225 524.092 245.025 523.416C244.476 521.435 243.977 519.406 243.477 517.376C243.327 516.7 243.128 516.072 242.978 515.395C242.878 515.009 242.778 514.574 242.678 514.187C241.929 510.95 241.18 507.665 240.531 504.282C239.782 500.562 239.083 496.793 238.483 492.976C237.934 489.449 237.385 485.825 236.935 482.202C236.536 478.771 236.136 475.292 235.887 471.765C235.187 463.551 234.888 455.048 235.038 446.447C235.287 431.469 236.885 415.959 240.381 400.304C240.531 399.725 240.631 399.145 240.781 398.613C241.629 394.893 242.628 391.173 243.677 387.404C244.476 384.553 245.375 381.702 246.324 378.852C247.023 376.774 247.772 374.697 248.521 372.619C250.269 367.932 252.166 363.245 254.314 358.559H256.111V354.548C267.697 330.39 284.776 306.425 309.045 283.764C309.495 283.329 309.944 282.943 310.394 282.508H311.792V330.535H355.687V252.261H404.127V303.043H415.163V242.453H463.603V356.143H524.877V422.434H547.798V439.151H600.382V410.403H630.595V332.178H667.898V476.404H705.352V476.452Z" fill="#D5E7F7"/>
<path d="M415.317 261.703H463.806V250.107H415.317V261.703Z" fill="#C4D9ED"/>
<path d="M415.317 283.43H463.806V271.834H415.317V283.43Z" fill="#C4D9ED"/>
<path d="M415.317 303.012H463.806V291.416H415.317V303.012Z" fill="#C4D9ED"/>
<path d="M355.803 303.012H404.292V291.416H355.803V303.012Z" fill="#C4D9ED"/>
<path d="M355.803 283.43H404.292V271.834H355.803V283.43Z" fill="#C4D9ED"/>
<path d="M355.803 263.906H404.292V252.31H355.803V263.906Z" fill="#C4D9ED"/>
<path d="M355.808 321.988H463.823V310.392H355.808V321.988Z" fill="#C4D9ED"/>
<path d="M355.808 340.961H463.823V329.365H355.808V340.961Z" fill="#C4D9ED"/>
<path d="M630.407 350.066H668.061V332.189H630.407V350.066Z" fill="#C4D9ED"/>
<path d="M630.407 376.668H668.061V358.791H630.407V376.668Z" fill="#C4D9ED"/>
<path d="M630.407 403.27H668.061V385.392H630.407V403.27Z" fill="#C4D9ED"/>
<path d="M630.407 431.133H668.061V413.255H630.407V431.133Z" fill="#C4D9ED"/>
<path d="M630.407 458.141H668.061V440.263H630.407V458.141Z" fill="#C4D9ED"/>
<path d="M630.407 485.145H668.061V467.267H630.407V485.145Z" fill="#C4D9ED"/>
<path d="M630.407 513.391H668.061V495.513H630.407V513.391Z" fill="#C4D9ED"/>
<path d="M355.808 355.324H463.823V347.98H355.808V355.324Z" fill="#C4D9ED"/>
<path d="M630.944 332.223H617.062V410.351H630.944V332.223Z" fill="#C4D9ED"/>
<path d="M600.582 410.352H572.667V439.1H600.582V410.352Z" fill="#C4D9ED"/>
<path d="M355.837 252.309V263.905V310.434V322.03V330.534H346.199V253.227C346.649 252.937 347.048 252.598 347.498 252.309H355.837Z" fill="#C4D9ED"/>
<path d="M415.313 242.453H409.42V303.042H415.313V242.453Z" fill="#C4D9ED"/>
<g opacity="0.8">
<g opacity="0.8">
<g opacity="0.8">
<g opacity="0.8">
<path opacity="0.8" d="M506.841 378.73H515.03V367.521H506.841V378.73Z" fill="#C4D9ED"/>
<path opacity="0.8" d="M491.448 378.73H499.688V367.521H491.448V378.73Z" fill="#C4D9ED"/>
<path opacity="0.8" d="M476.443 378.73H484.683V367.521H476.443V378.73Z" fill="#C4D9ED"/>
<path opacity="0.8" d="M462.247 378.73H470.436V367.521H462.247V378.73Z" fill="#C4D9ED"/>
<path opacity="0.8" d="M447.653 378.73H455.892V367.521H447.653V378.73Z" fill="#C4D9ED"/>
</g>
<g opacity="0.8">
<path opacity="0.8" d="M432.977 378.73H441.217V367.521H432.977V378.73Z" fill="#C4D9ED"/>
<path opacity="0.8" d="M417.634 378.73H425.874V367.521H417.634V378.73Z" fill="#C4D9ED"/>
<path opacity="0.8" d="M402.629 378.73H410.869V367.521H402.629V378.73Z" fill="#C4D9ED"/>
<path opacity="0.8" d="M388.383 378.73H396.623V367.521H388.383V378.73Z" fill="#C4D9ED"/>
<path opacity="0.8" d="M373.889 378.73H382.079V367.521H373.889V378.73Z" fill="#C4D9ED"/>
</g>
</g>
<g opacity="0.8">
<g opacity="0.8">
<path opacity="0.8" d="M358.724 378.73H366.964V367.521H358.724V378.73Z" fill="#C4D9ED"/>
<path opacity="0.8" d="M343.381 378.73H351.621V367.521H343.381V378.73Z" fill="#C4D9ED"/>
<path opacity="0.8" d="M328.377 378.73H336.616V367.521H328.377V378.73Z" fill="#C4D9ED"/>
<path opacity="0.8" d="M314.131 378.73H322.37V367.521H314.131V378.73Z" fill="#C4D9ED"/>
<path opacity="0.8" d="M299.637 378.73H307.827V367.521H299.637V378.73Z" fill="#C4D9ED"/>
</g>
<g opacity="0.8">
<path opacity="0.8" d="M284.911 378.73H293.15V367.521H284.911V378.73Z" fill="#C4D9ED"/>
<path opacity="0.8" d="M269.618 378.73H277.808V367.521H269.618V378.73Z" fill="#C4D9ED"/>
<path opacity="0.8" d="M254.563 378.73H262.803V367.521H254.563V378.73Z" fill="#C4D9ED"/>
<path opacity="0.8" d="M248.571 372.52V378.753H246.374C247.073 376.627 247.772 374.549 248.571 372.52Z" fill="#C4D9ED"/>
</g>
</g>
</g>
<g opacity="0.8">
<g opacity="0.8">
<g opacity="0.8">
<path opacity="0.8" d="M506.841 398.508H515.03V387.298H506.841V398.508Z" fill="#C4D9ED"/>
<path opacity="0.8" d="M491.448 398.508H499.688V387.298H491.448V398.508Z" fill="#C4D9ED"/>
<path opacity="0.8" d="M476.443 398.508H484.683V387.298H476.443V398.508Z" fill="#C4D9ED"/>
<path opacity="0.8" d="M462.247 398.508H470.436V387.298H462.247V398.508Z" fill="#C4D9ED"/>
<path opacity="0.8" d="M447.653 398.508H455.892V387.298H447.653V398.508Z" fill="#C4D9ED"/>
</g>
<g opacity="0.8">
<path opacity="0.8" d="M432.977 398.508H441.217V387.298H432.977V398.508Z" fill="#C4D9ED"/>
<path opacity="0.8" d="M417.634 398.508H425.874V387.298H417.634V398.508Z" fill="#C4D9ED"/>
<path opacity="0.8" d="M402.629 398.508H410.869V387.298H402.629V398.508Z" fill="#C4D9ED"/>
<path opacity="0.8" d="M388.384 398.508H396.623V387.298H388.384V398.508Z" fill="#C4D9ED"/>
<path opacity="0.8" d="M373.89 398.508H382.079V387.298H373.89V398.508Z" fill="#C4D9ED"/>
</g>
</g>
<g opacity="0.8">
<g opacity="0.8">
<path opacity="0.8" d="M358.725 398.508H366.964V387.298H358.725V398.508Z" fill="#C4D9ED"/>
<path opacity="0.8" d="M343.381 398.508H351.621V387.298H343.381V398.508Z" fill="#C4D9ED"/>
<path opacity="0.8" d="M328.377 398.508H336.617V387.298H328.377V398.508Z" fill="#C4D9ED"/>
<path opacity="0.8" d="M314.131 398.508H322.371V387.298H314.131V398.508Z" fill="#C4D9ED"/>
<path opacity="0.8" d="M299.637 398.508H307.827V387.298H299.637V398.508Z" fill="#C4D9ED"/>
</g>
<g opacity="0.8">
<path opacity="0.8" d="M284.911 398.508H293.15V387.298H284.911V398.508Z" fill="#C4D9ED"/>
<path opacity="0.8" d="M269.618 398.508H277.808V387.298H269.618V398.508Z" fill="#C4D9ED"/>
<path opacity="0.8" d="M254.563 398.508H262.803V387.298H254.563V398.508Z" fill="#C4D9ED"/>
<path opacity="0.8" d="M248.571 387.258V398.467H240.781C241.63 394.747 242.628 391.027 243.677 387.258H248.571Z" fill="#C4D9ED"/>
</g>
</g>
</g>
<g opacity="0.8">
<g opacity="0.8">
<g opacity="0.8">
<path opacity="0.8" d="M506.841 417.969H515.03V406.759H506.841V417.969Z" fill="#C4D9ED"/>
<path opacity="0.8" d="M491.448 417.969H499.688V406.759H491.448V417.969Z" fill="#C4D9ED"/>
<path opacity="0.8" d="M476.443 417.969H484.683V406.759H476.443V417.969Z" fill="#C4D9ED"/>
<path opacity="0.8" d="M462.246 417.969H470.436V406.759H462.246V417.969Z" fill="#C4D9ED"/>
<path opacity="0.8" d="M447.653 417.969H455.892V406.759H447.653V417.969Z" fill="#C4D9ED"/>
</g>
<g opacity="0.8">
<path opacity="0.8" d="M432.977 417.969H441.217V406.759H432.977V417.969Z" fill="#C4D9ED"/>
<path opacity="0.8" d="M417.634 417.969H425.874V406.759H417.634V417.969Z" fill="#C4D9ED"/>
<path opacity="0.8" d="M402.629 417.969H410.869V406.759H402.629V417.969Z" fill="#C4D9ED"/>
<path opacity="0.8" d="M388.383 417.969H396.623V406.759H388.383V417.969Z" fill="#C4D9ED"/>
<path opacity="0.8" d="M373.889 417.969H382.079V406.759H373.889V417.969Z" fill="#C4D9ED"/>
</g>
</g>
<g opacity="0.8">
<g opacity="0.8">
<path opacity="0.8" d="M358.724 417.969H366.964V406.759H358.724V417.969Z" fill="#C4D9ED"/>
<path opacity="0.8" d="M343.381 417.969H351.621V406.759H343.381V417.969Z" fill="#C4D9ED"/>
<path opacity="0.8" d="M328.377 417.969H336.616V406.759H328.377V417.969Z" fill="#C4D9ED"/>
<path opacity="0.8" d="M314.131 417.969H322.37V406.759H314.131V417.969Z" fill="#C4D9ED"/>
<path opacity="0.8" d="M299.637 417.969H307.827V406.759H299.637V417.969Z" fill="#C4D9ED"/>
</g>
<g opacity="0.8">
<path opacity="0.8" d="M284.911 417.969H293.15V406.759H284.911V417.969Z" fill="#C4D9ED"/>
<path opacity="0.8" d="M269.618 417.969H277.808V406.759H269.618V417.969Z" fill="#C4D9ED"/>
<path opacity="0.8" d="M254.563 417.969H262.803V406.759H254.563V417.969Z" fill="#C4D9ED"/>
<path opacity="0.8" d="M240.316 417.969H248.556V406.759H240.316V417.969Z" fill="#C4D9ED"/>
</g>
</g>
</g>
<g opacity="0.8">
<g opacity="0.8">
<g opacity="0.8">
<g opacity="0.8">
<path opacity="0.8" d="M506.841 438.656H515.03V427.447H506.841V438.656Z" fill="#C4D9ED"/>
<path opacity="0.8" d="M491.448 438.656H499.688V427.447H491.448V438.656Z" fill="#C4D9ED"/>
<path opacity="0.8" d="M476.443 438.656H484.683V427.447H476.443V438.656Z" fill="#C4D9ED"/>
<path opacity="0.8" d="M462.246 438.656H470.436V427.447H462.246V438.656Z" fill="#C4D9ED"/>
<path opacity="0.8" d="M447.653 438.656H455.892V427.447H447.653V438.656Z" fill="#C4D9ED"/>
</g>
<g opacity="0.8">
<path opacity="0.8" d="M432.977 438.656H441.217V427.447H432.977V438.656Z" fill="#C4D9ED"/>
<path opacity="0.8" d="M417.634 438.656H425.874V427.447H417.634V438.656Z" fill="#C4D9ED"/>
<path opacity="0.8" d="M402.629 438.656H410.869V427.447H402.629V438.656Z" fill="#C4D9ED"/>
<path opacity="0.8" d="M388.383 438.656H396.623V427.447H388.383V438.656Z" fill="#C4D9ED"/>
<path opacity="0.8" d="M373.89 438.656H382.079V427.447H373.89V438.656Z" fill="#C4D9ED"/>
</g>
</g>
<g opacity="0.8">
<g opacity="0.8">
<path opacity="0.8" d="M358.724 438.656H366.964V427.447H358.724V438.656Z" fill="#C4D9ED"/>
<path opacity="0.8" d="M343.381 438.656H351.621V427.447H343.381V438.656Z" fill="#C4D9ED"/>
<path opacity="0.8" d="M328.377 438.656H336.616V427.447H328.377V438.656Z" fill="#C4D9ED"/>
<path opacity="0.8" d="M314.131 438.656H322.37V427.447H314.131V438.656Z" fill="#C4D9ED"/>
<path opacity="0.8" d="M299.637 438.656H307.827V427.447H299.637V438.656Z" fill="#C4D9ED"/>
</g>
<g opacity="0.8">
<path opacity="0.8" d="M284.911 438.656H293.15V427.447H284.911V438.656Z" fill="#C4D9ED"/>
<path opacity="0.8" d="M269.618 438.656H277.808V427.447H269.618V438.656Z" fill="#C4D9ED"/>
<path opacity="0.8" d="M254.563 438.656H262.803V427.447H254.563V438.656Z" fill="#C4D9ED"/>
<path opacity="0.8" d="M240.316 438.656H248.556V427.447H240.316V438.656Z" fill="#C4D9ED"/>
</g>
</g>
</g>
<g opacity="0.8">
<g opacity="0.8">
<g opacity="0.8">
<path opacity="0.8" d="M506.841 458.387H515.03V447.177H506.841V458.387Z" fill="#C4D9ED"/>
<path opacity="0.8" d="M491.448 458.387H499.688V447.177H491.448V458.387Z" fill="#C4D9ED"/>
<path opacity="0.8" d="M476.443 458.387H484.683V447.177H476.443V458.387Z" fill="#C4D9ED"/>
<path opacity="0.8" d="M462.247 458.387H470.436V447.177H462.247V458.387Z" fill="#C4D9ED"/>
<path opacity="0.8" d="M447.653 458.387H455.892V447.177H447.653V458.387Z" fill="#C4D9ED"/>
</g>
<g opacity="0.8">
<path opacity="0.8" d="M432.977 458.387H441.217V447.177H432.977V458.387Z" fill="#C4D9ED"/>
<path opacity="0.8" d="M417.634 458.387H425.874V447.177H417.634V458.387Z" fill="#C4D9ED"/>
<path opacity="0.8" d="M402.629 458.387H410.869V447.177H402.629V458.387Z" fill="#C4D9ED"/>
<path opacity="0.8" d="M388.383 458.387H396.623V447.177H388.383V458.387Z" fill="#C4D9ED"/>
<path opacity="0.8" d="M373.89 458.387H382.079V447.177H373.89V458.387Z" fill="#C4D9ED"/>
</g>
</g>
<g opacity="0.8">
<g opacity="0.8">
<path opacity="0.8" d="M358.724 458.387H366.964V447.177H358.724V458.387Z" fill="#C4D9ED"/>
<path opacity="0.8" d="M343.381 458.387H351.621V447.177H343.381V458.387Z" fill="#C4D9ED"/>
<path opacity="0.8" d="M328.377 458.387H336.617V447.177H328.377V458.387Z" fill="#C4D9ED"/>
<path opacity="0.8" d="M314.131 458.387H322.37V447.177H314.131V458.387Z" fill="#C4D9ED"/>
<path opacity="0.8" d="M299.637 458.387H307.827V447.177H299.637V458.387Z" fill="#C4D9ED"/>
</g>
<g opacity="0.8">
<path opacity="0.8" d="M284.911 458.387H293.15V447.177H284.911V458.387Z" fill="#C4D9ED"/>
<path opacity="0.8" d="M269.618 458.387H277.808V447.177H269.618V458.387Z" fill="#C4D9ED"/>
<path opacity="0.8" d="M254.563 458.387H262.803V447.177H254.563V458.387Z" fill="#C4D9ED"/>
<path opacity="0.8" d="M240.317 458.387H248.556V447.177H240.317V458.387Z" fill="#C4D9ED"/>
</g>
</g>
</g>
<g opacity="0.8">
<g opacity="0.8">
<g opacity="0.8">
<path opacity="0.8" d="M506.84 477.895H515.03V466.685H506.84V477.895Z" fill="#C4D9ED"/>
<path opacity="0.8" d="M491.448 477.895H499.688V466.685H491.448V477.895Z" fill="#C4D9ED"/>
<path opacity="0.8" d="M476.443 477.895H484.683V466.685H476.443V477.895Z" fill="#C4D9ED"/>
<path opacity="0.8" d="M462.246 477.895H470.436V466.685H462.246V477.895Z" fill="#C4D9ED"/>
<path opacity="0.8" d="M447.653 477.895H455.892V466.685H447.653V477.895Z" fill="#C4D9ED"/>
</g>
<g opacity="0.8">
<path opacity="0.8" d="M432.977 477.895H441.217V466.685H432.977V477.895Z" fill="#C4D9ED"/>
<path opacity="0.8" d="M417.634 477.895H425.874V466.685H417.634V477.895Z" fill="#C4D9ED"/>
<path opacity="0.8" d="M402.629 477.895H410.869V466.685H402.629V477.895Z" fill="#C4D9ED"/>
<path opacity="0.8" d="M388.383 477.895H396.623V466.685H388.383V477.895Z" fill="#C4D9ED"/>
<path opacity="0.8" d="M373.89 477.895H382.079V466.685H373.89V477.895Z" fill="#C4D9ED"/>
</g>
</g>
<g opacity="0.8">
<g opacity="0.8">
<path opacity="0.8" d="M358.725 477.895H366.964V466.685H358.725V477.895Z" fill="#C4D9ED"/>
<path opacity="0.8" d="M343.381 477.895H351.621V466.685H343.381V477.895Z" fill="#C4D9ED"/>
<path opacity="0.8" d="M328.377 477.895H336.617V466.685H328.377V477.895Z" fill="#C4D9ED"/>
<path opacity="0.8" d="M314.131 477.895H322.371V466.685H314.131V477.895Z" fill="#C4D9ED"/>
<path opacity="0.8" d="M299.637 477.895H307.827V466.685H299.637V477.895Z" fill="#C4D9ED"/>
</g>
<g opacity="0.8">
<path opacity="0.8" d="M284.911 477.895H293.15V466.685H284.911V477.895Z" fill="#C4D9ED"/>
<path opacity="0.8" d="M269.618 477.895H277.808V466.685H269.618V477.895Z" fill="#C4D9ED"/>
<path opacity="0.8" d="M254.563 477.895H262.803V466.685H254.563V477.895Z" fill="#C4D9ED"/>
<path opacity="0.8" d="M240.317 477.895H248.556V466.685H240.317V477.895Z" fill="#C4D9ED"/>
</g>
</g>
</g>
</g>
</g>
<path d="M382.224 601.145H572.637V501.757H382.224V601.145Z" fill="#C4D9ED"/>
<path d="M526.609 601.168H717.022V551.498H526.609V601.168Z" fill="#C4D9ED"/>
<path d="M366.973 517.23V601.109H277.035C276.985 600.964 276.886 600.819 276.786 600.674C276.636 600.432 276.486 600.142 276.286 599.804C276.236 599.708 276.136 599.563 276.086 599.466C275.837 599.031 275.537 598.5 275.238 597.92C274.838 597.243 274.389 596.422 273.889 595.552C272.091 592.267 269.645 587.677 266.898 581.975C265.999 580.091 265.05 578.11 264.101 576.032C263.702 575.211 263.352 574.341 262.953 573.471C262.553 572.65 262.204 571.78 261.804 570.862C261.804 570.814 261.754 570.814 261.754 570.766C261.505 570.138 261.205 569.558 260.955 568.93C260.656 568.301 260.406 567.625 260.106 566.997C258.708 563.615 257.26 560.039 255.812 556.271C255.762 556.174 255.712 556.077 255.712 555.981C254.763 553.517 253.814 550.956 252.915 548.347C252.416 546.897 251.917 545.448 251.367 543.95C251.317 543.853 251.317 543.757 251.267 543.66C251.068 542.983 250.818 542.355 250.618 541.679C250.418 541.099 250.269 540.568 250.069 539.988C249.669 538.828 249.32 537.62 248.92 536.461C248.421 534.914 247.972 533.368 247.472 531.822C246.823 529.696 246.224 527.522 245.624 525.299C245.425 524.623 245.275 523.995 245.075 523.318C244.526 521.337 244.026 519.308 243.527 517.279H366.973V517.23Z" fill="#C4D9ED"/>
<path d="M524.447 531.801H559.903V513.392H524.447V531.801Z" fill="#D5E7F7"/>
<path d="M478.916 531.801H514.372V513.392H478.916V531.801Z" fill="#D5E7F7"/>
<path d="M434.271 531.801H469.727V513.392H434.271V531.801Z" fill="#D5E7F7"/>
<path d="M390.446 531.801H425.901V513.392H390.446V531.801Z" fill="#D5E7F7"/>
<path d="M365.97 602H384.247V501.742H365.97V602Z" fill="#ADC9E0"/>
<path d="M659.56 332.184H660.559V324.405H659.56V332.184Z" fill="#DCEAF9"/>
<path d="M624 332.184H624.999V324.405H624V332.184Z" fill="#DCEAF9"/>
<path d="M236.985 482.102C237.435 485.725 237.934 489.349 238.533 492.876C239.133 496.693 239.832 500.462 240.581 504.182C241.28 507.565 241.979 510.85 242.728 514.087C242.828 514.474 242.928 514.909 243.028 515.295C243.178 515.972 243.327 516.6 243.527 517.276C244.027 519.306 244.576 521.335 245.075 523.316C245.275 523.992 245.425 524.669 245.625 525.297C246.224 527.519 246.823 529.694 247.472 531.82C247.922 533.414 248.421 534.96 248.92 536.458C249.32 537.666 249.67 538.826 250.069 539.985C250.269 540.565 250.419 541.097 250.618 541.676C250.818 542.353 251.068 543.029 251.268 543.657C251.317 543.754 251.317 543.851 251.367 543.947C251.867 545.445 252.366 546.895 252.915 548.344C253.864 550.953 254.763 553.514 255.712 555.978C255.762 556.075 255.812 556.171 255.812 556.268C257.26 560.037 258.708 563.612 260.106 566.994C260.406 567.671 260.656 568.299 260.955 568.927C261.205 569.555 261.505 570.183 261.754 570.763C261.754 570.811 261.804 570.811 261.804 570.86V482.102H236.985Z" fill="#D5E7F7"/>
<path d="M261.754 515.297V570.91C261.754 570.861 261.704 570.861 261.704 570.813C261.455 570.185 261.155 569.605 260.905 568.977C260.606 568.349 260.356 567.672 260.056 567.044C258.658 563.662 257.21 560.087 255.762 556.318C255.712 556.221 255.662 556.125 255.662 556.028C254.713 553.564 253.764 551.003 252.865 548.394C252.366 546.944 251.867 545.495 251.317 543.997C251.267 543.9 251.267 543.804 251.217 543.707C251.018 543.031 250.768 542.403 250.568 541.726C250.368 541.146 250.219 540.615 250.019 540.035C249.619 538.876 249.27 537.668 248.87 536.508C248.371 534.962 247.921 533.416 247.422 531.87C246.773 529.744 246.174 527.569 245.574 525.347C245.375 524.67 245.225 524.042 245.025 523.366C244.476 521.385 243.976 519.356 243.477 517.326C243.327 516.65 243.127 516.022 242.978 515.345H261.754V515.297Z" fill="#D5E7F7"/>
<path d="M261.754 504.137V531.774H247.472C246.823 529.648 246.224 527.474 245.624 525.251C245.425 524.575 245.275 523.947 245.075 523.27C244.526 521.289 244.026 519.26 243.527 517.231C243.377 516.554 243.178 515.926 243.028 515.25C242.928 514.863 242.828 514.428 242.728 514.042C241.979 510.804 241.23 507.519 240.581 504.137H261.754Z" fill="#C4D9ED"/>
<path d="M252.865 539.988V548.347C252.366 546.898 251.867 545.448 251.317 543.95C251.267 543.854 251.267 543.757 251.217 543.66C251.018 542.984 250.768 542.356 250.568 541.679C250.368 541.1 250.219 540.568 250.019 539.988H252.865Z" fill="#C4D9ED"/>
<path d="M246.151 521.387H251.794V511.965H246.151V521.387Z" fill="#ADC9E0"/>
<path d="M680.977 600.32H811.714V515.234H680.977V600.32Z" fill="#D5E7F7"/>
<path d="M680.977 531.785H811.714V504.148H680.977V531.785Z" fill="#C4D9ED"/>
<path d="M796.131 549.176H802.823V539.995H796.131V549.176Z" fill="#C4D9ED"/>
<path d="M783.555 549.176H790.247V539.995H783.555V549.176Z" fill="#C4D9ED"/>
<path d="M771.29 549.176H777.982V539.995H771.29V549.176Z" fill="#C4D9ED"/>
<path d="M759.649 549.176H766.341V539.995H759.649V549.176Z" fill="#C4D9ED"/>
<path d="M747.812 549.176H754.504V539.995H747.812V549.176Z" fill="#C4D9ED"/>
<path d="M735.802 549.176H742.494V539.995H735.802V549.176Z" fill="#C4D9ED"/>
<path d="M723.225 549.176H729.917V539.995H723.225V549.176Z" fill="#C4D9ED"/>
<path d="M710.961 549.176H717.652V539.995H710.961V549.176Z" fill="#C4D9ED"/>
<path d="M699.32 549.176H706.011V539.995H699.32V549.176Z" fill="#C4D9ED"/>
<path d="M687.482 549.176H694.173V539.995H687.482V549.176Z" fill="#C4D9ED"/>
<path d="M796.131 565.305H802.823V556.125H796.131V565.305Z" fill="#C4D9ED"/>
<path d="M783.555 565.305H790.247V556.125H783.555V565.305Z" fill="#C4D9ED"/>
<path d="M771.29 565.305H777.982V556.125H771.29V565.305Z" fill="#C4D9ED"/>
<path d="M759.649 565.305H766.341V556.125H759.649V565.305Z" fill="#C4D9ED"/>
<path d="M747.812 565.305H754.504V556.125H747.812V565.305Z" fill="#C4D9ED"/>
<path d="M735.802 565.305H742.494V556.124H735.802V565.305Z" fill="#C4D9ED"/>
<path d="M723.225 565.305H729.917V556.124H723.225V565.305Z" fill="#C4D9ED"/>
<path d="M710.961 565.305H717.652V556.124H710.961V565.305Z" fill="#C4D9ED"/>
<path d="M699.32 565.305H706.011V556.124H699.32V565.305Z" fill="#C4D9ED"/>
<path d="M687.482 565.305H694.173V556.124H687.482V565.305Z" fill="#C4D9ED"/>
<path d="M796.131 581.23H802.823V572.05H796.131V581.23Z" fill="#C4D9ED"/>
<path d="M783.555 581.23H790.247V572.05H783.555V581.23Z" fill="#C4D9ED"/>
<path d="M771.29 581.23H777.982V572.05H771.29V581.23Z" fill="#C4D9ED"/>
<path d="M759.649 581.23H766.341V572.05H759.649V581.23Z" fill="#C4D9ED"/>
<path d="M747.812 581.23H754.504V572.05H747.812V581.23Z" fill="#C4D9ED"/>
<path d="M735.802 581.23H742.494V572.05H735.802V581.23Z" fill="#C4D9ED"/>
<path d="M723.225 581.23H729.917V572.05H723.225V581.23Z" fill="#C4D9ED"/>
<path d="M710.961 581.23H717.652V572.05H710.961V581.23Z" fill="#C4D9ED"/>
<path d="M699.32 581.23H706.011V572.05H699.32V581.23Z" fill="#C4D9ED"/>
<path d="M687.482 581.23H694.173V572.05H687.482V581.23Z" fill="#C4D9ED"/>
<path d="M796.107 521.387H801.75V511.965H796.107V521.387Z" fill="#ADC9E0"/>
<path d="M740.061 521.387H745.704V511.965H740.061V521.387Z" fill="#ADC9E0"/>
<path d="M695.538 521.387H701.181V511.965H695.538V521.387Z" fill="#ADC9E0"/>
<path d="M819.937 600.32H950.674V515.234H819.937V600.32Z" fill="#D5E7F7"/>
<path d="M819.937 531.785H950.674V504.148H819.937V531.785Z" fill="#C4D9ED"/>
<path d="M935.042 549.176H941.734V539.995H935.042V549.176Z" fill="#C4D9ED"/>
<path d="M922.515 549.176H929.207V539.995H922.515V549.176Z" fill="#C4D9ED"/>
<path d="M910.25 549.176H916.943V539.995H910.25V549.176Z" fill="#C4D9ED"/>
<path d="M898.61 549.176H905.301V539.995H898.61V549.176Z" fill="#C4D9ED"/>
<path d="M886.721 549.176H893.412V539.995H886.721V549.176Z" fill="#C4D9ED"/>
<path d="M874.762 549.176H881.454V539.995H874.762V549.176Z" fill="#C4D9ED"/>
<path d="M862.185 549.176H868.877V539.995H862.185V549.176Z" fill="#C4D9ED"/>
<path d="M849.92 549.176H856.612V539.995H849.92V549.176Z" fill="#C4D9ED"/>
<path d="M838.279 549.176H844.971V539.995H838.279V549.176Z" fill="#C4D9ED"/>
<path d="M826.392 549.176H833.084V539.995H826.392V549.176Z" fill="#C4D9ED"/>
<path d="M935.042 565.305H941.734V556.125H935.042V565.305Z" fill="#C4D9ED"/>
<path d="M922.515 565.305H929.207V556.125H922.515V565.305Z" fill="#C4D9ED"/>
<path d="M910.251 565.305H916.943V556.125H910.251V565.305Z" fill="#C4D9ED"/>
<path d="M898.61 565.305H905.302V556.125H898.61V565.305Z" fill="#C4D9ED"/>
<path d="M886.721 565.305H893.413V556.125H886.721V565.305Z" fill="#C4D9ED"/>
<path d="M874.762 565.305H881.454V556.125H874.762V565.305Z" fill="#C4D9ED"/>
<path d="M862.185 565.305H868.877V556.125H862.185V565.305Z" fill="#C4D9ED"/>
<path d="M849.921 565.305H856.612V556.125H849.921V565.305Z" fill="#C4D9ED"/>
<path d="M838.28 565.305H844.971V556.125H838.28V565.305Z" fill="#C4D9ED"/>
<path d="M826.392 565.305H833.084V556.125H826.392V565.305Z" fill="#C4D9ED"/>
<path d="M935.042 581.23H941.734V572.05H935.042V581.23Z" fill="#C4D9ED"/>
<path d="M922.515 581.23H929.207V572.05H922.515V581.23Z" fill="#C4D9ED"/>
<path d="M910.251 581.23H916.943V572.05H910.251V581.23Z" fill="#C4D9ED"/>
<path d="M898.61 581.23H905.302V572.05H898.61V581.23Z" fill="#C4D9ED"/>
<path d="M886.721 581.23H893.413V572.05H886.721V581.23Z" fill="#C4D9ED"/>
<path d="M874.762 581.23H881.454V572.05H874.762V581.23Z" fill="#C4D9ED"/>
<path d="M862.185 581.23H868.877V572.05H862.185V581.23Z" fill="#C4D9ED"/>
<path d="M849.921 581.23H856.612V572.05H849.921V581.23Z" fill="#C4D9ED"/>
<path d="M838.28 581.23H844.971V572.05H838.28V581.23Z" fill="#C4D9ED"/>
<path d="M826.392 581.23H833.084V572.05H826.392V581.23Z" fill="#C4D9ED"/>
<path d="M935.018 521.387H940.661V511.965H935.018V521.387Z" fill="#ADC9E0"/>
<path d="M879.021 521.387H884.664V511.965H879.021V521.387Z" fill="#ADC9E0"/>
<path d="M834.449 521.387H840.091V511.965H834.449V521.387Z" fill="#ADC9E0"/>
</g>
<path d="M2475.48 683.483C2421.43 781.728 2046.75 744.641 1953.41 693.287C1860.08 641.934 2017.73 530.122 2071.79 431.877C2125.84 333.631 2205.99 267.655 2299.33 319.009C2392.66 370.362 2529.54 585.238 2475.48 683.483Z" fill="url(#paint0_linear)" fill-opacity="0.9"/>
<path fill-rule="evenodd" clip-rule="evenodd" d="M1009.42 436.982C1009.42 440.747 1006.37 443.8 1002.6 443.8C998.835 443.8 995.783 440.748 995.783 436.982C995.783 433.216 998.835 430.164 1002.6 430.164C1006.37 430.164 1009.42 433.216 1009.42 436.982Z" fill="url(#paint1_linear)"/>
<path fill-rule="evenodd" clip-rule="evenodd" d="M872.964 633.41C838.49 628.319 816.655 617.602 814.181 595.526C813.244 587.162 816.013 574.275 820.749 560.167C823.016 553.417 825.734 546.381 828.712 539.432C829.55 537.476 830.407 535.53 831.282 533.595C835.346 524.606 839.761 515.935 844.105 508.383C844.758 507.245 845.412 506.131 846.061 505.047C849.967 498.529 853.759 493.032 857.124 489.153C858.703 487.331 860.341 485.608 862.031 483.983C866.202 479.972 870.708 476.539 875.552 473.593C875.973 473.336 876.395 473.084 876.821 472.834C880.118 470.91 883.57 469.201 887.172 467.683C890.074 466.46 893.073 465.361 896.172 464.372C899.924 463.175 903.818 462.138 907.856 461.236C908.542 461.084 909.231 460.934 909.924 460.789C912.79 460.19 915.722 459.656 918.728 459.177C927.963 457.706 937.865 456.767 948.43 456.108L943.26 457.432C940.428 458.158 939.135 461.44 940.714 463.9C944.331 469.541 950.69 479.1 957.775 488.134L932.161 486.895L910.427 490.792L906.624 491.474L872.964 497.507V633.41ZM1097.24 630.567V494.879L1009.54 490.636C1017.95 480.073 1025.61 468.028 1029.55 461.572C1031 459.199 1029.83 456.099 1027.19 455.254L1022.89 453.887C1022.99 453.887 1023.1 453.887 1023.2 453.887C1041.07 453.887 1056.3 454.785 1069.68 457.927C1080.93 460.568 1090.86 464.794 1099.95 471.408C1102 472.902 1104.01 474.519 1105.99 476.265C1114.59 483.886 1123.43 498.908 1130.77 516.321C1134.15 524.339 1137.21 532.866 1139.79 541.406C1143.98 555.332 1146.88 569.304 1147.74 581.192C1148.6 593.226 1147.38 603.127 1143.31 608.691C1135.87 618.856 1121.6 625.942 1097.24 630.567L1097.24 630.567Z" fill="url(#paint2_linear)"/>
<path fill-rule="evenodd" clip-rule="evenodd" d="M1009.54 490.637L957.775 488.135C950.69 479.101 944.331 469.542 940.714 463.901C939.135 461.441 940.428 458.159 943.26 457.433L948.43 456.109L954.814 454.475C958.361 453.566 961.981 452.961 965.631 452.664L972.494 452.107L997.224 450.103C998.73 449.982 1000.24 449.922 1001.74 449.922C1007.49 449.922 1013.21 450.807 1018.71 452.557L1022.89 453.887L1027.19 455.255C1029.83 456.099 1031 459.199 1029.55 461.573C1025.61 468.028 1017.95 480.074 1009.54 490.637V490.637Z" fill="url(#paint3_linear)"/>
<path d="M963.391 409.602C963.391 409.602 969.741 455.291 960.959 459.654L985.959 486.895L1011.28 454.627C1011.28 454.627 1001.71 447.417 1004.23 409.602H963.391Z" fill="#6165D7"/>
<path d="M966.637 418.98C966.637 418.98 977.631 439.39 1001.7 439.111C1023.26 438.859 1028.97 390.86 1015.8 379.906C1011.41 376.252 1002.32 374.346 994.751 376.036C990.283 377.035 988.694 378.785 981.361 380.273C974.598 381.649 966.588 379.568 964.485 381.154C961.853 383.142 965.895 389.479 969.348 403.784C965.472 399.417 960.639 397.562 957.066 399.02C956.495 399.255 954.968 400.18 954.056 401.656C950.759 406.996 955.411 414.292 966.637 418.98Z" fill="#6165D7"/>
<path fill-rule="evenodd" clip-rule="evenodd" d="M969.832 379.461C970.826 380.289 967.454 383.984 966.927 389.441C965.899 400.035 975.965 413.353 986.872 415.02C993.319 416.003 995.31 412.193 1006.08 411.632C1012.76 411.286 1018.23 412.425 1021.67 413.37C1024.41 425.194 1020.62 436.634 1012.55 441.605C1003.86 446.957 993.348 442.867 988.95 441.158C986.01 440.013 976.584 436.368 972.04 427.302C967.305 417.854 972.728 412.602 967.065 406.082C964.208 402.792 960.31 401.227 956.768 394.965C955.806 393.264 955.184 391.77 954.807 390.769C960.663 385.193 968.391 378.262 969.832 379.461V379.461Z" fill="url(#paint4_linear)"/>
<path fill-rule="evenodd" clip-rule="evenodd" d="M952.407 385.477C952.407 385.477 953.417 394.905 958.121 392.344C975.455 382.909 1009.64 373.554 1019.73 383.631C1019.73 383.631 1025.18 339.092 982.424 342.151C964.721 343.418 956.057 352.305 951.882 361.688C946.79 373.136 952.407 385.477 952.407 385.477L952.407 385.477Z" fill="#EF7F1A"/>
<path fill-rule="evenodd" clip-rule="evenodd" d="M967.204 387.679C966.122 387.979 982.442 375.151 982.442 375.151C982.442 375.151 998.232 363.863 1027.07 369.391C1041.46 372.15 1019.54 383.629 1019.54 383.629C1019.54 383.629 1015.54 374.258 967.204 387.678V387.679Z" fill="#F5B2B6"/>
<path fill-rule="evenodd" clip-rule="evenodd" d="M932 666L870 653.751V498.426L883.266 495.981L905.254 491.929L883.266 495.981V495.981V521.654L909.236 518.758V491.195L932 487V666Z" fill="url(#paint5_linear)"/>
<path fill-rule="evenodd" clip-rule="evenodd" d="M864.001 633C864.001 633 863.697 605.654 876.827 598.022C889.956 590.391 905.643 591.662 909.416 591.027C913.186 590.391 897.575 600.884 895.006 614.239C892.439 627.594 877.434 630.456 864.001 633V633Z" fill="#6165D7"/>
<path fill-rule="evenodd" clip-rule="evenodd" d="M932 487L1097 495.645L1096.29 669L932 667.021V487Z" fill="#FFCC00"/>
<path fill-rule="evenodd" clip-rule="evenodd" d="M1029.27 517.643L985.079 515.713V489.723L1029.27 492.396V517.643Z" fill="white"/>
<path d="M2024.8 557.064L1912.95 559.055L1914.49 645.09L2026.4 643.098L2024.8 557.064Z" fill="#DB6161"/>
<path d="M2020.73 560.083L1895.23 562.316L1896.71 645.406L2022.23 643.173L2020.73 560.083Z" fill="#233862"/>
<path d="M1961.38 644.255L1976.85 643.98L1976.57 628.104L1961.1 628.379L1961.38 644.255Z" fill="#E69D43"/>
<path d="M1961.38 644.255L1976.85 643.98L1976.57 628.104L1973.1 628.165L1961.38 644.255Z" fill="#E78B37"/>
<path d="M1976.2 643.993L1985.56 643.827L1985.28 627.951L1975.92 628.117L1976.2 643.993Z" fill="#D57912"/>
<path d="M1960.28 628.61L1985.93 628.154L1985.57 607.989L1959.93 608.445L1960.28 628.61Z" fill="#E69D43"/>
<path d="M1960.28 628.61L1985.93 628.154L1985.57 607.989L1980.76 608.074L1960.28 628.61Z" fill="#E78B37"/>
<path d="M1985.29 628.165L1992.37 628.039L1992.01 607.874L1984.93 608L1985.29 628.165Z" fill="#D57912"/>
<path d="M1852.75 652.197L1819.72 652.785C1818.92 652.799 1818.25 652.146 1818.24 651.334L1818 638.146C1817.99 637.333 1818.63 636.656 1819.44 636.642L1852.46 636.054C1853.26 636.04 1853.93 636.693 1853.95 637.506L1854.18 650.694C1854.19 651.506 1853.55 652.183 1852.75 652.197Z" fill="#B65615"/>
<path d="M1943.19 655.921C1943.05 647.865 1949.38 641.217 1957.34 641.076C1965.29 640.934 1971.86 647.352 1972 655.408C1972.15 663.467 1965.81 670.113 1957.86 670.255C1949.9 670.396 1943.33 663.98 1943.19 655.921Z" fill="#233862"/>
<path d="M1991.28 655.066C1991.13 647.009 1997.47 640.362 2005.42 640.22C2013.38 640.078 2019.95 646.496 2020.09 654.553C2020.23 662.611 2013.9 669.257 2005.94 669.399C1997.99 669.541 1991.42 663.124 1991.28 655.066Z" fill="#233862"/>
<path d="M1815.95 658.187C1815.81 650.13 1822.14 643.483 1830.1 643.341C1838.06 643.2 1844.62 649.618 1844.77 657.674C1844.91 665.733 1838.58 672.379 1830.62 672.52C1822.66 672.662 1816.1 666.245 1815.95 658.187Z" fill="#233862"/>
<path d="M1823.09 658.058C1823.02 653.991 1826.21 650.637 1830.23 650.566C1834.25 650.494 1837.56 653.733 1837.63 657.799C1837.7 661.866 1834.51 665.22 1830.49 665.291C1826.48 665.363 1823.16 662.125 1823.09 658.058Z" fill="#F59040"/>
<path d="M1835.1 652.35C1835.53 653.262 1835.78 654.278 1835.79 655.353C1835.87 659.42 1832.67 662.774 1828.65 662.846C1826.79 662.879 1825.09 662.201 1823.78 661.062C1824.96 663.604 1827.54 665.344 1830.49 665.292C1834.51 665.22 1837.7 661.866 1837.63 657.8C1837.59 655.616 1836.62 653.672 1835.1 652.351L1835.1 652.35Z" fill="#D36E2A"/>
<path d="M1828.11 657.97C1828.08 656.709 1829.07 655.67 1830.32 655.647C1831.56 655.625 1832.59 656.629 1832.61 657.889C1832.64 659.15 1831.65 660.19 1830.4 660.212C1829.16 660.234 1828.13 659.23 1828.11 657.97Z" fill="#B65615"/>
<path d="M1825.72 661.926C1825.71 661.438 1826.1 661.036 1826.58 661.027C1827.06 661.019 1827.46 661.407 1827.47 661.895C1827.48 662.384 1827.09 662.786 1826.61 662.795C1826.13 662.803 1825.73 662.415 1825.72 661.926Z" fill="#B65615"/>
<path d="M1824.59 655.378C1824.58 654.891 1824.96 654.489 1825.44 654.481C1825.93 654.472 1826.32 654.86 1826.33 655.347C1826.34 655.836 1825.96 656.238 1825.47 656.246C1824.99 656.255 1824.6 655.867 1824.59 655.378Z" fill="#B65615"/>
<path d="M1834.19 655.21C1834.18 654.723 1834.56 654.321 1835.04 654.313C1835.52 654.304 1835.92 654.692 1835.93 655.179C1835.94 655.668 1835.56 656.07 1835.07 656.078C1834.59 656.087 1834.19 655.699 1834.19 655.21Z" fill="#B65615"/>
<path d="M1833.58 661.786C1833.57 661.298 1833.95 660.895 1834.43 660.887C1834.91 660.878 1835.31 661.267 1835.32 661.755C1835.33 662.243 1834.94 662.645 1834.46 662.654C1833.98 662.663 1833.58 662.274 1833.58 661.786Z" fill="#B65615"/>
<path d="M1829.39 652.317C1829.38 651.829 1829.76 651.427 1830.24 651.418C1830.73 651.409 1831.12 651.798 1831.13 652.286C1831.14 652.774 1830.76 653.177 1830.28 653.185C1829.79 653.194 1829.4 652.806 1829.39 652.317Z" fill="#B65615"/>
<path d="M1950.06 655.8C1949.98 651.734 1953.18 648.38 1957.2 648.308C1961.21 648.237 1964.53 651.475 1964.6 655.541C1964.67 659.608 1961.47 662.962 1957.46 663.034C1953.44 663.105 1950.13 659.867 1950.06 655.8Z" fill="#D36E2A"/>
<path d="M1955.07 655.708C1955.05 654.448 1956.04 653.408 1957.29 653.386C1958.53 653.364 1959.56 654.367 1959.58 655.628C1959.61 656.888 1958.61 657.928 1957.37 657.95C1956.12 657.973 1955.1 656.969 1955.07 655.708Z" fill="#B65615"/>
<path d="M1952.69 659.665C1952.68 659.176 1953.06 658.774 1953.55 658.766C1954.03 658.757 1954.43 659.145 1954.43 659.634C1954.44 660.122 1954.06 660.524 1953.58 660.533C1953.1 660.541 1952.7 660.153 1952.69 659.665Z" fill="#B65615"/>
<path d="M1952.25 653.109C1952.24 652.622 1952.62 652.22 1953.1 652.211C1953.58 652.202 1953.98 652.591 1953.99 653.078C1954 653.566 1953.62 653.968 1953.13 653.977C1952.65 653.985 1952.25 653.597 1952.25 653.109Z" fill="#B65615"/>
<path d="M1960.54 659.524C1960.53 659.036 1960.92 658.634 1961.4 658.625C1961.88 658.617 1962.28 659.005 1962.29 659.493C1962.3 659.981 1961.91 660.384 1961.43 660.392C1960.95 660.401 1960.55 660.013 1960.54 659.524Z" fill="#B65615"/>
<path d="M1951.89 650.137C1951.88 649.649 1952.26 649.247 1952.74 649.238C1953.22 649.23 1953.62 649.618 1953.63 650.106C1953.64 650.595 1953.25 650.997 1952.77 651.005C1952.29 651.014 1951.89 650.626 1951.89 650.137Z" fill="#B65615"/>
<path d="M1864.2 657.328C1864.06 649.271 1870.39 642.623 1878.35 642.482C1886.31 642.34 1892.87 648.758 1893.02 656.815C1893.16 664.873 1886.83 671.519 1878.87 671.661C1870.91 671.802 1864.35 665.386 1864.2 657.328Z" fill="#233862"/>
<path d="M1828.8 579.156C1828.8 579.156 1830.77 567.078 1847.26 566.785L1847.74 579.7L1828.8 579.156L1828.8 579.156Z" fill="#D57912"/>
<path d="M1875.82 632.889L1813.25 634.003L1817.7 591.113C1818.42 584.142 1824.16 578.812 1831.09 578.689L1874.84 577.91L1875.82 632.889L1875.82 632.889Z" fill="#E69D43"/>
<path d="M1838.99 607.376L1821.44 607.688L1823.46 590.747C1823.88 587.259 1826.77 584.617 1830.24 584.555L1839.12 584.397L1838.99 607.376L1838.99 607.376Z" fill="#D57912"/>
<path d="M1837.67 606.127L1826.11 606.332C1824.37 606.363 1823 604.833 1823.2 603.079L1824.52 591.359C1824.87 588.264 1827.32 585.921 1830.25 585.869L1837.76 585.735L1837.67 606.127L1837.67 606.127Z" fill="#DCE7F9"/>
<path d="M1848.12 646.27L1968.47 644.128L1966.94 558.092L1846.59 560.234L1848.12 646.27Z" fill="#D15050"/>
<path d="M1963.7 640.952L1852.48 642.931L1851.07 563.422L1962.43 561.44L1963.58 625.719L1963.7 640.952Z" fill="#FFE26C"/>
<path d="M1851.43 633.322L1813.25 634.001C1809.9 634.288 1809.6 635.977 1809.6 635.977L1806.62 652.024C1806.63 652.57 1807.13 653.008 1807.74 652.997L1817.34 652.826C1817.95 652.816 1818.38 652.359 1818.62 651.785C1818.62 651.785 1820.07 649.911 1821.05 649.232C1823.5 647.53 1826.17 646.396 1830.15 646.325C1835.05 646.238 1839.4 647.738 1842.05 650.101L1851.73 649.928C1852.9 649.907 1853.84 649.272 1853.83 648.518L1853.58 634.656C1853.57 633.901 1852.6 633.301 1851.43 633.322L1851.43 633.322Z" fill="#D57912"/>
<path d="M1979.34 662.444L1967.24 662.66C1966.94 661.18 1966.39 659.882 1965.66 658.742C1961.89 652.871 1953.31 651.208 1948.43 650.74C1946.29 650.535 1944.86 650.559 1944.86 650.559L1965.66 650.188C1971.11 650.839 1974.5 653.783 1976.55 656.624C1978.68 659.591 1979.34 662.444 1979.34 662.444Z" fill="#D15050"/>
<path d="M2027.24 661.593L2015.14 661.808C2014.79 660.124 2014.13 658.674 2013.24 657.426C2007.57 649.454 1992.75 649.707 1992.75 649.707L2013.55 649.337C2018.11 649.881 2021.23 652.03 2023.33 654.38C2026.35 657.777 2027.24 661.593 2027.24 661.593Z" fill="#D15050"/>
<path d="M1976.55 656.624C1976.55 656.624 1968.55 655.064 1965.66 658.742C1961.89 652.87 1953.31 651.208 1948.43 650.74C1948.33 650.659 1948.23 650.579 1948.13 650.5L1965.66 650.188C1971.11 650.839 1974.5 653.783 1976.55 656.624Z" fill="#A03C37"/>
<path d="M2023.33 654.38L2023.33 654.381C2023.33 654.381 2016.66 654.348 2013.24 657.426C2007.57 649.454 1992.75 649.707 1992.75 649.707L2013.55 649.337C2018.11 649.881 2021.23 652.03 2023.33 654.38Z" fill="#A03C37"/>
<path d="M1851 654.57L2028.43 651.412C2029.32 651.396 2030.03 650.644 2030.02 649.742L2029.93 644.679C2029.91 643.777 2029.17 643.051 2028.28 643.067L1850.85 646.225C1849.96 646.241 1849.24 646.992 1849.26 647.894L1849.35 652.958C1849.37 653.86 1850.11 654.585 1851 654.57Z" fill="#A03C37"/>
<path d="M1954.71 664.961L1861.67 666.617C1859.23 666.661 1857.23 665.986 1857.21 665.115L1856.94 649.796C1856.93 648.927 1858.9 648.179 1861.34 648.136L1954.38 646.48C1956.82 646.437 1958.82 647.113 1958.84 647.982L1959.11 663.302C1959.13 664.172 1957.15 664.918 1954.71 664.961Z" fill="#A03C37"/>
<path d="M1963.85 640.949L1852.63 642.929L1851.07 563.422L1875.6 562.985C1882.01 581.04 1904.59 623.735 1963.58 625.912L1963.85 640.949Z" fill="#FFCC00"/>
<path d="M1813.78 599.536C1813.78 599.536 1812.37 608.075 1812.47 609.463C1812.57 610.85 1813.88 611.503 1814.86 611.486L1813.78 599.536L1813.78 599.536Z" fill="#B64C41"/>
<path d="M1818.74 611.417L1814.94 611.485C1814.38 611.495 1813.92 611.042 1813.91 610.478L1813.72 599.851C1813.71 599.287 1814.16 598.82 1814.71 598.81L1818.52 598.742C1819.07 598.733 1819.53 599.184 1819.54 599.747L1819.73 610.374C1819.74 610.938 1819.3 611.407 1818.74 611.417Z" fill="#D57912"/>
<path d="M1818.44 610.807L1815.43 610.86C1814.95 610.869 1814.56 610.484 1814.55 610.002L1814.38 600.402C1814.37 599.921 1814.75 599.52 1815.23 599.512L1818.24 599.458C1818.71 599.45 1819.11 599.836 1819.11 600.318L1819.28 609.918C1819.29 610.399 1818.91 610.798 1818.44 610.807Z" fill="#DCE7F9"/>
<path d="M1816.62 599.007C1816.51 599.009 1816.42 598.907 1816.42 598.78L1816.36 595.202L1816.36 595.172C1816.36 595.152 1816.56 593.111 1818.68 593.139C1820.62 593.166 1821.45 593.092 1821.46 593.09C1821.57 593.08 1821.66 593.175 1821.67 593.304C1821.68 593.431 1821.6 593.542 1821.49 593.552C1821.46 593.554 1820.63 593.628 1818.68 593.602C1816.97 593.58 1816.76 595.046 1816.74 595.21L1816.81 598.773C1816.81 598.9 1816.73 599.005 1816.62 599.007L1816.62 599.007Z" fill="#B64C41"/>
<path d="M1837.46 612.911L1833.92 612.974C1833.42 612.983 1833.01 612.578 1833 612.077C1832.99 611.575 1833.39 611.157 1833.89 611.148L1837.43 611.085C1837.92 611.076 1838.33 611.48 1838.34 611.982C1838.35 612.483 1837.95 612.902 1837.46 612.911Z" fill="#D57912"/>
<path d="M1981.4 643.791L1996.86 643.516L1996.58 627.858L1981.12 628.133L1981.4 643.791Z" fill="#E69D43"/>
<path d="M1981.4 643.9L1996.86 643.625L1996.58 627.858L1993.29 627.916L1981.33 640.339L1981.4 643.9Z" fill="#E78B37"/>
<path d="M1996.22 643.634L2003.3 643.508L2003.02 627.741L1995.94 627.867L1996.22 643.634Z" fill="#D57912"/>
<defs>
<linearGradient id="paint0_linear" x1="2366.56" y1="356.001" x2="1851.1" y2="605.654" gradientUnits="userSpaceOnUse">
<stop offset="0.163632" stop-color="#FFCC00"/>
<stop offset="1" stop-color="#FFCC00" stop-opacity="0"/>
</linearGradient>
<linearGradient id="paint1_linear" x1="898.573" y1="391.369" x2="1254.73" y2="547.537" gradientUnits="userSpaceOnUse">
<stop stop-color="#444B8C"/>
<stop offset="1" stop-color="#26264F"/>
</linearGradient>
<linearGradient id="paint2_linear" x1="930.994" y1="782.294" x2="962.497" y2="661.353" gradientUnits="userSpaceOnUse">
<stop stop-color="#FFCC00"/>
<stop offset="1" stop-color="#FFE26C"/>
</linearGradient>
<linearGradient id="paint3_linear" x1="983.177" y1="569.747" x2="985.96" y2="414.903" gradientUnits="userSpaceOnUse">
<stop stop-color="#311944"/>
<stop offset="0.560784" stop-color="#6F2B60"/>
<stop offset="1" stop-color="#A03976"/>
</linearGradient>
<linearGradient id="paint4_linear" x1="951.729" y1="485.869" x2="1011.29" y2="357.938" gradientUnits="userSpaceOnUse">
<stop stop-color="#311944"/>
<stop offset="1" stop-color="#6B3976"/>
</linearGradient>
<linearGradient id="paint5_linear" x1="827.77" y1="628.91" x2="942.974" y2="559.406" gradientUnits="userSpaceOnUse">
<stop stop-color="#FFC444"/>
<stop offset="0.309804" stop-color="#FBA94A"/>
<stop offset="1" stop-color="#F36F56"/>
</linearGradient>
</defs>
</svg>
