<svg width="2240" height="818" viewBox="0 0 2240 818" fill="none" xmlns="http://www.w3.org/2000/svg">
<path d="M143.453 347.923C81.7218 333.757 49.5771 99.7825 64.7798 33.5335C79.9825 -32.7155 163.731 41.6427 225.462 55.8087C287.193 69.9746 334.802 106.048 319.599 172.297C304.397 238.546 205.184 362.089 143.453 347.923Z" fill="#EBF3FA"/>
<path d="M997.15 645.195C902.98 590.173 885.937 521.844 950.923 382.58C992.859 292.711 1119.68 285.444 1187.01 340.311C1215.68 363.68 1285.82 440.164 1343.76 265.305C1411.49 60.9208 1805.22 208.98 1730.49 428.66C1684.82 562.905 1786.98 532.149 1776.2 645.195C1765.42 758.242 1091.32 700.218 997.15 645.195Z" fill="#EBF3FA"/>
<path d="M1576.92 449.258C1578.66 446.379 1578.09 444.665 1578.09 444.665C1578.09 444.665 1546.96 429.016 1543.9 427.861C1541.81 427.073 1518.6 414.23 1507.21 405.792C1501.55 401.6 1496.44 404.862 1490.48 408.117L1485.58 410.802C1479.66 414.034 1479.99 423.265 1486.15 426.399C1503.49 435.246 1530.87 443.422 1536.06 445.261C1548.96 449.842 1572.96 453.335 1572.96 453.335C1572.96 453.335 1575.43 451.735 1576.92 449.258V449.258Z" fill="#FFE26C"/>
<path d="M1676.96 459.927L1672.57 459.69C1672.57 459.69 1665.2 455.893 1660.27 463.456C1660.27 463.456 1658.47 466.729 1661.13 467.196C1663.79 467.655 1662.84 467.091 1666.57 467.827C1670.31 468.557 1674.05 467.499 1675.55 465.152L1678.16 463.384L1676.96 459.928L1676.96 459.927Z" fill="#FFB27D"/>
<path d="M1673.42 462.684C1672.81 459.58 1673.09 459.132 1673.09 459.132C1673.09 459.132 1701.29 447.764 1703.89 446.586C1706.49 445.403 1737.26 419.272 1737.26 419.272L1764.5 430.211C1764.5 430.211 1717.22 458.454 1710.58 461.319C1699.6 466.052 1675.35 466.685 1675.35 466.685C1675.35 466.685 1673.88 465.121 1673.42 462.684Z" fill="#FFE270"/>
<path d="M1701.88 485.47L1589.14 496.713L1576.92 373.871L1689.67 362.628L1701.88 485.47Z" fill="#D57912"/>
<path d="M1653.85 490.259L1571.35 498.492L1559.13 375.641L1641.63 367.417L1653.85 490.259Z" fill="#E69D43"/>
<path d="M1653.85 490.257L1571.35 498.49L1568.99 474.729L1627.97 368.779L1641.63 367.415L1653.85 490.257Z" fill="#E78B37"/>
<path d="M1582.71 609.712C1582.71 609.712 1586.47 614.924 1596.71 613.452C1596.71 613.452 1604.95 612.516 1606.27 616.72C1606.27 616.72 1595.45 621.994 1592.14 623.363C1589.65 624.394 1586.97 626.161 1585.06 627.542C1583.56 628.633 1581.44 628.228 1580.43 626.664C1579.96 625.935 1579.43 625.076 1578.85 624.074C1577.24 621.288 1573.73 612.474 1573.73 612.474L1582.71 609.712L1582.71 609.712Z" fill="#233862"/>
<path d="M1586.8 607.659C1586.8 607.659 1581.82 616.352 1572.87 613.659C1572.87 613.659 1555.94 596.183 1544.92 578.756C1541.34 573.101 1538.39 567.443 1536.85 562.399C1530.54 541.807 1510.91 509.956 1498 493.49L1535.88 484.346C1535.88 484.346 1544.94 509.123 1557.26 539.684C1566.14 561.704 1576.7 586.725 1586.8 607.66L1586.8 607.659Z" fill="#2B478B"/>
<path d="M1557.25 539.684L1544.92 578.756C1541.34 573.101 1538.39 567.443 1536.85 562.399C1530.54 541.807 1510.91 509.956 1498 493.49L1535.88 484.346C1535.88 484.346 1544.94 509.123 1557.25 539.684L1557.25 539.684Z" fill="#233862"/>
<path d="M1519.54 608.072C1519.54 608.072 1518.33 615.321 1527.05 617.266C1527.05 617.266 1532.37 617.971 1531.87 622.608L1505.92 619.73C1505.92 619.73 1505.39 617.779 1505.65 613.748C1505.85 610.655 1509.87 602.956 1509.87 602.956L1519.54 608.072Z" fill="#233862"/>
<path d="M1523.94 483.021C1523.94 483.021 1538.18 502.657 1544.91 535.935C1548.57 554.047 1527.83 596.244 1523.04 611.175C1523.04 611.175 1512.28 610.896 1505.32 607.273C1505.32 607.273 1508.27 575.67 1515.22 551.826C1519.11 538.482 1497.09 520.348 1489.44 494.608C1484.24 477.095 1492.8 478.338 1503.39 479.106L1523.93 483.021L1523.94 483.021Z" fill="#2B478B"/>
<path d="M1514.03 401.355C1504.44 405.458 1486.49 398.707 1486.49 398.707C1486.49 398.707 1494.94 390.95 1493.06 376.751L1499.75 381.137L1506.93 385.85C1506.93 385.85 1507.16 388.346 1507.02 392.768C1506.98 393.906 1506.91 395.178 1506.82 396.561C1511.29 398.48 1514.03 401.355 1514.03 401.355L1514.03 401.355Z" fill="#FFB07B"/>
<path d="M1538.4 483.689C1538.23 485.277 1536.32 485.837 1535.92 485.871C1532.2 486.13 1521.6 488.963 1512.34 488.85C1504.54 488.808 1497.47 487.244 1489.78 484.79C1488.76 484.463 1486.39 483.536 1486.33 482.52C1486.23 481.403 1462.81 417.714 1489.1 394.387C1489.72 393.842 1494.22 395.447 1498.33 396.919C1502.13 398.278 1505.77 398.158 1509.11 397.23L1512.84 399.757C1517.41 403.016 1525.54 413.677 1525.78 421.363C1525.91 425.271 1527.79 428.367 1528.05 431.818C1528.14 433.101 1528.25 434.349 1528.36 435.569C1528.58 437.958 1528.83 440.236 1529.1 442.41C1529.85 448.288 1530.76 453.375 1531.71 457.79C1532.73 462.475 1533.8 466.403 1534.78 469.691C1536.06 473.962 1537.18 477.167 1537.83 479.603C1538.29 481.32 1538.52 482.646 1538.4 483.69L1538.4 483.689Z" fill="#FFCC00"/>
<path d="M1537.83 479.602C1497.55 454.842 1487.09 414.721 1487.09 414.721C1487.09 414.721 1520.08 429.783 1528.23 434.046C1528.45 436.436 1528.83 440.236 1529.1 442.41C1529.85 448.288 1530.76 453.375 1531.71 457.79C1532.73 462.475 1533.8 466.403 1534.78 469.691C1536.06 473.962 1537.18 477.166 1537.83 479.603L1537.83 479.602Z" fill="#FFCC00"/>
<path d="M1563.88 383.569L1565.12 379.827C1565.12 379.827 1559.65 372.598 1568.01 367.71C1568.01 367.71 1571.68 365.929 1572.57 368.544C1573.46 371.151 1572.67 370.219 1574.03 373.885C1575.37 377.556 1574.6 381.245 1572 382.727L1570.24 385.297L1563.88 383.569V383.569Z" fill="#FFB07B"/>
<path d="M1507.02 392.768C1498.08 392.284 1493.12 384.31 1493.12 384.31C1493.12 384.31 1497.38 382.533 1499.75 381.137L1506.93 385.85C1506.93 385.85 1507.16 388.346 1507.02 392.768Z" fill="#EA8E50"/>
<path d="M1511.81 384.069C1511.81 384.069 1497.29 392.231 1492.34 383.109C1487.41 373.98 1482.2 368.895 1491.26 363.291C1500.32 357.694 1504.03 360.191 1506.42 362.835C1508.81 365.48 1515.45 381.707 1511.81 384.069V384.069Z" fill="#FFB07B"/>
<path d="M1508.69 355.341C1508.57 352.026 1507.73 349.612 1507.73 349.612C1507.73 349.612 1506.5 353.02 1500.17 351.831C1493.83 350.636 1483.58 350.626 1479.4 357.537C1479.13 357.979 1478.89 358.43 1478.66 358.897C1478.24 357.222 1478.36 354.785 1478.36 354.785C1476.79 357.783 1477.57 361.842 1477.57 361.842C1477.54 361.954 1477.51 362.065 1477.49 362.183C1475.94 363.219 1474.35 366.794 1474.35 366.794C1474.89 365.804 1476 365.248 1476.97 364.934C1476.31 370.597 1478 376.394 1481.85 378.494C1487.47 381.562 1487.63 379.713 1493.12 384.31C1493.12 384.31 1494.94 382.511 1494 381.062C1493.06 379.615 1489.18 377.234 1491.68 375.554C1494.18 373.882 1494.79 376.142 1495.78 374.908C1496.77 373.674 1492.98 369.346 1498.8 366.334C1504.63 363.315 1508.81 358.648 1508.69 355.341V355.341Z" fill="#3F3F3F"/>
<path d="M1797.89 630.554C1797.89 630.554 1801.94 635.253 1800.73 638.142C1799.52 641.022 1795.22 642.56 1794.27 646.14C1793.31 649.723 1790.89 651.468 1788.9 651.248C1786.91 651.027 1779.42 650.196 1779.42 650.196C1779.42 650.196 1778.25 647.473 1781.87 647.088C1785.47 646.709 1787.29 642.573 1787.51 638.568C1787.72 634.568 1788.88 629.331 1788.88 629.331L1796.57 628.397L1797.89 630.553L1797.89 630.554Z" fill="#2C3A64"/>
<path d="M1739.14 645.572C1739.02 645.615 1738.84 645.645 1738.59 645.669L1713.48 642.883C1713.78 642.022 1714.75 640.345 1717.83 640.194C1721.87 639.99 1728.98 638.45 1731.07 633.552C1731.13 633.395 1731.19 633.236 1731.25 633.072C1733.07 627.793 1741.11 635.844 1741.11 635.844C1741.11 635.844 1741.11 636.06 1741.1 636.429C1741.1 638.437 1740.9 644.917 1739.14 645.572L1739.14 645.572Z" fill="#2C3A64"/>
<path d="M1734.61 498.539C1734.61 498.539 1734.1 515.429 1733.44 535.734C1732.55 563.309 1731.4 597.177 1730.95 603.565C1730.17 614.661 1729.97 632.522 1729.97 632.522C1729.97 632.522 1733.7 637.188 1742.29 636.348C1742.29 636.348 1752.56 611.956 1757.66 585.507C1757.74 585.073 1757.83 584.633 1757.91 584.199C1762.89 557.245 1772.34 500.381 1772.34 500.381L1734.61 498.54L1734.61 498.539Z" fill="#2B478B"/>
<path d="M1734.61 498.539C1734.61 498.539 1734.1 515.43 1733.44 535.734L1757.66 585.507C1757.74 585.073 1757.83 584.633 1757.91 584.199C1762.89 557.245 1772.34 500.381 1772.34 500.381L1734.61 498.54L1734.61 498.539Z" fill="#233862"/>
<path d="M1740.52 501.21C1740.52 501.21 1757.96 564.527 1770.69 594.784C1783.42 625.041 1787.5 633.538 1787.5 633.538C1787.5 633.538 1797.02 630.908 1798.12 628.514C1798.12 628.514 1798.14 572.828 1788.99 558.238C1783.82 549.997 1779.27 526.471 1779.83 518.48C1780.38 510.496 1780.3 494.554 1780.3 494.554L1740.52 501.209L1740.52 501.21Z" fill="#2B478B"/>
<path d="M1753.87 403.702C1753.87 403.702 1740.03 418.279 1730.07 418.166C1730.07 418.166 1731.87 412.565 1735.13 409.241C1734.46 407.894 1733.88 406.672 1733.4 405.591C1731.78 401.959 1731.11 399.82 1731.11 399.82L1736.43 392.014L1740.04 386.72C1740.62 388.872 1741.37 390.77 1742.22 392.442C1746.64 401.071 1753.87 403.702 1753.87 403.702L1753.87 403.702Z" fill="#94420A"/>
<path d="M1742.22 392.443C1742.22 392.443 1741.28 401.226 1733.4 405.591C1731.78 401.959 1731.11 399.821 1731.11 399.821L1736.43 392.015C1740.12 391.816 1742.22 392.443 1742.22 392.443V392.443Z" fill="#AF4B05"/>
<path d="M1728.27 400.448C1728.27 400.448 1744.04 398.39 1742.62 388.58C1741.18 378.766 1742.25 371.891 1732.12 372.788C1721.99 373.686 1720.58 377.717 1720.26 381.112C1719.95 384.498 1724.12 400.732 1728.27 400.448V400.448Z" fill="#94420A"/>
<path d="M1781.82 502.968C1773.95 509.883 1727.79 510.314 1729.74 504.657C1730.48 502.496 1731.71 498.659 1732.54 493.25C1732.74 491.986 1732.92 490.635 1733.07 489.2C1733.84 481.325 1733.63 470.915 1730.58 458.158C1730.35 457.203 1730.11 456.24 1729.85 455.254C1728.52 450.283 1727.61 445.146 1727.17 440.238C1726.32 430.798 1727.16 422.174 1730.02 417.112L1733.94 408.894C1744.06 406.936 1747.71 399.667 1747.71 399.667C1747.71 399.667 1777.29 412.887 1784.42 458.464C1784.42 458.464 1788.68 496.948 1781.82 502.967L1781.82 502.968Z" fill="#FFCC00"/>
<path d="M1732.54 493.25C1732.74 491.986 1732.92 490.634 1733.07 489.2C1733.84 481.325 1733.63 470.915 1730.58 458.158C1733.08 452.326 1735.72 447.603 1737.8 445.705C1746.27 437.969 1750.21 437.415 1750.21 437.415C1750.21 437.415 1749.83 478.777 1732.54 493.251L1732.54 493.25Z" fill="#FFCC00"/>
<path d="M1748.77 372.527C1748.93 372.36 1749.27 372.219 1750.03 372.175C1750.03 372.175 1749.42 371.784 1748.61 371.76C1748.45 370.677 1747.87 368.748 1746.04 368.281C1746.04 368.281 1747.03 368.819 1747.15 369.975C1745.02 367.746 1740.46 366.124 1727.82 367.132C1711.16 368.456 1716.64 379.303 1718.8 380.599C1720.95 381.89 1726.38 378.354 1730.4 378.679C1734.41 379.003 1735.17 384.91 1736.54 385.719C1737.9 386.528 1737.37 385.097 1739.22 384.251C1741.06 383.406 1741.23 386.511 1740.7 388.531C1740.15 390.55 1742.69 393.217 1742.69 393.217C1742.69 393.217 1742.69 393.217 1745.27 390.417C1747.82 387.613 1750.24 375.741 1749.09 373.206C1748.98 372.986 1748.89 372.763 1748.77 372.528L1748.77 372.527Z" fill="black"/>
<path d="M1691.36 479.371C1691.36 479.371 1685.8 479.061 1684.57 479.347C1683.33 479.631 1679.27 482.153 1679.27 482.51C1679.27 482.876 1679.52 483.131 1680.28 483.057C1681.04 482.993 1683.46 482.275 1683.36 482.6C1683.25 482.923 1676.34 485.473 1676.49 486.924C1676.64 488.37 1680.97 490.416 1684.31 490.064C1687.63 489.719 1694.79 485.44 1695.25 485.119C1695.72 484.8 1691.36 479.372 1691.36 479.372L1691.36 479.371Z" fill="#94420A"/>
<path d="M1691.39 482.233C1689.64 479.374 1690.92 478.073 1690.92 478.073C1690.92 478.073 1718.25 456.825 1720.4 454.678C1722.53 452.529 1732.56 418.215 1732.56 418.215C1732.56 418.215 1737.01 410.185 1744.99 408.683C1751.92 407.381 1755.73 404.973 1758.84 409.006C1762.54 413.81 1762.89 420.422 1759.77 425.642C1752.78 437.349 1738.65 460.582 1734.53 464.541C1726.59 472.198 1702.7 483.238 1696.51 486.03C1695.6 486.438 1694.53 486.211 1693.88 485.469C1693.12 484.618 1692.14 483.439 1691.39 482.233V482.233Z" fill="#FFE270"/>
<path d="M1572.86 383.385C1572.86 383.385 1571.85 381.345 1569.01 380.358C1565.4 379.109 1563.77 378.533 1563.77 378.533C1563.77 378.533 1541.91 407.197 1540.04 410.105C1539.64 410.747 1538.93 411.768 1537.92 413.171C1537.16 414.237 1535.76 414.654 1534.53 414.174C1527.61 411.463 1520.04 408.151 1514.49 404.799C1508.26 401.036 1500.47 401.016 1494.22 404.736L1489.07 407.811C1482.86 411.515 1483.59 420.742 1490.32 423.409C1506.56 429.869 1530.71 435.264 1540.8 437.583C1545.37 438.633 1552.27 427.759 1555.78 421.583L1555.76 421.572C1563.22 408.775 1572.86 383.385 1572.86 383.385L1572.86 383.385Z" fill="#FFE26C"/>
<path d="M756.732 640.916H593.435V396.762H756.732V640.916Z" fill="#E58435"/>
<path d="M779.48 640.916H616.184V396.762H779.48V640.916Z" fill="#F1A34F"/>
<path d="M616.171 410.924L608.34 423.119H593.423V396.762H616.171V410.924Z" fill="#CE732E"/>
<path d="M593.423 396.762L579.486 415.989H602.235L616.171 396.762H593.423Z" fill="#F1A34F"/>
<path d="M700.406 641.691H616.185V640.951H700.406V641.691Z" fill="#F7E5D5"/>
<path d="M616.171 497.681H700.406V415.989L616.171 407.889V497.681Z" fill="#F0B77D"/>
<path d="M779.48 415.989L766.217 423.119H624.057L616.171 410.924V396.762L779.48 415.989Z" fill="#EB9342"/>
<path d="M779.48 396.762H616.171L627.709 415.989H791L779.48 396.762Z" fill="#F1A34F"/>
<path d="M504.924 410.486C504.924 410.486 505.015 410.564 505.161 410.715C505.088 410.636 504.998 410.557 504.924 410.486ZM504.834 406.452C498.838 403.434 493.914 392.369 494.422 390.393C494.495 390.162 494.767 389.539 495.221 388.63L523.766 376.525C523.766 376.525 520.713 358.641 511.574 356.202C511.319 352.712 509.484 345.156 498.527 345.156C498.527 345.156 502.834 346.33 505.069 348.681C505.069 348.681 495.984 343.33 486.118 351.548C476.215 359.754 482.356 380.345 479.359 384.253C476.361 388.16 464.641 388.944 466.077 401.575C467.512 414.215 503.216 430.052 500.926 440.503C500.926 440.503 514.045 421.194 505.814 411.42C507.25 413.04 509.939 416.564 510.302 420.562C510.302 420.562 511.611 409.871 504.833 406.453L504.834 406.452Z" fill="#B5453C"/>
<path d="M470.232 634.025L463.146 632.984C463.146 632.984 439.344 614.032 435.8 578.666C435.437 575.06 435.364 571.412 435.619 567.725C435.655 567.306 435.619 566.88 435.383 566.523V566.514C434.62 565.34 432.712 562.411 430.15 558.237C427.624 554.132 423.281 546.37 418.521 537.656C409.945 521.962 399.934 503.189 396.518 497.216C385.598 478.157 390.867 465.346 390.867 465.346C390.867 465.346 421.338 462.33 429.677 455.012L432.675 459.659C432.675 459.659 439.289 488.937 438.98 489.07C439.307 490.067 439.634 491.082 439.961 492.115C445.176 508.226 451.172 528.363 454.443 544.759C456.278 553.99 457.241 562.027 456.714 567.503C456.533 569.382 456.768 572.274 457.259 575.835C460.203 596.851 470.232 634.025 470.232 634.025V634.025Z" fill="#2B478B"/>
<path d="M485.077 642.999H455.552C455.552 642.999 454.843 638.486 456.388 635.067C457.859 631.783 459.967 631.675 456.642 626.531C458.514 628.472 464.546 629.273 468.834 628.694C469.361 629.548 472.214 635.246 473.94 636.5C475.866 637.89 484.478 637.4 485.078 642.999L485.077 642.999Z" fill="#233862"/>
<path d="M439.961 492.117C437.381 506.376 431.295 530.1 418.521 537.658C409.945 521.964 399.934 503.191 396.518 497.218C385.598 478.159 390.867 465.348 390.867 465.348C390.867 465.348 421.338 462.332 429.677 455.014L432.675 459.661C432.675 459.661 439.289 488.939 438.98 489.072C439.307 490.069 439.634 491.083 439.961 492.117V492.117Z" fill="#233862"/>
<path d="M419.248 467.557L419.339 462.019C408.347 463.408 381.401 448.836 381.401 448.836C381.401 448.836 369.881 456.509 368.3 478.426C367.537 489.126 362.667 534.356 362.122 547.868C361.94 552.763 361.868 556.253 361.849 557.651V557.661C361.849 558.086 361.632 558.461 361.377 558.798C359.106 561.702 357.126 564.773 355.418 567.96C338.611 599.267 347.405 641.817 347.405 641.817L351.312 640.819C351.312 640.819 365.502 596.72 374.787 577.645C376.368 574.404 377.785 571.894 378.984 570.434C382.491 566.188 386.162 558.977 389.795 550.29C396.646 533.883 403.296 512.235 408.038 495.464C408.383 495.526 419.248 467.558 419.248 467.558V467.557Z" fill="#2B478B"/>
<path d="M572.092 493.951C571.31 493.594 564.079 495.34 564.079 495.34C564.079 495.34 559.446 493.674 554.267 490.391C543.62 483.599 527.758 472.231 524.996 470.789C520.253 468.306 505.772 435.673 495.597 417.841C490.237 408.45 476.173 409.581 472.685 419.828C472.067 421.67 471.849 423.672 472.267 425.819C474.575 437.711 507.989 478.321 511.968 481.677C519.218 487.801 557.102 497.993 557.102 497.993C557.974 498.252 558.301 499.552 558.755 500.023C559.827 501.118 560.627 501.305 560.627 501.305C560.627 501.305 565.315 501.599 566.696 502.152L568.131 502.675C568.131 502.675 568.676 501.696 567.332 501.037C567.005 500.876 566.405 500.584 565.823 500.147L567.804 499.712C567.967 499.675 568.149 499.622 568.313 499.551C569.385 499.061 570.42 498.421 571.638 498.197C572.874 497.966 574.182 498.092 575.145 498.02C576.09 497.948 580.414 496.915 580.414 496.915C580.595 496.505 573.473 494.584 572.092 493.952L572.092 493.951Z" fill="#ED985F"/>
<path d="M483.66 430.613C465.672 426.475 477.155 401.141 478.208 401.585C480.698 401.077 486.166 396.69 491.072 388.127L491.727 388.704L502.792 398.408C502.792 398.408 500.229 402.182 498.086 405.885C496.414 408.779 494.979 411.635 495.197 412.605C496.088 413.308 488.457 431.717 483.66 430.613Z" fill="#FFB27D"/>
<path d="M494.434 409.936C494.434 409.936 498.195 419.986 501.012 424.908C503.828 429.831 511.677 445.746 511.677 445.746C511.677 445.746 505.336 457.354 493.381 459.412C493.381 459.412 484.804 450.849 485.059 441.341C485.314 431.833 494.434 409.936 494.434 409.936V409.936Z" fill="#FFE270"/>
<path d="M502.792 398.41C502.792 398.41 500.23 402.183 498.086 405.886C491.2 401.641 491.2 393.121 491.727 388.705L502.792 398.41Z" fill="#ED985F"/>
<path d="M503.083 403.278C503.083 403.278 486.403 393.976 492.344 383.651C498.286 373.333 500.139 365.179 511.041 370.69C521.943 376.191 521.725 381.31 520.58 385.235C519.436 389.17 507.589 405.434 503.083 403.279V403.278Z" fill="#FFB27D"/>
<path d="M523.397 379.216C522.634 374.64 520.309 374.196 518.691 374.507C512.532 364.296 498.378 365.925 498.378 365.925C492.981 372.681 489.311 376.189 489.311 376.189C489.311 376.189 491.255 379.803 499.232 382.037C501.666 382.722 504.428 382.305 507.099 381.404C501.575 384.493 495.78 385.678 495.78 385.678C506.282 386.649 516.293 377.017 517.329 375.985C517.82 377.479 518.655 380.605 518.165 382.884C517.456 385.989 514.713 391.614 516.385 392.337C516.385 392.337 524.543 386.088 523.398 379.216H523.397Z" fill="#B5453C"/>
<path d="M370.88 642.999H341.354C341.354 642.999 340.646 638.486 342.191 635.067C343.663 631.783 345.989 630.286 345.425 626.316C347.315 628.257 350.367 630.419 354.637 629.852C355.146 630.697 358.017 635.246 359.761 636.5C361.687 637.889 370.299 637.399 370.881 642.999H370.88Z" fill="#233862"/>
<path d="M485.786 450.697C481.97 452.022 476.646 452.752 471.195 453.349C463.419 454.193 455.406 454.772 451.209 456.454C450.392 456.784 447.993 457.782 445.595 459.516V459.525C445.595 459.525 445.54 459.562 445.432 459.651C444.65 460.23 443.851 460.896 443.124 461.653C441.998 462.802 441.034 464.137 440.399 465.676C438.872 469.495 440.908 480.063 442.216 485.839C442.743 488.164 441.653 490.567 439.527 491.67C436.583 493.2 433.676 494.608 430.824 495.908C430.679 495.969 430.533 496.032 430.37 496.102C430.406 495.516 430.406 494.938 430.406 494.367C430.424 490.379 429.915 487.059 429.915 487.059C429.207 491.082 426.572 495.427 424.101 498.773C384.454 514.709 356.764 507.782 357.218 499.842C358.781 472.283 377.332 448.835 377.332 448.835C411.946 408.528 481.917 397.919 481.917 397.919C481.917 397.919 485.278 397.509 489.312 402.378C495.144 409.392 495.435 411.226 495.435 411.226C495.435 411.226 496.962 446.788 485.787 450.697H485.786Z" fill="#FFCC00"/>
<path d="M471.177 453.351C463.419 454.195 455.406 454.774 451.209 456.456C449.483 430.758 461.584 411.424 461.584 411.424C461.584 411.424 469.488 443.62 471.178 453.351H471.177Z" fill="#FFCC00"/>
<path d="M442.215 485.84C442.742 488.165 441.651 490.568 439.526 491.67C436.582 493.201 433.675 494.609 430.823 495.908C430.678 495.419 430.532 494.911 430.405 494.368C429.968 492.356 429.751 489.943 429.914 487.06C430.568 474.856 438.872 465.625 443.123 461.654C441.997 462.803 441.033 464.138 440.398 465.677C438.871 469.496 440.907 480.064 442.215 485.84H442.215Z" fill="#FFE26C"/>
<path d="M481.915 397.92C481.915 397.92 484.968 394.055 487.039 394.181C487.039 394.181 495.361 405.859 495.434 411.227C495.434 411.227 485.04 397.375 481.915 397.92V397.92Z" fill="#91CECF"/>
<path d="M517.423 570.084L601.745 569.615L601.239 477.635L516.916 478.106L517.423 570.084Z" fill="#D57912"/>
<path d="M553.412 570.406L629.888 570.064L629.26 477.07L552.785 477.42L553.412 570.406Z" fill="#E69D43"/>
<path d="M527.14 539.491C526.777 538.46 524.56 531.23 522.162 530.43C519.763 529.638 516.765 526.522 516.765 526.522C516.765 526.522 497.742 487.551 494.616 483.803C489.711 477.911 489.783 410.667 483.551 405.781C483.551 405.781 464.001 406.163 461.457 418.679C458.895 431.185 475.03 484.231 477.537 489.119C482.134 498.02 510.806 529.54 510.806 529.54C514.15 534.792 512.951 534.863 514.204 539.812C515.44 544.771 523.216 547.316 524.542 547.574C525.869 547.823 524.924 545.439 523.288 542.695C521.635 539.956 521.472 535.237 521.835 534.899C522.199 534.551 522.889 535.281 523.87 537.07C524.851 538.869 527.522 540.533 527.141 539.491H527.14Z" fill="#FFB27D"/>
<path d="M491.6 430.696C491.6 430.696 496.16 398.275 470.65 404.195C445.158 410.105 469.488 468.394 469.488 468.394C469.488 468.394 484.15 468.829 490.347 456.465L491.6 430.696Z" fill="#FFE26C"/>
<path d="M2127.08 522.88C2138.29 507.906 2222.01 498.426 2230.71 538.672C2231.46 542.15 2236.3 553.923 2236.42 560.79C2237.53 621.857 2244.63 602.092 2215.94 660.875C2193.7 706.45 2185.2 705.994 2132.19 712.997C2097.39 717.595 2070.44 695.015 2046.25 677.556C2036.33 670.403 1984.37 660.397 1978.41 670.927C1976.78 673.788 1945.43 692.72 1934.03 692.72C1888.12 692.72 1890.15 674.029 1875.31 640.338C1860.97 607.769 1885.03 563.039 1801.29 544.802C1725.89 528.382 1685.52 616.341 1679.03 670.797C1676.4 692.831 1650.86 745.499 1633.84 760.505C1618.21 774.285 1618.87 779.665 1597.7 793.065C1548.28 824.344 1524.03 820.401 1479.26 800.517C1465.92 799.95 1404.24 754.787 1396.26 741.961C1367.23 695.34 1392.85 570.096 1378.46 547.965C1364.06 525.834 1343.87 527.204 1322 528.944" stroke="#585858" stroke-opacity="0.44" stroke-width="3" stroke-miterlimit="22.9256" stroke-linecap="round" stroke-dasharray="2.12 10.58"/>
</svg>
