<svg width="1254" height="916" viewBox="0 0 1254 916" fill="none" xmlns="http://www.w3.org/2000/svg">
<path d="M499.616 805.769C346.805 880.741 118.31 594.007 59.646 474.437C0.982095 354.867 195.148 257.121 347.959 182.149C500.77 107.176 853.191 273.065 911.855 392.635C970.518 512.206 652.427 730.796 499.616 805.769Z" fill="#EBF3FA"/>
<path d="M1118.57 278.103C1132.07 257.679 1232.88 244.749 1243.35 299.644C1244.26 304.388 1250.08 320.445 1250.24 329.813C1251.57 413.107 1260.12 386.147 1225.57 466.328C1198.79 528.49 1188.56 527.868 1124.72 537.421C1082.82 543.693 1050.37 512.893 1021.23 489.08C1009.3 479.324 946.727 465.675 939.543 480.037C937.592 483.941 899.837 509.764 886.114 509.764C830.83 509.764 833.272 484.269 815.407 438.315C798.137 393.891 827.107 332.88 726.273 308.005C635.481 285.608 586.865 405.583 579.045 479.86C575.882 509.914 545.125 581.753 524.632 602.221C505.814 621.018 506.61 628.355 481.119 646.632C421.612 689.298 402.008 659.855 338.499 656.797C322.437 656.023 248.165 594.422 238.549 576.927C203.6 513.337 234.444 342.505 217.115 312.319C199.786 282.133 175.468 284.001 149.134 286.375" stroke="#2B2A29" stroke-width="2.11652" stroke-miterlimit="22.9256" stroke-linecap="round" stroke-dasharray="2.12 10.58"/>
<path d="M538.5 618.839L550.372 615.849L463.494 312.061L339.376 243.236C338.737 242.88 338.035 242.655 337.309 242.571C336.582 242.488 335.847 242.549 335.144 242.75C334.442 242.952 333.786 243.29 333.214 243.745C332.642 244.2 332.165 244.764 331.812 245.403V245.403C331.456 246.042 331.231 246.745 331.147 247.471C331.064 248.197 331.125 248.932 331.326 249.635C331.528 250.338 331.866 250.994 332.321 251.566C332.776 252.137 333.34 252.614 333.979 252.968L454.034 319.548L531.335 599.769L538.5 618.839Z" fill="url(#paint0_linear)"/>
<path d="M521.701 586.358C521.701 594.273 524.048 602.01 528.445 608.591C532.842 615.172 539.092 620.301 546.405 623.33C553.717 626.359 561.763 627.151 569.526 625.607C577.289 624.063 584.419 620.252 590.016 614.655C595.613 609.058 599.424 601.928 600.968 594.165C602.512 586.402 601.72 578.356 598.691 571.044C595.662 563.731 590.533 557.481 583.952 553.084C577.371 548.687 569.634 546.34 561.719 546.34C551.105 546.34 540.927 550.556 533.422 558.061C525.917 565.566 521.701 575.745 521.701 586.358Z" fill="#1A1A1A"/>
<path d="M259.245 268.563L335.819 242.59L343.322 249.387L264.931 276.033L259.245 268.563Z" fill="url(#paint1_linear)"/>
<path d="M538.082 462.813L428.946 492.066L403.457 396.974L512.594 367.721L538.082 462.813Z" fill="#FFCC00"/>
<g style="mix-blend-mode:multiply" opacity="0.5">
<path d="M467.893 487.289L429.414 497.484L404.306 402.721L442.785 392.526L467.893 487.289Z" fill="#F47458"/>
</g>
<path d="M491.762 393.048L468.53 399.203L465.188 386.588L488.419 380.433L491.762 393.048Z" fill="#EFEFB4"/>
<path d="M609.139 577.239L454.282 618.27L422.05 496.621L576.907 455.591L609.139 577.239Z" fill="#ED9B8E"/>
<path d="M509.063 603.75L454.278 618.266L422.046 496.617L476.831 482.101L509.063 603.75Z" fill="#F47458"/>
<path d="M546.11 481.083L513.031 489.848L508.74 473.654L541.82 464.89L546.11 481.083Z" fill="#EFEFB4"/>
<path d="M639.302 570.534L527.282 600.215L501.146 501.572L613.166 471.892L639.302 570.534Z" fill="#FFE26C"/>
<g style="mix-blend-mode:multiply" opacity="0.5">
<path d="M566.929 589.713L527.294 600.215L501.158 501.572L540.793 491.071L566.929 589.713Z" fill="#F47458"/>
</g>
<path d="M591.254 491.742L567.324 498.082L563.845 484.951L587.775 478.611L591.254 491.742Z" fill="#EFEFB4"/>
<path d="M458.252 639.947L469.024 637.168L386.531 338.144L262.397 269.296C261.106 268.58 259.584 268.406 258.166 268.813C256.747 269.219 255.548 270.173 254.832 271.463C254.117 272.754 253.943 274.276 254.349 275.695C254.756 277.113 255.709 278.312 257 279.028L377.054 345.608L458.252 639.947Z" fill="url(#paint2_linear)"/>
<path d="M420.035 601.592C420.035 609.507 422.382 617.244 426.779 623.825C431.176 630.406 437.426 635.535 444.739 638.564C452.051 641.593 460.097 642.386 467.86 640.842C475.623 639.297 482.754 635.486 488.35 629.889C493.947 624.293 497.758 617.162 499.302 609.4C500.846 601.637 500.054 593.59 497.025 586.278C493.996 578.966 488.867 572.716 482.286 568.318C475.705 563.921 467.968 561.574 460.053 561.574C449.44 561.574 439.261 565.79 431.756 573.295C424.251 580.8 420.035 590.979 420.035 601.592Z" fill="#1A1A1A"/>
<path d="M432.246 600.132C431.954 605.754 433.372 611.333 436.315 616.132C439.258 620.931 443.587 624.726 448.73 627.014C453.873 629.303 459.59 629.979 465.125 628.952C470.66 627.926 475.754 625.246 479.735 621.265C483.716 617.284 486.396 612.19 487.423 606.655C488.449 601.12 487.773 595.403 485.485 590.26C483.196 585.117 479.401 580.788 474.602 577.845C469.803 574.902 464.224 573.483 458.602 573.776C451.729 574.136 445.232 577.028 440.365 581.895C435.499 586.762 432.606 593.259 432.246 600.132V600.132Z" fill="#9E9DA2"/>
<path d="M441.472 600.375C441.227 604.153 442.14 607.915 444.088 611.161C446.035 614.407 448.927 616.983 452.375 618.544C455.824 620.104 459.667 620.577 463.391 619.898C467.116 619.22 470.545 617.422 473.221 614.744C475.897 612.067 477.694 608.638 478.372 604.913C479.049 601.188 478.576 597.346 477.013 593.898C475.451 590.449 472.875 587.559 469.629 585.612C466.382 583.665 462.619 582.754 458.841 583C454.331 583.296 450.082 585.221 446.886 588.418C443.69 591.615 441.766 595.864 441.472 600.375V600.375Z" fill="#D8D9DD"/>
<defs>
<linearGradient id="paint0_linear" x1="454.876" y1="334.725" x2="279.498" y2="676.882" gradientUnits="userSpaceOnUse">
<stop stop-color="#2B478B"/>
<stop offset="0.9964" stop-color="#6165D7"/>
</linearGradient>
<linearGradient id="paint1_linear" x1="306.704" y1="250.783" x2="302.206" y2="288.646" gradientUnits="userSpaceOnUse">
<stop stop-color="#2B478B"/>
<stop offset="0.9964" stop-color="#6165D7"/>
</linearGradient>
<linearGradient id="paint2_linear" x1="375.431" y1="359.574" x2="201.669" y2="696.255" gradientUnits="userSpaceOnUse">
<stop stop-color="#2B478B"/>
<stop offset="0.9964" stop-color="#6165D7"/>
</linearGradient>
</defs>
</svg>
