<svg width="660" height="694" viewBox="0 0 660 694" fill="none" xmlns="http://www.w3.org/2000/svg">
<path fill-rule="evenodd" clip-rule="evenodd" d="M24.8999 31.1386C23.8762 30.9722 23.1517 29.8887 23.2441 29.0284C23.4805 26.8016 26.1311 26.431 27.1003 27.3725C28.2989 28.537 27.7753 31.6046 24.8999 31.1386ZM38.4554 44.7007C38.3435 44.0576 38.1955 43.3891 38.0033 42.6952C36.6947 37.972 34.9744 35.1114 30.6149 30.8107C31.375 23.1812 24.0921 22.1795 21.1581 25.8427C19.3579 28.0911 19.7479 31.2324 21.4724 32.9657C23.913 35.4182 26.1714 34.5806 28.4249 33.8083C33.2185 37.8034 35.1568 44.1338 35.0621 48.3864C35.0542 48.7345 35.0409 49.0725 35.023 49.3987L38.4553 44.7008L38.4554 44.7007Z" fill="#1A1A1A"/>
<path fill-rule="evenodd" clip-rule="evenodd" d="M42.0169 39.9223C51.9719 40.8013 80.5919 45.5273 87.9256 43.189C99.882 39.3777 105.566 24.4155 96.9065 13.4051C88.8146 3.11798 74.1787 5.17827 64.42 13.6218C62.1886 15.5527 60.4844 16.8479 58.2294 19.0989C54.3548 22.9645 43.754 35.7682 42.0169 39.9223V39.9223ZM49.6704 37.0878C57.5601 37.7848 80.2421 41.53 86.0544 39.6773C95.5297 36.6563 100.034 24.7985 93.1718 16.0724C86.7585 7.92007 75.1596 9.55233 67.4255 16.2443C65.6571 17.7749 64.3067 18.8015 62.5191 20.5848C59.4489 23.6486 51.0474 33.7955 49.6703 37.0877L49.6704 37.0878Z" fill="#1A1A1A"/>
<path fill-rule="evenodd" clip-rule="evenodd" d="M78.6341 15.1094C73.9433 15.7221 67.944 19.8164 65.8729 22.5108C64.3799 24.4538 66.4942 26.6034 68.4838 25.0623C69.8383 24.0132 70.6504 22.9395 72.0696 21.9222C73.5974 20.8264 74.4676 20.2007 76.3984 19.392C77.48 18.9396 80.8036 18.6512 81.4043 17.9731C82.9702 16.2039 81.1695 14.7785 78.6339 15.1095L78.6341 15.1094Z" fill="#1A1A1A"/>
<path fill-rule="evenodd" clip-rule="evenodd" d="M84.7748 16.8038C84.2368 17.0478 83.7513 16.9613 83.543 18.0937C83.2386 19.7516 86.1658 22.1889 87.7203 21.5692C90.5198 20.4539 86.7755 15.8959 84.7748 16.8038Z" fill="#1A1A1A"/>
<path d="M73.8296 75.5924L62.1244 74.4689L54.7961 58.2491L85.937 61.3228L92.8032 77.4927L73.8296 75.5924V75.5924ZM23.3621 71.2936L43.3412 43.7637L57.2757 74.5939L37.251 102.404L23.3621 71.2936ZM79.0994 45.7929L84.608 58.681L53.6915 55.6693L47.5891 42.8256L79.0996 45.793L79.0994 45.7929ZM96.5108 78.5244L81.633 43.4339L42.2374 39.4816L42.1218 39.4704L41.6758 40.0803L41.679 40.0853L23.0927 65.8971C19.2871 68.772 19.1401 72.2404 21.9827 76.1955L35.1483 105.325L35.4619 106.016L36.2166 106.092L73.5626 109.833L73.9409 109.87L96.511 78.5246L96.5108 78.5244Z" fill="#1A1A1A"/>
<path fill-rule="evenodd" clip-rule="evenodd" d="M43.3415 43.7618L57.2752 74.5928L37.251 102.402L25.6673 76.454C22.5502 73.2262 22.0944 70.0053 26.59 66.8449L43.3415 43.7617L43.3415 43.7618Z" fill="#FFCC00"/>
<path fill-rule="evenodd" clip-rule="evenodd" d="M79.0988 45.7926L84.6081 58.6807L53.6914 55.669L47.5894 42.8258L79.0988 45.7926Z" fill="#FFCC00"/>
<path fill-rule="evenodd" clip-rule="evenodd" d="M85.9369 61.3221L92.8031 77.4913L62.1237 74.4674L54.6003 58.2815L85.9369 61.3221Z" fill="#FFCC00"/>
<path fill-rule="evenodd" clip-rule="evenodd" d="M39.8134 60.1416C43.1248 60.4959 45.5228 63.4635 45.169 66.7702C44.8152 70.077 41.8437 72.47 38.5322 72.1157C35.2204 71.7613 32.8225 68.7938 33.1763 65.487C33.5301 62.1803 36.5016 59.7873 39.8134 60.1416Z" fill="#1A1A1A"/>
<path d="M64.4441 88.9908C64.483 89.1653 64.73 89.2223 64.8728 89.2398L70.8713 89.9177C71.7277 90.0128 73.1285 89.3566 73.9334 88.4836C74.3324 88.0507 74.4353 87.7242 74.4043 87.5749C74.3684 87.3934 74.119 87.3413 73.9756 87.3266L73.5602 87.2797C72.504 88.2462 70.9931 88.8886 69.9454 88.7703L64.825 88.191C64.5112 88.5651 64.4128 88.849 64.4443 88.991L64.4441 88.9908ZM68.3571 85.4595L74.3558 86.1375C75.0179 86.2121 75.451 86.5497 75.5675 87.0893C75.6945 87.6963 75.3858 88.462 74.7158 89.1889C73.5948 90.4052 71.7377 91.2482 70.4909 91.1068L64.4911 90.43C64.1265 90.3885 63.8327 90.2685 63.6222 90.0787C63.4492 89.9228 63.334 89.7195 63.281 89.475C63.1545 88.8674 63.4623 88.1041 64.1323 87.3775C65.2537 86.161 67.1085 85.3186 68.3572 85.4596L68.3571 85.4595Z" fill="#FFCC00"/>
<path d="M113.196 117.54C115.036 104.598 243.519 151.807 220.104 170.783C218.081 172.423 210.14 177.039 206.791 180.831C177.013 214.547 183.103 200.597 168.592 245.17C157.341 279.726 161.601 282.931 183.459 308.435C197.809 325.178 221.442 323.517 241.313 323.601C249.454 323.635 278.961 339.196 276.755 347.516C276.155 349.777 281.999 373.137 287.42 377.778C309.256 396.472 317.245 385.189 340.44 372.379C362.862 359.997 372.845 325.174 421.409 349.068C465.136 370.583 442.206 436.237 419.21 469.349C409.905 482.747 396.825 522.615 397.732 537.941C398.564 552.015 395.673 554.756 399.323 570.873C407.844 608.497 425.927 603.049 452.087 623.271C458.702 628.385 509.672 628.232 519.614 624.307C555.751 610.041 603.56 529.536 621.005 523.013C638.451 516.491 647.4 525.481 656.968 535.36" stroke="#F36F56" stroke-width="2.11652" stroke-miterlimit="22.9256" stroke-linecap="round" stroke-dasharray="2.12 10.58"/>
</svg>
