<svg width="821" height="602" viewBox="0 0 821 602" fill="none" xmlns="http://www.w3.org/2000/svg">
<path d="M76.4873 428.772C-8.10239 379.332 -23.4111 317.937 34.9633 192.805C72.6331 112.056 186.551 105.526 247.029 154.825C272.788 175.823 335.789 244.546 387.837 87.4309C448.673 -96.2132 802.353 36.8216 735.221 234.209C694.197 354.832 785.962 327.196 776.279 428.771C766.596 530.346 161.077 478.211 76.4873 428.772Z" fill="#EBF3FA"/>
<path d="M717.811 575.861C546.961 445.728 459.298 531.512 519.077 285.501C533.987 224.125 449.103 155.071 360.351 175.513C270.981 196.099 296.895 94.9576 313.198 54" stroke="#6165D7" stroke-width="2.11762" stroke-miterlimit="22.9256" stroke-linecap="round" stroke-dasharray="2.12 10.58"/>
</svg>
