<svg width="674" height="911" viewBox="0 0 674 911" fill="none" xmlns="http://www.w3.org/2000/svg">
<path d="M203.564 799.821C300.94 847.597 596.165 571.143 647.436 466.64C698.708 362.137 507.101 370.648 409.724 322.873C312.348 275.097 210.111 271.694 158.84 376.197C107.568 480.7 106.188 752.046 203.564 799.821Z" fill="#EBF3FA"/>
<path d="M154.46 485.985C206.312 326.211 101.461 277.562 334.541 269.768C392.689 267.82 422.243 187.478 373.313 123.716C324.04 59.5099 420.337 57.3338 461.382 60.918" stroke="#2B2A29" stroke-width="2.11762" stroke-miterlimit="22.9256" stroke-linecap="round" stroke-dasharray="2.12 10.58"/>
<line opacity="0.74" x1="1" y1="-1" x2="27.2843" y2="-1" transform="matrix(0.707107 0.707107 0.707107 -0.707107 469.382 52)" stroke="#2B2A29" stroke-width="2" stroke-linecap="round"/>
<line opacity="0.74" x1="1" y1="-1" x2="21.2463" y2="-1" transform="matrix(-0.674269 0.738485 0.738485 0.674269 487.24 54.1445)" stroke="#2B2A29" stroke-width="2" stroke-linecap="round"/>
</svg>
