<svg width="92" height="113" viewBox="0 0 92 113" fill="none" xmlns="http://www.w3.org/2000/svg">
<path fill-rule="evenodd" clip-rule="evenodd" d="M12.9 31.1374C11.8762 30.971 11.1518 29.8875 11.2441 29.0271C11.4805 26.8004 14.1312 26.4297 15.1004 27.3713C16.299 28.5358 15.7753 31.6034 12.9 31.1374ZM26.4555 44.6994C26.3436 44.0563 26.1956 43.3878 26.0034 42.694C24.6948 37.9708 22.9744 35.1102 18.6149 30.8095C19.3751 23.18 12.0921 22.1783 9.15816 25.8415C7.35799 28.0899 7.74797 31.2311 9.47244 32.9645C11.9131 35.4169 14.1714 34.5793 16.4249 33.8071C21.2186 37.8022 23.1568 44.1326 23.0622 48.3851C23.0543 48.7333 23.041 49.0713 23.0231 49.3975L26.4554 44.6996L26.4555 44.6994Z" fill="#1A1A1A"/>
<path fill-rule="evenodd" clip-rule="evenodd" d="M30.0172 39.9209C39.9722 40.8 68.5922 45.5259 75.9259 43.1876C87.8822 39.3764 93.566 24.4142 84.9067 13.4038C76.8148 3.11663 62.179 5.17693 52.4202 13.6205C50.1889 15.5514 48.4846 16.8466 46.2296 19.0975C42.355 22.9631 31.7543 35.7668 30.0172 39.9209ZM37.6707 37.0865C45.5604 37.7834 68.2423 41.5287 74.0546 39.676C83.5299 36.6549 88.0343 24.7971 81.1721 16.071C74.7588 7.91872 63.1598 9.55099 55.4258 16.2429C53.6574 17.7735 52.3069 18.8001 50.5194 20.5835C47.4492 23.6473 39.0476 33.7942 37.6706 37.0863L37.6707 37.0865Z" fill="#1A1A1A"/>
<path fill-rule="evenodd" clip-rule="evenodd" d="M66.6342 15.1098C61.9434 15.7225 55.9441 19.8169 53.873 22.5113C52.3801 24.4542 54.4943 26.6039 56.484 25.0628C57.8384 24.0137 58.6505 22.94 60.0697 21.9227C61.5975 20.8268 62.4677 20.2012 64.3985 19.3925C65.4801 18.9401 68.8037 18.6517 69.4045 17.9736C70.9703 16.2044 69.1696 14.7789 66.6341 15.11L66.6342 15.1098Z" fill="#1A1A1A"/>
<path fill-rule="evenodd" clip-rule="evenodd" d="M72.7749 16.8053C72.237 17.0493 71.7514 16.9627 71.5431 18.0951C71.2387 19.7531 74.166 22.1903 75.7204 21.5707C78.52 20.4554 74.7756 15.8974 72.7749 16.8053Z" fill="#1A1A1A"/>
<path d="M61.8295 75.5909L50.1242 74.4675L42.796 58.2476L73.9368 61.3213L80.803 77.4912L61.8295 75.5909ZM11.362 71.2921L31.3411 43.7623L45.2756 74.5924L25.2509 102.402L11.362 71.2921ZM67.0993 45.7915L72.6079 58.6795L41.6914 55.6678L35.589 42.8242L67.0994 45.7915L67.0993 45.7915ZM84.5107 78.523L69.6329 43.4324L30.2373 39.4801L30.1217 39.4689L29.6757 40.0789L29.6789 40.0838L11.0926 65.8956C7.28698 68.7706 7.13995 72.2389 9.98261 76.1941L23.1481 105.323L23.4618 106.014L24.2164 106.091L61.5625 109.831L61.9408 109.869L84.5109 78.5231L84.5107 78.523Z" fill="#1A1A1A"/>
<path fill-rule="evenodd" clip-rule="evenodd" d="M31.3413 43.7617L45.2751 74.5926L25.2508 102.402L13.6672 76.4539C10.5501 73.2261 10.0943 70.0052 14.5899 66.8448L31.3413 43.7616L31.3413 43.7617Z" fill="#FFCC00"/>
<path fill-rule="evenodd" clip-rule="evenodd" d="M67.099 45.7912L72.6082 58.6793L41.6915 55.6675L35.5895 42.8244L67.099 45.7912Z" fill="#FFCC00"/>
<path fill-rule="evenodd" clip-rule="evenodd" d="M73.9369 61.3219L80.8031 77.4912L50.1237 74.4673L42.6003 58.2813L73.9369 61.3219Z" fill="#FFCC00"/>
<path fill-rule="evenodd" clip-rule="evenodd" d="M27.8134 60.1401C31.1248 60.4945 33.5228 63.462 33.169 66.7688C32.8152 70.0755 29.8437 72.4685 26.5322 72.1142C23.2204 71.7599 20.8225 68.7923 21.1763 65.4856C21.5301 62.1788 24.5016 59.7858 27.8134 60.1401Z" fill="#1A1A1A"/>
<path d="M52.4439 88.9903C52.4828 89.1648 52.7297 89.2218 52.8725 89.2393L58.871 89.9173C59.7274 90.0123 61.1283 89.3561 61.9331 88.4831C62.3322 88.0502 62.435 87.7237 62.404 87.5744C62.3681 87.3929 62.1187 87.3408 61.9753 87.3261L61.56 87.2792C60.5038 88.2457 58.9929 88.8881 57.9452 88.7698L52.8248 88.1906C52.5109 88.5646 52.4126 88.8486 52.444 88.9905L52.4439 88.9903ZM56.3568 85.4591L62.3556 86.1371C63.0176 86.2116 63.4507 86.5492 63.5673 87.0888C63.6943 87.6958 63.3855 88.4615 62.7156 89.1884C61.5946 90.4047 59.7374 91.2477 58.4906 91.1063L52.4908 90.4295C52.1262 90.388 51.8325 90.268 51.622 90.0782C51.4489 89.9224 51.3338 89.719 51.2808 89.4745C51.1542 88.8669 51.4621 88.1036 52.132 87.377C53.2534 86.1605 55.1083 85.3181 56.357 85.4591L56.3568 85.4591Z" fill="#FFCC00"/>
</svg>
