<svg width="660" height="608" viewBox="0 0 660 608" fill="none" xmlns="http://www.w3.org/2000/svg">
<path d="M113.196 31.5403C115.036 18.5978 243.519 65.8072 220.104 84.7835C218.081 86.4234 210.14 91.0395 206.791 94.8313C177.013 128.547 183.103 114.597 168.592 159.17C157.341 193.726 161.601 196.931 183.459 222.435C197.809 239.178 221.442 237.517 241.313 237.601C249.454 237.635 278.961 253.196 276.755 261.516C276.155 263.777 281.999 287.137 287.42 291.778C309.256 310.472 317.245 299.189 340.44 286.379C362.862 273.997 372.845 239.174 421.409 263.068C465.136 284.583 442.206 350.237 419.21 383.349C409.905 396.747 396.825 436.615 397.732 451.941C398.564 466.015 395.673 468.756 399.323 484.873C407.844 522.497 425.927 517.049 452.087 537.271C458.702 542.385 509.672 542.232 519.614 538.307C555.751 524.041 603.56 443.536 621.005 437.013C638.451 430.491 647.4 439.481 656.968 449.36" stroke="#F36F56" stroke-width="2.11652" stroke-miterlimit="22.9256" stroke-linecap="round" stroke-dasharray="2.12 10.58"/>
</svg>
