<svg width="830" height="652" viewBox="0 0 830 652" fill="none" xmlns="http://www.w3.org/2000/svg">
<path d="M817.156 351.013C813.258 451.517 442.654 483.764 305.475 478.443C168.297 473.122 170.979 344.684 174.877 244.179C178.776 143.675 497.625 12.1515 634.804 17.4724C771.982 22.7934 821.054 250.508 817.156 351.013Z" fill="url(#paint0_linear)" fill-opacity="0.3"/>
<path d="M616.735 474.588L678.653 472.029L661.511 431.448L621.62 433.826L610.947 451.465L616.735 474.588Z" fill="url(#paint1_linear)"/>
<path d="M558.644 410.079C558.231 410.079 557.824 410.109 557.419 410.149L550.984 410.079L551.022 412.628C544.789 417.013 540.462 426.604 540.462 437.738C540.462 449.31 545.136 459.217 551.776 463.342L551.808 465.394H558.644C568.686 465.394 576.826 453.013 576.826 437.738C576.826 422.462 568.694 410.079 558.644 410.079Z" fill="url(#paint2_linear)"/>
<path d="M550.992 465.394C540.951 465.394 532.81 453.012 532.81 437.738C532.81 422.463 540.951 410.081 550.992 410.081C561.034 410.081 569.174 422.463 569.174 437.738C569.174 453.012 561.034 465.394 550.992 465.394Z" fill="url(#paint3_linear)"/>
<path d="M736.318 431.083C735.812 431.083 735.313 431.113 734.815 431.159L726.933 431.083L726.981 433.937C719.343 438.851 714.043 449.593 714.043 462.067C714.043 475.031 719.769 486.135 727.894 490.748L727.931 493.049H736.318C748.624 493.049 758.591 479.175 758.591 462.063C758.591 444.95 748.618 431.083 736.318 431.083Z" fill="url(#paint4_linear)"/>
<path d="M726.933 493.053C714.631 493.053 704.658 479.18 704.658 462.067C704.658 444.954 714.631 431.081 726.933 431.081C739.235 431.081 749.208 444.954 749.208 462.067C749.208 479.18 739.235 493.053 726.933 493.053Z" fill="url(#paint5_linear)"/>
<path d="M651.613 445.47C651.115 445.47 650.62 445.502 650.134 445.55L642.375 445.47L642.421 448.396C634.904 453.432 629.685 464.441 629.685 477.236C629.685 490.526 635.322 501.906 643.32 506.643L643.357 509H651.613C663.721 509 673.54 494.778 673.54 477.236C673.54 459.694 663.723 445.47 651.613 445.47Z" fill="url(#paint6_linear)"/>
<path d="M642.375 509C630.265 509 620.448 494.778 620.448 477.234C620.448 459.69 630.265 445.467 642.375 445.467C654.486 445.467 664.303 459.69 664.303 477.234C664.303 494.778 654.486 509 642.375 509Z" fill="url(#paint7_linear)"/>
<path d="M639.293 495.08C632.49 495.08 626.974 487.09 626.974 477.234C626.974 467.377 632.49 459.387 639.293 459.387C646.096 459.387 651.611 467.377 651.611 477.234C651.611 487.09 646.096 495.08 639.293 495.08Z" fill="#D8DEE8"/>
<path d="M641.157 493.803C635.383 493.803 630.702 486.385 630.702 477.234C630.702 468.083 635.383 460.665 641.157 460.665C646.931 460.665 651.611 468.083 651.611 477.234C651.611 486.385 646.931 493.803 641.157 493.803Z" fill="url(#paint8_linear)"/>
<path d="M432.932 410.079V443.145C432.933 445.18 433.36 447.192 434.188 449.047C435.015 450.902 436.223 452.559 437.731 453.907C439.239 455.255 441.014 456.265 442.937 456.868C444.86 457.472 446.888 457.655 448.887 457.407L528.453 447.533V410.079H432.932Z" fill="url(#paint9_linear)"/>
<path d="M468.752 405.49L490.586 439.787C492.128 442.209 494.181 444.257 496.597 445.786C499.012 447.314 501.732 448.285 504.562 448.628L576.814 457.401L582.344 420.474L468.752 405.49Z" fill="url(#paint10_linear)"/>
<path d="M473.788 422.2C473.375 422.2 472.968 422.228 472.563 422.268L466.128 422.2L466.166 424.747C459.933 429.133 455.606 438.723 455.606 449.856C455.606 461.429 460.28 471.337 466.92 475.461L466.94 477.511H473.788C483.83 477.511 491.97 465.128 491.97 449.852C491.97 434.577 483.83 422.2 473.788 422.2Z" fill="url(#paint11_linear)"/>
<path d="M466.127 477.513C456.085 477.513 447.945 465.131 447.945 449.856C447.945 434.582 456.085 422.2 466.127 422.2C476.169 422.2 484.309 434.582 484.309 449.856C484.309 465.131 476.169 477.513 466.127 477.513Z" fill="url(#paint12_linear)"/>
<path d="M463.572 465.394C457.931 465.394 453.357 458.437 453.357 449.856C453.357 441.274 457.931 434.318 463.572 434.318C469.213 434.318 473.786 441.274 473.786 449.856C473.786 458.437 469.213 465.394 463.572 465.394Z" fill="#D8DEE8"/>
<path d="M465.118 464.281C460.331 464.281 456.45 457.823 456.45 449.856C456.45 441.889 460.331 435.431 465.118 435.431C469.905 435.431 473.786 441.889 473.786 449.856C473.786 457.823 469.905 464.281 465.118 464.281Z" fill="url(#paint13_linear)"/>
<path d="M552.689 431.448L404.261 410.677C403.08 410.511 401.998 409.919 401.215 409.011C400.432 408.102 400 406.938 400 405.733V273.591C400 272.295 400.5 271.049 401.393 270.118C402.286 269.187 403.503 268.644 404.786 268.603L552.689 264V431.448Z" fill="url(#paint14_linear)"/>
<path d="M669.203 422.199L552.688 431.448V264L663.407 269.907C664.969 269.99 666.44 270.676 667.517 271.823C668.593 272.97 669.193 274.49 669.194 276.07L669.203 422.199Z" fill="#FFCC00"/>
<path style="mix-blend-mode:multiply" opacity="0.3" d="M499.145 328.11C477.569 300.632 434.681 320.908 413.031 290.086C408.554 283.701 404.974 276.719 402.394 269.341C401.668 269.783 401.068 270.406 400.651 271.15C400.233 271.895 400.013 272.736 400.012 273.591V405.733C400.012 406.938 400.444 408.102 401.227 409.011C402.01 409.919 403.092 410.511 404.274 410.677L538.596 429.474C530.114 420.109 521.599 408.143 515.434 393.187C501.89 360.35 513.232 346.053 499.145 328.11Z" fill="url(#paint15_linear)"/>
<path d="M575.214 333.289C571.195 351.521 561.818 404.11 572.282 460.629C572.669 462.683 573.673 464.566 575.159 466.02C576.645 467.475 578.54 468.43 580.583 468.756L616.737 474.588C616.737 474.588 617.098 440.004 634.468 437.738C651.838 435.471 668.117 451.922 669.204 480.439C669.204 480.439 706.833 485.558 763.64 472.396C763.64 472.396 771.238 470.749 774.493 462.067L771.929 422.292C771.823 420.675 771.4 419.095 770.685 417.645C769.969 416.195 768.975 414.904 767.76 413.846L734.328 384.647C734.328 384.647 703.941 341.143 693.804 332.733C693.804 332.733 688.377 323.96 644.597 322.863C614.446 322.107 593.684 324.127 583.68 325.457C581.644 325.726 579.739 326.622 578.224 328.024C576.71 329.425 575.659 331.263 575.214 333.289V333.289Z" fill="url(#paint16_linear)"/>
<path style="mix-blend-mode:multiply" opacity="0.6" d="M770.001 416.449L768.338 418.287C769.062 438.759 773.453 445.997 736.317 449.856C699.181 453.715 700.316 422.2 700.316 422.2L651.614 400.739L610.947 336.027C602.876 329.456 588.771 327.661 579.208 327.244C577.179 328.688 575.755 330.844 575.214 333.291C571.195 351.523 561.818 404.112 572.28 460.631C572.667 462.685 573.673 464.568 575.159 466.023C576.646 467.478 578.541 468.433 580.585 468.758L616.737 474.591C616.737 474.591 617.098 440.004 634.468 437.738C651.838 435.471 668.117 451.922 669.204 480.439C669.204 480.439 706.833 485.558 763.64 472.396C763.64 472.396 771.238 470.75 774.493 462.067L771.929 422.292C771.79 420.21 771.126 418.199 770.001 416.449Z" fill="url(#paint17_linear)"/>
<path d="M651.116 391.296C651.76 392.366 652.697 393.226 653.814 393.772C654.93 394.318 656.179 394.527 657.41 394.374L734.526 384.823L734.328 384.651C734.328 384.651 709.105 348.548 696.956 335.762L625.845 340.084C625.285 340.119 624.744 340.299 624.273 340.608C623.803 340.916 623.419 341.343 623.159 341.845C622.9 342.348 622.773 342.909 622.792 343.476C622.81 344.042 622.973 344.594 623.265 345.078L651.116 391.296Z" fill="url(#paint18_linear)"/>
<g style="mix-blend-mode:overlay" opacity="0.3">
<path d="M697.035 367.031C676.039 358.689 658.591 368.575 644.151 356.912C638.593 352.423 635.286 346.194 633.333 339.629L625.846 340.084C625.286 340.119 624.744 340.299 624.274 340.608C623.803 340.916 623.419 341.343 623.16 341.845C622.9 342.347 622.773 342.909 622.792 343.476C622.81 344.042 622.973 344.594 623.265 345.078L651.12 391.296C651.765 392.366 652.701 393.226 653.818 393.772C654.934 394.318 656.183 394.527 657.414 394.374L721.408 386.452C712.996 375.421 704.338 369.935 697.035 367.031Z" fill="white"/>
</g>
<path d="M765.189 421.724C765.153 421.382 764.992 421.065 764.738 420.836C764.483 420.607 764.154 420.481 763.813 420.484C744.597 420.655 720.434 424.738 712.433 426.191C712.075 426.254 711.734 426.39 711.43 426.591C711.125 426.791 710.865 427.052 710.664 427.358C710.462 427.663 710.325 428.007 710.259 428.368C710.193 428.729 710.201 429.1 710.281 429.458C711.845 436.203 714.45 440.766 716.351 443.414C716.99 444.302 717.812 445.041 718.761 445.577C719.709 446.114 720.762 446.437 721.846 446.522C727.892 447.004 741.298 447.818 747.806 446.254C753.591 444.864 759.121 442.09 762.098 440.437C762.956 439.969 763.696 439.308 764.261 438.505C764.826 437.702 765.201 436.779 765.357 435.806C766.09 431.046 765.492 424.442 765.189 421.724Z" fill="url(#paint19_linear)"/>
<path d="M671.157 423.597C671.029 423.336 670.956 423.051 670.944 422.76C670.932 422.469 670.981 422.179 671.087 421.908C671.193 421.637 671.354 421.392 671.56 421.188C671.766 420.984 672.012 420.826 672.283 420.725C673.98 420.091 676.306 419.359 677.658 419.522C679.428 419.732 694.411 423.663 701.263 425.476C702.291 425.743 703.196 426.362 703.822 427.228C704.449 428.094 704.758 429.153 704.697 430.224C704.391 434.937 702.628 442.403 694.617 443.241C683.496 444.4 676.471 434.492 671.157 423.597Z" fill="url(#paint20_linear)"/>
<path d="M743.193 451.465C714.042 455.578 708.129 445.47 708.129 445.47C701.229 446.507 691.424 445.141 685.868 444.162C683.748 443.789 681.7 444.806 680.509 446.619C679.623 447.975 678.01 449.347 675.08 449.856C670.296 450.69 662.15 448.853 658.16 447.814C663.966 455.867 668.031 466.305 668.567 480.395C668.567 480.395 706.829 485.558 763.636 472.396C763.636 472.396 771.234 470.749 774.489 462.067L772.816 436.127C769.841 440.73 762.054 448.803 743.193 451.465Z" fill="url(#paint21_linear)"/>
<path style="mix-blend-mode:multiply" opacity="0.6" d="M695.783 456.581C695.023 456.507 694.257 456.598 693.534 456.846C692.811 457.094 692.148 457.495 691.59 458.021C691.032 458.548 690.591 459.188 690.296 459.899C690 460.611 689.858 461.377 689.878 462.149C690.029 469.147 689.323 476.469 688.687 481.415C705.192 481.454 731.296 479.885 763.626 472.39C763.626 472.39 771.225 470.743 774.48 462.06L773.505 446.943C750.226 460.291 711.018 458.073 695.783 456.581Z" fill="url(#paint22_linear)"/>
<path d="M587.649 343.863L598.123 346.424C601.546 347.26 604.542 349.347 606.533 352.283L632.463 390.499C634.231 393.107 631.946 396.562 628.89 395.915L583.965 386.311C583.085 386.125 582.292 385.649 581.711 384.957C581.129 384.265 580.792 383.397 580.753 382.49C580.471 375.942 580.172 360.428 582.71 347.108C582.811 346.561 583.021 346.04 583.327 345.577C583.633 345.114 584.029 344.719 584.491 344.416C584.953 344.112 585.471 343.907 586.014 343.812C586.557 343.717 587.113 343.734 587.649 343.863V343.863Z" fill="url(#paint23_linear)"/>
<path fill-rule="evenodd" clip-rule="evenodd" d="M211.377 628.442C222.149 629.316 240.847 630.745 255.58 631.354C264.428 631.721 269.527 630.905 272.467 629.799C272.467 630.113 272.456 630.407 272.446 630.673C272.374 632.141 271.123 633.3 269.553 633.387C241.704 634.845 219.564 633.889 211.685 633.435C210.054 633.348 209.079 631.672 209.91 630.369C210.326 629.717 210.838 629.079 211.382 628.442H211.377Z" fill="#444B8C"/>
<path fill-rule="evenodd" clip-rule="evenodd" d="M255.58 631.353C240.848 630.745 222.155 629.32 211.378 628.441C221.965 616.214 255.58 607.971 255.58 607.971H265.07C271.6 616.832 272.539 625.264 272.467 629.798C269.533 630.899 264.434 631.715 255.58 631.353Z" fill="#233862"/>
<path fill-rule="evenodd" clip-rule="evenodd" d="M266.665 593.387L265.777 609.931C265.685 611.733 264.249 613.239 262.351 613.49C260.448 613.746 257.908 613.775 255.225 612.93C253.563 612.409 252.332 611.1 252.03 609.497L248.957 593.382H266.67L266.665 593.387Z" fill="url(#paint24_linear)"/>
<path fill-rule="evenodd" clip-rule="evenodd" d="M376.829 647.536C381.487 646.739 383.611 643.788 384.488 640.63L384.508 640.717C385.196 644.044 383.6 647.497 380.42 649.139C376.563 651.114 372.366 651.462 369.094 651.293C365.58 651.114 362.364 649.356 360.599 646.531L360.578 646.483C364.092 648.608 369.032 648.854 376.829 647.536V647.536Z" fill="#233862"/>
<path fill-rule="evenodd" clip-rule="evenodd" d="M354.803 598.491H362.631C374.553 598.187 382.047 628.789 384.489 640.635C383.612 643.793 381.488 646.744 376.83 647.541C369.033 648.859 364.093 648.613 360.579 646.488C354.131 636.183 350.946 621.082 349.412 612.259C347.668 602.234 354.803 598.496 354.803 598.496V598.491Z" fill="#233862"/>
<path fill-rule="evenodd" clip-rule="evenodd" d="M361.626 583.125L365.971 599.404C366.504 601.398 365.494 603.455 363.524 604.411C361.103 605.58 357.671 606.812 354.526 606.459C353.044 606.29 351.818 605.305 351.331 604.001L344.944 586.872L361.621 583.125H361.626Z" fill="#E69D43"/>
<path fill-rule="evenodd" clip-rule="evenodd" d="M208.725 368.794C208.725 368.794 247.578 597.347 246.926 598.607C246.926 598.607 257.657 603.204 269.348 599.196C269.348 599.196 265.834 477.005 257.616 430.162C257.616 430.162 323.902 539.368 344.949 593.788C344.949 593.788 355.932 592.561 365.022 586.921C365.022 586.921 293.647 390.356 274.606 364.167L208.725 368.789V368.794Z" fill="#2B478B"/>
<path fill-rule="evenodd" clip-rule="evenodd" d="M251.234 373.952C241.064 364.246 194.957 377.454 194.957 373.952L209.003 209.712C209.003 209.621 209.003 209.535 209.003 209.439C218.488 209.731 228.596 210.19 239.051 210.912C240.089 210.979 241.134 211.061 242.172 211.137C263.127 212.668 311.952 204.091 314.914 233.14C317.877 262.19 261.404 383.659 251.234 373.952Z" fill="#FFCC00"/>
<path fill-rule="evenodd" clip-rule="evenodd" d="M266.495 177.415C266.495 177.415 269.357 205.898 271.876 214.32C272.266 215.599 271.665 216.947 270.434 217.603C266.161 219.907 255.912 223.664 241.877 217.188C239.61 216.135 238.24 213.914 238.348 211.552L239.579 184.026L266.495 177.415V177.415Z" fill="#E69D43"/>
<path fill-rule="evenodd" clip-rule="evenodd" d="M238.965 140.98C238.965 140.98 229.824 160.769 229.208 171.157C228.593 181.544 226.207 188.286 238.965 190.372C251.722 192.468 262.474 186.489 268.296 176.136C268.296 176.136 277.417 160.19 275.37 153.661C273.334 147.132 238.965 140.975 238.965 140.975V140.98Z" fill="#E69D43"/>
<path fill-rule="evenodd" clip-rule="evenodd" d="M263.935 168.699L263.202 168.4C262.284 168.018 261.883 166.98 262.355 166.135C264.151 162.866 267.654 155.366 263.13 153.613C258.857 151.966 254.24 151.039 249.849 149.716C245.771 148.489 237.861 147.205 235.743 143.158C235.127 141.989 235.794 140.608 236.466 139.464C237.697 137.32 238.943 135.171 240.185 133.026C241.231 131.211 242.314 129.356 243.986 128.019C247.813 124.957 252.368 127.642 256.6 128.381C272.348 131.114 282.741 137.112 283.002 147.35C283.023 148.002 283.751 148.364 284.351 148.026C285.511 147.359 287.373 147.045 289.861 149.016C294.175 152.435 292.41 161.311 282.936 168.612C282.484 168.96 282.484 169.622 282.977 169.916C284.7 170.969 287.26 173.475 280.627 176.812C273.764 180.265 268.634 179.98 266.659 179.676C266.167 179.603 265.854 179.154 265.956 178.695L268.07 169.699C268.183 169.192 267.777 168.709 267.223 168.709H263.94L263.935 168.699Z" fill="#313131"/>
<path fill-rule="evenodd" clip-rule="evenodd" d="M263.541 170.602C263.541 170.602 267.029 157.959 273.051 161.504C279.079 165.048 269.927 175.668 265.09 176.141L263.541 170.602V170.602Z" fill="#F1A34F"/>
<path fill-rule="evenodd" clip-rule="evenodd" d="M231.398 144.346C246.371 102.569 308.471 128.907 287.988 165.304C266.495 156.138 241.447 141.458 231.398 144.346V144.346Z" fill="#E1473D"/>
<path fill-rule="evenodd" clip-rule="evenodd" d="M268.003 155.453L228.977 160.282C227.986 160.403 226.991 160.026 226.376 159.287C221.872 153.907 216.127 150.918 209.407 149.827C208.55 149.687 208.53 148.547 209.366 148.364L232.906 143.187L232.988 143.172C245.002 142.211 256.677 147.32 268.214 154.588C268.598 154.83 268.465 155.4 268.003 155.453Z" fill="#E1473D"/>
<path fill-rule="evenodd" clip-rule="evenodd" d="M323.003 236.718C319.377 228.88 307.799 219.328 307.204 219.14C302.167 236.51 293.318 250.843 291.425 268.353C303.829 289.799 300.987 315.099 293.246 327.404C297.047 332.725 301.51 339.984 305.368 349.004C353.068 322.121 334.186 260.868 323.003 236.718Z" fill="#FFCC00"/>
<path fill-rule="evenodd" clip-rule="evenodd" d="M261.745 368.451L220.451 367.605C220.451 367.605 256.462 358.024 258.693 360.632C258.693 360.632 281.012 346.821 293.247 327.403C297.048 332.725 301.511 339.983 305.368 349.004C294.406 355.064 279.997 365.592 261.745 368.451Z" fill="#E69D43"/>
<path fill-rule="evenodd" clip-rule="evenodd" d="M262.905 361.71C262.905 361.71 263.761 377.201 242.165 374.961C230.423 373.729 211.479 363.434 211.479 363.434C211.479 363.434 260.873 363.308 262.91 361.714L262.905 361.71Z" fill="#E69D43"/>
<path d="M85.9747 564.156L11.1425 571.127L62.1149 539.922L64.0894 550.801L81.973 554.998L85.9747 564.156Z" fill="#CA5F00"/>
<path d="M11.1425 571.127L74.5554 542.271L135.251 542.198L11.1425 571.127Z" fill="#F1A34F"/>
<path d="M62.1147 539.923L11.1425 571.127L51.9246 520.518L62.1147 539.923Z" fill="#F1A34F"/>
<path d="M507.797 179.39C304.124 216.928 490.037 -97.6379 457.283 264.474C449.107 354.811 254.038 470.759 179.648 376.94C104.741 282.464 118.597 539.026 84.1313 518.031" stroke="#2B2A29" stroke-width="2.11762" stroke-miterlimit="22.9256" stroke-linecap="round" stroke-dasharray="2.12 10.58"/>
<path d="M538.225 165.6L580.803 137.04L540.397 142.506L544.057 149.107L536.385 159.043L538.225 165.6Z" fill="#CA5F00"/>
<path d="M580.803 137.04L534.826 149.104L502.646 175.242L580.803 137.04Z" fill="#F1A34F"/>
<path d="M540.397 142.506L580.803 137.04L537.427 127.822L540.397 142.506Z" fill="#F1A34F"/>
<defs>
<linearGradient id="paint0_linear" x1="507.074" y1="12.518" x2="5.37997" y2="100.704" gradientUnits="userSpaceOnUse">
<stop offset="0.163632" stop-color="#FFCC00"/>
<stop offset="1" stop-color="#FFCC00" stop-opacity="0"/>
</linearGradient>
<linearGradient id="paint1_linear" x1="610.947" y1="453.019" x2="678.653" y2="453.019" gradientUnits="userSpaceOnUse">
<stop stop-color="#444B8C"/>
<stop offset="1" stop-color="#26264F"/>
</linearGradient>
<linearGradient id="paint2_linear" x1="540.47" y1="437.738" x2="576.834" y2="437.738" gradientUnits="userSpaceOnUse">
<stop stop-color="#311944"/>
<stop offset="1" stop-color="#6B3976"/>
</linearGradient>
<linearGradient id="paint3_linear" x1="141525" y1="160394" x2="148187" y2="160394" gradientUnits="userSpaceOnUse">
<stop stop-color="#311944"/>
<stop offset="1" stop-color="#6B3976"/>
</linearGradient>
<linearGradient id="paint4_linear" x1="-213333" y1="187630" x2="-223331" y2="187630" gradientUnits="userSpaceOnUse">
<stop stop-color="#311944"/>
<stop offset="1" stop-color="#6B3976"/>
</linearGradient>
<linearGradient id="paint5_linear" x1="211780" y1="187241" x2="221779" y2="187241" gradientUnits="userSpaceOnUse">
<stop stop-color="#311944"/>
<stop offset="1" stop-color="#6B3976"/>
</linearGradient>
<linearGradient id="paint6_linear" x1="-191452" y1="197175" x2="-201141" y2="197175" gradientUnits="userSpaceOnUse">
<stop stop-color="#311944"/>
<stop offset="1" stop-color="#6B3976"/>
</linearGradient>
<linearGradient id="paint7_linear" x1="189954" y1="196774" x2="199644" y2="196774" gradientUnits="userSpaceOnUse">
<stop stop-color="#311944"/>
<stop offset="1" stop-color="#6B3976"/>
</linearGradient>
<linearGradient id="paint8_linear" x1="656.062" y1="475.607" x2="635.975" y2="477.755" gradientUnits="userSpaceOnUse">
<stop offset="0.01" stop-color="#D8DEE8"/>
<stop offset="1" stop-color="#F4F7FA"/>
</linearGradient>
<linearGradient id="paint9_linear" x1="324035" y1="137027" x2="370003" y2="137027" gradientUnits="userSpaceOnUse">
<stop stop-color="#444B8C"/>
<stop offset="1" stop-color="#26264F"/>
</linearGradient>
<linearGradient id="paint10_linear" x1="405735" y1="149305" x2="470752" y2="149305" gradientUnits="userSpaceOnUse">
<stop stop-color="#444B8C"/>
<stop offset="1" stop-color="#26264F"/>
</linearGradient>
<linearGradient id="paint11_linear" x1="-126924" y1="164150" x2="-133585" y2="164150" gradientUnits="userSpaceOnUse">
<stop stop-color="#311944"/>
<stop offset="1" stop-color="#6B3976"/>
</linearGradient>
<linearGradient id="paint12_linear" x1="126063" y1="163748" x2="132724" y2="163748" gradientUnits="userSpaceOnUse">
<stop stop-color="#311944"/>
<stop offset="1" stop-color="#6B3976"/>
</linearGradient>
<linearGradient id="paint13_linear" x1="-62686.1" y1="86189.7" x2="-60192.9" y2="85988.1" gradientUnits="userSpaceOnUse">
<stop offset="0.01" stop-color="#D8DEE8"/>
<stop offset="1" stop-color="#F4F7FA"/>
</linearGradient>
<linearGradient id="paint14_linear" x1="400.006" y1="347.724" x2="552.693" y2="347.724" gradientUnits="userSpaceOnUse">
<stop stop-color="#FFC444"/>
<stop offset="1" stop-color="#F36F56"/>
</linearGradient>
<linearGradient id="paint15_linear" x1="-446227" y1="394084" x2="-542981" y2="394084" gradientUnits="userSpaceOnUse">
<stop stop-color="#FFC444"/>
<stop offset="1" stop-color="#F36F56"/>
</linearGradient>
<linearGradient id="paint16_linear" x1="841979" y1="432328" x2="1.05784e+06" y2="432328" gradientUnits="userSpaceOnUse">
<stop offset="0.01" stop-color="#D8DEE8"/>
<stop offset="1" stop-color="#F4F7FA"/>
</linearGradient>
<linearGradient id="paint17_linear" x1="948512" y1="422836" x2="885216" y2="557391" gradientUnits="userSpaceOnUse">
<stop offset="0.01" stop-color="#D8DEE8"/>
<stop offset="1" stop-color="#F4F7FA"/>
</linearGradient>
<linearGradient id="paint18_linear" x1="485666" y1="149189" x2="548570" y2="149189" gradientUnits="userSpaceOnUse">
<stop stop-color="#2B478B"/>
<stop offset="1" stop-color="#26264F"/>
</linearGradient>
<linearGradient id="paint19_linear" x1="273466" y1="74639.9" x2="273396" y2="83202.5" gradientUnits="userSpaceOnUse">
<stop stop-color="#444B8C"/>
<stop offset="1" stop-color="#26264F"/>
</linearGradient>
<linearGradient id="paint20_linear" x1="679.258" y1="410.867" x2="711.969" y2="467.974" gradientUnits="userSpaceOnUse">
<stop stop-color="#FCB148"/>
<stop offset="0.05" stop-color="#FDBA46"/>
<stop offset="0.14" stop-color="#FFC244"/>
<stop offset="0.32" stop-color="#FFC444"/>
<stop offset="0.48" stop-color="#FDB946"/>
<stop offset="0.78" stop-color="#F99C4D"/>
<stop offset="0.87" stop-color="#F8924F"/>
<stop offset="1" stop-color="#F8924F"/>
</linearGradient>
<linearGradient id="paint21_linear" x1="526319" y1="136437" x2="594496" y2="136437" gradientUnits="userSpaceOnUse">
<stop stop-color="#2B478B"/>
<stop offset="1" stop-color="#26264F"/>
</linearGradient>
<linearGradient id="paint22_linear" x1="401361" y1="104952" x2="438443" y2="104952" gradientUnits="userSpaceOnUse">
<stop stop-color="#444B8C"/>
<stop offset="1" stop-color="#26264F"/>
</linearGradient>
<linearGradient id="paint23_linear" x1="217195" y1="134153" x2="231088" y2="134153" gradientUnits="userSpaceOnUse">
<stop stop-color="#444B8C"/>
<stop offset="0.0001" stop-color="#2B478B"/>
<stop offset="1" stop-color="#26264F"/>
</linearGradient>
<linearGradient id="paint24_linear" x1="266.66" y1="603.455" x2="248.957" y2="603.455" gradientUnits="userSpaceOnUse">
<stop stop-color="#FF928E"/>
<stop offset="1" stop-color="#FEB3B1"/>
</linearGradient>
</defs>
</svg>
