<svg width="1778" height="513" viewBox="0 0 1778 513" fill="none" xmlns="http://www.w3.org/2000/svg">
<path d="M1565.25 102.447C1578.16 84.489 1674.58 73.119 1684.6 121.388C1685.47 125.559 1691.04 139.678 1691.18 147.915C1692.46 221.155 1700.64 197.45 1667.59 267.952C1641.97 322.611 1632.19 322.064 1571.13 330.464C1531.05 335.979 1500.02 308.897 1472.15 287.958C1460.73 279.379 1400.88 267.378 1394.01 280.007C1392.15 283.439 1356.03 306.145 1342.91 306.145C1290.03 306.145 1292.37 283.728 1275.28 243.321C1258.76 204.259 1286.47 150.613 1190.02 128.74C1103.18 109.046 1056.68 214.54 1049.2 279.851C1046.18 306.277 1016.76 369.444 997.157 387.442C979.158 403.97 979.92 410.422 955.538 426.492C898.62 464.008 870.683 459.279 819.124 435.43C803.762 434.75 732.721 380.585 723.524 365.201C690.095 309.287 719.597 159.075 703.023 132.533C686.448 105.991 663.188 107.633 638 109.721" stroke="#585858" stroke-opacity="0.16" stroke-width="3" stroke-miterlimit="22.9256" stroke-linecap="round" stroke-dasharray="2.12 10.58"/>
<path d="M644.12 316.036C611.001 400.896 324.532 418.262 249.832 389.108C175.133 359.954 285.577 251.354 318.696 166.494C351.816 81.6341 407.238 19.1641 481.937 48.318C556.636 77.4719 677.24 231.176 644.12 316.036Z" fill="url(#paint0_linear)" fill-opacity="0.82"/>
<path d="M220.575 333.004H235.737V256.006H220.575V333.004Z" fill="#FEFEFE"/>
<path d="M203.806 333.004H218.555V256.006H203.806V333.004Z" fill="#FEFEFE"/>
<path d="M187.032 333.004H201.78V256.006H187.032V333.004Z" fill="#FEFEFE"/>
<path d="M170.259 333.004H185.007V256.006H170.259V333.004Z" fill="#FEFEFE"/>
<path d="M153.49 333.004H168.238V256.006H153.49V333.004Z" fill="#FEFEFE"/>
<path d="M136.713 333.004H151.462V256.006H136.713V333.004Z" fill="#FEFEFE"/>
<path d="M119.942 333.004H134.69V256.006H119.942V333.004Z" fill="#FEFEFE"/>
<path d="M13.7124 353.143H28.4606V276.145H13.7124V353.143Z" fill="#FEFEFE"/>
<path d="M220.575 333.004H235.737V258.219H220.575V333.004Z" fill="#FDE9D7"/>
<path d="M203.806 333.004H218.555V258.219H203.806V333.004Z" fill="#FDE9D7"/>
<path d="M187.032 333.004H201.78V258.219H187.032V333.004Z" fill="#FDE9D7"/>
<path d="M170.259 333.004H185.007V258.219H170.259V333.004Z" fill="#FDE9D7"/>
<path d="M153.49 333.004H168.238V258.219H153.49V333.004Z" fill="#FDE9D7"/>
<path d="M136.713 333.004H151.462V258.219H136.713V333.004Z" fill="#FDE9D7"/>
<path d="M119.942 333.004H134.69V258.219H119.942V333.004Z" fill="#FDE9D7"/>
<path d="M13.7124 353.143H28.4606V278.357H13.7124V353.143Z" fill="#FDE9D7"/>
<path d="M220.575 333.004H235.737V323.094H220.575V333.004Z" fill="#E7AC7B"/>
<path d="M203.806 333.004H218.555V323.094H203.806V333.004Z" fill="#E7AC7B"/>
<path d="M187.032 333.004H201.78V323.094H187.032V333.004Z" fill="#E7AC7B"/>
<path d="M170.259 333.004H185.007V323.094H170.259V333.004Z" fill="#E7AC7B"/>
<path d="M153.49 333.004H168.238V323.094H153.49V333.004Z" fill="#E7AC7B"/>
<path d="M136.713 333.004H151.462V323.094H136.713V333.004Z" fill="#E7AC7B"/>
<path d="M119.942 333.004H134.69V323.094H119.942V333.004Z" fill="#E7AC7B"/>
<path d="M378.862 275.466H389.135V265.504H378.862V275.466Z" fill="#FEFEFE"/>
<path d="M378.862 287.247H389.135V277.285H378.862V287.247Z" fill="#FEFEFE"/>
<path d="M389.921 330.805H393.712V292.428H389.921V330.805Z" fill="#FEFEFE"/>
<path d="M382.51 330.805H386.3V292.428H382.51V330.805Z" fill="#FEFEFE"/>
<path d="M375.099 330.805H378.889V292.428H375.099V330.805Z" fill="#FEFEFE"/>
<path d="M367.881 330.805H371.293V292.428H367.881V330.805Z" fill="#FEFEFE"/>
<path d="M210.055 311.065C209.264 310.313 209.735 308.925 210.63 308.294C211.526 307.664 211.482 307.828 213.731 307.194C215.032 306.827 216.141 306.099 218.217 303.857C220.382 304.154 222.587 304.169 224.756 303.902C225.286 306.092 225.483 308.358 225.338 310.603C220.254 310.981 215.153 311.134 210.054 311.065H210.055Z" fill="#273B5B"/>
<path d="M133.524 279.293C133.291 280.68 133.401 285.464 133.173 286.792L156.285 286.735C156.191 286.233 155.29 280.388 155.142 279.918C153.855 275.793 154.18 274.29 154.023 269.981C153.847 265.186 154.885 263.227 156.022 258.558C156.578 256.272 156.666 253.957 154.147 250.946C152.369 248.821 151.803 247.821 149.603 244.021C148.413 241.967 146.002 243.007 143.601 242.651C142.576 242.499 140.875 244 140.027 244.583C139.394 245.019 138.309 246.717 138.035 247.423C137.323 249.263 137.019 251.49 136.805 253.445C136.218 258.81 137.618 261.115 137.181 266.493C136.813 271.004 134.344 274.407 133.524 279.293H133.524Z" fill="#0096AD"/>
<path d="M159.094 274.715H191.382V241.604H159.094V274.715Z" fill="#E7AC7B"/>
<path d="M152.067 255.888C151.262 253.896 150.66 252.736 149.957 249.839C149.454 247.767 148.487 244.307 146.47 243.669C144.453 243.031 141.97 243.662 140.866 245.499C139.939 247.041 140.133 249.006 140.482 250.778C141.161 254.229 142.311 257.581 143.887 260.711C146.594 266.084 150.226 269.309 155.142 272.676C160.058 276.043 164.56 278.014 172.103 280.004C172.729 278.824 173.427 277.333 174.053 276.153C164.946 271.465 155.953 265.512 152.067 255.888V255.888Z" fill="#FCD49A"/>
<path d="M246.291 237.245C243.545 238.637 240.465 239.326 237.38 239.604C236.462 239.687 235.485 239.724 234.672 239.302C233.858 238.881 233.317 237.84 233.769 237.06C241.364 236.016 248.573 232.491 253.953 227.189C254.617 228.323 254.044 229.751 253.341 230.862C251.64 233.552 249.175 235.783 246.291 237.245H246.291Z" fill="#273B5B"/>
<path d="M246.351 237.646C245.906 236.842 245.554 235.987 245.305 235.104L245.992 234.922C246.226 235.755 246.559 236.562 246.978 237.32L246.351 237.646V237.646Z" fill="#06B0C0"/>
<path d="M237.573 241.59C236.917 240.202 236.58 238.662 236.599 237.137L237.31 237.144C237.293 238.569 237.607 240.007 238.219 241.303L237.573 241.59V241.59Z" fill="#06B0C0"/>
<path d="M144.843 268.691C146.278 270.5 147.883 272.218 149.845 273.479C150.454 273.871 151.113 274.223 151.836 274.328C152.559 274.431 153.361 274.247 153.838 273.71C154.45 273.024 154.38 271.998 154.197 271.109C152.263 261.719 142.181 255.48 140.131 246.113C138.356 249.77 138.198 254.046 139.2 257.969C140.201 261.892 142.3 265.489 144.843 268.691V268.691Z" fill="#273B5B"/>
<path d="M281.623 332.503H394.757V285.578H281.623V332.503Z" fill="#273B5B"/>
<path d="M384.857 313.479C382.535 313.479 376.323 313.479 374.002 313.479C370.544 313.479 367.741 322.422 367.741 333.453C367.741 344.485 370.544 353.428 374.002 353.428C376.323 353.428 382.535 353.428 384.857 353.428C388.314 353.428 391.117 344.485 391.117 333.453C391.117 322.422 388.314 313.479 384.857 313.479Z" fill="#273B5B"/>
<path d="M389.417 334.616C389.417 342.67 387.466 349.201 385.058 349.201C382.65 349.201 380.698 342.67 380.698 334.616C380.698 326.561 382.65 320.031 385.058 320.031C387.466 320.031 389.417 326.561 389.417 334.616Z" fill="#FEEFD5"/>
<path d="M387.224 224.028L336.138 187.836V332.389H375.248V318.143C375.248 313.277 379.771 309.584 384.716 310.415L384.893 310.445C389.523 311.222 392.904 315.118 392.904 319.674V332.389H398.75V271.54C398.75 271.035 398.706 270.531 398.62 270.032L391.965 231.479C391.449 228.49 389.747 225.815 387.224 224.028V224.028Z" fill="#FFCC00"/>
<path d="M402.779 270.782H401.689C399.762 270.782 398.201 269.268 398.201 267.4V257.677C398.201 255.809 399.762 254.295 401.689 254.295H402.779C404.705 254.295 406.266 255.809 406.266 257.677V267.4C406.266 269.268 404.705 270.782 402.779 270.782Z" fill="#6E4694"/>
<path d="M401.841 270.782H400.752C398.826 270.782 397.264 269.268 397.264 267.4V257.677C397.264 255.809 398.826 254.295 400.752 254.295H401.841C403.768 254.295 405.329 255.809 405.329 257.677V267.4C405.329 269.268 403.768 270.782 401.841 270.782Z" fill="#273B5B"/>
<path d="M375.924 225.772L375.478 263.13C375.469 263.824 375.984 264.421 376.69 264.535L393.081 267.183C394.062 267.342 394.913 266.518 394.752 265.566L388.976 231.675C388.908 231.275 388.665 230.923 388.309 230.709L378.14 224.592C377.179 224.015 375.937 224.676 375.924 225.772L375.924 225.772Z" fill="#273B5B"/>
<path d="M382.685 272.163L378.331 271.635C377.676 271.555 377.185 271.014 377.187 270.373L377.19 269.406L383.558 270.179L383.554 271.421C383.553 271.871 383.145 272.219 382.685 272.163V272.163Z" fill="#EBEDF8"/>
<path d="M395.058 323.484L394.127 323.449C394.598 311.435 388.822 309.969 388.764 309.956L373.854 308.056V218.68H374.785V307.264L388.931 309.068C389.247 309.139 395.556 310.736 395.058 323.484V323.484Z" fill="#273B5B"/>
<path d="M168.488 296.992C164.729 296.992 154.672 296.992 150.913 296.992C145.315 296.992 140.777 311.472 140.777 329.332C140.777 347.193 145.316 361.671 150.913 361.671C154.672 361.671 164.729 361.671 168.488 361.671C174.087 361.671 178.625 347.193 178.625 329.332C178.625 311.472 174.087 296.992 168.488 296.992Z" fill="#273B5B"/>
<path d="M173.395 331.446C173.395 343.353 171.444 353.006 169.036 353.006C166.628 353.006 164.676 343.353 164.676 331.446C164.676 319.539 166.628 309.887 169.036 309.887C171.444 309.887 173.395 319.539 173.395 331.446V331.446Z" fill="#FEEFD5"/>
<path d="M280.971 296.992C277.212 296.992 267.154 296.992 263.395 296.992C257.797 296.992 253.259 311.472 253.259 329.332C253.259 347.193 257.797 361.671 263.395 361.671C267.154 361.671 277.212 361.671 280.971 361.671C286.569 361.671 291.107 347.193 291.107 329.332C291.107 311.472 286.568 296.992 280.971 296.992Z" fill="#273B5B"/>
<path d="M285.875 331.446C285.875 343.353 283.923 353.006 281.515 353.006C279.108 353.006 277.156 343.353 277.156 331.446C277.156 319.539 279.108 309.887 281.515 309.887C283.923 309.887 285.875 319.539 285.875 331.446V331.446Z" fill="#FEEFD5"/>
<path d="M195.952 296.992C192.194 296.992 182.136 296.992 178.377 296.992C172.779 296.992 168.241 311.472 168.241 329.332C168.241 347.193 172.779 361.671 178.377 361.671C182.136 361.671 192.194 361.671 195.952 361.671C201.55 361.671 206.088 347.193 206.088 329.332C206.088 311.472 201.55 296.992 195.952 296.992Z" fill="#273B5B"/>
<path d="M200.86 331.446C200.86 343.353 198.907 353.006 196.5 353.006C194.092 353.006 192.14 343.353 192.14 331.446C192.14 319.539 194.092 309.887 196.5 309.887C198.907 309.887 200.86 319.539 200.86 331.446V331.446Z" fill="#FEEFD5"/>
<path d="M309.742 296.992C305.984 296.992 295.926 296.992 292.167 296.992C286.569 296.992 282.031 311.472 282.031 329.332C282.031 347.193 286.569 361.671 292.167 361.671C295.926 361.671 305.984 361.671 309.742 361.671C315.34 361.671 319.879 347.193 319.879 329.332C319.879 311.472 315.34 296.992 309.742 296.992Z" fill="#273B5B"/>
<path d="M315.957 331.446C315.957 343.353 314.006 353.006 311.598 353.006C309.19 353.006 307.239 343.353 307.239 331.446C307.239 319.539 309.19 309.887 311.598 309.887C314.006 309.887 315.957 319.539 315.957 331.446V331.446Z" fill="#FEEFD5"/>
<path d="M372.85 213.845L336.138 187.836V332.389H372.85V213.845Z" fill="#273B5B"/>
<path d="M120.896 146.778V332.388H274.558V110L120.896 146.778Z" fill="#FFCC00"/>
<path d="M268.967 118.373L125.906 152.615V332.561H268.967V118.373Z" fill="#273B5B"/>
<path d="M274.559 110V332.389H295.864V303.705C295.864 297.247 301.863 292.345 308.427 293.441L314.55 294.463C320.423 295.443 324.715 300.382 324.715 306.16V332.389H370.885V177.829L274.559 110V110Z" fill="#FFE26C"/>
<path d="M370.885 198.353L274.559 140.398V204.382L370.885 238.585V198.353Z" fill="#FFCC00"/>
<path d="M371.212 290.58L281.51 278.11L281.738 276.561L371.44 289.03L371.212 290.58Z" fill="#273B5B"/>
<path d="M373.501 321.617L322.983 317.641V333.77H373.501V321.617Z" fill="#273B5B"/>
<path d="M391.814 323.059V333.77H399.008V323.625L391.814 323.059Z" fill="#273B5B"/>
<path d="M298.133 315.684L280.858 314.324V333.77H298.133V315.684Z" fill="#273B5B"/>
<path d="M280.857 333.77H119.657C117.189 333.77 115.189 331.83 115.189 329.437V318.657C115.189 316.264 117.189 314.324 119.657 314.324H280.857V333.77V333.77Z" fill="#273B5B"/>
<path d="M280.86 316.901V314.324H119.66C117.837 314.324 116.273 315.384 115.578 316.901H280.86Z" fill="#FEFEFE"/>
<path d="M135.827 325.21H125.952C124.164 325.21 122.715 323.804 122.715 322.071V322.008C122.715 320.274 124.164 318.869 125.952 318.869H135.827C137.614 318.869 139.064 320.274 139.064 322.008V322.071C139.064 323.804 137.614 325.21 135.827 325.21Z" fill="#ED6D64"/>
<path d="M264.002 325.21H254.127C252.339 325.21 250.89 323.804 250.89 322.071V322.008C250.89 320.274 252.339 318.869 254.127 318.869H264.002C265.79 318.869 267.239 320.274 267.239 322.008V322.071C267.239 323.804 265.79 325.21 264.002 325.21Z" fill="#ED6D64"/>
<path d="M128.493 311.351H198.887V240.541H128.493V311.351Z" fill="#FCD49A"/>
<path d="M191.91 304.395L189.365 301.496L186.82 304.395H188.137V309.525H190.593V304.395H191.91Z" fill="#6E4694"/>
<path d="M177.77 308.764H184.353V302.381H177.77V308.764ZM185.065 309.454H177.059V301.691H185.065V309.454Z" fill="#6D4895"/>
<path d="M168.716 308.764H175.298V302.381H168.716V308.764ZM176.01 309.454H168.004V301.691H176.01V309.454Z" fill="#6D4895"/>
<path d="M146.081 235.803H197.5V184.08H146.081V235.803Z" fill="#FCD49A"/>
<path d="M193.251 217.592L187.875 211.469L182.499 217.592H185.281V219.464H190.469V217.592H193.251Z" fill="#6E4694"/>
<path d="M200.449 310.879H251.868V204.986H200.449V310.879Z" fill="#E7AC7B"/>
<path d="M200.449 310.879H211.06V204.986H200.449V310.879Z" fill="#CA7F49"/>
<path d="M247.616 304.632L242.24 298.508L236.865 304.632H239.646V306.503H244.835V304.632H247.616Z" fill="#6E4694"/>
<path d="M34.1859 273.734C31.4135 271.126 29.0599 268.128 27.2028 264.875C24.4277 265.698 21.7837 266.981 19.2605 268.502C21.8868 273.042 25.3416 277.889 29.9944 280.607C35.154 283.621 40.5818 286.025 50.4459 287.467C50.9173 286.121 51.3888 284.776 51.8609 283.431C45.1997 281.684 39.0552 278.314 34.186 273.734L34.1859 273.734Z" fill="#FCD49A"/>
<path d="M24.0404 256.962C23.5515 255.386 23.0968 253.618 21.6376 252.727C20.1051 251.792 17.8952 252.24 16.5827 253.475C15.271 254.711 14.7685 256.551 14.8723 258.277C14.9763 260.004 15.6191 261.65 16.3188 263.24C17.1706 265.173 18.1288 267.072 19.1934 268.913C21.8413 267.317 24.6148 265.97 27.5269 265.107C28.6 267.641 24.9829 260.002 24.0406 256.962H24.0404Z" fill="#E9514A"/>
<path d="M30.2331 373.89C31.6181 374.341 33.1086 374.357 34.5691 374.342C38.2268 374.305 41.8824 374.097 45.5186 373.72C45.5207 373.271 45.5229 372.821 45.525 372.371C40.4047 372.627 35.2781 372.755 30.1511 372.755C30.1781 373.134 30.2053 373.512 30.2331 373.89V373.89Z" fill="#273B5B"/>
<path d="M45.459 372.922C46.2078 372.131 45.664 370.769 44.7352 370.185C43.8065 369.6 43.8606 369.761 41.5794 369.242C40.2612 368.942 39.1145 368.27 36.9201 366.137C34.7743 366.542 32.5729 366.668 30.3928 366.512C29.9813 368.726 29.9068 370.998 30.1721 373.233C35.2691 373.352 40.3717 373.249 45.4592 372.922H45.459Z" fill="#273B5B"/>
<path d="M30.0426 291.006L11.1548 295.756C12.4871 302.658 13.9136 305.686 16.0125 310.551C24.0433 329.168 28.1167 347.801 29.2404 368.43C32.3358 368.17 35.432 367.91 38.5272 367.651C38.1181 350.855 37.2469 334.068 35.7044 317.338C34.8765 308.355 33.7599 299.197 30.0425 291.006L30.0426 291.006Z" fill="#2B478B"/>
<path d="M6.617 367.428C7.02332 366.045 7.51888 364.687 8.09888 363.363C5.83186 363.154 3.565 362.947 1.29798 362.738C0.875112 364.276 0.579068 365.846 0.41333 367.428C2.47819 367.287 4.55281 367.286 6.617 367.428V367.428Z" fill="#6E4694"/>
<path d="M0.221528 373.157C1.60654 373.608 3.09703 373.624 4.5582 373.61C8.21504 373.572 11.8707 373.365 15.5077 372.988C15.5098 372.538 15.5113 372.088 15.5133 371.639C10.3938 371.894 5.26685 372.022 0.139404 372.023C0.16722 372.401 0.194209 372.779 0.221363 373.157H0.221528Z" fill="#273B5B"/>
<path d="M15.3475 372.206C16.0964 371.604 15.5518 369.892 14.6238 369.447C13.6949 369.002 13.7489 369.125 11.4677 368.729C10.1495 368.5 9.00295 367.989 6.80879 366.363C4.66263 366.673 2.46135 366.769 0.28109 366.649C-0.130357 368.336 -0.0384647 370.849 0.226948 372.551C5.32459 372.643 10.2598 372.455 15.3474 372.206L15.3475 372.206Z" fill="#273B5B"/>
<path d="M10.8014 296.219C8.86465 307.782 15.2625 319.81 12.1546 331.116C11.3822 333.925 10.0498 336.544 8.82922 339.191C5.17718 347.115 2.46461 355.467 0.767822 364.019C3.31946 364.896 7.83843 365.679 10.3709 366.123C16.3603 354.526 22.2351 345.122 25.8224 331.414C29.3539 317.917 28.559 304.187 27.7648 291.578C27.7648 291.578 10.8237 296.089 10.8015 296.219L10.8014 296.219Z" fill="#2B478B"/>
<path d="M15.5559 295.773C14.2414 295.957 12.9181 296.089 11.5901 296.134C11.6292 296.675 11.6684 297.215 11.7067 297.756C13.0761 297.727 14.4419 297.613 15.7979 297.426C15.613 296.896 15.531 296.334 15.5559 295.773V295.773Z" fill="#0096AD"/>
<path d="M16.0935 295.704C16.0545 296.263 16.1391 296.824 16.3354 297.348C18.6501 296.993 20.9284 296.414 23.1213 295.612C23.2857 295.552 23.4501 295.484 23.6145 295.42C23.4117 294.951 23.233 294.472 23.0876 293.982L23.6009 293.839C23.7412 294.312 23.9135 294.775 24.1097 295.227C26.3688 294.289 28.5191 292.962 29.66 290.883C25.5197 293.329 20.8797 294.965 16.0934 295.704H16.0935Z" fill="#0096AD"/>
<path d="M26.4149 268.577C26.0967 264.977 25.8071 261.337 24.6832 257.892C23.56 254.446 21.5054 251.158 18.3572 249.224C15.2091 247.29 10.8617 246.978 7.81683 249.062C4.57558 251.28 3.53347 255.466 3.25249 259.304C2.91522 263.91 3.31922 268.534 3.76411 273.132C4.59562 281.728 4.87941 288.143 8.12513 296.183C15.8256 296.844 23.7161 295.251 30.5054 291.666C30.8849 291.466 31.292 291.225 31.4286 290.827C31.5816 290.381 31.3434 289.909 31.1203 289.491C27.336 282.401 27.1183 276.532 26.4149 268.577V268.577Z" fill="#FFE26C"/>
<path d="M16.5751 255.354C18.9068 257.645 20.066 260.844 20.578 264.025C21.0891 267.206 21.022 270.445 21.2797 273.655C21.6982 278.873 22.9822 284.024 25.0676 288.85C25.4171 289.659 25.7966 290.527 25.6051 291.383C25.2748 292.857 23.5083 293.495 21.9943 293.841C19.6925 294.365 17.368 294.792 15.0276 295.12C14.4177 295.205 13.7622 295.277 13.212 295.006C12.6134 294.712 12.2839 294.083 12.0026 293.492C8.59134 286.308 6.47366 278.55 5.77627 270.67C5.48884 267.417 5.45804 264.043 6.68874 261.002C7.92011 257.963 10.6617 255.312 14.0118 254.977L16.5749 255.354H16.5751Z" fill="#FFE26C"/>
<path d="M19.8795 242.295C16.1748 241.928 15.2311 241.205 12.308 238.969L8.78052 248.068C12.5258 247.411 16.0602 248.355 19.3437 250.11C18.713 247.328 18.7536 244.449 19.8795 242.295V242.295Z" fill="#FCD49A"/>
<path d="M19.0032 247.876C18.826 245.843 19.053 243.873 19.8781 242.296C16.5549 241.966 15.4495 241.347 13.1477 239.609C13.2411 243.613 15.6753 246.325 19.0033 247.876H19.0032Z" fill="#273B5B"/>
<path d="M8.73144 247.52C8.79253 247.29 8.86439 247.044 9.05662 246.897C9.21458 246.776 9.42386 246.746 9.62371 246.723C13.7392 246.242 17.9947 246.95 21.7102 248.733C21.5641 250.37 21.6213 252.026 21.8802 253.65C19.7834 252.434 17.6553 251.237 15.3548 250.438C13.0544 249.638 9.35896 249.36 6.95898 249.803C7.15188 249.078 8.53772 248.245 8.73144 247.52V247.52Z" fill="#FFCC00"/>
<path d="M24.9918 241.508C24.8386 240.502 24.1583 239.606 24.0573 238.607C24.2032 238.284 24.5805 237.909 24.6054 237.613C24.7376 236.02 24.6979 235.068 24.7264 233.471C24.7376 232.816 24.7391 232.149 24.5363 231.523C24.132 230.278 22.9513 229.378 21.6694 228.977C20.3877 228.575 19.0075 228.603 17.6652 228.707C15.9322 228.843 14.0617 229.173 12.8929 230.421C12.125 231.242 11.7733 232.358 11.6303 233.458C11.221 236.612 12.4217 239.891 14.6665 242.208C16.912 244.524 19.5991 246.229 22.767 246.101C23.1597 244.736 23.5576 243.684 23.8702 242.479C24.0275 242.454 24.1848 242.428 24.3421 242.404C24.5093 242.377 24.6858 242.345 24.8146 242.238C25.0183 242.067 25.031 241.766 24.992 241.508L24.9918 241.508Z" fill="#FCD49A"/>
<path d="M22.0711 243.002C22.1138 243.073 22.1949 243.114 22.2741 243.145C22.6292 243.285 23.0292 243.314 23.4029 243.23C23.4278 243.113 23.4534 242.996 23.4789 242.878C23.2427 242.891 23.0051 242.904 22.77 242.875C22.5352 242.845 22.3017 242.769 22.1194 242.623C22.0611 242.743 22.0034 242.887 22.0711 243.003V243.002Z" fill="#273B5B"/>
<path d="M23.2402 237.943C23.2467 237.826 23.2112 237.685 23.0965 237.647C22.9882 237.612 22.8758 237.691 22.8031 237.777C22.6508 237.955 22.5647 238.187 22.564 238.418C22.5632 238.495 22.5776 238.581 22.6408 238.627C22.7349 238.695 22.8691 238.631 22.9534 238.552C23.1235 238.394 23.2288 238.172 23.2402 237.943V237.943Z" fill="#273B5B"/>
<path d="M22.2005 236.914C22.6844 236.833 23.177 236.805 23.6666 236.831C23.6623 236.7 23.6582 236.57 23.6537 236.44C23.1641 236.362 22.6523 236.413 22.1897 236.588C22.2223 236.693 22.226 236.807 22.2005 236.914Z" fill="#273B5B"/>
<path d="M11.6362 231.628C12.2903 229.788 14.1615 228.53 16.1273 228.135C18.0932 227.739 20.1416 228.086 22.0654 228.644C22.7744 228.85 23.5123 229.109 23.9857 229.661C24.3387 230.073 24.504 230.603 24.6405 231.123C24.7452 231.522 24.8384 231.932 24.807 232.343C24.7295 233.357 23.8817 234.198 22.9067 234.571C21.9316 234.943 20.8476 234.928 19.8035 234.84C17.353 234.635 14.9522 234.066 12.5629 233.5C12.3137 233.441 12.0561 233.378 11.8575 233.22C11.402 232.859 11.4448 232.168 11.6362 231.629V231.628Z" fill="#273B5B"/>
<path d="M17.5225 237.136C17.5779 236.649 17.9834 236.163 18.4882 236.188C18.9893 236.214 19.456 236.656 19.5287 237.138C19.6292 237.808 19.6726 238.273 19.938 238.531C20.2398 237.15 20.7173 235.806 21.3748 234.546C18.5358 233.941 15.6965 233.336 12.8573 232.73C12.6396 232.684 12.4126 232.637 12.1961 232.688C12.0061 232.733 11.8417 232.85 11.7014 232.982C11.0573 233.586 10.8466 234.519 10.9014 235.388C10.9562 236.255 11.2401 237.091 11.4473 237.938C11.6544 238.784 11.7832 239.681 11.5305 240.515C13.0722 240.318 14.5561 239.716 15.7831 238.791C16.2984 238.402 16.8722 237.936 17.5041 237.994C17.4835 237.689 17.4933 237.38 17.522 237.136L17.5225 237.136Z" fill="#333333"/>
<path d="M18.5619 227.768C20.1378 227.941 21.6972 228.252 23.2155 228.695C23.7784 228.86 24.377 229.071 24.7036 229.545C24.9742 229.936 25.0068 230.432 25.0191 230.902C25.0568 232.361 24.9757 233.822 24.7757 235.268C20.9855 235.986 17.0198 235.813 13.3114 234.768C12.4273 234.519 11.4294 234.089 11.2259 233.219C11.127 232.796 11.2452 232.358 11.3626 231.94C11.6125 231.052 11.8743 230.139 12.4514 229.409C13.1242 228.557 14.1732 228.038 15.2564 227.816C16.3399 227.595 17.4622 227.648 18.5617 227.768H18.5619Z" fill="#E1473D"/>
<path d="M24.7343 232.077C24.7649 231.382 24.7856 230.645 24.4354 230.038C24.0824 229.424 23.3998 229.046 22.7022 228.852C22.0048 228.659 21.2723 228.62 20.5564 228.508C20.97 228.85 21.2169 229.353 21.326 229.87C21.4356 230.387 21.4192 230.921 21.3793 231.447C21.272 232.893 20.9978 234.328 20.5652 235.716C21.1771 235.715 21.795 235.714 22.3934 235.588C22.9915 235.461 23.5771 235.199 23.9801 234.752C24.6207 234.042 24.6934 233.019 24.7345 232.077H24.7343Z" fill="#ED6D64"/>
<path d="M24.7457 234.228C25.5657 234.079 25.7493 234.585 28.7693 234.896C27.4297 236.168 26.0794 236.867 24.2169 236.655C22.3542 236.443 20.641 236.136 18.8154 235.684C20.8631 235.695 22.7329 234.595 24.7457 234.228Z" fill="#E1473D"/>
<path d="M12.6511 231.47C12.6105 231.354 12.4844 231.291 12.3693 231.24C12.2468 231.187 12.106 231.133 11.9835 231.186C11.8633 231.238 11.8107 231.374 11.7693 231.496C11.6704 231.793 11.5708 232.102 11.6249 232.41C11.679 232.716 11.9431 233.012 12.2632 232.997C12.3857 232.575 12.5081 232.153 12.6306 231.732C12.6554 231.646 12.6804 231.554 12.6511 231.47Z" fill="#273B5B"/>
<path d="M15.2967 257.705C15.2548 255.825 15.2589 253.744 13.9145 252.348C12.5023 250.881 9.926 250.751 8.10454 251.746C6.28391 252.742 5.17639 254.632 4.77206 256.569C4.36856 258.506 4.5843 260.507 4.88018 262.461C5.23964 264.837 5.72791 267.206 6.35212 269.541C9.75629 268.526 13.2262 267.821 16.7024 267.69C15.8495 264.422 15.372 261.069 15.2965 257.705H15.2967Z" fill="#FFCC00"/>
<path d="M6.47441 269.675C9.81666 268.632 13.2837 267.991 16.7863 267.773L16.7522 267.256C13.2367 267.475 9.75705 268.117 6.4004 269.155C6.20105 267.74 5.85948 266.34 5.51939 264.983C5.26739 263.978 5.00695 262.94 4.81256 261.911C4.22048 258.768 4.43026 256.286 5.45515 254.324C6.56846 252.193 9.25951 250.4 11.8375 251.094L11.9797 250.595C9.1355 249.831 6.1883 251.773 4.97896 254.091C3.89943 256.157 3.67293 258.746 4.28803 262.004C4.4844 263.047 4.747 264.093 5.00049 265.105C5.37915 266.614 5.77007 268.174 5.94425 269.733L6.16976 269.71L6.18698 269.762C6.27805 269.733 6.36977 269.708 6.461 269.679L6.47541 269.678C6.47541 269.677 6.47458 269.676 6.47458 269.675L6.47441 269.675Z" fill="#273B5B"/>
<path d="M213.221 311.292C212.431 310.54 212.901 309.151 213.797 308.521C214.693 307.891 214.648 308.055 216.898 307.421C218.198 307.054 219.308 306.326 221.384 304.084C223.549 304.381 225.754 304.396 227.923 304.13C228.453 306.319 228.65 308.585 228.505 310.829C223.421 311.207 218.319 311.361 213.221 311.291L213.221 311.292Z" fill="#273B5B"/>
<path d="M252.819 229.506C247.536 230.777 242.043 231.229 236.615 230.837L233.802 230.711C234.382 236.237 232.05 242.353 229.516 247.334C226.981 252.315 225.203 256.223 223.281 261.455C218.483 274.507 220.004 291.011 220.234 304.857L228.554 304.63C229.036 288.847 231.069 271.049 240.478 258.16C243.675 253.781 247.335 249.692 249.98 244.979C252.625 240.266 254.204 234.701 252.819 229.506Z" fill="#2B478B"/>
<path d="M230.24 277.716C232.948 270.241 235.661 262.753 237.668 255.071C238.127 253.309 238.553 251.473 238.206 249.685C237.858 247.898 236.537 246.163 234.686 245.865C230.58 258.182 226.425 270.841 227.128 283.768C228.657 282.051 229.465 279.856 230.24 277.716H230.24Z" fill="#273B5B"/>
<path d="M229.741 311.065C228.95 310.313 229.421 308.925 230.317 308.294C231.212 307.664 231.167 307.828 233.418 307.194C234.718 306.827 235.827 306.099 237.904 303.857C240.068 304.154 242.274 304.169 244.442 303.902C244.973 306.092 245.169 308.358 245.024 310.603C239.941 310.981 234.839 311.134 229.741 311.065V311.065Z" fill="#273B5B"/>
<path d="M244.729 304.977C243.044 289.027 242.933 274.088 247.731 259.181C250.939 249.219 257.791 243.639 256.184 230.496L254.562 225.42C247.805 228.847 242.457 229.122 234.888 230.11C235.156 241.062 232.806 250.603 231.807 260.392C230.289 275.284 232.906 290.235 235.667 304.977H244.729Z" fill="#2B478B"/>
<path d="M216.386 207.703C210.551 214.27 203.023 219.411 194.681 222.524C195.572 224.133 196.464 225.741 197.354 227.35C204.426 224.561 211.396 221.392 217.585 217.058C220.11 215.291 222.621 213.491 224.933 211.528C223.942 208.413 221.597 206.659 218.747 204.928C217.969 205.861 217.193 206.796 216.387 207.703H216.386Z" fill="#E69D43"/>
<path d="M229.112 195.83C226.997 196.489 224.833 198.451 223.6 199.593C221.826 201.233 220.285 203.08 218.746 204.928C221.535 206.569 223.834 208.547 224.932 211.528C228.286 208.679 231.215 205.482 233.118 201.508C234.449 198.728 232.851 194.665 229.112 195.83Z" fill="#FFE26C"/>
<path d="M223.919 209.608C222.347 207.792 220.369 206.258 218.198 205.171L218.443 204.711C220.677 205.829 222.711 207.407 224.328 209.274L223.919 209.608Z" fill="#273B5B"/>
<path d="M248.932 233.718C244.819 236.148 239.92 237.609 234.918 237.939C232.763 238.081 230.855 236.614 230.53 234.544C229.489 227.883 227.825 221.292 225.556 214.854C224.111 210.75 222.4 206.506 223.231 202.282C223.879 198.99 226.13 195.945 229.345 194.008C232.56 192.072 236.69 190.601 240.583 191.158C247.94 199.311 251.065 210.234 253.906 220.202C254.645 222.799 255.374 225.551 254.426 228.098C253.546 230.459 251.332 232.3 248.932 233.718L248.932 233.718Z" fill="#FFCC00"/>
<path d="M223.27 191.046C226.692 189.162 227.288 188.073 229.135 184.703L235.862 191.244C233.197 194.935 231.889 195.908 228.062 198.678C226.238 195.831 225.965 193.19 223.27 191.046Z" fill="#E69D43"/>
<path d="M226.566 196.084C225.845 194.045 224.761 192.233 223.27 191.047C226.34 189.357 227.138 188.301 228.602 185.67C230.269 189.583 229.104 193.21 226.566 196.084V196.084Z" fill="#273B5B"/>
<path d="M227.358 212.745C228.165 207.09 231.554 201.949 236.086 198.305C237.614 197.077 239.777 195.97 241.478 196.961C242.284 197.431 242.772 198.282 243.081 199.143C244.349 202.692 243.099 206.572 241.852 210.127C239.976 215.479 238.1 220.832 236.091 226.138C235.138 228.654 234.096 231.248 232.097 233.099C229.26 226.612 226.362 219.725 227.357 212.745L227.358 212.745Z" fill="#FFE26C"/>
<path d="M234.515 189.861C234.767 190.857 234.46 191.922 233.913 192.799C233.366 193.675 232.594 194.396 231.832 195.105C230.942 195.933 230.048 196.764 229.05 197.466C228.74 197.683 228.414 197.895 228.193 198.198C228.047 198.398 227.954 198.629 227.87 198.86C227.395 200.152 227.125 201.514 227.069 202.885C228.584 200.788 230.718 199.202 232.64 197.447C234.562 195.69 236.36 193.612 236.864 191.098C236.012 190.829 235.212 190.408 234.515 189.861H234.515Z" fill="#FFCC00"/>
<path d="M226.727 195.746C225.955 196.52 225.46 198.031 225.51 199.107C225.56 200.184 225.941 201.22 226.404 202.2C226.583 200.706 227.342 199.283 228.496 198.278C227.639 197.779 227.127 196.634 226.727 195.746H226.727Z" fill="#FFCC00"/>
<path d="M227.95 178.847C227.329 177.842 226.499 176.909 225.395 176.431C223.716 175.705 221.762 176.159 220.026 176.743C218.681 177.196 217.334 177.739 216.27 178.656C215.207 179.574 214.459 180.932 214.615 182.304C214.693 182.992 214.987 183.637 215.286 184.266C216.014 185.799 216.393 186.737 217.221 188.223C217.377 188.501 217.914 188.71 218.195 188.965C218.262 189.162 218.279 189.386 218.286 189.596C218.325 190.765 218.335 191.692 218.727 192.798C218.781 192.949 219.133 193.146 219.294 193.179C219.473 193.215 219.964 193.126 220.091 192.999C220.152 192.938 220.2 192.896 220.25 192.849C221.024 193.788 221.817 194.603 222.725 195.677C225.846 194.493 227.697 191.734 228.853 188.566C230.008 185.399 229.73 181.73 227.95 178.848L227.95 178.847Z" fill="#E69D43"/>
<path d="M218.093 187.124C218.754 186.976 219.443 186.939 220.117 187.014C220.108 187.118 220.122 187.224 220.158 187.322C219.527 187.275 218.887 187.346 218.283 187.529C218.22 187.395 218.156 187.259 218.093 187.124V187.124Z" fill="#273B5B"/>
<path d="M220.33 188.525C220.245 188.397 220.148 188.267 220.008 188.198C219.867 188.13 219.671 188.145 219.582 188.27C219.493 188.395 219.543 188.57 219.632 188.695C219.72 188.819 219.845 188.919 219.987 188.98C220.127 189.041 220.321 189.049 220.404 188.925C220.485 188.804 220.409 188.646 220.33 188.525Z" fill="#273B5B"/>
<path d="M221.283 193.152C221.703 193.061 222.062 192.808 222.435 192.599C222.487 192.569 222.544 192.539 222.604 192.543C222.719 192.551 222.789 192.683 222.77 192.794C222.751 192.904 222.671 192.994 222.593 193.076C222.413 193.265 222.22 193.451 221.982 193.568C221.745 193.685 221.454 193.723 221.212 193.614C221.143 193.582 221.079 193.538 221.04 193.474C221.001 193.411 220.994 193.326 221.037 193.265C221.089 193.189 221.192 193.171 221.283 193.152H221.283Z" fill="#273B5B"/>
<path d="M227.138 177.082C225.698 175.571 223.335 175.127 221.26 175.556C219.184 175.985 217.354 177.165 215.739 178.499C215.143 178.991 214.542 179.546 214.327 180.275C214.166 180.819 214.239 181.401 214.335 181.96C214.409 182.389 214.499 182.825 214.71 183.209C215.23 184.158 216.419 184.622 217.526 184.58C218.633 184.537 219.675 184.075 220.646 183.559C222.928 182.349 225 180.809 227.064 179.275C227.279 179.115 227.5 178.947 227.623 178.713C227.905 178.175 227.56 177.525 227.138 177.082H227.138Z" fill="#273B5B"/>
<path d="M223.696 184.842C223.429 184.394 222.822 184.09 222.346 184.323C221.872 184.555 221.615 185.175 221.755 185.672C221.953 186.361 222.116 186.83 221.971 187.189C221.074 185.977 220.021 184.873 218.832 183.927C221.313 182.169 223.794 180.412 226.274 178.654C226.465 178.519 226.664 178.381 226.896 178.34C227.1 178.305 227.31 178.35 227.504 178.42C228.393 178.739 229.005 179.555 229.333 180.417C229.662 181.279 229.754 182.206 229.925 183.109C230.096 184.014 230.365 184.935 230.976 185.638C229.398 186.083 227.698 186.114 226.104 185.725C225.435 185.562 224.675 185.348 224.09 185.665C223.976 185.362 223.831 185.066 223.697 184.842L223.696 184.842Z" fill="#333333"/>
<path d="M218.743 176.205C217.294 177.023 215.921 177.967 214.648 179.023C214.175 179.415 213.689 179.866 213.581 180.46C213.491 180.949 213.677 181.443 213.872 181.903C214.475 183.33 215.195 184.709 216.023 186.025C220.006 185.156 223.766 183.352 226.895 180.811C227.641 180.205 228.418 179.378 228.233 178.452C228.143 178.002 227.836 177.626 227.539 177.269C226.907 176.514 226.254 175.739 225.375 175.271C224.349 174.724 223.106 174.655 221.961 174.888C220.817 175.121 219.754 175.635 218.743 176.205V176.205Z" fill="#E1473D"/>
<path d="M214.897 182.863C214.563 182.203 214.219 181.499 214.291 180.767C214.363 180.027 214.857 179.38 215.447 178.904C216.037 178.43 216.729 178.09 217.372 177.686C217.122 178.187 217.104 178.777 217.225 179.322C217.346 179.866 217.597 180.376 217.866 180.869C218.605 182.223 219.5 183.499 220.528 184.662C219.935 184.915 219.337 185.168 218.703 185.293C218.069 185.418 217.387 185.406 216.801 185.14C215.869 184.717 215.35 183.758 214.897 182.863V182.863Z" fill="#ED6D64"/>
<path d="M215.592 185.008C214.733 185.203 214.778 185.768 211.992 187.315C213.847 187.993 215.46 188.111 217.168 187.137C218.877 186.163 220.4 185.16 221.968 183.969C219.992 184.825 217.7 184.532 215.592 185.008L215.592 185.008Z" fill="#E1473D"/>
<path d="M226.087 177.344C226.075 177.216 226.17 177.103 226.259 177.007C226.354 176.905 226.466 176.794 226.609 176.795C226.748 176.796 226.859 176.905 226.952 177.007C227.177 177.252 227.411 177.511 227.493 177.831C227.575 178.15 227.45 178.545 227.133 178.662C226.83 178.305 226.526 177.948 226.222 177.59C226.161 177.518 226.097 177.438 226.087 177.344H226.087Z" fill="#273B5B"/>
<path d="M225.98 209.053C220.993 217.548 213.811 224.821 205.276 230.022C206.622 231.615 207.968 233.207 209.314 234.8C216.516 230.226 223.521 225.251 229.4 219.154C231.799 216.666 234.176 214.147 236.296 211.487C234.502 208.249 231.514 206.801 227.973 205.484C227.322 206.682 226.67 207.879 225.98 209.053V209.053Z" fill="#E69D43"/>
<path d="M237.403 193.236C235.211 194.41 233.255 197.037 232.145 198.559C230.549 200.748 229.256 203.117 227.967 205.485C231.42 206.716 234.408 208.42 236.29 211.488C239.364 207.63 241.89 203.475 243.107 198.677C243.957 195.321 241.281 191.16 237.403 193.236L237.403 193.236Z" fill="#FFE26C"/>
<path d="M236.247 212.238L235.823 211.925C237.95 209.218 239.808 206.296 241.349 203.239C242.025 201.898 242.745 200.33 242.737 198.69C242.729 197.31 242.016 195.554 240.465 194.962L240.661 194.48C242.452 195.165 243.262 197.086 243.27 198.688C243.279 200.439 242.531 202.073 241.828 203.466C240.273 206.553 238.395 209.504 236.247 212.238V212.238Z" fill="#273B5B"/>
<path d="M236.036 211.736C234.228 208.817 231.236 206.677 227.827 205.864L227.954 205.361C231.501 206.207 234.613 208.433 236.493 211.469L236.036 211.736V211.736Z" fill="#273B5B"/>
<path d="M62.1914 328.975L212.413 289.116C215.862 288.201 217.892 284.749 216.949 281.405L215.566 276.508L52.8569 319.679L54.2383 324.577C55.1821 327.92 58.7429 329.89 62.1914 328.975V328.975Z" fill="#273B5B"/>
<path d="M209.757 280.591L199.493 283.314C196.921 283.997 194.266 282.528 193.562 280.035L179.727 231.008C179.024 228.515 180.538 225.94 183.11 225.257L193.374 222.534C195.945 221.852 198.601 223.32 199.305 225.814L213.139 274.84C213.843 277.334 212.329 279.908 209.757 280.591V280.591Z" fill="#273B5B"/>
<path d="M73.9284 315.253L63.6649 317.976C61.0927 318.658 58.4371 317.19 57.7339 314.696L43.899 265.671C43.1952 263.177 44.7096 260.602 47.2818 259.92L57.5453 257.197C60.1175 256.514 62.7724 257.983 63.4763 260.476L77.3114 309.502C78.0151 311.996 76.5006 314.571 73.9284 315.253V315.253Z" fill="#273B5B"/>
<path d="M197.037 277.628L70.1756 311.288C66.1606 312.353 62.0145 310.061 60.9164 306.168L59.1996 300.085C58.1014 296.192 60.4659 292.172 64.4807 291.106L191.342 257.447C195.357 256.381 199.503 258.674 200.601 262.567L202.318 268.649C203.416 272.543 201.053 276.563 197.037 277.628Z" fill="#273B5B"/>
<path d="M214.941 279.216L211.067 280.243C206.731 281.394 202.253 278.917 201.066 274.712L188.981 231.884C187.794 227.679 190.347 223.337 194.684 222.186L198.558 221.159C202.894 220.008 207.371 222.485 208.559 226.69L220.644 269.518C221.83 273.723 219.278 278.065 214.941 279.216Z" fill="#2B478B"/>
<path d="M57.9796 316.391L53.0181 317.708C48.9817 318.779 44.8145 316.474 43.7104 312.56L31.3266 268.677C30.2219 264.763 32.5985 260.722 36.6348 259.652L41.5964 258.335C45.6321 257.264 49.7993 259.569 50.904 263.482L63.2879 307.366C64.3926 311.279 62.0151 315.32 57.9796 316.391V316.391Z" fill="#2B478B"/>
<path d="M201.224 287.215L71.0373 321.758C68.5705 322.412 66.0236 321.004 65.3483 318.612L62.0721 307C61.3965 304.608 62.8493 302.139 65.3163 301.484L195.503 266.941C197.97 266.287 200.518 267.696 201.193 270.087L204.469 281.699C205.144 284.091 203.692 286.561 201.224 287.215H201.224Z" fill="#FEFEFE"/>
<path d="M201.223 287.215L71.0361 321.758C68.5692 322.412 66.075 321.192 65.466 319.032L62.5064 308.546C61.8971 306.386 63.4027 304.104 65.8695 303.45L196.057 268.907C198.524 268.252 201.018 269.473 201.628 271.633L204.586 282.119C205.196 284.279 203.69 286.561 201.223 287.216V287.215Z" fill="#2B478B"/>
<path d="M186.116 259.527L70.1727 290.291C66.6851 291.216 63.0844 289.225 62.1305 285.844L52.5725 251.974C51.618 248.592 53.6714 245.101 57.159 244.175L173.102 213.412C176.59 212.487 180.19 214.478 181.144 217.86L190.702 251.729C191.656 255.111 189.602 258.603 186.116 259.527Z" fill="#FEFEFE"/>
<path d="M187.566 260.134L70.31 291.246C66.7831 292.182 63.1896 290.338 62.2835 287.128L53.2102 254.973C52.3042 251.763 54.4286 248.402 57.9553 247.467L175.212 216.355C178.738 215.419 182.332 217.263 183.238 220.473L192.311 252.627C193.218 255.837 191.093 259.198 187.566 260.134Z" fill="#2B478B"/>
<path d="M23.9047 274.635C20.3516 272.398 17.2106 269.719 14.5928 266.719C11.5792 267.902 8.78688 269.528 6.16919 271.374C9.86275 275.555 14.5434 279.933 20.2447 282.034C26.5668 284.362 33.0952 286.048 44.4971 286.194C44.8184 284.792 45.1406 283.389 45.462 281.986C37.6388 281.117 30.1455 278.562 23.9049 274.635H23.9047Z" fill="#FCD49A"/>
<path fill-rule="evenodd" clip-rule="evenodd" d="M705.433 179.068L696.415 183.92C685.61 190.498 675.938 193.978 667.223 195.281C640.043 199.364 622.335 182.213 609.125 171.805C591.699 158.068 578.136 164.758 578.136 164.758L596.721 200.231C624.472 226.401 652.938 220.592 670.881 212.112C682.303 206.711 689.466 200.231 689.466 200.231C709.895 188.054 705.433 179.068 705.433 179.068V179.068Z" fill="#FFCC00"/>
<path fill-rule="evenodd" clip-rule="evenodd" d="M731.996 191.772C731.412 189.833 729.975 188.27 728.108 187.515L709.816 180.161C709.816 180.161 709.534 177.815 713.682 176.223C717.83 174.623 716.859 169.984 716.859 169.984C716.859 169.984 711.195 172.566 702.913 176.66C698.169 179.006 695.519 183.14 694.104 186.248L698.823 192.443C710.083 195.829 721.494 196.472 733 195.129L731.996 191.772V191.772Z" fill="#E69D43"/>
<path fill-rule="evenodd" clip-rule="evenodd" d="M574.146 450.33C574.146 450.33 572.756 458.214 572.067 466.019C571.799 469.074 574.146 471.716 577.207 471.85C587.605 472.279 609.832 473.124 617.811 472.763C619.013 472.716 619.796 471.482 619.352 470.366C618.977 469.431 618.266 468.677 617.345 468.254L580.623 451.38L574.153 450.326L574.146 450.33Z" fill="url(#paint1_linear)"/>
<path fill-rule="evenodd" clip-rule="evenodd" d="M573 445.701L574.122 455.131C574.122 455.131 580.559 458.127 584.938 454.755L582.274 444.246L573 445.701Z" fill="white"/>
<path fill-rule="evenodd" clip-rule="evenodd" d="M571.2 262.195C570.72 264.751 572.063 395.94 584.937 451.89C585.157 452.804 586.489 454.598 586.023 455.385C584.901 457.295 576.68 456.757 572.041 456.923C570.604 456.97 569.832 455.28 569.435 453.854C565.745 440.872 548.117 375.828 545.817 313.69C543.247 244.256 545.817 311.322 545.817 311.322L544.673 267.34L571.2 262.195V262.195Z" fill="#2B478B"/>
<path fill-rule="evenodd" clip-rule="evenodd" d="M531.896 454.445C531.896 454.445 529.676 458.427 527.528 469.005C527.141 470.914 528.484 472.745 530.423 472.929C533.856 473.268 539.138 473.705 543.365 473.676C545.315 473.662 546.846 471.958 546.6 470.019C546.134 466.164 544.672 459.828 540.163 454.893L531.892 454.441L531.896 454.445Z" fill="#233862"/>
<path fill-rule="evenodd" clip-rule="evenodd" d="M529.944 442.322L532.561 456.578C532.561 456.578 535.142 458.503 540.258 457.113L539.02 441.77L529.944 442.322V442.322Z" fill="url(#paint2_linear)"/>
<path fill-rule="evenodd" clip-rule="evenodd" d="M523.672 267.313C513.137 333.638 525.166 436.318 529.488 455.419C529.755 456.589 530.657 457.488 531.802 457.683C533.73 458.015 536.896 458.293 540.036 457.344C541.112 457.011 541.87 456.001 541.917 454.824C542.491 439.383 541.452 344.577 551.26 307.107C551.751 305.208 552.86 303.555 554.401 302.414L570.542 289.252L570.845 260.887L523.668 267.313H523.672Z" fill="#2B478B"/>
<path fill-rule="evenodd" clip-rule="evenodd" d="M583.99 160.916C556.25 160.458 525.621 168.198 525.621 168.198C518.813 207.978 521.545 252.076 522.957 266.592C523.249 269.571 521.661 272.719 524.614 273.199C539.134 275.538 561.947 273.156 569.037 271.094C571.643 270.34 571.199 267.585 571.748 264.939C576.503 242.105 590.12 191.743 590.12 191.743C596.719 200.231 606.03 212.112 619.799 215.27C612.777 207.144 626.236 190.09 624.799 183.97C612.359 169.985 592.55 161.06 583.986 160.916H583.99Z" fill="#FFCC00"/>
<path fill-rule="evenodd" clip-rule="evenodd" d="M555.887 138.385L547.056 163.919C546.915 164.342 547.078 164.811 547.475 165.028C549.879 166.356 558.547 170.208 569.002 163.58C570.089 162.887 570.825 161.764 570.999 160.486L573.847 138.385H555.883H555.887Z" fill="#E69D43"/>
<path fill-rule="evenodd" clip-rule="evenodd" d="M575.092 114.746C575.092 114.746 584.786 132.995 583.547 140.367C582.309 147.743 570.291 147.209 559.8 141.227L552.464 121.519L575.089 114.75L575.092 114.746Z" fill="#E69D43"/>
<path fill-rule="evenodd" clip-rule="evenodd" d="M560.258 131.543C560.691 131.356 560.853 130.832 560.597 130.442C559.813 129.258 558.355 126.836 557.9 124.717C557.9 124.717 556.149 123.601 562.337 122.121C565.702 121.316 571.658 120.648 574.287 118.233C577.218 115.525 571.799 110.413 569.532 109.038C566.528 107.225 562.875 106.153 559.499 107.067C557.864 107.507 556.38 108.381 554.922 109.243C552.445 110.713 549.889 112.265 548.312 114.677C547.297 116.236 546.759 118.059 546.268 119.861C545.557 122.446 544.925 125.096 545.041 127.771C545.369 134.904 553.72 141.291 560.449 142.074C560.998 142.136 561.42 141.598 561.243 141.071L558.499 133.085C558.369 132.713 558.546 132.309 558.907 132.146L560.261 131.543H560.258Z" fill="url(#paint3_linear)"/>
<path fill-rule="evenodd" clip-rule="evenodd" d="M578.63 110.269C564.461 83.5139 527.749 107.821 544.839 130.356C557.536 121.911 571.905 109.355 578.63 110.269V110.269Z" fill="url(#paint4_linear)"/>
<path fill-rule="evenodd" clip-rule="evenodd" d="M556.507 121.601L581.937 120.814C582.59 120.796 583.175 120.438 583.489 119.871C585.767 115.756 589.107 113.135 593.266 111.695C593.793 111.514 593.684 110.734 593.136 110.698L577.543 109.637H577.486C569.717 110.232 562.839 114.911 556.272 121.034C556.052 121.24 556.204 121.608 556.507 121.597V121.601Z" fill="#E1473D"/>
<path fill-rule="evenodd" clip-rule="evenodd" d="M528.777 208.7C544.301 191.266 542.734 177.844 525.203 168.176C525.203 168.176 496.141 187.923 491.365 212.949C496.856 213.35 506.842 214.783 516.618 219.721C518.781 207.902 528.777 208.7 528.777 208.7V208.7Z" fill="#FFE26C"/>
<path fill-rule="evenodd" clip-rule="evenodd" d="M562.51 226.639C562.51 226.639 529.9 245.076 518.896 229.34C516.607 226.065 516.058 222.82 516.618 219.726C506.842 214.787 496.856 213.354 491.365 212.953C489.928 220.498 490.686 228.524 495.116 236.639C514.401 271.907 566.835 234.686 566.835 234.686L562.514 226.639H562.51Z" fill="#FFE26C"/>
<path fill-rule="evenodd" clip-rule="evenodd" d="M558.596 249.964L576.409 187.793C576.607 187.089 577.203 186.577 577.939 186.486C581.163 186.111 590.506 185.053 601.301 184.147C614.301 183.046 629.391 182.154 638.42 182.909C639.695 183.017 640.474 184.375 639.904 185.533C634.778 195.913 613.669 238.122 603.109 251.956C602.748 252.411 602.21 252.682 601.636 252.675L560.333 252.289C559.131 252.281 558.264 251.126 558.593 249.971L558.596 249.964Z" fill="#C4C4C4"/>
<path d="M603.148 178.75L616.054 176.598C616.743 176.487 617.303 177.144 617.083 177.804L615.808 181.682C615.704 182.014 615.4 182.256 615.05 182.306L602.635 183.967C601.992 184.05 601.465 183.469 601.606 182.837L602.4 179.45C602.483 179.089 602.787 178.811 603.148 178.75Z" fill="#91B3FA"/>
<path d="M593.484 189.675L594.535 184.137C594.65 183.585 595.109 183.162 595.668 183.104L621.741 180.458C622.629 180.368 623.318 181.169 623.12 182.029L621.463 188.931C621.333 189.484 620.842 189.888 620.282 189.913L594.805 191.195C593.975 191.238 593.322 190.491 593.484 189.671V189.675Z" fill="#91B3FA"/>
<path fill-rule="evenodd" clip-rule="evenodd" d="M562.908 234.945C562.908 234.945 560.421 224.746 561.424 221.125C562.417 217.504 564.356 212.858 570.829 213.89C577.287 214.923 584.905 217.641 584.905 217.641C584.905 217.641 584.518 222.356 579.612 220.833L582.648 223.194C582.648 223.194 582.215 226.966 578.071 224.952L580.908 228.075C580.908 228.075 579.121 231.169 576.071 229.183C573.024 227.197 571.562 236.169 562.908 234.945V234.945Z" fill="#E69D43"/>
<path d="M1323.61 348.217C1268.74 316.138 1258.81 276.3 1296.68 195.106C1321.11 142.71 1395.01 138.473 1434.24 170.462C1450.94 184.086 1491.81 228.678 1525.57 126.731C1565.03 7.57009 1794.45 93.8924 1750.9 221.971C1724.29 300.24 1783.81 282.308 1777.53 348.217C1771.25 414.126 1378.48 380.297 1323.61 348.217Z" fill="#EBF3FA"/>
<g clip-path="url(#clip0)">
<g filter="url(#filter0_d)">
<path fill-rule="evenodd" clip-rule="evenodd" d="M1457.55 359.517L1455.21 359.402V321.88L1443.69 319.821L1442.57 319.619L1435.23 318.305L1391.24 320.43V290.499L1384.81 289.349L1373.61 287.348L1363.38 285.518L1347.53 286.281V274.137V273.816V254.306L1389.65 252.274L1391.97 252.163L1430.58 250.299L1432.97 250.184L1457.55 249V359.518L1457.55 359.517ZM1435.23 318.305V358.44V318.305ZM1363.38 285.517V354.974V285.517V285.517ZM1422.28 250.879L1392.83 252.655V269.441L1422.28 268.158V250.879V250.879Z" fill="url(#paint5_linear)"/>
<path fill-rule="evenodd" clip-rule="evenodd" d="M1457.55 359.518V249L1472.03 251.59L1474.55 252.042L1497 256.057V351.954L1457.55 359.518V359.518ZM1472.03 251.59V268.609L1488.55 270.398V254.548L1474.55 252.042L1472.03 251.59V251.59Z" fill="url(#paint6_linear)"/>
<path fill-rule="evenodd" clip-rule="evenodd" d="M1392.83 269.443V252.656L1422.28 250.881V268.16L1392.83 269.443Z" fill="white"/>
<path fill-rule="evenodd" clip-rule="evenodd" d="M1488.55 270.397L1472.03 268.609V251.59L1488.55 254.547V270.397Z" fill="white"/>
<path fill-rule="evenodd" clip-rule="evenodd" d="M1363.38 363.574L1285.68 359.826V289.264L1324.33 287.4L1347.53 286.281L1363.38 285.518V363.574ZM1338.47 286.842L1317.67 288.1V299.953L1338.47 299.048V286.842V286.842Z" fill="#FECC00"/>
<path fill-rule="evenodd" clip-rule="evenodd" d="M1363.38 363.574V285.518L1373.61 287.347V299.364L1385.28 300.63V289.433L1384.81 289.349L1385.28 289.433L1391.24 290.499V320.429L1379.5 320.995V360.484L1363.38 363.574Z" fill="#F7AA47"/>
<path fill-rule="evenodd" clip-rule="evenodd" d="M1317.67 299.953V288.1L1338.47 286.842V299.048L1317.67 299.953Z" fill="#D6E9D8"/>
<path fill-rule="evenodd" clip-rule="evenodd" d="M1384.81 289.349L1373.61 287.348L1384.81 289.349Z" fill="url(#paint7_linear)"/>
<path fill-rule="evenodd" clip-rule="evenodd" d="M1385.28 300.63L1373.61 299.365V287.348L1384.81 289.349L1385.28 289.433V300.63Z" fill="#DBE285"/>
<path fill-rule="evenodd" clip-rule="evenodd" d="M1435.23 374.291L1404.11 372.79L1379.5 371.602V320.997L1391.24 320.431L1435.23 318.307V374.291V374.291ZM1417.36 319.258L1402.44 320.16V328.663L1417.36 328.01V319.258V319.258Z" fill="#FECC00"/>
<path fill-rule="evenodd" clip-rule="evenodd" d="M1435.23 374.291V318.307L1442.57 319.62V328.239L1450.93 329.144V321.118L1443.69 319.823L1455.21 321.882V370.46L1435.23 374.291Z" fill="#F6AD71"/>
<path fill-rule="evenodd" clip-rule="evenodd" d="M1402.44 328.663V320.159L1417.36 319.258V328.009L1402.44 328.663Z" fill="#FFFBDB"/>
<path fill-rule="evenodd" clip-rule="evenodd" d="M1450.93 329.143L1442.57 328.238V319.619L1443.69 319.822L1450.93 321.117V329.143Z" fill="#FCD5A6"/>
</g>
</g>
<defs>
<filter id="filter0_d" x="1281.68" y="249" width="219.325" height="133.291" filterUnits="userSpaceOnUse" color-interpolation-filters="sRGB">
<feFlood flood-opacity="0" result="BackgroundImageFix"/>
<feColorMatrix in="SourceAlpha" type="matrix" values="0 0 0 0 0 0 0 0 0 0 0 0 0 0 0 0 0 0 127 0"/>
<feOffset dy="4"/>
<feGaussianBlur stdDeviation="2"/>
<feColorMatrix type="matrix" values="0 0 0 0 0 0 0 0 0 0 0 0 0 0 0 0 0 0 0.25 0"/>
<feBlend mode="normal" in2="BackgroundImageFix" result="effect1_dropShadow"/>
<feBlend mode="normal" in="SourceGraphic" in2="effect1_dropShadow" result="shape"/>
</filter>
<linearGradient id="paint0_linear" x1="463.057" y1="178.656" x2="479.222" y2="73.4527" gradientUnits="userSpaceOnUse">
<stop offset="0.163632" stop-color="#EBF3FA"/>
<stop offset="1" stop-color="#EBF3FA"/>
</linearGradient>
<linearGradient id="paint1_linear" x1="564.944" y1="299.422" x2="534.839" y2="133.883" gradientUnits="userSpaceOnUse">
<stop stop-color="#233862"/>
<stop offset="1" stop-color="#4F52FF"/>
</linearGradient>
<linearGradient id="paint2_linear" x1="529.951" y1="449.268" x2="540.265" y2="449.268" gradientUnits="userSpaceOnUse">
<stop stop-color="#FF928E"/>
<stop offset="1" stop-color="#FEB3B1"/>
</linearGradient>
<linearGradient id="paint3_linear" x1="539.214" y1="106.933" x2="569.106" y2="131.807" gradientUnits="userSpaceOnUse">
<stop stop-color="#333333"/>
<stop offset="1" stop-color="#1A0F91"/>
</linearGradient>
<linearGradient id="paint4_linear" x1="1290.23" y1="427.665" x2="1345.9" y2="451.182" gradientUnits="userSpaceOnUse">
<stop stop-color="#E1473D"/>
<stop offset="1" stop-color="#E9605A"/>
</linearGradient>
<linearGradient id="paint5_linear" x1="1402.54" y1="249" x2="1393.04" y2="315.735" gradientUnits="userSpaceOnUse">
<stop stop-color="#FFE270"/>
<stop offset="1" stop-color="#F36F56"/>
</linearGradient>
<linearGradient id="paint6_linear" x1="1502.84" y1="345.017" x2="1471.18" y2="290.062" gradientUnits="userSpaceOnUse">
<stop stop-color="#F47458"/>
<stop offset="1" stop-color="#FFC444"/>
</linearGradient>
<linearGradient id="paint7_linear" x1="1421.62" y1="260.178" x2="1339.7" y2="461.823" gradientUnits="userSpaceOnUse">
<stop stop-color="#FFE084"/>
<stop offset="0.309804" stop-color="#FDD089"/>
<stop offset="1" stop-color="#F9A894"/>
</linearGradient>
<clipPath id="clip0">
<rect width="223" height="137" fill="white" transform="translate(1274 249)"/>
</clipPath>
</defs>
</svg>
