<svg width="567" height="824" viewBox="0 0 567 824" fill="none" xmlns="http://www.w3.org/2000/svg">
<g clip-path="url(#clip0)">
<rect width="567" height="824" fill="#E7EBFC"/>
<path d="M588.286 598.993C588.286 598.993 489.131 713.421 22.1154 570.154C-184.91 529.48 -151.751 453.486 -224.168 438.625C-321.34 418.591 -320.014 60.4137 -142.734 120.079C49.8292 184.806 -63.7844 0.790711 57.7425 -1.79985C190.03 -4.61149 194.08 108.355 293.832 82.3751C430.188 46.8435 493.567 81.2729 528.081 133.885C565.931 191.592 568.994 271.226 595.597 304.144C596.201 304.904 596.779 305.61 597.402 306.276C650.08 365.015 669.185 415.544 670.378 457.238C673.218 549.728 588.286 598.993 588.286 598.993Z" fill="#F4F7FA"/>
<g opacity="0.63">
<path d="M427.517 253.159H351.012V613.169H427.517V253.159Z" fill="#C4D9ED"/>
<path d="M444.696 253.157H368.191V613.167H444.696V253.157Z" fill="#D5E7F7"/>
<path d="M368.2 273.824H444.705V253H368.2V273.824Z" fill="#C4D9ED"/>
<path d="M368.2 318.987H444.705V298.163H368.2V318.987Z" fill="#C4D9ED"/>
<path d="M368.2 364.103H444.705V343.278H368.2V364.103Z" fill="#C4D9ED"/>
<path d="M368.2 409.217H444.705V388.392H368.2V409.217Z" fill="#C4D9ED"/>
<path d="M368.2 454.331H444.705V433.506H368.2V454.331Z" fill="#C4D9ED"/>
<path d="M368.2 499.445H444.705V478.621H368.2V499.445Z" fill="#C4D9ED"/>
<path d="M368.2 544.561H444.705V523.736H368.2V544.561Z" fill="#C4D9ED"/>
<path d="M368.2 589.675H444.705V568.85H368.2V589.675Z" fill="#C4D9ED"/>
<path d="M549.814 304.084H473.31V613.167H549.814V304.084Z" fill="#C4D9ED"/>
<path d="M566.993 304.084H490.488V613.167H566.993V304.084Z" fill="#D5E7F7"/>
<path d="M490.495 321.87H567V303.993H490.495V321.87Z" fill="#C4D9ED"/>
<path d="M490.495 360.593H567V342.715H490.495V360.593Z" fill="#C4D9ED"/>
<path d="M490.495 399.315H567V381.438H490.495V399.315Z" fill="#C4D9ED"/>
<path d="M490.495 438.086H567V420.209H490.495V438.086Z" fill="#C4D9ED"/>
<path d="M490.495 476.809H567V458.931H490.495V476.809Z" fill="#C4D9ED"/>
<path d="M490.495 515.531H567V497.654H490.495V515.531Z" fill="#C4D9ED"/>
<path d="M490.495 554.255H567V536.378H490.495V554.255Z" fill="#C4D9ED"/>
<path d="M490.495 593.026H567V575.149H490.495V593.026Z" fill="#C4D9ED"/>
<path d="M309.578 647.34H341.638V602.115H309.578V647.34Z" fill="#DCEAF9"/>
<path d="M319.352 540.45V665.977H-20.0754H-22.3726L-109.015 665.204C-109.065 665.059 -109.164 664.914 -109.264 664.769C-109.414 664.528 -109.564 664.238 -109.764 663.9C-109.814 663.803 -109.913 663.658 -109.963 663.561C-110.213 663.127 -110.513 662.595 -110.812 662.015C-111.212 661.339 -111.661 660.517 -112.161 659.648C-113.958 656.362 -116.405 651.772 -119.152 646.071C-120.051 644.186 -121 642.205 -121.948 640.128C-122.348 639.306 -122.698 638.437 -123.097 637.567C-123.497 636.746 -123.846 635.876 -124.246 634.958C-124.246 634.91 -124.296 634.91 -124.296 634.861C-124.545 634.233 -124.845 633.653 -125.095 633.025C-125.394 632.397 -125.644 631.721 -125.944 631.093C-127.342 627.71 -128.79 624.135 -130.238 620.366C-130.288 620.269 -130.338 620.173 -130.338 620.076C-131.287 617.612 -132.236 615.051 -133.135 612.442C-133.634 610.993 -134.133 609.543 -134.683 608.045C-134.733 607.949 -134.733 607.852 -134.782 607.755C-134.982 607.079 -135.232 606.451 -135.432 605.774C-135.631 605.195 -135.781 604.663 -135.981 604.083C-136.38 602.924 -136.73 601.716 -137.13 600.556C-137.629 599.01 -138.078 597.464 -138.578 595.918C-139.227 593.792 -139.826 591.618 -140.425 589.395C-140.625 588.719 -140.775 588.09 -140.975 587.414C-141.524 585.433 -142.023 583.404 -142.523 581.374C-142.673 580.698 -142.872 580.07 -143.022 579.393C-143.122 579.007 -143.222 578.572 -143.322 578.185C-144.071 574.948 -144.82 571.663 -145.469 568.281C-146.218 564.56 -146.917 560.791 -147.517 556.974C-148.066 553.447 -148.615 549.823 -149.065 546.2C-149.464 542.769 -149.864 539.29 -150.113 535.763C-150.813 527.549 -151.112 519.046 -150.962 510.445C-150.713 495.467 -149.115 479.957 -145.619 464.302C-145.469 463.723 -145.369 463.143 -145.219 462.611C-144.371 458.891 -143.372 455.171 -142.323 451.402C-141.524 448.551 -140.625 445.701 -139.676 442.85C-138.977 440.772 -138.228 438.695 -137.479 436.617C-135.731 431.93 -133.834 427.243 -131.686 422.557H-129.889V418.546C-118.303 394.388 -101.224 370.423 -76.9546 347.762C-76.5051 347.327 -76.0557 346.941 -75.6062 346.506H-74.208V394.533H-30.3127V316.259H18.127V367.041H29.1632V306.451H77.6028V420.141H138.877V486.432H161.798V503.149H214.382V474.401H244.595V396.176H281.898V540.402H319.352V540.45Z" fill="#D5E7F7"/>
<path d="M29.3167 325.702H77.8062V314.106H29.3167V325.702Z" fill="#C4D9ED"/>
<path d="M29.3167 347.43H77.8062V335.834H29.3167V347.43Z" fill="#C4D9ED"/>
<path d="M29.3167 367.013H77.8062V355.417H29.3167V367.013Z" fill="#C4D9ED"/>
<path d="M-30.1971 367.013H18.2925V355.417H-30.1971V367.013Z" fill="#C4D9ED"/>
<path d="M-30.1971 347.43H18.2925V335.834H-30.1971V347.43Z" fill="#C4D9ED"/>
<path d="M-30.1971 327.905H18.2925V316.309H-30.1971V327.905Z" fill="#C4D9ED"/>
<path d="M-30.1921 385.986H77.8232V374.39H-30.1921V385.986Z" fill="#C4D9ED"/>
<path d="M-30.1921 404.96H77.8232V393.364H-30.1921V404.96Z" fill="#C4D9ED"/>
<path d="M244.407 414.065H282.061V396.188H244.407V414.065Z" fill="#C4D9ED"/>
<path d="M244.407 440.668H282.061V422.791H244.407V440.668Z" fill="#C4D9ED"/>
<path d="M244.407 467.271H282.061V449.394H244.407V467.271Z" fill="#C4D9ED"/>
<path d="M244.407 495.135H282.061V477.257H244.407V495.135Z" fill="#C4D9ED"/>
<path d="M244.407 522.141H282.061V504.263H244.407V522.141Z" fill="#C4D9ED"/>
<path d="M244.407 549.146H282.061V531.268H244.407V549.146Z" fill="#C4D9ED"/>
<path d="M244.407 577.391H282.061V559.513H244.407V577.391Z" fill="#C4D9ED"/>
<path d="M-30.1921 419.325H77.8232V411.981H-30.1921V419.325Z" fill="#C4D9ED"/>
<path d="M244.944 396.225H231.062V474.353H244.944V396.225Z" fill="#C4D9ED"/>
<path d="M214.582 474.353H186.667V503.101H214.582V474.353Z" fill="#C4D9ED"/>
<path d="M29.3131 306.451H23.4204V367.041H29.3131V306.451Z" fill="#C4D9ED"/>
<g opacity="0.8">
<g opacity="0.8">
<g opacity="0.8">
<g opacity="0.8">
<path opacity="0.8" d="M120.841 442.729H129.031V431.519H120.841V442.729Z" fill="#C4D9ED"/>
<path opacity="0.8" d="M105.448 442.729H113.688V431.519H105.448V442.729Z" fill="#C4D9ED"/>
<path opacity="0.8" d="M90.4433 442.729H98.6831V431.519H90.4433V442.729Z" fill="#C4D9ED"/>
<path opacity="0.8" d="M76.2467 442.729H84.4365V431.519H76.2467V442.729Z" fill="#C4D9ED"/>
<path opacity="0.8" d="M61.6529 442.729H69.8926V431.519H61.6529V442.729Z" fill="#C4D9ED"/>
</g>
<g opacity="0.8">
<path opacity="0.8" d="M46.9776 442.729H55.2173V431.519H46.9776V442.729Z" fill="#C4D9ED"/>
<path opacity="0.8" d="M31.6338 442.729H39.8735V431.519H31.6338V442.729Z" fill="#C4D9ED"/>
<path opacity="0.8" d="M16.6294 442.729H24.8691V431.519H16.6294V442.729Z" fill="#C4D9ED"/>
<path opacity="0.8" d="M2.38335 442.729H10.623L10.623 431.519H2.38335L2.38335 442.729Z" fill="#C4D9ED"/>
</g>
</g>
</g>
<g opacity="0.8">
<g opacity="0.8">
<g opacity="0.8">
<path opacity="0.8" d="M120.84 462.507H129.03V451.297H120.84V462.507Z" fill="#C4D9ED"/>
<path opacity="0.8" d="M105.448 462.507H113.688V451.297H105.448V462.507Z" fill="#C4D9ED"/>
<path opacity="0.8" d="M90.4428 462.507H98.6826V451.297H90.4428V462.507Z" fill="#C4D9ED"/>
<path opacity="0.8" d="M76.2467 462.507H84.4365V451.297H76.2467V462.507Z" fill="#C4D9ED"/>
<path opacity="0.8" d="M61.6529 462.507H69.8926V451.297H61.6529V462.507Z" fill="#C4D9ED"/>
</g>
<g opacity="0.8">
<path opacity="0.8" d="M46.9776 462.507H55.2173V451.297H46.9776V462.507Z" fill="#C4D9ED"/>
<path opacity="0.8" d="M31.6338 462.507H39.8735V451.297H31.6338V462.507Z" fill="#C4D9ED"/>
<path opacity="0.8" d="M16.6294 462.507H24.8691V451.297H16.6294V462.507Z" fill="#C4D9ED"/>
<path opacity="0.8" d="M2.38335 462.507H10.623L10.623 451.297H2.38335L2.38335 462.507Z" fill="#C4D9ED"/>
</g>
</g>
</g>
<g opacity="0.8">
<g opacity="0.8">
<g opacity="0.8">
<path opacity="0.8" d="M120.841 481.968H129.031V470.758H120.841V481.968Z" fill="#C4D9ED"/>
<path opacity="0.8" d="M105.448 481.968H113.688V470.758H105.448V481.968Z" fill="#C4D9ED"/>
<path opacity="0.8" d="M90.4433 481.968H98.6831V470.758H90.4433V481.968Z" fill="#C4D9ED"/>
<path opacity="0.8" d="M76.2467 481.968H84.4365V470.758H76.2467V481.968Z" fill="#C4D9ED"/>
<path opacity="0.8" d="M61.6529 481.968H69.8926V470.758H61.6529V481.968Z" fill="#C4D9ED"/>
</g>
<g opacity="0.8">
<path opacity="0.8" d="M46.9776 481.968H55.2173V470.758H46.9776V481.968Z" fill="#C4D9ED"/>
<path opacity="0.8" d="M31.6338 481.968H39.8735V470.758H31.6338V481.968Z" fill="#C4D9ED"/>
<path opacity="0.8" d="M16.6294 481.968H24.8691V470.758H16.6294V481.968Z" fill="#C4D9ED"/>
<path opacity="0.8" d="M2.38383 481.968H10.6235L10.6235 470.758H2.38383L2.38383 481.968Z" fill="#C4D9ED"/>
</g>
</g>
</g>
<g opacity="0.8">
<g opacity="0.8">
<g opacity="0.8">
<g opacity="0.8">
<path opacity="0.8" d="M120.841 502.653H129.031V491.444H120.841V502.653Z" fill="#C4D9ED"/>
<path opacity="0.8" d="M105.448 502.653H113.688V491.444H105.448V502.653Z" fill="#C4D9ED"/>
<path opacity="0.8" d="M90.4433 502.653H98.6831V491.444H90.4433V502.653Z" fill="#C4D9ED"/>
<path opacity="0.8" d="M76.2467 502.653H84.4365V491.444H76.2467V502.653Z" fill="#C4D9ED"/>
<path opacity="0.8" d="M61.6529 502.653H69.8926V491.444H61.6529V502.653Z" fill="#C4D9ED"/>
</g>
<g opacity="0.8">
<path opacity="0.8" d="M46.9776 502.652H55.2173V491.443H46.9776V502.652Z" fill="#C4D9ED"/>
<path opacity="0.8" d="M31.6338 502.652H39.8735V491.443H31.6338V502.652Z" fill="#C4D9ED"/>
<path opacity="0.8" d="M16.6294 502.652H24.8691V491.443H16.6294V502.652Z" fill="#C4D9ED"/>
<path opacity="0.8" d="M2.38338 502.652H10.623L10.623 491.443H2.38338L2.38338 502.652Z" fill="#C4D9ED"/>
</g>
</g>
</g>
<g opacity="0.8">
<g opacity="0.8">
<g opacity="0.8">
<path opacity="0.8" d="M120.84 522.381H129.03V511.171H120.84V522.381Z" fill="#C4D9ED"/>
<path opacity="0.8" d="M105.448 522.381H113.688V511.171H105.448V522.381Z" fill="#C4D9ED"/>
<path opacity="0.8" d="M90.4428 522.381H98.6826V511.171H90.4428V522.381Z" fill="#C4D9ED"/>
<path opacity="0.8" d="M76.2462 522.381H84.436V511.171H76.2462V522.381Z" fill="#C4D9ED"/>
<path opacity="0.8" d="M61.6523 522.381H69.8921V511.171H61.6523V522.381Z" fill="#C4D9ED"/>
</g>
<g opacity="0.8">
<path opacity="0.8" d="M46.9771 522.381H55.2168V511.171H46.9771V522.381Z" fill="#C4D9ED"/>
<path opacity="0.8" d="M31.6334 522.381H39.873V511.171H31.6334V522.381Z" fill="#C4D9ED"/>
<path opacity="0.8" d="M16.6289 522.381H24.8687V511.171H16.6289V522.381Z" fill="#C4D9ED"/>
<path opacity="0.8" d="M2.38286 522.381H10.6226L10.6226 511.171H2.38286L2.38286 522.381Z" fill="#C4D9ED"/>
</g>
</g>
</g>
<g opacity="0.8">
<g opacity="0.8">
<g opacity="0.8">
<path opacity="0.8" d="M120.841 541.892H129.031V530.682H120.841V541.892Z" fill="#C4D9ED"/>
<path opacity="0.8" d="M105.448 541.892H113.688V530.682H105.448V541.892Z" fill="#C4D9ED"/>
<path opacity="0.8" d="M90.4433 541.892H98.6831V530.682H90.4433V541.892Z" fill="#C4D9ED"/>
<path opacity="0.8" d="M76.2467 541.892H84.4365V530.682H76.2467V541.892Z" fill="#C4D9ED"/>
<path opacity="0.8" d="M61.6529 541.892H69.8926V530.682H61.6529V541.892Z" fill="#C4D9ED"/>
</g>
<g opacity="0.8">
<path opacity="0.8" d="M46.9776 541.891H55.2173V530.681H46.9776V541.891Z" fill="#C4D9ED"/>
<path opacity="0.8" d="M31.6339 541.891H39.8735V530.681H31.6339V541.891Z" fill="#C4D9ED"/>
<path opacity="0.8" d="M16.6294 541.891H24.8691V530.681H16.6294V541.891Z" fill="#C4D9ED"/>
<path opacity="0.8" d="M2.38335 541.891H10.623L10.623 530.681H2.38335L2.38335 541.891Z" fill="#C4D9ED"/>
</g>
</g>
</g>
</g>
</g>
<path d="M-3.77551 665.145H186.637V565.757H-3.77551V665.145Z" fill="#C4D9ED"/>
<path d="M140.609 665.167H331.022V615.497H140.609V665.167Z" fill="#C4D9ED"/>
<path d="M138.447 595.799H173.903V577.39H138.447V595.799Z" fill="#D5E7F7"/>
<path d="M92.9163 595.799H128.372V577.39H92.9163V595.799Z" fill="#D5E7F7"/>
<path d="M48.2712 595.799H83.7271V577.39H48.2712V595.799Z" fill="#D5E7F7"/>
<path d="M4.44562 595.799H39.9014V577.39H4.44562V595.799Z" fill="#D5E7F7"/>
<path d="M273.56 396.186H274.559V388.407H273.56V396.186Z" fill="#DCEAF9"/>
<path d="M238 396.186H238.999V388.407H238V396.186Z" fill="#DCEAF9"/>
<path d="M294.977 664.32H425.714V579.234H294.977V664.32Z" fill="#D5E7F7"/>
<path d="M294.977 595.786H425.714V568.149H294.977V595.786Z" fill="#C4D9ED"/>
<path d="M410.131 613.176H416.823V603.995H410.131V613.176Z" fill="#C4D9ED"/>
<path d="M397.555 613.176H404.247V603.995H397.555V613.176Z" fill="#C4D9ED"/>
<path d="M385.29 613.176H391.981V603.995H385.29V613.176Z" fill="#C4D9ED"/>
<path d="M373.649 613.176H380.341V603.995H373.649V613.176Z" fill="#C4D9ED"/>
<path d="M361.812 613.176H368.503V603.995H361.812V613.176Z" fill="#C4D9ED"/>
<path d="M349.802 613.176H356.494V603.995H349.802V613.176Z" fill="#C4D9ED"/>
<path d="M337.225 613.176H343.917V603.995H337.225V613.176Z" fill="#C4D9ED"/>
<path d="M324.961 613.176H331.652V603.995H324.961V613.176Z" fill="#C4D9ED"/>
<path d="M313.32 613.176H320.011V603.995H313.32V613.176Z" fill="#C4D9ED"/>
<path d="M301.482 613.176H308.173V603.995H301.482V613.176Z" fill="#C4D9ED"/>
<path d="M410.131 629.305H416.822V620.125H410.131V629.305Z" fill="#C4D9ED"/>
<path d="M397.554 629.305H404.246V620.125H397.554V629.305Z" fill="#C4D9ED"/>
<path d="M385.29 629.305H391.981V620.125H385.29V629.305Z" fill="#C4D9ED"/>
<path d="M373.649 629.305H380.341V620.125H373.649V629.305Z" fill="#C4D9ED"/>
<path d="M361.812 629.305H368.503V620.125H361.812V629.305Z" fill="#C4D9ED"/>
<path d="M349.802 629.306H356.494V620.125H349.802V629.306Z" fill="#C4D9ED"/>
<path d="M337.225 629.306H343.917V620.125H337.225V629.306Z" fill="#C4D9ED"/>
<path d="M324.961 629.306H331.652V620.125H324.961V629.306Z" fill="#C4D9ED"/>
<path d="M313.32 629.306H320.011V620.125H313.32V629.306Z" fill="#C4D9ED"/>
<path d="M301.482 629.306H308.173V620.125H301.482V629.306Z" fill="#C4D9ED"/>
<path d="M410.131 645.23H416.822V636.05H410.131V645.23Z" fill="#C4D9ED"/>
<path d="M397.554 645.23H404.246V636.05H397.554V645.23Z" fill="#C4D9ED"/>
<path d="M385.29 645.23H391.981V636.05H385.29V645.23Z" fill="#C4D9ED"/>
<path d="M373.649 645.23H380.341V636.05H373.649V645.23Z" fill="#C4D9ED"/>
<path d="M361.812 645.23H368.503V636.05H361.812V645.23Z" fill="#C4D9ED"/>
<path d="M349.802 645.23H356.494V636.05H349.802V645.23Z" fill="#C4D9ED"/>
<path d="M337.225 645.23H343.917V636.05H337.225V645.23Z" fill="#C4D9ED"/>
<path d="M324.961 645.23H331.652V636.05H324.961V645.23Z" fill="#C4D9ED"/>
<path d="M313.32 645.23H320.011V636.05H313.32V645.23Z" fill="#C4D9ED"/>
<path d="M301.482 645.23H308.173V636.05H301.482V645.23Z" fill="#C4D9ED"/>
<path d="M410.107 585.387H415.75V575.965H410.107V585.387Z" fill="#ADC9E0"/>
<path d="M354.061 585.387H359.704V575.965H354.061V585.387Z" fill="#ADC9E0"/>
<path d="M309.538 585.387H315.181V575.965H309.538V585.387Z" fill="#ADC9E0"/>
<path d="M433.936 664.32H564.673V579.234H433.936V664.32Z" fill="#D5E7F7"/>
<path d="M433.936 595.786H564.673V568.149H433.936V595.786Z" fill="#C4D9ED"/>
<path d="M549.042 613.177H555.733V603.996H549.042V613.177Z" fill="#C4D9ED"/>
<path d="M536.515 613.177H543.207V603.996H536.515V613.177Z" fill="#C4D9ED"/>
<path d="M524.25 613.177H530.942V603.996H524.25V613.177Z" fill="#C4D9ED"/>
<path d="M512.61 613.177H519.301V603.996H512.61V613.177Z" fill="#C4D9ED"/>
<path d="M500.721 613.177H507.413V603.996H500.721V613.177Z" fill="#C4D9ED"/>
<path d="M488.762 613.177H495.454V603.996H488.762V613.177Z" fill="#C4D9ED"/>
<path d="M476.185 613.177H482.876V603.996H476.185V613.177Z" fill="#C4D9ED"/>
<path d="M463.92 613.177H470.612V603.996H463.92V613.177Z" fill="#C4D9ED"/>
<path d="M452.279 613.177H458.971V603.996H452.279V613.177Z" fill="#C4D9ED"/>
<path d="M440.392 613.177H447.084V603.996H440.392V613.177Z" fill="#C4D9ED"/>
<path d="M549.042 629.307H555.734V620.126H549.042V629.307Z" fill="#C4D9ED"/>
<path d="M536.515 629.307H543.207V620.126H536.515V629.307Z" fill="#C4D9ED"/>
<path d="M524.25 629.307H530.942V620.126H524.25V629.307Z" fill="#C4D9ED"/>
<path d="M512.61 629.307H519.302V620.126H512.61V629.307Z" fill="#C4D9ED"/>
<path d="M500.721 629.307H507.413V620.126H500.721V629.307Z" fill="#C4D9ED"/>
<path d="M488.763 629.307H495.454V620.126H488.763V629.307Z" fill="#C4D9ED"/>
<path d="M476.185 629.307H482.877V620.126H476.185V629.307Z" fill="#C4D9ED"/>
<path d="M463.921 629.307H470.612V620.126H463.921V629.307Z" fill="#C4D9ED"/>
<path d="M452.28 629.307H458.972V620.126H452.28V629.307Z" fill="#C4D9ED"/>
<path d="M440.392 629.307H447.084V620.126H440.392V629.307Z" fill="#C4D9ED"/>
<path d="M549.042 645.231H555.734V636.051H549.042V645.231Z" fill="#C4D9ED"/>
<path d="M536.515 645.231H543.207V636.051H536.515V645.231Z" fill="#C4D9ED"/>
<path d="M524.25 645.231H530.942V636.051H524.25V645.231Z" fill="#C4D9ED"/>
<path d="M512.61 645.231H519.302V636.051H512.61V645.231Z" fill="#C4D9ED"/>
<path d="M500.721 645.231H507.413V636.051H500.721V645.231Z" fill="#C4D9ED"/>
<path d="M488.763 645.231H495.454V636.051H488.763V645.231Z" fill="#C4D9ED"/>
<path d="M476.185 645.231H482.877V636.051H476.185V645.231Z" fill="#C4D9ED"/>
<path d="M463.92 645.231H470.612V636.051H463.92V645.231Z" fill="#C4D9ED"/>
<path d="M452.279 645.231H458.971V636.051H452.279V645.231Z" fill="#C4D9ED"/>
<path d="M440.392 645.231H447.084V636.051H440.392V645.231Z" fill="#C4D9ED"/>
<path d="M549.018 585.387H554.661V575.965H549.018V585.387Z" fill="#ADC9E0"/>
<path d="M493.021 585.387H498.664V575.965H493.021V585.387Z" fill="#ADC9E0"/>
<path d="M448.448 585.387H454.091V575.965H448.448V585.387Z" fill="#ADC9E0"/>
<path d="M200.063 802.946C201.383 718.366 116.784 710.041 279.293 672.607C319.834 663.266 322.95 620.232 274.421 596.536C225.552 572.676 365.825 484.151 395.535 479.95" stroke="#2B2A29" stroke-width="2.11762" stroke-miterlimit="22.9256" stroke-linecap="round" stroke-dasharray="2.12 10.58"/>
<path d="M428.656 497.819L493.96 460.619L434.307 464.284L438.927 474.328L426.683 488.021L428.656 497.819Z" fill="#CA5F00"/>
<path d="M493.96 460.619L425.462 473.342L375.695 508.087L493.96 460.619Z" fill="#F1A34F"/>
<path d="M434.307 464.284L493.96 460.619L431.529 442.544L434.307 464.284Z" fill="#F1A34F"/>
</g>
<path fill-rule="evenodd" clip-rule="evenodd" d="M235.056 595.74C235.056 601.003 231.291 605.268 226.646 605.268C222 605.268 218.236 601.003 218.236 595.74C218.236 590.477 222 586.212 226.646 586.212C231.291 586.212 235.056 590.477 235.056 595.74Z" fill="url(#paint0_linear)"/>
<path fill-rule="evenodd" clip-rule="evenodd" d="M66.7346 870.263C24.2087 863.148 -2.72511 848.17 -5.77621 817.318C-6.93226 805.628 -3.51661 787.618 2.32535 767.902C5.12163 758.468 8.47464 748.636 12.1471 738.924C13.1811 736.19 14.2384 733.47 15.3176 730.765C20.3309 718.203 25.7768 706.085 31.135 695.53C31.9412 693.941 32.7476 692.384 33.5483 690.869C38.3662 681.759 43.0445 674.077 47.1944 668.656C49.1429 666.11 51.1627 663.702 53.2482 661.43C58.3924 655.825 63.9511 651.027 69.9262 646.909C70.4453 646.551 70.9663 646.199 71.4919 645.85C75.5587 643.16 79.817 640.771 84.26 638.651C87.8401 636.941 91.5397 635.406 95.3622 634.023C99.9895 632.35 104.794 630.901 109.774 629.641C110.62 629.428 111.47 629.219 112.326 629.016C115.861 628.178 119.477 627.432 123.185 626.762C134.578 624.708 146.792 623.395 159.824 622.475L153.446 624.325C149.953 625.339 148.358 629.926 150.305 633.364C154.768 641.247 162.612 654.606 171.351 667.232L139.756 665.501L112.946 670.946L108.255 671.899L66.7346 680.331V870.263ZM343.391 866.289C250.563 886.258 343.391 676.658 343.391 676.658L235.204 670.729C245.578 655.967 255.022 639.133 259.882 630.11C261.671 626.794 260.239 622.461 256.971 621.281L251.67 619.369C251.801 619.369 251.928 619.369 252.06 619.369C274.099 619.369 278 618.539 292 624.325C306 630.11 436.218 846.32 343.391 866.289Z" fill="url(#paint1_linear)"/>
<path fill-rule="evenodd" clip-rule="evenodd" d="M235.204 670.729L171.352 667.232C162.612 654.606 154.768 641.247 150.306 633.363C148.358 629.926 149.953 625.339 153.446 624.324L159.824 622.474L167.699 620.19C172.075 618.92 176.539 618.074 181.042 617.66L189.508 616.881L220.013 614.081C221.87 613.911 223.727 613.827 225.586 613.827C232.676 613.827 239.737 615.064 246.516 617.51L251.67 619.369L256.971 621.28C260.239 622.46 261.671 626.793 259.882 630.11C255.022 639.132 245.578 655.966 235.204 670.728V670.729Z" fill="url(#paint2_linear)"/>
<path d="M178.279 557.479C178.279 557.479 186.112 621.331 175.279 627.43L206.117 665.501L237.354 620.404C237.354 620.404 225.546 610.328 228.656 557.479H178.279V557.479Z" fill="#6165D7"/>
<path d="M182.282 570.582C182.282 570.582 195.843 599.105 225.538 598.716C252.124 598.364 259.176 531.282 242.928 515.974C237.506 510.868 226.292 508.204 216.962 510.566C211.45 511.961 209.49 514.407 200.445 516.487C192.102 518.41 182.222 515.501 179.627 517.718C176.381 520.496 181.367 529.352 185.627 549.345C180.846 543.242 174.884 540.649 170.475 542.687C169.772 543.015 167.888 544.308 166.763 546.371C162.696 553.834 168.434 564.031 182.282 570.582Z" fill="#6165D7"/>
<path fill-rule="evenodd" clip-rule="evenodd" d="M186.224 515.355C187.45 516.512 183.291 521.675 182.64 529.302C181.373 544.108 193.79 562.72 207.243 565.049C215.196 566.424 217.651 561.099 230.942 560.315C239.173 559.831 245.928 561.423 250.165 562.744C253.55 579.269 248.877 595.257 238.922 602.204C228.202 609.683 215.232 603.967 209.807 601.579C206.18 599.979 194.553 594.884 188.947 582.215C183.107 569.011 189.796 561.671 182.81 552.558C179.286 547.961 174.478 545.773 170.109 537.021C168.923 534.645 168.155 532.557 167.69 531.158C174.914 523.365 184.447 513.679 186.224 515.354V515.355Z" fill="url(#paint3_linear)"/>
<path fill-rule="evenodd" clip-rule="evenodd" d="M164.729 523.762C164.729 523.762 165.975 536.937 171.778 533.358C193.16 520.173 235.33 507.098 247.779 521.181C247.779 521.181 254.499 458.936 201.756 463.21C179.918 464.982 169.231 477.401 164.082 490.514C157.8 506.514 164.729 523.762 164.729 523.762L164.729 523.762Z" fill="#EF7F1A"/>
<path fill-rule="evenodd" clip-rule="evenodd" d="M182.982 526.84C181.648 527.26 201.779 509.332 201.779 509.332C201.779 509.332 221.257 493.557 256.831 501.282C274.582 505.138 247.545 521.181 247.545 521.181C247.545 521.181 242.603 508.084 182.982 526.84V526.84Z" fill="#F5B2B6"/>
<path fill-rule="evenodd" clip-rule="evenodd" d="M139.557 915.808L63.0781 898.689V681.614L79.4427 678.197L106.565 672.535L79.4427 678.197V678.197V714.076L111.477 710.028V671.508L139.557 665.646V915.808Z" fill="url(#paint4_linear)"/>
<path fill-rule="evenodd" clip-rule="evenodd" d="M55.6775 869.688C55.6775 869.688 55.3028 831.471 71.4998 820.805C87.6945 810.14 107.044 811.917 111.699 811.03C116.349 810.14 97.0928 824.804 93.9234 843.469C90.7569 862.134 72.2477 866.133 55.6775 869.688V869.688Z" fill="#6165D7"/>
<path fill-rule="evenodd" clip-rule="evenodd" d="M139.557 665.646L343.09 677.727L342.217 920L139.557 917.235V665.646Z" fill="#FFCC00"/>
<path fill-rule="evenodd" clip-rule="evenodd" d="M259.545 708.472L205.032 705.774V669.451L259.545 673.188V708.472Z" fill="white"/>
</g>
<defs>
<linearGradient id="paint0_linear" x1="98.3248" y1="531.994" x2="553.892" y2="708.306" gradientUnits="userSpaceOnUse">
<stop stop-color="#444B8C"/>
<stop offset="1" stop-color="#26264F"/>
</linearGradient>
<linearGradient id="paint1_linear" x1="138.316" y1="1078.34" x2="187.314" y2="912.307" gradientUnits="userSpaceOnUse">
<stop stop-color="#FFCC00"/>
<stop offset="1" stop-color="#FFE26C"/>
</linearGradient>
<linearGradient id="paint2_linear" x1="202.685" y1="781.289" x2="207.092" y2="564.906" gradientUnits="userSpaceOnUse">
<stop stop-color="#311944"/>
<stop offset="0.560784" stop-color="#6F2B60"/>
<stop offset="1" stop-color="#A03976"/>
</linearGradient>
<linearGradient id="paint3_linear" x1="163.894" y1="664.066" x2="253.67" y2="493.874" gradientUnits="userSpaceOnUse">
<stop stop-color="#311944"/>
<stop offset="1" stop-color="#6B3976"/>
</linearGradient>
<linearGradient id="paint4_linear" x1="10.9859" y1="863.973" x2="161.998" y2="783.558" gradientUnits="userSpaceOnUse">
<stop stop-color="#FFC444"/>
<stop offset="0.309804" stop-color="#FBA94A"/>
<stop offset="1" stop-color="#F36F56"/>
</linearGradient>
<clipPath id="clip0">
<rect width="567" height="824" fill="white"/>
</clipPath>
</defs>
</svg>
