<svg width="777" height="487" viewBox="0 0 777 487" fill="none" xmlns="http://www.w3.org/2000/svg">
<path d="M76.4873 428.772C-8.10239 379.332 -23.4111 317.937 34.9633 192.805C72.6331 112.056 186.551 105.526 247.029 154.825C272.788 175.823 335.789 244.546 387.837 87.4309C448.673 -96.2132 802.353 36.8216 735.221 234.209C694.197 354.832 785.962 327.196 776.279 428.771C766.596 530.346 161.077 478.211 76.4873 428.772Z" fill="#EBF3FA"/>
<path fill-rule="evenodd" clip-rule="evenodd" d="M106.453 100.237C106.453 116.992 82.9762 147.582 72.3387 160.569C69.7032 163.797 64.7496 163.797 62.114 160.569C51.4765 147.592 28 116.992 28 100.237C28 78.5809 45.5598 61 67.237 61C88.893 61 106.453 78.5704 106.453 100.237V100.237Z" fill="#6165D7"/>
<path d="M88.8849 103.278C90.5609 91.3121 82.2192 80.2533 70.2534 78.5774C58.2876 76.9015 47.2287 85.2431 45.5528 97.2089C43.8769 109.175 52.2185 120.234 64.1844 121.91C76.1502 123.585 87.209 115.244 88.8849 103.278Z" fill="white"/>
<path d="M67.2363 187.677C71.6615 187.677 75.2488 184.09 75.2488 179.665C75.2488 175.24 71.6615 171.652 67.2363 171.652C62.8111 171.652 59.2238 175.24 59.2238 179.665C59.2238 184.09 62.8111 187.677 67.2363 187.677Z" fill="#6165D7"/>
<g clip-path="url(#clip0)">
<path fill-rule="evenodd" clip-rule="evenodd" d="M325.562 141.284L334.251 145.959C344.662 152.297 353.981 155.65 362.378 156.906C388.568 160.84 405.63 144.314 418.358 134.285C435.149 121.049 448.218 127.495 448.218 127.495L430.31 161.675C403.571 186.891 376.143 181.294 358.855 173.123C347.849 167.919 340.947 161.675 340.947 161.675C321.262 149.942 325.562 141.284 325.562 141.284V141.284Z" fill="#FFCC00"/>
<path fill-rule="evenodd" clip-rule="evenodd" d="M299.967 153.528C300.531 151.66 301.915 150.154 303.713 149.427L321.339 142.341C321.339 142.341 321.61 140.08 317.614 138.546C313.617 137.005 314.552 132.535 314.552 132.535C314.552 132.535 320.01 135.022 327.99 138.967C332.561 141.228 335.114 145.211 336.478 148.206L331.931 154.175C321.082 157.438 310.086 158.057 299 156.763L299.967 153.528V153.528Z" fill="#E69D43"/>
<path fill-rule="evenodd" clip-rule="evenodd" d="M452.061 402.656C452.061 402.656 453.401 410.253 454.065 417.773C454.322 420.716 452.061 423.263 449.112 423.391C439.093 423.805 417.676 424.619 409.989 424.271C408.83 424.226 408.076 423.036 408.503 421.962C408.865 421.061 409.55 420.334 410.437 419.927L445.821 403.668L452.054 402.652L452.061 402.656Z" fill="url(#paint0_linear)"/>
<path fill-rule="evenodd" clip-rule="evenodd" d="M453.168 398.199L452.086 407.285C452.086 407.285 445.884 410.172 441.665 406.923L444.232 396.797L453.168 398.199Z" fill="white"/>
<path fill-rule="evenodd" clip-rule="evenodd" d="M454.901 221.383C455.363 223.846 454.069 350.251 441.665 404.161C441.453 405.042 440.169 406.77 440.618 407.529C441.7 409.369 449.62 408.851 454.09 409.011C455.475 409.056 456.219 407.428 456.602 406.054C460.157 393.545 477.142 330.873 479.358 271C481.835 204.098 479.358 268.718 479.358 268.718L480.461 226.34L454.901 221.383V221.383Z" fill="#2B478B"/>
<path fill-rule="evenodd" clip-rule="evenodd" d="M492.77 406.625C492.77 406.625 494.91 410.461 496.979 420.653C497.352 422.494 496.058 424.257 494.19 424.435C490.882 424.762 485.793 425.182 481.719 425.155C479.841 425.141 478.366 423.499 478.602 421.631C479.051 417.916 480.46 411.811 484.805 407.056L492.774 406.621L492.77 406.625Z" fill="#233862"/>
<path fill-rule="evenodd" clip-rule="evenodd" d="M494.653 394.942L492.131 408.679C492.131 408.679 489.644 410.533 484.715 409.194L485.908 394.41L494.653 394.942V394.942Z" fill="url(#paint1_linear)"/>
<path fill-rule="evenodd" clip-rule="evenodd" d="M500.695 226.313C510.845 290.22 499.255 389.156 495.091 407.561C494.834 408.688 493.964 409.554 492.861 409.742C491.004 410.062 487.953 410.33 484.927 409.415C483.89 409.095 483.16 408.121 483.115 406.987C482.561 392.109 483.563 300.76 474.112 264.657C473.639 262.827 472.571 261.234 471.086 260.134L455.533 247.452L455.241 220.121L500.698 226.313H500.695Z" fill="#2B478B"/>
<path fill-rule="evenodd" clip-rule="evenodd" d="M442.576 123.796C469.305 123.354 498.817 130.812 498.817 130.812C505.377 169.142 502.744 211.632 501.384 225.619C501.102 228.489 502.633 231.522 499.787 231.985C485.797 234.239 463.816 231.943 456.984 229.957C454.473 229.23 454.901 226.576 454.372 224.026C449.791 202.025 436.67 153.499 436.67 153.499C430.311 161.677 421.34 173.125 408.073 176.169C414.838 168.339 401.871 151.906 403.255 146.01C415.242 132.534 434.329 123.935 442.58 123.796H442.576Z" fill="#FFCC00"/>
<path fill-rule="evenodd" clip-rule="evenodd" d="M469.656 102.086L478.164 126.689C478.3 127.096 478.144 127.549 477.761 127.757C475.444 129.037 467.092 132.749 457.019 126.363C455.971 125.695 455.262 124.613 455.095 123.381L452.35 102.086H469.659H469.656Z" fill="#E69D43"/>
<path fill-rule="evenodd" clip-rule="evenodd" d="M451.15 79.3086C451.15 79.3086 441.81 96.8925 443.003 103.996C444.197 111.102 455.777 110.587 465.885 104.824L472.954 85.8343L451.154 79.3121L451.15 79.3086Z" fill="#E69D43"/>
<path fill-rule="evenodd" clip-rule="evenodd" d="M465.443 95.4943C465.026 95.3134 464.869 94.809 465.116 94.4333C465.871 93.2924 467.276 90.9583 467.715 88.9164C467.715 88.9164 469.402 87.8415 463.44 86.4153C460.198 85.6396 454.458 84.9961 451.926 82.669C449.101 80.0601 454.322 75.1345 456.507 73.8092C459.401 72.063 462.921 71.0299 466.174 71.9099C467.749 72.3343 469.179 73.1761 470.584 74.0075C472.971 75.4232 475.433 76.919 476.954 79.2426C477.931 80.7454 478.449 82.502 478.922 84.2378C479.608 86.7284 480.216 89.2816 480.105 91.8592C479.789 98.7328 471.743 104.886 465.259 105.641C464.73 105.7 464.323 105.182 464.494 104.674L467.137 96.9796C467.262 96.6213 467.092 96.2317 466.744 96.0752L465.44 95.4943H465.443Z" fill="url(#paint2_linear)"/>
<path fill-rule="evenodd" clip-rule="evenodd" d="M447.741 74.9951C461.394 49.2158 496.767 72.6366 480.3 94.3495C468.066 86.2133 454.221 74.115 447.741 74.9951V74.9951Z" fill="url(#paint3_linear)"/>
<path fill-rule="evenodd" clip-rule="evenodd" d="M469.058 85.9145L444.555 85.1562C443.925 85.1388 443.362 84.7944 443.059 84.2483C440.864 80.2828 437.647 77.7574 433.639 76.3695C433.131 76.1955 433.236 75.4442 433.765 75.4094L448.788 74.3867H448.844C456.33 74.9607 462.956 79.4688 469.284 85.3684C469.496 85.5667 469.35 85.9215 469.058 85.911V85.9145Z" fill="#E1473D"/>
<path fill-rule="evenodd" clip-rule="evenodd" d="M495.776 169.835C480.818 153.038 482.328 140.105 499.22 130.789C499.22 130.789 527.222 149.817 531.824 173.93C526.533 174.316 516.911 175.697 507.492 180.455C505.408 169.067 495.776 169.835 495.776 169.835V169.835Z" fill="#FFE26C"/>
<path fill-rule="evenodd" clip-rule="evenodd" d="M463.273 187.121C463.273 187.121 494.694 204.885 505.297 189.723C507.502 186.568 508.031 183.44 507.492 180.459C516.911 175.701 526.533 174.32 531.824 173.934C533.208 181.204 532.478 188.936 528.21 196.756C509.627 230.738 459.105 194.874 459.105 194.874L463.269 187.121H463.273Z" fill="#FFE26C"/>
<path fill-rule="evenodd" clip-rule="evenodd" d="M467.044 209.595L449.881 149.691C449.689 149.013 449.115 148.519 448.406 148.432C445.299 148.07 436.297 147.051 425.896 146.178C413.37 145.117 398.83 144.258 390.13 144.985C388.902 145.089 388.151 146.397 388.701 147.513C393.64 157.514 413.979 198.185 424.154 211.515C424.501 211.953 425.02 212.214 425.573 212.207L465.371 211.835C466.529 211.828 467.364 210.715 467.047 209.602L467.044 209.595Z" fill="#C4C4C4"/>
<path d="M424.118 140.98L411.683 138.907C411.018 138.799 410.479 139.432 410.691 140.068L411.919 143.804C412.02 144.124 412.312 144.357 412.65 144.406L424.612 146.006C425.231 146.086 425.739 145.526 425.604 144.917L424.838 141.655C424.758 141.307 424.466 141.039 424.118 140.98Z" fill="#91B3FA"/>
<path d="M433.428 151.505L432.415 146.169C432.304 145.636 431.862 145.229 431.323 145.174L406.201 142.624C405.346 142.537 404.681 143.309 404.873 144.137L406.469 150.788C406.594 151.32 407.068 151.71 407.607 151.734L432.155 152.969C432.955 153.011 433.584 152.291 433.428 151.501V151.505Z" fill="#91B3FA"/>
<path fill-rule="evenodd" clip-rule="evenodd" d="M462.891 195.127C462.891 195.127 465.287 185.3 464.32 181.811C463.364 178.322 461.496 173.845 455.259 174.84C449.036 175.835 441.696 178.454 441.696 178.454C441.696 178.454 442.068 182.997 446.796 181.529L443.87 183.804C443.87 183.804 444.288 187.439 448.281 185.498L445.547 188.507C445.547 188.507 447.269 191.488 450.208 189.575C453.144 187.662 454.553 196.306 462.891 195.127V195.127Z" fill="#E69D43"/>
</g>
<path d="M375.048 390.621C273.437 390.069 264.388 511.381 217.598 279.196C205.922 221.272 154.196 217.49 126.278 287.379C98.1663 357.756 79.4374 261.491 74.0581 219" stroke="#6165D7" stroke-width="2.11762" stroke-miterlimit="22.9256" stroke-linecap="round" stroke-dasharray="2.12 10.58"/>
<g clip-path="url(#clip1)">
<g filter="url(#filter0_d)">
<path fill-rule="evenodd" clip-rule="evenodd" d="M281.548 443.517L279.212 443.402V405.88L267.695 403.821L266.565 403.619L259.227 402.305L215.243 404.43V374.499L208.811 373.349L197.61 371.348L187.38 369.518L171.529 370.281V358.137V357.816V338.306L213.646 336.274L215.968 336.163L254.583 334.299L256.97 334.184L281.547 333V443.518L281.548 443.517ZM259.227 402.305V442.44V402.305ZM187.38 369.517V438.974V369.517V369.517ZM246.28 334.879L216.828 336.655V353.441L246.28 352.158V334.879V334.879Z" fill="url(#paint4_linear)"/>
<path fill-rule="evenodd" clip-rule="evenodd" d="M281.547 443.518V333L296.03 335.59L298.552 336.042L321 340.057V435.954L281.547 443.518V443.518ZM296.03 335.59V352.609L312.554 354.398V338.548L298.552 336.042L296.03 335.59V335.59Z" fill="url(#paint5_linear)"/>
<path fill-rule="evenodd" clip-rule="evenodd" d="M216.828 353.441V336.654L246.28 334.879V352.158L216.828 353.441Z" fill="white"/>
<path fill-rule="evenodd" clip-rule="evenodd" d="M312.554 354.397L296.03 352.609V335.59L312.554 338.547V354.397Z" fill="white"/>
<path fill-rule="evenodd" clip-rule="evenodd" d="M187.38 447.576L109.675 443.828V373.266L148.326 371.402L171.53 370.283L187.38 369.52V447.576ZM162.471 370.844L141.669 372.102V383.955L162.471 383.05V370.844V370.844Z" fill="#FECC00"/>
<path fill-rule="evenodd" clip-rule="evenodd" d="M187.38 447.576V369.52L197.611 371.349V383.366L209.282 384.632V373.435L208.811 373.351L209.282 373.435L215.244 374.501V404.431L203.498 404.997V444.486L187.38 447.576Z" fill="#F7AA47"/>
<path fill-rule="evenodd" clip-rule="evenodd" d="M141.67 383.955V372.102L162.472 370.844V383.05L141.67 383.955Z" fill="#D6E9D8"/>
<path fill-rule="evenodd" clip-rule="evenodd" d="M208.811 373.349L197.611 371.348L208.811 373.349Z" fill="url(#paint6_linear)"/>
<path fill-rule="evenodd" clip-rule="evenodd" d="M209.282 384.63L197.611 383.365V371.348L208.811 373.349L209.282 373.433V384.63Z" fill="#DBE285"/>
<path fill-rule="evenodd" clip-rule="evenodd" d="M259.226 458.289L228.106 456.788L203.497 455.6V404.995L215.243 404.429L259.226 402.305V458.289V458.289ZM241.362 403.256L226.444 404.158V412.661L241.362 412.008V403.256V403.256Z" fill="#FECC00"/>
<path fill-rule="evenodd" clip-rule="evenodd" d="M259.226 458.289V402.305L266.566 403.619V412.237L274.934 413.142V405.116L267.695 403.821L279.211 405.88V454.458L259.226 458.289Z" fill="#F6AD71"/>
<path fill-rule="evenodd" clip-rule="evenodd" d="M226.445 412.663V404.159L241.363 403.258V412.009L226.445 412.663Z" fill="#FFFBDB"/>
<path fill-rule="evenodd" clip-rule="evenodd" d="M274.934 413.145L266.566 412.239V403.621L267.695 403.824L274.934 405.119V413.145Z" fill="#FCD5A6"/>
</g>
</g>
<defs>
<filter id="filter0_d" x="105.675" y="333" width="219.325" height="133.289" filterUnits="userSpaceOnUse" color-interpolation-filters="sRGB">
<feFlood flood-opacity="0" result="BackgroundImageFix"/>
<feColorMatrix in="SourceAlpha" type="matrix" values="0 0 0 0 0 0 0 0 0 0 0 0 0 0 0 0 0 0 127 0"/>
<feOffset dy="4"/>
<feGaussianBlur stdDeviation="2"/>
<feColorMatrix type="matrix" values="0 0 0 0 0 0 0 0 0 0 0 0 0 0 0 0 0 0 0.25 0"/>
<feBlend mode="normal" in2="BackgroundImageFix" result="effect1_dropShadow"/>
<feBlend mode="normal" in="SourceGraphic" in2="effect1_dropShadow" result="shape"/>
</filter>
<linearGradient id="paint0_linear" x1="460.928" y1="257.25" x2="489.935" y2="97.7466" gradientUnits="userSpaceOnUse">
<stop stop-color="#233862"/>
<stop offset="1" stop-color="#4F52FF"/>
</linearGradient>
<linearGradient id="paint1_linear" x1="494.646" y1="401.635" x2="484.708" y2="401.635" gradientUnits="userSpaceOnUse">
<stop stop-color="#FF928E"/>
<stop offset="1" stop-color="#FEB3B1"/>
</linearGradient>
<linearGradient id="paint2_linear" x1="485.719" y1="71.7812" x2="456.917" y2="95.7482" gradientUnits="userSpaceOnUse">
<stop stop-color="#333333"/>
<stop offset="1" stop-color="#1A0F91"/>
</linearGradient>
<linearGradient id="paint3_linear" x1="-237.913" y1="380.819" x2="-291.552" y2="403.478" gradientUnits="userSpaceOnUse">
<stop stop-color="#E1473D"/>
<stop offset="1" stop-color="#E9605A"/>
</linearGradient>
<linearGradient id="paint4_linear" x1="226.539" y1="333" x2="217.035" y2="399.735" gradientUnits="userSpaceOnUse">
<stop stop-color="#FFE270"/>
<stop offset="1" stop-color="#F36F56"/>
</linearGradient>
<linearGradient id="paint5_linear" x1="326.838" y1="429.017" x2="295.176" y2="374.062" gradientUnits="userSpaceOnUse">
<stop stop-color="#F47458"/>
<stop offset="1" stop-color="#FFC444"/>
</linearGradient>
<linearGradient id="paint6_linear" x1="245.618" y1="344.178" x2="163.702" y2="545.823" gradientUnits="userSpaceOnUse">
<stop stop-color="#FFE084"/>
<stop offset="0.309804" stop-color="#FDD089"/>
<stop offset="1" stop-color="#F9A894"/>
</linearGradient>
<clipPath id="clip0">
<rect width="249" height="383" fill="white" transform="translate(283 42)"/>
</clipPath>
<clipPath id="clip1">
<rect width="223" height="137" fill="white" transform="translate(98 333)"/>
</clipPath>
</defs>
</svg>
