<svg width="18" height="18" viewBox="0 0 18 18" fill="none" xmlns="http://www.w3.org/2000/svg">
    <path fill-rule="evenodd" clip-rule="evenodd" d="M6.75 9V10.5H5.25V9H6.75ZM6.75 12V13.5H5.25V12H6.75ZM8.25 9V10.5H9.75V9H8.25ZM9.75 12V13.5H8.25V12H9.75ZM11.25 9V10.5H12.75V9H11.25ZM12.75 12V13.5H11.25V12H12.75ZM14.25 16.5H3.75C2.92275 16.5 2.25 15.8273 2.25 15V4.5C2.25 3.67275 2.92275 3 3.75 3H5.25V1.5H6.75V3H11.25V1.5H12.75V3H14.25C15.0773 3 15.75 3.67275 15.75 4.5V15C15.75 15.8273 15.0773 16.5 14.25 16.5ZM14.2501 6L14.25 4.5H3.75V6H14.2501ZM14.2502 7.5L14.2507 15H3.75V7.5H14.2502Z" fill="#6165D7"/>
</svg>
