<svg width="35" height="35" viewBox="0 0 38 37" fill="none" xmlns="http://www.w3.org/2000/svg">
    <rect opacity="0.01" x="37.4219" width="36.8549" height="37.4219" transform="rotate(90 37.4219 0)" fill="#6165D7"/>
    <path d="M29.6253 13.8206C27.6478 13.826 25.8874 15.0556 25.2283 16.8918H4.67741C3.81626 16.8918 3.11816 17.5793 3.11816 18.4274C3.11816 19.2755 3.81626 19.9631 4.67741 19.9631H25.2283C26.0218 22.1734 28.3743 23.4443 30.6935 22.9156C33.0127 22.3868 34.5587 20.227 34.2852 17.8981C34.0117 15.5692 32.0058 13.814 29.6253 13.8206Z" fill="#6165D7"/>
    <path d="M4.67741 10.7494H6.51732C7.18877 12.5714 8.94634 13.7845 10.9144 13.7845C12.8824 13.7845 14.64 12.5714 15.3115 10.7494H32.7438C33.605 10.7494 34.3031 10.0619 34.3031 9.21381C34.3031 8.36571 33.605 7.67819 32.7438 7.67819H15.3115C14.64 5.85624 12.8824 4.64307 10.9144 4.64307C8.94634 4.64307 7.18877 5.85624 6.51732 7.67819H4.67741C3.81626 7.67819 3.11816 8.36571 3.11816 9.21381C3.11816 10.0619 3.81626 10.7494 4.67741 10.7494Z" fill="#6165D7"/>
    <path d="M32.7438 26.1057H21.5484C20.877 24.2837 19.1194 23.0706 17.1514 23.0706C15.1833 23.0706 13.4258 24.2837 12.7543 26.1057H4.67741C3.81626 26.1057 3.11816 26.7932 3.11816 27.6413C3.11816 28.4894 3.81626 29.1769 4.67741 29.1769H12.7543C13.4258 30.9989 15.1833 32.212 17.1514 32.212C19.1194 32.212 20.877 30.9989 21.5484 29.1769H32.7438C33.605 29.1769 34.3031 28.4894 34.3031 27.6413C34.3031 26.7932 33.605 26.1057 32.7438 26.1057Z" fill="#6165D7"/>
</svg>
