<svg id="phone-icon" width="18" height="18" viewBox="0 0 18 18" fill="none" xmlns="http://www.w3.org/2000/svg">
    <path d="M15.0835 11.6073V13.6396C15.0843 13.8283 15.0455 14.015 14.9698 14.1879C14.8941 14.3608 14.783 14.516 14.6437 14.6435C14.5044 14.771 14.34 14.8681 14.1609 14.9286C13.9818 14.989 13.792 15.0115 13.6038 14.9945C11.5151 14.768 9.50871 14.0557 7.74593 12.9148C6.10589 11.8747 4.71543 10.487 3.67328 8.8502C2.52613 7.08292 1.81224 5.0708 1.58943 2.97687C1.57247 2.78953 1.59478 2.60073 1.65493 2.42247C1.71509 2.24422 1.81178 2.08041 1.93884 1.94149C2.06591 1.80257 2.22056 1.69158 2.39296 1.61558C2.56536 1.53958 2.75173 1.50024 2.9402 1.50007H4.97653C5.30594 1.49683 5.6253 1.61325 5.87506 1.82763C6.12483 2.042 6.28797 2.33971 6.33408 2.66525C6.42003 3.31563 6.57942 3.95421 6.80922 4.56883C6.90055 4.8113 6.92031 5.07481 6.86618 5.32815C6.81204 5.58149 6.68627 5.81402 6.50377 5.99821L5.64173 6.85855C6.608 8.55453 8.01504 9.95878 9.71438 10.9231L10.5764 10.0628C10.761 9.88066 10.994 9.75514 11.2478 9.70111C11.5017 9.64709 11.7657 9.66681 12.0086 9.75796C12.6245 9.9873 13.2643 10.1464 13.916 10.2322C14.2457 10.2786 14.5469 10.4443 14.7621 10.6979C14.9774 10.9514 15.0918 11.2751 15.0835 11.6073Z" stroke="white" stroke-width="2" stroke-linecap="round" stroke-linejoin="round"/>
</svg>