<svg width="24" height="24" viewBox="0 0 24 24" fill="none" xmlns="http://www.w3.org/2000/svg">
    <path fill-rule="evenodd" clip-rule="evenodd" d="M18.4431 23.9998C8.26273 23.9866 0.0131956 15.7206 0 5.52006C0 2.47149 2.46645 0.000137151 5.50898 0.000137151C5.81837 -0.00222418 6.12724 0.0259108 6.43114 0.0841359C6.72492 0.127696 7.01373 0.200042 7.29341 0.300133C7.69364 0.440839 7.98974 0.783168 8.07186 1.20012L9.71257 8.40001C9.80243 8.79711 9.6852 9.21277 9.4012 9.504C9.24551 9.67199 9.23353 9.68399 7.76048 10.452C8.94011 13.045 11.0098 15.1273 13.5928 16.3199C14.3713 14.8319 14.3832 14.8199 14.5509 14.6639C14.8415 14.3794 15.2564 14.2619 15.6527 14.3519L22.8383 15.9959C23.2408 16.0895 23.5667 16.3843 23.7006 16.7759C23.8017 17.0607 23.8778 17.3538 23.9281 17.6519C23.9763 17.9535 24.0004 18.2584 24 18.5639C23.954 21.5984 21.4718 24.0265 18.4431 23.9998Z" fill="#6165D7"/>
</svg>
