<svg width="20" height="20" viewBox="0 0 20 20" fill="none" xmlns="http://www.w3.org/2000/svg">
    <path fill-rule="evenodd" clip-rule="evenodd" d="M5 4H7C8.05436 4 8.91817 4.81588 8.99451 5.85074L9 6V8C9 8.51284 8.61396 8.93551 8.11662 8.99327L8 9H7.06217L7.23608 9.30515C8.07451 10.7152 9.28478 11.9255 10.6948 12.7639L11 12.9378V12C11 11.4872 11.386 11.0645 11.8834 11.0067L12 11H14C15.0544 11 15.9182 11.8159 15.9945 12.8507L16 13V15C16 15.5523 15.5523 16 15 16C9.23169 16 4 10.7683 4 5C4 4.48716 4.38604 4.06449 4.88338 4.00673L5 4H7H5Z" fill="#6165D7"/>
</svg>
