<svg width="20" height="20" viewBox="0 0 20 20" fill="none" xmlns="http://www.w3.org/2000/svg">
    <path d="M14.9856 11.3071C14.4127 10.7233 13.7728 10.7842 13.3236 11.4653C12.9809 11.9839 12.6383 12.5025 12.3029 13.0287C12.2112 13.1733 12.1258 13.2103 11.9899 13.1326C11.7221 12.9852 11.4412 12.8719 11.1817 12.7072C9.97084 11.9288 8.91876 10.88 7.96082 9.67802C7.48551 9.08082 7.05163 8.43438 6.72061 7.69165C6.65359 7.54153 6.65367 7.43856 6.74284 7.3024C7.0867 6.79604 7.41959 6.27837 7.75575 5.76038C8.22423 5.04035 8.1496 4.25673 7.54997 3.6343C7.20977 3.27958 6.87035 2.93301 6.53015 2.57828C6.17938 2.21633 5.83148 1.84998 5.47783 1.49241C4.90573 0.916785 4.26575 0.977735 3.81625 1.65478C3.47029 2.17369 3.14183 2.7033 2.78857 3.21467C2.46119 3.68652 2.326 4.2389 2.34629 4.86708C2.38103 5.88925 2.67155 6.8294 3.04137 7.73729C3.80029 9.61712 4.839 11.252 6.05022 12.7264C7.68654 14.7203 9.55802 16.243 11.6754 17.2686C12.6287 17.7297 13.6026 18.0611 14.6246 18.0338C15.3281 18.0162 15.9144 17.738 16.336 17.0101C16.6247 16.5131 16.9598 16.0529 17.2701 15.5744C17.7295 14.8635 17.6566 14.0632 17.0752 13.4596C16.3806 12.7392 15.6831 12.0231 14.9856 11.3071Z" fill="#6165D7"/>
</svg>
