<svg width="161" height="44" viewBox="0 0 161 44" fill="none" xmlns="http://www.w3.org/2000/svg">
<g clip-path="url(#clip0)">
<path fill-rule="evenodd" clip-rule="evenodd" d="M11.9924 30.8942C12.2327 31.0241 12.5407 31.0112 12.7544 30.8188L12.7621 30.8258C13.4055 30.2498 14.5765 29.2273 15.2349 28.6722C15.4976 28.4567 15.4511 28.1058 15.2456 27.8108C15.1827 27.7236 15.1194 27.6381 15.0566 27.553C14.5293 26.8403 14.0285 26.1633 14.0285 24.8058V19.7538C14.0285 19.5799 14.0295 19.4072 14.0305 19.2358C14.0416 17.2968 14.0518 15.5278 12.6106 14.1733C11.3734 12.9797 9.32197 12.5586 7.75301 12.5586C4.68421 12.5586 1.25949 13.7106 0.541401 17.5237C0.464946 17.9287 0.758693 18.1417 1.02281 18.2013L4.1483 18.5415C4.44095 18.5268 4.65275 18.2377 4.70872 17.9456C4.97686 16.6322 6.071 15.9984 7.30086 15.9984C7.96408 15.9984 8.71875 16.2441 9.1109 16.8407C9.51617 17.4379 9.50976 18.2323 9.50401 18.9462C9.50334 19.0294 9.50268 19.1116 9.50268 19.1922V19.6133C9.21251 19.646 8.90853 19.677 8.59548 19.7089C6.89101 19.8828 4.91748 20.0841 3.43899 20.7366C1.41788 21.6142 0 23.404 0 26.0365C0 29.4057 2.11146 31.0903 4.82688 31.0903C7.11979 31.0903 8.37379 30.5463 10.1436 28.7333C10.2332 28.8637 10.3136 28.9838 10.3893 29.0969C10.8085 29.7231 11.0849 30.136 11.9924 30.8942ZM9.50282 23.0783C9.50276 23.0235 9.5027 22.9683 9.5027 22.9126V22.2108C7.17029 22.2108 4.70619 22.7133 4.70619 25.4748C4.70619 26.8784 5.43049 27.8263 6.6673 27.8263C7.57232 27.8263 8.38698 27.265 8.89948 26.3524C9.50517 25.2786 9.50409 24.2689 9.50282 23.0783ZM55.0308 30.8188C54.8172 31.0112 54.5096 31.0241 54.2689 30.8942C53.361 30.1354 53.0847 29.7224 52.6651 29.0954L52.6649 29.0951C52.5895 28.9825 52.5095 28.863 52.4204 28.7333C50.6499 30.5463 49.3959 31.0903 47.1034 31.0903C44.3883 31.0903 42.2761 29.4057 42.2761 26.0365C42.2761 23.404 43.694 21.6142 45.7155 20.7366C47.1937 20.084 49.1675 19.8828 50.8723 19.7089C51.1853 19.677 51.4893 19.646 51.7795 19.6133V19.1922C51.7795 19.1121 51.7802 19.0305 51.7808 18.9478V18.9474C51.7865 18.2331 51.7929 17.4383 51.3874 16.8407C50.9949 16.2441 50.2409 15.9984 49.577 15.9984C48.3471 15.9984 47.2537 16.6322 46.9848 17.9456C46.9292 18.2377 46.7171 18.5268 46.4248 18.5415L43.2989 18.2013C43.0352 18.1417 42.7418 17.9287 42.8179 17.5237C43.5363 13.7106 46.9607 12.5586 50.0298 12.5586C51.5984 12.5586 53.6499 12.9797 54.8867 14.1733C56.328 15.5276 56.3178 17.2962 56.3066 19.2348C56.3056 19.4066 56.3046 19.5796 56.3046 19.7538V24.8058C56.3046 26.1623 56.8053 26.8393 57.332 27.5515L57.3322 27.5518C57.3954 27.6372 57.4589 27.7231 57.522 27.8108C57.728 28.1058 57.7744 28.4567 57.5114 28.6722C56.8526 29.2273 55.6824 30.2498 55.0382 30.8258L55.0308 30.8188ZM51.7795 22.9126L51.7796 23.0765C51.7809 24.2679 51.7819 25.278 51.1759 26.3524C50.663 27.265 49.8487 27.8263 48.9434 27.8263C47.7066 27.8263 46.9826 26.8784 46.9826 25.4748C46.9826 22.7133 49.4464 22.2108 51.7795 22.2108V22.9126ZM139.785 30.2664C139.785 30.5922 140.052 30.8545 140.387 30.8648H141.797C142.12 30.8438 142.376 30.586 142.376 30.2671L142.377 20.6741C142.377 19.2032 142.527 17.7672 143.31 16.6116C143.919 15.7012 144.946 14.9207 145.961 14.8637C146.94 14.9156 147.874 15.5688 148.395 16.5763C148.846 17.452 148.906 18.6077 148.906 19.5883L148.913 30.2664C148.913 30.5922 149.181 30.8545 149.515 30.8648H150.925C151.22 30.8453 151.458 30.6298 151.499 30.3539V21.2692L151.498 21.1035C151.497 19.5023 151.497 18.2449 152.341 16.8565C153.009 15.7413 154.042 14.92 155.168 14.8637C156.176 14.9148 157.113 15.6052 157.606 16.7164C158.039 17.6943 158.034 18.8142 158.028 19.8969C158.028 20.0163 158.027 20.1353 158.027 20.2537V30.348C158.068 30.6357 158.318 30.8552 158.623 30.8648H160.04C160.364 30.8438 160.619 30.586 160.619 30.2671L160.619 20.2537L160.619 20.0712V20.071C160.62 18.4643 160.622 16.5925 159.897 15.1756C159.114 13.6348 157.609 12.6193 156.044 12.6193L155.915 12.6211L155.799 12.6193C153.585 12.6193 151.906 14.2079 151.015 16.4453C150.444 14.1792 148.905 12.6193 146.802 12.6193L146.683 12.6211L146.559 12.6193C144.576 12.6193 143.008 14.1259 142.166 16.0488V13.622C142.14 13.3134 141.872 13.0739 141.546 13.0739L140.363 13.0743C140.055 13.0941 139.808 13.3281 139.785 13.6216V30.2664ZM18.3374 30.8604H21.562C21.9059 30.8604 22.1846 30.5937 22.1843 30.2612L22.1854 21.4399L22.1851 21.2306C22.182 19.3267 22.1779 16.8521 24.4132 16.8521C26.469 16.8521 26.4343 19.0579 26.4062 20.852V20.8521V20.8521V20.8522V20.8522V20.8523V20.8523V20.8524V20.8524C26.403 21.0547 26.3999 21.2518 26.3999 21.4399L26.4032 30.2627C26.4032 30.5816 26.6585 30.8394 26.9823 30.8604H30.2032C30.5467 30.8604 30.8255 30.5937 30.8255 30.2612V21.4399C30.8255 21.3687 30.8253 21.295 30.8251 21.2191C30.8229 20.2866 30.82 19.0303 31.1262 18.2531C31.4572 17.4123 32.2704 16.8871 33.0529 16.8871C33.9861 16.8871 34.7086 17.2023 34.9493 18.323C35.071 18.8606 35.055 20.107 35.0444 20.9353L35.0444 20.936C35.0418 21.1326 35.0396 21.3056 35.0396 21.4399L35.0403 30.2627C35.0403 30.5816 35.2957 30.8394 35.6194 30.8604H38.8408C39.1839 30.8604 39.4626 30.5937 39.4626 30.2612L39.4652 19.759C39.4652 19.5013 39.4696 19.2385 39.474 18.9732C39.5002 17.3998 39.5279 15.7393 38.652 14.5408C37.7488 13.2799 36.2739 12.7197 34.9193 12.7197C33.0225 12.7197 31.2465 13.7003 30.4641 15.8016C29.5609 13.7003 28.2963 12.7197 26.2795 12.7197C24.2928 12.7197 22.8179 13.7003 22.035 15.8016H21.9747V13.6286C21.9549 13.3251 21.7025 13.086 21.3883 13.0699L18.385 13.0706C18.0411 13.0706 17.7627 13.3369 17.7627 13.6698L17.7605 30.3123C17.785 30.6081 18.0305 30.8402 18.3374 30.8604ZM60.2297 16.0072V13.6293C60.2312 13.2674 60.5026 13.0261 60.8293 13.0268L71.4297 13.0257C71.7685 13.0257 72.0407 13.2736 72.0414 13.6264L72.0407 15.6659C72.0381 16.008 71.7517 16.4545 71.2425 17.1629L65.7516 25.0456C67.7899 24.9978 69.946 25.3042 71.7981 26.351C72.2155 26.5867 72.3275 26.9365 72.3604 27.2793V29.8165C72.3604 30.1663 71.9799 30.5709 71.5801 30.3605C68.3171 28.6421 63.9873 28.4538 60.3797 30.3811C60.0109 30.5786 59.625 30.1799 59.625 29.8301V27.418C59.625 27.0322 59.6323 26.3719 60.0194 25.7834L66.3812 16.6068L60.8421 16.606C60.5037 16.606 60.2319 16.3633 60.2297 16.0072ZM60.103 34.119C62.0595 33.8837 66.3892 33.363 67.1626 34.3583C67.9368 35.3548 66.3034 39.4578 65.5721 41.2947L65.5706 41.2986C65.3493 41.854 65.8241 42.078 66.3238 41.6576C69.5718 38.9259 70.411 33.2015 69.7456 32.3747C69.0857 31.5559 63.4075 30.849 59.9422 33.2964C59.4092 33.6727 59.501 34.1917 60.0922 34.1203L60.103 34.119ZM42.2541 44.1312C49.8118 44.1312 58.5891 41.7419 64.6429 37.2497C65.6448 36.5064 64.7866 35.3911 63.7631 35.8281C56.9762 38.7225 49.6 40.1227 42.8899 40.1227C32.9428 40.1227 23.3121 37.3785 15.5243 32.8216C14.8432 32.4229 14.3376 33.1261 14.9042 33.6403C22.1232 40.1945 31.6613 44.1312 42.2541 44.1312ZM81.1966 16.1165C78.8181 16.1165 78.6677 19.3735 78.6677 21.4046L78.6677 21.4752C78.6674 23.5348 78.6667 27.7788 81.1666 27.7788C83.6655 27.7788 83.7855 24.2765 83.7855 22.1402C83.7855 20.7396 83.7255 19.0583 83.304 17.7275C82.9423 16.5718 82.2198 16.1165 81.1966 16.1165ZM81.1666 12.7197C85.9532 12.7197 88.5417 16.8521 88.5417 22.1053C88.5417 27.183 85.6825 31.2109 81.1666 31.2109C76.4703 31.2109 73.9115 27.0781 73.9115 21.9302C73.9115 16.7469 76.5003 12.7197 81.1666 12.7197ZM91.5362 30.8604H94.7491C95.0926 30.8604 95.3714 30.5937 95.3772 30.2612V21.2997C95.3772 20.179 95.4379 19.1635 95.8893 18.1479C96.25 17.3424 96.9725 16.8172 97.7553 16.8172C99.8101 16.8172 99.7905 19.0813 99.775 20.8618L99.775 20.8643C99.7737 21.0134 99.7724 21.1591 99.7724 21.2997V30.3359C99.8075 30.6206 100.048 30.8409 100.347 30.8604H103.58C103.898 30.8604 104.161 30.6312 104.198 30.3359V19.8638C104.198 18.2531 104.198 16.0117 103.355 14.6809C102.452 13.2449 101.036 12.7197 99.5917 12.7197C97.3639 12.7197 96.1001 13.8051 95.1969 16.0815H95.1361V13.5359C95.0769 13.2777 94.8446 13.0842 94.5633 13.0699L91.5717 13.0706C91.2468 13.0706 90.9794 13.3097 90.9524 13.6139L90.9575 30.2627C90.9575 30.5816 91.2132 30.8394 91.5362 30.8604ZM106.219 29.5399C106.219 28.7024 106.93 28.0234 107.807 28.0234C108.684 28.0234 109.394 28.7024 109.394 29.5399C109.394 30.3771 108.684 31.0557 107.807 31.0557C106.93 31.0557 106.219 30.3771 106.219 29.5399ZM131.006 28.9363C132.511 28.8871 133.699 27.9495 134.402 26.3822C135.033 24.9816 135.154 23.3705 135.154 21.8298C135.154 20.1485 134.973 18.3977 134.191 16.9617C133.49 15.7056 132.281 14.9104 131.001 14.8626C129.575 14.9152 128.305 15.884 127.661 17.3818C127.09 18.6776 126.909 20.3938 126.909 21.8298C126.909 23.4404 127.12 25.2964 127.782 26.6974C128.425 28.0245 129.666 28.8889 131.006 28.9363ZM130.669 31.2153C126.093 31.2153 124.046 26.5224 124.046 21.8298C124.046 16.8915 126.455 12.6193 131.06 12.6193L131.179 12.6204L131.304 12.6193C135.789 12.6193 138.017 17.1717 138.017 21.8643C138.017 26.8376 135.548 31.2153 130.912 31.2153L130.794 31.2139L130.669 31.2153ZM119.95 25.0011C119.502 27.1469 118.424 28.8021 116.37 28.8668C113.279 28.7642 112.545 24.6303 112.545 21.7945C112.545 18.8567 113.425 15.0318 116.516 14.9325C118.456 14.9968 119.621 16.6178 119.963 18.6566C120.008 18.9435 120.204 19.2021 120.499 19.2444L121.923 19.2613C122.22 19.2267 122.473 18.9895 122.473 18.7155C121.984 15.0634 119.733 12.6193 116.579 12.6193L116.455 12.6204L116.335 12.6193C111.789 12.6193 109.802 17.3468 109.802 21.9695C109.802 26.6276 111.759 31.2153 116.305 31.2153L116.423 31.2139L116.549 31.2153C119.671 31.2153 121.863 28.7355 122.49 25.0857C122.514 24.7852 122.22 24.5387 121.9 24.5218L120.541 24.5277C120.241 24.5277 120.037 24.7337 119.95 25.0011Z" fill="#A4A4A4"/>
</g>
<defs>
<clipPath id="clip0">
<rect width="160.62" height="44" fill="white"/>
</clipPath>
</defs>
</svg>
