<svg width="142" height="44" viewBox="0 0 142 44" fill="none" xmlns="http://www.w3.org/2000/svg">
<g clip-path="url(#clip0)">
<path fill-rule="evenodd" clip-rule="evenodd" d="M13.2842 7.79932V3.50336H9.59833C9.59833 3.50336 7.06454 3.35004 5.14487 5.11431C3.2252 6.87886 3.68587 9.0267 3.68587 9.0267V12.9394H0V17.5425H3.5324V30.6604H8.75373V17.602H12.7468L13.2842 12.9394H8.75373V9.56387C8.75373 7.49241 10.9039 7.79932 10.9039 7.79932H13.2842ZM22.2116 27.0933C24.079 27.0933 25.593 25.4204 25.593 23.6409V20.2656C25.593 18.4861 24.079 16.8135 22.2116 16.8135C20.3439 16.8135 18.8299 18.4861 18.8299 20.2656V23.6409C18.8299 25.4204 20.3439 27.0933 22.2116 27.0933ZM25.8741 15.3569V13.0161H30.9069V30.6604H25.8774L25.9119 28.3845C24.577 30.1654 22.6984 31.274 20.6174 31.274C16.5674 31.274 13.2843 27.6685 13.2843 21.8956C13.2843 16.0847 16.5674 12.5172 20.6174 12.5172C22.6788 12.5172 24.5419 13.6054 25.8741 15.3569ZM72.2721 20.1506C72.2721 18.3711 73.786 16.6982 75.6535 16.6982C77.5211 16.6982 79.0351 18.3711 79.0351 20.1506V23.5259C79.0351 25.3054 77.5211 26.978 75.6535 26.978C73.786 26.978 72.2721 25.3054 72.2721 23.5259V20.1506ZM71.991 30.7754V28.4346C73.3232 30.1861 75.1863 31.2743 77.2477 31.2743C81.2977 31.2743 84.5808 27.7068 84.5808 21.8956C84.5808 16.123 81.2977 12.5172 77.2477 12.5172C75.1667 12.5172 73.2881 13.6261 71.9532 15.4067L71.9877 3.75406L66.7574 4.34206V30.6949L71.991 30.7754ZM38.2398 22.0084C38.2398 27.2251 42.2713 26.9948 42.2713 26.9948C44.9972 27.0332 45.9571 26.0744 45.9571 26.0744L47.224 29.8718C45.0355 31.4827 38.4319 31.751 35.4756 29.0277C32.9175 26.6714 32.9181 22.8525 32.9646 21.8657C32.9181 20.8789 32.9175 17.0603 35.4756 14.7037C38.4319 11.9803 45.0355 12.2489 47.224 13.8599L45.9571 17.6573C45.9571 17.6573 44.9972 16.6982 42.2713 16.7368C42.2713 16.7368 38.2398 16.5065 38.2398 21.7232V22.0084ZM53.2517 20.1888C53.2517 20.1888 52.9829 16.2764 56.5153 16.2764C60.0474 16.2764 59.7786 20.1888 59.7786 20.1888H53.2517ZM64.5779 23.756C64.5779 23.756 66.6894 12.709 56.592 12.6492C46.4944 12.5891 47.9534 22.6436 47.9534 22.6436C48.1838 28.7424 50.9865 30.507 55.7858 31.0822C60.5848 31.6577 64.2323 29.8165 64.2323 29.8165L63.1189 26.2493C63.1189 26.2493 59.2412 27.4384 56.1697 27.1698C53.0982 26.9015 53.3284 23.756 53.3284 23.756H64.5779ZM94.9405 27C96.8569 27 98.4104 25.3271 98.4104 23.5476V20.1723C98.4104 18.3928 96.8569 16.7202 94.9405 16.7202C93.0244 16.7202 91.4707 18.3928 91.4707 20.1723V23.5476C91.4707 25.3271 93.0244 27 94.9405 27ZM86.2001 22.016C86.2001 16.7202 88.4123 12.758 94.9854 12.758C101.261 12.758 103.771 16.9031 103.771 22.016C103.771 28.0172 99.8375 31.2742 94.9854 31.2742C89.0507 31.2742 86.2001 27.6345 86.2001 22.016ZM117.811 23.5476C117.811 25.3271 116.257 27 114.341 27C112.425 27 110.871 25.3271 110.871 23.5476V20.1723C110.871 18.3928 112.425 16.7202 114.341 16.7202C116.257 16.7202 117.811 18.3928 117.811 20.1723V23.5476ZM114.386 12.758C107.813 12.758 105.6 16.7202 105.6 22.016C105.6 27.6345 108.451 31.2742 114.386 31.2742C119.238 31.2742 123.171 28.0172 123.171 22.016C123.171 16.9031 120.661 12.758 114.386 12.758ZM135.849 21.854L141.593 30.7374H136.147L130.361 21.7002V30.7374H125.086V4.21459L130.361 3.6622V20.9227L135.722 12.9704H141.338L135.849 21.854Z" fill="#A4A4A4"/>
</g>
<defs>
<clipPath id="clip0">
<rect width="141.59" height="44" fill="white"/>
</clipPath>
</defs>
</svg>
