<svg width="125" height="44" viewBox="0 0 125 44" fill="none" xmlns="http://www.w3.org/2000/svg">
<g clip-path="url(#clip0)">
<path fill-rule="evenodd" clip-rule="evenodd" d="M30.8301 18.4674C30.8296 18.4962 30.8289 18.5321 30.8282 18.5548H30.8317C30.8317 18.3781 30.8312 18.4079 30.8301 18.4674ZM30.8252 18.5548C30.8264 18.5887 30.8273 18.5797 30.8282 18.5548H30.8252ZM15.8723 33.0742C15.8465 33.0733 15.8373 33.0725 15.8723 33.0713C15.9029 33.0704 15.9665 33.0693 16.0822 33.0681C20.3736 33.0235 24.0422 31.6591 26.6684 29.153C29.296 26.6449 30.8228 23.051 30.8228 18.5548H30.8252C30.824 18.5246 30.8228 18.4609 30.8216 18.3449L30.7973 16.1501H28.5625H15.9972V20.5739H26.1592C25.8174 22.8542 24.8842 24.6835 23.4965 26.0078C21.7185 27.7046 19.1372 28.6293 16.0465 28.6614C15.8423 28.6636 15.8775 28.6627 15.9481 28.6609H15.9482H15.9482C16.0492 28.6583 16.2224 28.6539 15.8723 28.6539C12.7266 28.6539 9.89564 27.4154 7.85259 25.4133C5.80062 23.4026 4.53627 20.6162 4.53627 17.5336C4.53627 14.4522 5.80032 11.669 7.8511 9.66058C9.89386 7.66029 12.7254 6.42377 15.8723 6.42377C17.356 6.42377 18.7711 6.69884 20.0672 7.19942C21.421 7.72203 22.6429 8.48406 23.6757 9.43043L26.7765 6.21623C25.319 4.88087 23.6109 3.81159 21.7328 3.08638C19.9168 2.38551 17.9395 2 15.8723 2C11.4801 2 7.51555 3.73826 4.64415 6.55015C1.77098 9.36348 -0.00012207 13.2472 -0.00012207 17.5336C-0.00012207 21.82 1.77128 25.7072 4.64534 28.5238C7.51644 31.3374 11.4804 33.0777 15.8723 33.0777C16.061 33.0777 16.0293 33.0772 15.966 33.0761C15.935 33.0756 15.8964 33.075 15.8723 33.0742ZM42.7787 17.1068C44.4075 17.1068 45.8805 17.7697 46.9451 18.8413C48.0112 19.9146 48.6707 21.4051 48.6707 23.0584C48.6707 24.7117 48.0112 26.2024 46.9451 27.2755C45.8805 28.3471 44.4075 29.01 42.7787 29.01C41.1497 29.01 39.6767 28.3471 38.6121 27.2755C37.546 26.2024 36.8865 24.7117 36.8865 23.0584C36.8865 21.4051 37.546 19.9146 38.6121 18.8413C39.6767 17.7697 41.1497 17.1068 42.7787 17.1068ZM50.0599 16.0453C48.1949 14.2433 45.6204 13.1285 42.7787 13.1285C39.9371 13.1285 37.3623 14.2433 35.4973 16.0453C33.6337 17.8459 32.4811 20.3259 32.4811 23.0584C32.4811 25.7908 33.6337 28.2708 35.4973 30.0714C37.3623 31.8737 39.9371 32.9882 42.7787 32.9882C45.6204 32.9882 48.1949 31.8737 50.0599 30.0714C51.9237 28.2708 53.0763 25.7908 53.0763 23.0584C53.0763 20.3259 51.9237 17.8459 50.0599 16.0453ZM69.0927 18.8413C68.028 17.7697 66.555 17.1068 64.9263 17.1068C63.2973 17.1068 61.8243 17.7697 60.7597 18.8413C59.6938 19.9146 59.0343 21.4051 59.0343 23.0584C59.0343 24.7117 59.6938 26.2024 60.7597 27.2755C61.8243 28.3471 63.2973 29.01 64.9263 29.01C66.555 29.01 68.028 28.3471 69.0927 27.2755C70.1588 26.2024 70.8183 24.7117 70.8183 23.0584C70.8183 21.4051 70.1588 19.9146 69.0927 18.8413ZM64.9263 13.1285C67.768 13.1285 70.3425 14.2433 72.2078 16.0453C74.0713 17.8459 75.2239 20.3259 75.2239 23.0584C75.2239 25.7908 74.0713 28.2708 72.2078 30.0714C70.3425 31.8737 67.768 32.9882 64.9263 32.9882C62.0846 32.9882 59.5102 31.8737 57.6448 30.0714C55.7813 28.2708 54.6284 25.7908 54.6284 23.0584C54.6284 20.3259 55.7813 17.8459 57.6448 16.0453C59.5102 14.2433 62.0846 13.1285 64.9263 13.1285ZM86.8977 17.1068C88.4491 17.1068 89.8523 17.7697 90.8664 18.8413C91.882 19.9146 92.51 21.4051 92.51 23.0584C92.51 24.7117 91.882 26.2024 90.8664 27.2755C89.8523 28.3471 88.4491 29.1193 86.8977 29.1193C83.595 29.1193 81.2854 26.3995 81.2854 23.0584C81.2854 21.4051 81.9134 19.9146 82.9289 18.8413C83.943 17.7697 85.3459 17.1068 86.8977 17.1068ZM92.0838 15.4169C90.5727 13.9879 88.8914 13.1285 86.119 13.1285C81.4762 13.1285 76.8022 17.5393 76.8022 23.0584C76.8022 25.7908 77.8451 28.2708 79.5312 30.0714C81.2188 31.8737 83.979 32.9882 86.5499 32.9882C88.8099 32.9882 90.5495 32.1271 92.0838 30.6949V32.8688C92.0838 36.0897 89.372 38.0445 87.2103 38.0445C84.1591 38.0445 82.5277 36.8291 81.4346 34.4703L77.5734 36.1674C78.4936 38.1532 79.8349 39.563 81.4072 40.5068C83.1745 41.5677 85.1964 41.9462 87.2103 41.9462C89.4157 41.9462 91.6433 41.0387 93.3015 39.6007C95.0229 38.1079 96.2941 35.2462 96.2941 32.6077V13.6885H92.0838V15.4169ZM99.0161 32.4193H103.364V3.27838H99.0161V32.4193ZM120.457 26.3786C118.172 30.0931 112.142 30.0493 110.43 26.0731C113.065 25.0385 115.692 23.9916 118.319 22.9447C120.272 22.1663 122.225 21.388 124.181 20.6148C122.663 16.8012 120.587 14.607 118.03 13.7012C114.092 12.3064 110.275 13.6067 107.8 16.1641C104.766 19.2992 103.83 25.9122 108.207 30.2221C109.999 31.9858 112.396 33.0745 115.375 33.0713C118.721 33.0534 121.792 31.6424 123.9 28.629L120.457 26.3786ZM118.997 19.0754L109.738 22.7119C109.602 20.7995 110.656 19.1073 111.86 18.116C114.989 16.0339 117.363 17.0261 118.997 19.0754Z" fill="#A4A4A4"/>
</g>
<defs>
<clipPath id="clip0">
<rect width="124.18" height="44" fill="white"/>
</clipPath>
</defs>
</svg>
