<svg width="142" height="44" viewBox="0 0 142 44" fill="none" xmlns="http://www.w3.org/2000/svg">
<g clip-path="url(#clip0)">
<path fill-rule="evenodd" clip-rule="evenodd" d="M139.132 0.25H108.514C107.051 0.25 105.862 1.40711 105.862 2.83309V33.5123C105.862 34.9398 107.051 36.0984 108.514 36.0984H139.132C140.598 36.0984 141.792 34.9398 141.792 33.5123V2.83309C141.792 1.40711 140.598 0.25 139.132 0.25ZM113.855 5.18546C115.559 5.18546 116.943 6.56688 116.943 8.26745C116.943 9.96951 115.559 11.3509 113.855 11.3509C112.147 11.3509 110.764 9.96951 110.764 8.26745C110.764 6.56688 112.147 5.18546 113.855 5.18546ZM116.518 30.7976H111.189V13.6895H116.518V30.7976ZM119.861 13.6896H124.972V16.0272H125.043C125.755 14.6821 127.493 13.2644 130.086 13.2644C135.482 13.2644 136.478 16.8079 136.478 21.4137V30.7976H131.153V22.478C131.153 20.4941 131.116 17.9421 128.384 17.9421C125.611 17.9421 125.185 20.1032 125.185 22.3346V30.7976H119.861V13.6896ZM20.916 5.17779C22.6218 5.17779 24.0063 6.55921 24.0063 8.25978C24.0063 9.96333 22.6218 11.3408 20.916 11.3408C19.2121 11.3408 17.8276 9.96333 17.8276 8.25978C17.8276 6.55921 19.2121 5.17779 20.916 5.17779ZM18.2522 30.7899H23.5797V13.6819H18.2522V30.7899ZM0 5.55189V30.7968H15.8042V25.6941H5.54277V5.55189H0ZM51.1732 5.55012H45.848V30.7968H51.1732V22.3397H51.2426L56.8946 30.7968H63.5889L56.7482 21.5954L63.7348 13.6743H57.206L51.1732 20.6381V5.55012ZM26.5259 13.6843H31.6396V16.023H31.7109C32.4205 14.6764 34.1611 13.2596 36.7532 13.2596C42.152 13.2596 43.146 16.8027 43.146 21.408V30.7899H37.8188V22.4717C37.8188 20.4869 37.7822 17.9366 35.0473 17.9366C32.2781 17.9366 31.8531 20.0985 31.8531 22.3298V30.7899H26.5259V13.6843ZM72.1763 31.2314C74.9481 31.2314 77.752 29.9901 79.4569 27.8282L75.7285 25.0998C74.8403 26.3044 73.6693 27.1907 71.9286 27.1907C69.8684 27.1907 68.3389 25.8797 67.916 23.8597H80.2743V22.1943C80.2743 16.703 77.1522 13.1599 72.1763 13.1599C66.8506 13.1599 62.5888 16.703 62.5888 22.1943C62.5888 27.6863 66.8506 31.2314 72.1763 31.2314ZM71.6783 16.9868C73.598 16.9868 74.9828 18.4752 74.9481 20.247H67.916C68.0565 18.5813 69.336 16.9868 71.6783 16.9868ZM100.535 30.7874H95.633V28.5187H95.5636C94.7442 29.7585 92.6863 31.2124 90.2706 31.2124C85.1552 31.2124 81.7822 27.5287 81.7822 22.3192C81.7822 17.5351 84.765 13.1414 89.6656 13.1414C91.8694 13.1414 93.9286 13.7434 95.1362 15.4089H95.2056V5.54999H100.535V30.7874ZM91.3689 17.8189C88.7074 17.8189 87.1096 19.5919 87.1096 22.1765C87.1096 24.7653 88.7074 26.5346 91.3689 26.5346C94.0341 26.5346 95.6329 24.7653 95.6329 22.1765C95.6329 19.5919 94.0341 17.8189 91.3689 17.8189Z" fill="#A4A4A4"/>
</g>
<defs>
<clipPath id="clip0">
<rect width="141.79" height="44" fill="white"/>
</clipPath>
</defs>
</svg>
