<svg width="126" height="44" viewBox="0 0 126 44" fill="none" xmlns="http://www.w3.org/2000/svg">
<g clip-path="url(#clip0)">
<path fill-rule="evenodd" clip-rule="evenodd" d="M62.5555 5.07022H58.0078V10.6318H55.5575V14.645H58.0078V28.6924H62.5555V14.645H65.0428V10.6318H62.5555V5.07022ZM51.2953 2.5C49.625 2.5 48.3105 3.80277 48.3105 5.49277C48.3105 7.14674 49.625 8.45022 51.2953 8.45022C53.0354 8.45022 54.3507 7.14674 54.3507 5.49277C54.3507 3.80277 53.0354 2.5 51.2953 2.5V2.5ZM123.583 10.2107C122.803 10.2107 122.198 9.6119 122.198 8.83674C122.198 8.09742 122.803 7.49865 123.583 7.49865C124.33 7.49865 124.933 8.09742 124.933 8.83674C124.933 9.6119 124.33 10.2107 123.583 10.2107V10.2107ZM123.583 7.28853C122.696 7.28853 121.986 7.99236 121.986 8.83674C121.986 9.71696 122.696 10.4215 123.583 10.4215C124.437 10.4215 125.147 9.71696 125.147 8.83674C125.147 7.99236 124.437 7.28853 123.583 7.28853V7.28853ZM70.3342 17.7795C70.9383 15.3857 72.7859 14.0476 75.1659 14.0476C77.5465 14.0476 79.3214 15.3497 79.8906 17.7795H70.3342ZM75.2717 10.0689C69.8025 10.0689 65.6456 14.224 65.6456 19.751C65.6456 25.2073 69.4475 29.2209 75.3431 29.2209C78.6112 29.2209 81.5248 28.0244 83.6562 25.7703L80.601 22.7789C79.1087 24.1874 77.5102 25.2073 75.4497 25.2073C72.9639 25.2073 71.0807 23.7988 70.4416 21.441H84.6142V20.3498C84.6142 14.188 80.779 10.0689 75.2717 10.0689V10.0689ZM115.519 10.0689C113.281 10.0689 111.364 10.9131 110.013 12.3576V2.9937H105.466V28.6924H110.013V18.8706C110.013 16.2659 111.684 14.4695 114.454 14.4695C117.047 14.4695 118.468 16.0535 118.468 18.8706V28.6924H123.015V18.061C123.015 13.0623 119.852 10.0689 115.519 10.0689V10.0689ZM123.228 8.80213V8.2378H123.583C123.868 8.2378 123.975 8.34445 123.975 8.52067C123.975 8.69636 123.868 8.80213 123.583 8.80213H123.228ZM124.187 8.52067C124.187 8.16876 123.938 8.02697 123.583 8.02697H123.015V9.64633H123.228V9.01296H123.583L123.975 9.64633H124.222L123.797 8.97853C124.046 8.9418 124.187 8.80213 124.187 8.52067V8.52067ZM95.9106 14.4349C97.8287 14.4349 99.3923 15.4202 100.6 16.7943L103.761 13.6957C101.986 11.4774 99.1787 10.0689 95.9828 10.0689C90.4771 10.0689 86.1421 14.224 86.1421 19.6443C86.1421 25.0663 90.4771 29.2209 95.9828 29.2209C99.1787 29.2209 101.986 27.812 103.761 25.596L100.6 22.4974C99.4278 23.835 97.8287 24.8554 95.8759 24.8554C92.9621 24.8554 90.724 22.6027 90.724 19.6443C90.724 16.6869 92.9621 14.4349 95.9106 14.4349V14.4349ZM49.0569 28.6924H53.6048V10.6318H49.0569V28.6924ZM16.163 24.8554C13.2494 24.8554 10.9399 22.5681 10.9399 19.6099C10.9399 16.6869 13.2494 14.4349 16.163 14.4349C19.1109 14.4349 21.4203 16.6869 21.4203 19.6443C21.4203 22.6027 19.1109 24.8554 16.163 24.8554V24.8554ZM16.163 10.0689C10.6561 10.0689 6.32254 14.224 6.32254 19.6443C6.32254 25.0663 10.6561 29.2209 16.163 29.2209C21.6687 29.2209 26.002 25.0663 26.002 19.6443C26.002 14.224 21.6687 10.0689 16.163 10.0689V10.0689ZM0 28.6924H4.54767V2.9937H0V28.6924ZM37.4053 24.8554C34.4932 24.8554 32.1838 22.5681 32.1838 19.6099C32.1838 16.6869 34.4932 14.4349 37.4053 14.4349C40.354 14.4349 42.6633 16.6869 42.6633 19.6443C42.6633 22.6027 40.354 24.8554 37.4053 24.8554V24.8554ZM47.068 14.224V10.6318H40.6727C39.6436 10.2813 38.5427 10.0689 37.4053 10.0689C31.8998 10.0689 27.5665 14.224 27.5665 19.6443C27.5665 25.0663 31.8998 29.2209 37.4053 29.2209C42.911 29.2209 47.2459 25.0663 47.2459 19.6443C47.2459 17.814 46.7476 16.0191 45.7535 14.681L47.068 14.224ZM37.4053 35.1001C34.4932 35.1001 32.1838 32.8475 32.1838 29.9254H27.5665C27.5665 35.3471 31.8998 39.5 37.4053 39.5C42.911 39.5 47.2459 35.3471 47.2459 29.9254H42.627C42.627 32.8475 40.3175 35.1001 37.4053 35.1001V35.1001Z" fill="#A4A4A4"/>
</g>
<defs>
<clipPath id="clip0">
<rect width="125.15" height="44" fill="white"/>
</clipPath>
</defs>
</svg>
