<svg width="104" height="44" viewBox="0 0 104 44" fill="none" xmlns="http://www.w3.org/2000/svg">
<g clip-path="url(#clip0)">
<path fill-rule="evenodd" clip-rule="evenodd" d="M35.2265 12.8821H29.6493V20.1302H23.8409V12.8821H18.2614V31.1192H23.8409V23.9447H29.6493V31.1192H35.2265V12.8821ZM54.6376 27.4558V12.8821H49.0578V31.1192H59.1462L59.9855 27.4558H54.6376ZM39.3537 31.1192H44.9319V12.8821H39.3537V31.1192ZM61.9735 31.1192H67.5507V12.8821H61.9735V31.1192ZM95.0596 17.5352C95.0596 16.5442 96.054 16.0851 97.6578 16.0851C99.4153 16.0851 101.327 16.4671 102.624 17.0033L102.168 13.0344C100.715 12.7297 99.4153 12.5 97.0472 12.5C92.5386 12.5 89.4823 14.2748 89.4823 17.9956C89.4823 24.4029 98.1959 23.1073 98.1959 26.0828C98.1959 27.2264 97.3525 27.8353 95.2885 27.8353C93.4579 27.8353 90.6272 27.2264 88.948 26.3874L89.5599 30.5861C91.2401 31.1954 93.5321 31.5 95.3671 31.5C100.027 31.5 103.849 29.9734 103.849 25.3939C103.849 19.2915 95.0596 20.4361 95.0596 17.5352V17.5352ZM79.3215 26.7694C84.5145 26.7694 87.801 24.097 87.801 19.4439C87.801 14.3312 84.2868 12.5 78.5544 12.5C76.3393 12.5 73.6632 12.6523 71.7528 12.882V31.1192H77.3338V26.7694H79.3215ZM82.2976 19.52C82.2976 21.8853 81.1543 23.4877 78.2494 23.4877H77.3338V15.9538C77.6577 15.9349 77.963 15.9349 78.2494 15.9349C80.9994 15.9349 82.2976 17.2309 82.2976 19.52V19.52ZM7.56489 26.7694C12.7605 26.7694 16.0457 24.097 16.0457 19.4439C16.0457 14.3312 12.5302 12.5 6.80067 12.5C4.58372 12.5 1.90913 12.6523 0 12.882V31.1192H5.57692V26.7694H7.56489ZM10.5462 19.52C10.5462 21.8853 9.39904 23.4877 6.49546 23.4877H5.57702V15.9538C5.90369 15.9349 6.209 15.9349 6.49546 15.9349C9.24419 15.9349 10.5462 17.2309 10.5462 19.52V19.52Z" fill="#A4A4A4"/>
</g>
<defs>
<clipPath id="clip0">
<rect width="103.85" height="44" fill="white"/>
</clipPath>
</defs>
</svg>
