<svg width="2235" height="916" viewBox="0 0 2235 916" fill="none" xmlns="http://www.w3.org/2000/svg">
<path d="M1759.73 198.821C1761.34 183.801 1718.01 136.315 1691.19 157.444C1688.88 159.27 1679.7 164.312 1675.92 168.592C1642.23 206.642 1648.81 190.629 1633.61 242.006C1621.83 281.838 1626.99 285.761 1653.89 316.462C1671.55 336.616 1699.37 335.699 1722.83 336.655C1732.43 337.047 1767.93 356.476 1765.69 366.088C1765.08 368.7 1772.98 396.207 1779.58 401.856C1806.16 424.61 1815.1 411.791 1841.92 397.848C1867.85 384.369 1878.13 344.172 1936.47 374.148C1989.01 401.138 1964.78 476.747 1939.07 514.387C1928.67 529.617 1914.96 575.567 1916.69 593.487C1918.28 609.944 1914.99 613.016 1919.99 631.978C1931.67 676.243 1952.78 670.668 1984.52 695.391C1992.55 701.643 2052.7 703.667 2064.27 699.517C2106.3 684.433 2159.24 592.572 2179.55 585.715C2199.86 578.86 2210.81 589.734 2222.53 601.674" stroke="#F36F56" stroke-width="2.11652" stroke-miterlimit="22.9256" stroke-linecap="round" stroke-dasharray="2.12 10.58"/>
<path d="M500.482 805.769C347.671 880.741 119.176 594.007 60.5121 474.437C1.84812 354.867 196.014 257.121 348.825 182.149C501.636 107.176 854.057 273.065 912.721 392.635C971.384 512.206 653.293 730.796 500.482 805.769Z" fill="#EBF3FA"/>
<path d="M1119.44 278.103C1132.94 257.679 1233.75 244.749 1244.22 299.644C1245.12 304.388 1250.95 320.445 1251.1 329.813C1252.43 413.107 1260.99 386.147 1226.44 466.328C1199.65 528.49 1189.42 527.868 1125.59 537.421C1083.68 543.693 1051.23 512.893 1022.1 489.08C1010.16 479.324 947.593 465.675 940.409 480.037C938.458 483.941 900.703 509.764 886.979 509.764C831.696 509.764 834.138 484.269 816.273 438.315C799.003 393.891 827.973 332.88 727.139 308.005C636.347 285.608 587.731 405.583 579.911 479.86C576.747 509.914 545.991 581.753 525.498 602.221C506.68 621.018 507.476 628.355 481.985 646.632C422.478 689.298 402.874 659.855 339.365 656.797C323.303 656.023 249.031 594.422 239.415 576.927C204.466 513.337 235.31 342.505 217.981 312.319C200.652 282.133 176.334 284.001 150 286.375" stroke="#2B2A29" stroke-width="2.11652" stroke-miterlimit="22.9256" stroke-linecap="round" stroke-dasharray="2.12 10.58"/>
<path d="M539.366 618.839L551.238 615.849L464.36 312.061L340.242 243.236C339.603 242.88 338.901 242.655 338.175 242.571C337.448 242.488 336.713 242.549 336.01 242.75C335.308 242.952 334.652 243.29 334.08 243.745C333.508 244.2 333.031 244.764 332.678 245.403V245.403C332.322 246.042 332.097 246.745 332.013 247.471C331.93 248.197 331.991 248.932 332.192 249.635C332.394 250.338 332.732 250.994 333.187 251.566C333.642 252.137 334.206 252.614 334.845 252.968L454.9 319.548L532.201 599.769L539.366 618.839Z" fill="url(#paint0_linear)"/>
<path d="M522.567 586.358C522.567 594.273 524.914 602.01 529.311 608.591C533.708 615.172 539.958 620.301 547.271 623.33C554.583 626.359 562.629 627.151 570.392 625.607C578.155 624.063 585.285 620.252 590.882 614.655C596.479 609.058 600.29 601.928 601.834 594.165C603.378 586.402 602.586 578.356 599.557 571.044C596.528 563.731 591.399 557.481 584.818 553.084C578.237 548.687 570.5 546.34 562.585 546.34C551.971 546.34 541.793 550.556 534.288 558.061C526.783 565.566 522.567 575.745 522.567 586.358Z" fill="#1A1A1A"/>
<path d="M260.111 268.563L336.685 242.59L344.188 249.387L265.797 276.033L260.111 268.563Z" fill="url(#paint1_linear)"/>
<path d="M538.948 462.813L429.812 492.066L404.323 396.974L513.46 367.721L538.948 462.813Z" fill="#FFCC00"/>
<g style="mix-blend-mode:multiply" opacity="0.5">
<path d="M468.76 487.289L430.28 497.484L405.172 402.721L443.651 392.526L468.76 487.289Z" fill="#F47458"/>
</g>
<path d="M492.628 393.048L469.396 399.203L466.054 386.588L489.285 380.433L492.628 393.048Z" fill="#EFEFB4"/>
<path d="M610.005 577.239L455.148 618.27L422.916 496.621L577.773 455.591L610.005 577.239Z" fill="#ED9B8E"/>
<path d="M509.929 603.75L455.144 618.266L422.912 496.617L477.697 482.101L509.929 603.75Z" fill="#F47458"/>
<path d="M546.976 481.083L513.897 489.848L509.606 473.654L542.686 464.89L546.976 481.083Z" fill="#EFEFB4"/>
<path d="M640.168 570.534L528.148 600.215L502.012 501.572L614.032 471.892L640.168 570.534Z" fill="#FFE26C"/>
<g style="mix-blend-mode:multiply" opacity="0.5">
<path d="M567.795 589.713L528.16 600.215L502.024 501.572L541.659 491.071L567.795 589.713Z" fill="#F47458"/>
</g>
<path d="M592.12 491.742L568.19 498.082L564.711 484.951L588.641 478.611L592.12 491.742Z" fill="#EFEFB4"/>
<path d="M459.118 639.947L469.89 637.168L387.397 338.144L263.263 269.296C261.972 268.58 260.45 268.406 259.032 268.813C257.613 269.219 256.414 270.173 255.698 271.463C254.983 272.754 254.809 274.276 255.215 275.695C255.622 277.113 256.575 278.312 257.866 279.028L377.92 345.608L459.118 639.947Z" fill="url(#paint2_linear)"/>
<path d="M420.901 601.592C420.901 609.507 423.248 617.244 427.645 623.825C432.042 630.406 438.292 635.535 445.605 638.564C452.917 641.593 460.963 642.386 468.726 640.842C476.489 639.297 483.62 635.486 489.216 629.889C494.813 624.293 498.624 617.162 500.168 609.4C501.712 601.637 500.92 593.59 497.891 586.278C494.862 578.966 489.733 572.716 483.152 568.318C476.571 563.921 468.834 561.574 460.919 561.574C450.306 561.574 440.127 565.79 432.622 573.295C425.117 580.8 420.901 590.979 420.901 601.592Z" fill="#1A1A1A"/>
<path d="M433.112 600.132C432.82 605.754 434.238 611.333 437.181 616.132C440.124 620.931 444.453 624.726 449.596 627.014C454.739 629.303 460.456 629.979 465.991 628.952C471.526 627.926 476.62 625.246 480.601 621.265C484.582 617.284 487.262 612.19 488.289 606.655C489.315 601.12 488.639 595.403 486.351 590.26C484.062 585.117 480.267 580.788 475.468 577.845C470.669 574.902 465.09 573.483 459.468 573.776C452.595 574.136 446.098 577.028 441.231 581.895C436.365 586.762 433.472 593.259 433.112 600.132V600.132Z" fill="#9E9DA2"/>
<path d="M442.338 600.375C442.093 604.153 443.006 607.915 444.954 611.161C446.902 614.407 449.793 616.983 453.241 618.544C456.69 620.104 460.533 620.577 464.257 619.898C467.982 619.22 471.411 617.422 474.087 614.744C476.763 612.067 478.56 608.638 479.238 604.913C479.915 601.188 479.442 597.346 477.88 593.898C476.317 590.449 473.741 587.559 470.495 585.612C467.248 583.665 463.485 582.754 459.707 583C455.197 583.296 450.948 585.221 447.752 588.418C444.556 591.615 442.632 595.864 442.338 600.375V600.375Z" fill="#D8D9DD"/>
<defs>
<linearGradient id="paint0_linear" x1="455.742" y1="334.725" x2="280.364" y2="676.882" gradientUnits="userSpaceOnUse">
<stop stop-color="#2B478B"/>
<stop offset="0.9964" stop-color="#6165D7"/>
</linearGradient>
<linearGradient id="paint1_linear" x1="307.57" y1="250.783" x2="303.072" y2="288.646" gradientUnits="userSpaceOnUse">
<stop stop-color="#2B478B"/>
<stop offset="0.9964" stop-color="#6165D7"/>
</linearGradient>
<linearGradient id="paint2_linear" x1="376.297" y1="359.574" x2="202.535" y2="696.255" gradientUnits="userSpaceOnUse">
<stop stop-color="#2B478B"/>
<stop offset="0.9964" stop-color="#6165D7"/>
</linearGradient>
</defs>
</svg>
