<svg width="11" height="18" viewBox="0 0 11 18" fill="none" xmlns="http://www.w3.org/2000/svg">
    <path d="M9.15347 18C9.64145 18.0027 10.1105 17.8152 10.4569 17.4788C10.8045 17.1413 11 16.682 11 16.2028C11 15.7236 10.8045 15.2643 10.4569 14.9268L4.38016 9.01418L10.2183 3.06559C10.9301 2.36463 10.9301 1.23256 10.2183 0.531596C9.87356 0.191372 9.40432 0 8.9148 0C8.42529 0 7.95604 0.191372 7.61132 0.531596L0.524801 7.72023C-0.174933 8.41904 -0.174933 9.53744 0.524801 10.2362L7.86835 17.4249C8.20118 17.7767 8.66387 17.9838 9.15347 18Z" fill="#1A1A1A"/>
</svg>
