<svg width="11" height="18" viewBox="0 0 11 18" fill="none" xmlns="http://www.w3.org/2000/svg">
    <path d="M1.84653 18C1.35855 18.0027 0.889519 17.8152 0.543052 17.4788C0.195496 17.1413 0 16.682 0 16.2028C0 15.7236 0.195496 15.2643 0.543052 14.9268L6.61984 9.01418L0.781717 3.06559C0.0699009 2.36463 0.0699009 1.23256 0.781717 0.531596C1.12644 0.191372 1.59568 0 2.0852 0C2.57471 0 3.04396 0.191372 3.38868 0.531596L10.4752 7.72023C11.1749 8.41904 11.1749 9.53744 10.4752 10.2362L3.13165 17.4249C2.79882 17.7767 2.33613 17.9838 1.84653 18Z" fill="#1A1A1A"/>
</svg>
