<svg width="650" height="632" viewBox="0 0 650 632" fill="none" xmlns="http://www.w3.org/2000/svg">
<path d="M392.742 317.311C366.63 236.851 445.05 204.038 278.716 216.001C237.219 218.984 221.597 178.765 261.023 141.857C300.724 104.692 140.633 61.2862 111 66" stroke="#2B2A29" stroke-width="2.11762" stroke-miterlimit="22.9256" stroke-linecap="round" stroke-dasharray="2.12 10.58"/>
<path d="M551.31 415.232C517.798 509.865 181.402 531.417 91.4969 499.579C1.59194 467.741 124.669 346.102 158.181 251.469C191.694 156.836 252.937 86.9286 342.842 118.767C432.747 150.605 584.823 320.599 551.31 415.232Z" fill="url(#paint0_linear)" fill-opacity="0.9"/>
<path d="M33.7066 362.915V374.505C33.7066 375.525 33.951 376.522 34.3954 377.408C35.4619 379.536 37.6838 380.998 40.2168 380.998H42.3054C45.8827 380.998 48.8156 378.073 48.8156 374.505V362.915C48.8156 361.696 48.4601 360.566 47.8602 359.591C47.8602 359.569 47.8602 359.569 47.8602 359.569C46.7048 357.685 44.6384 356.422 42.2832 356.422H40.1946C36.6395 356.422 33.7066 359.369 33.7066 362.915Z" fill="#FFCC00"/>
<path opacity="0.3" d="M34.3953 377.407C35.4619 379.535 37.6838 380.997 40.2168 380.997H42.3054C45.8827 380.997 48.8156 378.072 48.8156 374.504V362.914C48.8156 361.695 48.4601 360.565 47.8602 359.59C47.7491 360.299 44.9939 376.211 34.3953 377.407Z" fill="#A8302D"/>
<path d="M136.937 447.771H104.742V415.371H138.337L136.937 447.771Z" fill="#311944"/>
<path d="M35.4396 379.27L193.574 383.148V300H89.7435C79.8559 300 70.7904 305.518 66.2577 314.316L59.4586 327.546L35.4396 379.27Z" fill="#E5E5E5"/>
<path d="M125.272 442.497C125.272 451.295 120.717 461.001 120.717 461.001C120.717 461.001 113.962 461.001 113.007 461.001C106.252 461.001 100.764 452.713 100.764 442.497C100.764 432.28 113.94 423.992 120.717 423.992C127.494 423.992 125.272 432.28 125.272 442.497Z" fill="#311944"/>
<path d="M120.739 461.001C113.978 461.001 108.496 452.716 108.496 442.497C108.496 432.277 113.978 423.992 120.739 423.992C127.501 423.992 132.982 432.277 132.982 442.497C132.982 452.716 127.501 461.001 120.739 461.001Z" fill="#311944"/>
<path d="M120.584 456.437C115.491 456.437 111.363 450.196 111.363 442.498C111.363 434.799 115.491 428.559 120.584 428.559C125.676 428.559 129.805 434.799 129.805 442.498C129.805 450.196 125.676 456.437 120.584 456.437Z" fill="#F4F7FA"/>
<path d="M36.7506 442.497C36.7506 451.295 32.1957 461.001 32.1957 461.001C32.1957 461.001 25.4411 461.001 24.4856 461.001C17.731 461.001 12.2429 452.713 12.2429 442.497C12.2429 432.28 25.4189 423.992 32.1957 423.992C38.9503 423.992 36.7506 432.28 36.7506 442.497Z" fill="#311944"/>
<path d="M44.4385 442.497C44.4385 452.713 38.9503 461.001 32.1957 461.001C25.441 461.001 19.9529 452.713 19.9529 442.497C19.9529 432.28 25.441 423.992 32.1957 423.992C38.9503 423.992 44.4385 432.28 44.4385 442.497Z" fill="#311944"/>
<path d="M41.2611 442.498C41.2611 450.188 37.1283 456.437 32.0401 456.437C26.9518 456.437 22.819 450.21 22.819 442.498C22.819 434.808 26.9518 428.559 32.0401 428.559C37.1283 428.559 41.2611 434.808 41.2611 442.498Z" fill="#F4F7FA"/>
<path d="M240.057 442.497C240.057 451.295 235.502 461.001 235.502 461.001C235.502 461.001 228.747 461.001 227.792 461.001C221.037 461.001 215.549 452.713 215.549 442.497C215.549 432.28 228.725 423.992 235.502 423.992C242.279 423.992 240.057 432.28 240.057 442.497Z" fill="#311944"/>
<path d="M247.767 442.497C247.767 452.713 242.279 461.001 235.524 461.001C228.769 461.001 223.281 452.713 223.281 442.497C223.281 432.28 228.769 423.992 235.524 423.992C242.279 423.992 247.767 432.28 247.767 442.497Z" fill="#311944"/>
<path d="M244.589 442.498C244.589 450.188 240.457 456.437 235.368 456.437C230.28 456.437 226.147 450.21 226.147 442.498C226.147 434.808 230.28 428.559 235.368 428.559C240.457 428.559 244.589 434.808 244.589 442.498Z" fill="#F4F7FA"/>
<path d="M0.0443985 433.765C0.0221793 441.499 6.31022 447.77 14.0425 447.77H104.741C104.475 446.241 104.342 444.69 104.342 443.05C104.342 431.083 111.541 421.377 120.384 421.377C129.249 421.377 136.448 431.083 136.448 443.05C136.448 444.668 136.337 446.241 136.071 447.77H189.063C189.063 447.77 191.197 424.169 190.93 412.335C190.73 402.03 190.73 381.864 191.33 376.922C191.33 376.19 140.226 376.102 127.316 376.057C125.561 376.035 124.517 376.035 124.405 376.035L124.228 376.168L124.028 376.301C121.65 377.963 108.319 387.293 100.031 392.745C92.7208 397.554 38.8614 399.504 17.7309 400.102C12.4872 400.235 9.2432 400.302 9.2432 400.302C9.2432 400.302 6.35469 403.249 3.79948 407.903C1.84419 411.515 0.088837 416.169 0.0443985 421.244C0.0221793 424.413 -2.91297e-05 428.202 -2.91297e-05 431.947C0.0444093 432.546 0.0443985 433.144 0.0443985 433.765Z" fill="#C4D9ED"/>
<path d="M48.1934 376.033H119.251C120.895 376.033 122.383 375.08 123.072 373.595L140.67 334.57C141.248 333.284 140.292 331.844 138.892 331.844H63.9246C62.2804 331.844 60.7695 332.819 60.1029 334.348L47.5046 363.069L44.3495 370.249C43.1719 372.952 45.1938 376.033 48.1934 376.033Z" fill="#5861AE"/>
<path d="M81.2789 431.925C81.3011 433.144 81.3455 434.296 81.4122 435.338C81.9233 442.119 88.7668 447.77 88.7668 447.77H104.72C104.454 446.241 104.32 444.689 104.32 443.05C104.32 438.972 105.165 435.182 106.587 431.925C109.408 425.609 114.519 421.376 120.363 421.376C126.228 421.376 131.339 425.609 134.161 431.925C135.605 435.182 136.427 438.972 136.427 443.05C136.427 444.667 136.316 446.241 136.049 447.77H193.553V300H147.403V329.341C147.403 329.341 133.561 361.785 127.317 376.057C125.784 379.625 124.695 382.04 124.406 382.572C123.029 385.209 90.8554 401.453 85.5228 406.218C82.5898 408.877 81.1234 422.661 81.2789 431.925Z" fill="#C6CEDD"/>
<path d="M146.914 338.85L131.782 376.036H157.757C157.757 376.036 163.089 375.149 163.778 364.29C164.511 352.7 164.511 332.689 164.511 332.689L153.113 332.645C148.736 333.287 148.047 335.658 146.914 338.85Z" fill="#6165D7"/>
<path d="M9.28753 400.279H93.5207L124.272 376.146L124.45 376.035H39.4835L15.2867 395.448L9.28753 400.279Z" fill="#C4D9ED"/>
<path d="M3.84395 407.902C4.33278 408.7 4.95488 409.232 5.64367 409.343L17.4643 411.515C18.4642 411.714 19.2418 409.986 18.9752 408.191L17.8198 400.257L17.7754 400.057L17.5532 398.44C17.3532 397.044 16.731 395.98 15.9756 395.692L15.2868 395.426L9.28765 400.257C9.28765 400.279 6.39916 403.226 3.84395 407.902Z" fill="#6570B6"/>
<path d="M82.6112 414.461L90.2323 413.707C92.8986 413.441 95.0539 411.447 95.5205 408.832L97.2758 399.236C97.3203 399.081 97.3203 398.948 97.3203 398.793C91.8988 401.896 87.3216 404.666 85.5885 406.239C84.2998 407.347 83.3 410.494 82.6112 414.461Z" fill="#A8302D"/>
<path d="M68.1463 415.882L82.5888 414.441H82.611L90.2322 413.688C92.8986 413.422 95.0538 411.428 95.5204 408.813L97.2758 399.217C97.3202 399.062 97.3202 398.929 97.3202 398.774V398.751C97.4091 396.735 95.5426 395.095 93.4762 395.494L70.9904 400.059C69.5461 400.347 68.4129 401.411 68.0352 402.807L65.3911 412.558C64.8579 414.353 66.3243 416.081 68.1463 415.882Z" fill="#C4D9ED"/>
<path d="M59.4587 327.547H147.202C147.202 327.547 147.536 321.941 149.735 315.558C151.691 309.907 155.09 303.614 161.023 300.023H89.3213C77.634 300.023 67.2799 306.251 63.1693 315.558C62.9693 315.935 62.8138 316.334 62.6583 316.711C61.414 319.946 60.303 323.558 59.4587 327.547Z" fill="#C4D9ED"/>
<path d="M82.5888 414.463L90.21 413.71C92.8763 413.444 95.0316 411.45 95.4982 408.835L97.2535 399.239C97.298 399.084 97.298 398.929 97.298 398.773C91.8765 401.898 87.2993 404.668 85.5662 406.22C84.2997 407.35 83.2999 410.497 82.5888 414.463Z" fill="#5861AE"/>
<path d="M0.0443206 433.765C0.0221014 441.499 6.59902 447.771 14.7313 447.771H104.741C104.475 446.242 104.341 444.691 104.341 443.051C104.341 438.973 105.186 435.183 106.608 431.926H0.0443206C0.0443206 432.546 0.0443206 433.145 0.0443206 433.765Z" fill="#5861AE"/>
<path d="M136.47 443.051C136.47 444.668 136.359 446.242 136.093 447.771H193.596V431.926H134.204C135.626 435.183 136.47 438.995 136.47 443.051Z" fill="#5861AE"/>
<path d="M59.3476 400.965H24.9077C23.7968 400.965 22.9747 402.45 23.1302 404.09L24.3522 416.034C24.53 417.785 25.5298 419.093 26.7075 419.093H55.0815C56.9034 419.093 58.5032 417.298 59.0365 414.66L61.0807 404.511C61.4362 402.738 60.5696 400.965 59.3476 400.965Z" fill="#444B8C"/>
<path d="M47.5048 363.049C88.1215 360.966 115.607 339.292 123.917 331.824H63.9247C62.2805 331.824 60.7696 332.799 60.103 334.328L47.5048 363.049Z" fill="#444B8C"/>
<path d="M177.332 300H331V447.77H177.332V300Z" fill="#FFC444"/>
<path d="M139.47 356.953C139.47 356.953 138.159 371.978 145.603 376.1H131.716L139.47 356.953Z" fill="#6165D7"/>
<path d="M140.848 362.915V374.505C140.848 375.525 141.092 376.522 141.536 377.408C142.603 379.536 144.825 380.998 147.358 380.998H149.447C153.024 380.998 155.957 378.073 155.957 374.505V362.915C155.957 361.696 155.601 360.566 155.001 359.591C155.001 359.569 155.001 359.569 155.001 359.569C153.846 357.685 151.78 356.422 149.447 356.422H147.358C143.758 356.422 140.848 359.369 140.848 362.915Z" fill="#FFCC00"/>
<path opacity="0.3" d="M141.536 377.407C142.603 379.535 144.825 380.997 147.358 380.997H149.447C153.024 380.997 155.957 378.072 155.957 374.504V362.914C155.957 361.695 155.601 360.565 155.001 359.59C154.89 360.299 152.113 376.211 141.536 377.407Z" fill="#8E2323"/>
<path d="M280.807 447.772H318.602C319.402 444.359 321.801 420.137 300.626 420.137C281.384 420.137 279.962 442.253 280.807 447.772Z" fill="#311944"/>
<path d="M306.781 442.497C306.781 451.295 302.226 461.001 302.226 461.001C302.226 461.001 295.471 461.001 294.516 461.001C287.761 461.001 282.273 452.713 282.273 442.497C282.273 432.28 295.449 423.992 302.226 423.992C308.981 423.992 306.781 432.28 306.781 442.497Z" fill="#311944"/>
<path d="M314.469 442.497C314.469 452.713 308.981 461.001 302.226 461.001C295.471 461.001 289.983 452.713 289.983 442.497C289.983 432.28 295.471 423.992 302.226 423.992C308.981 423.992 314.469 432.28 314.469 442.497Z" fill="#311944"/>
<path d="M311.292 442.498C311.292 450.188 307.159 456.437 302.071 456.437C296.982 456.437 292.85 450.21 292.85 442.498C292.85 434.808 296.982 428.559 302.071 428.559C307.159 428.559 311.292 434.808 311.292 442.498Z" fill="#F4F7FA"/>
<path opacity="0.3" d="M59.4587 327.548H147.202C147.202 327.548 147.536 321.941 149.735 315.559H63.1471C62.9471 315.935 62.7916 316.334 62.636 316.711C61.414 319.946 60.303 323.559 59.4587 327.548Z" fill="#D8DEE8"/>
<path style="mix-blend-mode:multiply" opacity="0.3" d="M220.41 363.801C244.029 341.369 290.979 357.921 314.679 332.76C319.58 327.547 323.499 321.847 326.324 315.824C327.118 316.185 327.775 316.693 328.232 317.301C328.689 317.909 328.93 318.595 328.931 319.294V427.169C328.931 428.153 328.459 429.103 327.601 429.845C326.744 430.587 325.559 431.07 324.266 431.205L177.223 446.551C186.508 438.906 195.83 429.137 202.579 416.927C217.404 390.12 204.988 378.449 220.41 363.801Z" fill="url(#paint1_linear)"/>
<path d="M572.291 466.163C481.925 409.916 696.977 297.694 514.042 496.43C468.402 546.007 344.02 538.815 361.871 455.524C379.846 371.652 263.447 526.681 261.089 501.204" stroke="#2B2A29" stroke-width="2.11762" stroke-miterlimit="22.9256" stroke-linecap="round" stroke-dasharray="2.12 10.58"/>
<path d="M463.657 316.421C463.657 316.421 463.043 316.824 461.855 317.606C457.621 320.444 446.075 328.169 433.223 337.164C430.194 339.293 427.076 341.505 423.959 343.716C419.29 347.07 414.695 350.406 410.359 353.668L410.319 353.692C408.986 354.646 407.759 355.59 406.532 356.535C403.957 358.498 401.535 360.395 399.308 362.201C392.585 367.643 387.708 372.152 386.365 374.722C378.184 390.8 376.598 433.401 373.799 452.95C371 472.499 246.5 459.499 262.343 426.108C278.185 392.718 284.565 369.184 286.447 364.092C289.35 356.042 269.055 313.645 274.8 287.645C280.569 261.685 302.127 247.312 310.962 222.504C315.151 210.837 317.44 194.89 318.725 181.111C319.449 173.811 319.797 167.213 320.004 162.199C320.113 159.746 321.412 157.785 323.206 156.633C323.691 156.336 324.209 156.048 324.728 155.897C326.77 155.149 329.153 155.413 331.133 156.923C336.861 161.196 342.222 170.133 339.736 188.617C339.736 188.617 344.272 193.257 351.613 200.846C354.598 203.907 358.027 207.42 361.808 211.327C364.744 214.307 367.861 217.538 371.15 220.914C371.379 221.106 371.56 221.357 371.79 221.55C373.118 222.903 374.407 224.281 375.785 225.715L375.817 225.723C376.285 226.215 376.777 226.746 377.277 227.246C378.155 228.181 379.041 229.083 379.984 230.033C380.181 230.218 380.337 230.428 380.574 230.589C386.537 236.744 392.739 243.197 399.03 249.707L399.063 249.715C400.096 250.721 401.113 251.793 402.13 252.864C402.894 253.703 403.738 254.492 404.542 255.305C405.526 256.369 406.551 257.408 407.577 258.447L407.609 258.455C414.737 265.786 421.709 273.045 428.23 279.748C429.247 280.819 430.273 281.859 431.265 282.89C432.061 283.736 432.865 284.549 433.644 285.323C434.693 286.402 435.653 287.426 436.638 288.489L436.671 288.497C449.138 301.282 458.735 311.24 462.262 314.914C463.132 315.881 463.665 316.388 463.657 316.421Z" fill="#6165D7"/>
<path d="M325.866 176.218C325.3 179.285 322.58 181.42 319.513 181.129L318.7 181.071C319.383 173.796 319.764 167.205 319.972 162.192C320.08 159.738 319.937 157.327 320.713 154.965C326.14 153.757 326.617 159.934 326.671 162.428C326.707 166.432 326.624 171.785 325.866 176.218Z" fill="#FFE26C"/>
<path opacity="0.3" d="M423.517 343.738C418.873 347.059 414.302 350.364 409.989 353.594L409.949 353.618C408.623 354.563 407.402 355.498 406.182 356.434C403.62 358.378 401.211 360.257 398.995 362.046C392.309 367.436 387.458 371.903 386.123 374.451C377.995 390.388 373.689 444.538 373.689 452.02C373.689 459.501 358.5 461.283 353 461.283C338.308 448.221 323.385 409.376 333.77 367.375C334.774 363.348 337.245 358.786 340.623 354.169C347.032 345.228 356.648 335.796 365.222 328.128C373.146 321.02 380.172 315.506 383.031 313.326C383.031 313.326 383.031 313.326 383.038 313.294C383.946 312.658 384.412 312.292 384.412 312.292L424.751 320.231L424.783 320.239L424.626 323.172L424.472 325.663L423.935 336.018L423.517 343.738Z" fill="#E2915A"/>
<path d="M447.863 368.695L324.883 352.201C321.043 351.69 318.288 348.099 318.799 344.26L351.758 98.4793C352.269 94.6411 355.861 91.8896 359.702 92.4013L482.682 108.895C486.522 109.406 489.277 112.997 488.766 116.835L455.807 362.617C455.321 366.495 451.737 369.214 447.863 368.695Z" fill="#FFCC00"/>
<path d="M461.151 370.48L338.172 353.987C334.331 353.475 331.576 349.884 332.087 346.046L365.046 100.264C365.557 96.4263 369.149 93.6748 372.99 94.1864L495.97 110.68C499.811 111.191 502.565 114.782 502.055 118.621L469.096 364.402C468.577 368.273 465.025 370.999 461.151 370.48Z" fill="url(#paint2_linear)"/>
<path opacity="0.4" d="M412.239 349.298C412.911 344.362 409.449 339.843 404.509 339.17C399.57 338.497 395.049 341.955 394.377 346.891C393.706 351.827 397.167 356.347 402.107 357.019C407.014 357.684 411.567 354.234 412.239 349.298Z" fill="#D86713"/>
<path d="M488.552 130.677L374.63 115.387L346.46 325.515L460.382 340.805L488.552 130.677Z" fill="#FBECDB"/>
<path d="M463.664 316.407L349.742 301.117L346.471 325.512L460.393 340.802L463.664 316.407Z" fill="#FCE6D2"/>
<path d="M384.379 314.55L443.18 322.442C443.847 322.534 444.477 322.065 444.576 321.366C444.668 320.699 444.199 320.07 443.499 319.97L384.699 312.078C384.032 311.986 383.402 312.455 383.302 313.154C383.211 313.821 383.679 314.45 384.379 314.55Z" fill="black"/>
<path d="M443.828 326.764C443.919 326.098 443.45 325.468 442.751 325.368L383.95 317.477C383.283 317.385 382.653 317.853 382.554 318.552C382.462 319.219 382.931 319.849 383.631 319.948L442.431 327.84C443.098 327.932 443.736 327.431 443.828 326.764Z" fill="black"/>
<path d="M376.609 307.169C376.74 306.339 376.692 305.536 376.539 304.741C376.028 301.139 373.157 298.174 369.381 297.678C365.605 297.182 362.072 299.259 360.581 302.586C360.263 303.336 360.042 304.109 359.911 304.939C359.293 309.509 366.278 320.87 366.278 320.87C366.278 320.87 375.983 311.772 376.609 307.169ZM367.725 309.852C365.585 309.577 364.064 307.592 364.345 305.421C364.484 304.559 364.843 303.784 365.398 303.195C366.268 302.302 367.476 301.869 368.753 302.005C370.055 302.181 371.11 302.951 371.68 304.019C372.068 304.698 372.246 305.533 372.173 306.411C371.876 308.647 369.922 310.174 367.725 309.852Z" fill="#6165D7"/>
<path d="M376.108 202.296L441.771 211.109L449.028 156.976L383.366 148.163L376.108 202.296Z" fill="#FFE26C"/>
<path d="M471.504 159.992L416.204 152.57L408.946 206.704L464.247 214.126L471.504 159.992Z" fill="#FFC444"/>
<path opacity="0.4" d="M466.055 200.403L464.234 214.121L408.94 206.695L416.217 152.578L466.055 200.403Z" fill="#FFCC00"/>
<path d="M377.976 188.563L388.392 189.969L387.853 186.911L389.047 184.96L378.664 183.561L377.976 188.563Z" fill="#F1A34F"/>
<path d="M380.913 166.777L391.297 168.176L390.79 165.126L391.984 163.175L381.568 161.768L380.913 166.777Z" fill="#F1A34F"/>
<path opacity="0.4" d="M468.992 178.618L458.576 177.212L459.909 174.399L459.271 172.179L469.655 173.577L468.992 178.618Z" fill="#D86713"/>
<path d="M382.136 219.666C381.865 219.36 381.546 219.11 381.194 218.854C380.311 218.228 379.21 217.79 378.013 217.605C375.173 217.231 372.455 218.643 371.069 220.962C370.572 221.738 370.255 222.626 370.117 223.626C369.615 227.432 372.312 230.975 376.153 231.486C377.715 231.725 379.208 231.395 380.501 230.605C382.354 229.638 383.743 227.734 384.016 225.458C384.338 223.262 383.579 221.116 382.136 219.666ZM379.944 230.057C378.876 230.626 377.618 230.84 376.308 230.697C372.939 230.23 370.514 227.132 370.98 223.765C371.095 223 371.341 222.267 371.741 221.606C372.925 219.411 375.359 218.034 377.955 218.418C378.956 218.556 379.902 218.921 380.655 219.516C381.048 219.748 381.384 220.07 381.687 220.385C382.893 221.674 383.527 223.48 383.275 225.383C382.952 227.44 381.675 229.165 379.944 230.057Z" fill="#1A1A1A"/>
<path d="M373.91 220.475L376.595 228.218L386.393 213.01L377.282 223.216L373.91 220.475Z" fill="#D3671E"/>
<path d="M380.609 251.057C380.898 248.853 380.132 246.74 378.704 245.225C378.433 244.918 378.081 244.661 377.762 244.412C376.814 243.77 375.778 243.349 374.581 243.164C370.773 242.66 367.229 245.354 366.718 249.193C366.215 252.998 368.88 256.533 372.753 257.053C376.554 257.589 380.098 254.895 380.609 251.057ZM372.844 256.248C369.467 255.813 367.082 252.69 367.516 249.316C367.982 245.949 371.114 243.535 374.516 244.009C375.517 244.147 376.463 244.513 377.223 245.075C377.616 245.307 377.952 245.629 378.247 245.976C379.453 247.265 380.087 249.071 379.836 250.974C379.337 254.333 376.22 256.682 372.844 256.248Z" fill="#1A1A1A"/>
<path d="M370.47 246.065L373.188 253.815L382.953 238.6L373.843 248.806L370.47 246.065Z" fill="#D3671E"/>
<path d="M377.201 276.656C377.712 272.818 375.015 269.275 371.174 268.763C367.366 268.26 363.822 270.954 363.311 274.792C362.8 278.63 365.473 282.133 369.338 282.685C373.146 283.188 376.698 280.462 377.201 276.656ZM369.404 281.839C366.027 281.405 363.642 278.282 364.076 274.907C364.542 271.541 367.642 269.118 371.011 269.585C374.387 270.019 376.805 273.15 376.339 276.517C375.938 279.899 372.813 282.281 369.404 281.839Z" fill="#1A1A1A"/>
<path d="M460.237 234.583L394.454 225.768C393.787 225.676 393.318 225.046 393.41 224.379L393.44 224.111C393.532 223.444 394.162 222.976 394.829 223.068L460.611 231.883C461.278 231.975 461.747 232.605 461.656 233.271L461.625 233.54C461.534 234.206 460.904 234.675 460.237 234.583Z" fill="black"/>
<path d="M459.604 239.356L393.822 230.541C393.155 230.449 392.686 229.82 392.777 229.153L392.808 228.885C392.899 228.218 393.529 227.749 394.196 227.841L459.979 236.657C460.646 236.748 461.115 237.378 461.023 238.045L460.993 238.313C460.901 238.98 460.271 239.448 459.604 239.356Z" fill="black"/>
<path d="M456.822 260.216L391.039 251.401C390.372 251.309 389.903 250.679 389.995 250.012L390.025 249.744C390.117 249.077 390.747 248.609 391.414 248.701L457.196 257.516C457.863 257.608 458.332 258.237 458.241 258.904L458.21 259.172C458.086 259.831 457.489 260.308 456.822 260.216Z" fill="#1A1A1A"/>
<path d="M456.189 264.989L390.407 256.174C389.74 256.082 389.271 255.453 389.362 254.786L389.393 254.517C389.484 253.851 390.114 253.382 390.781 253.474L456.564 262.289C457.231 262.381 457.7 263.011 457.608 263.678L457.578 263.946C457.454 264.605 456.856 265.081 456.189 264.989Z" fill="#1A1A1A"/>
<path d="M453.374 285.837L387.592 277.022C386.924 276.93 386.456 276.3 386.547 275.633L386.577 275.365C386.669 274.698 387.299 274.23 387.966 274.322L453.748 283.137C454.416 283.229 454.885 283.858 454.793 284.525L454.763 284.794C454.671 285.46 454.041 285.929 453.374 285.837Z" fill="black"/>
<path d="M452.742 290.61L386.959 281.795C386.292 281.703 385.823 281.074 385.915 280.407L385.945 280.138C386.037 279.472 386.666 279.003 387.334 279.095L453.116 287.911C453.783 288.002 454.252 288.632 454.16 289.299L454.13 289.567C454.039 290.234 453.409 290.702 452.742 290.61Z" fill="black"/>
<path d="M497.439 152.818C497.439 152.818 518.594 141.552 527.88 153.088C537.198 164.632 493.252 183.947 493.252 183.947L497.439 152.818Z" fill="#6165D7"/>
<path d="M502.317 221.16L479.388 227.487C472.74 229.33 465.796 225.385 463.949 218.74L462.094 211.99C460.247 205.345 464.193 198.408 470.841 196.564L493.77 190.237C500.419 188.394 507.362 192.339 509.209 198.984L511.065 205.735C512.912 212.379 508.966 219.317 502.317 221.16Z" fill="#6165D7"/>
<path d="M497.682 255.863L474.753 262.19C468.104 264.034 461.161 260.088 459.314 253.443L457.458 246.693C455.612 240.048 459.557 233.111 466.206 231.267L489.135 224.94C495.784 223.097 502.727 227.043 504.574 233.687L506.429 240.438C508.236 247.107 504.323 254.053 497.682 255.863Z" fill="#6165D7"/>
<path d="M493.128 289.66L470.199 295.987C463.55 297.83 456.607 293.885 454.76 287.24L452.904 280.49C451.057 273.845 455.003 266.908 461.652 265.064L484.581 258.737C491.229 256.894 498.173 260.839 500.02 267.484L501.875 274.235C503.714 280.912 499.769 287.849 493.128 289.66Z" fill="#6165D7"/>
<path d="M464.975 204.174C468.675 202.551 473.689 200.624 478.046 199.71C481.063 199.059 484.094 200.788 485.006 203.728L487.649 212.218C488.561 215.159 486.979 218.291 484.054 219.275C480.464 220.442 475.454 221.922 470.455 222.785C466.965 223.392 463.589 221.235 462.617 217.832L461.065 212.395C460.149 209.04 461.817 205.55 464.975 204.174Z" fill="#FFE26C"/>
<path d="M460.202 239.879C463.902 238.256 468.916 236.329 473.273 235.415C476.291 234.764 479.321 236.493 480.233 239.433L482.876 247.923C483.788 250.864 482.207 253.997 479.281 254.98C475.691 256.147 470.681 257.628 465.682 258.49C462.192 259.097 458.817 256.94 457.844 253.537L456.292 248.1C455.377 244.745 457.012 241.247 460.202 239.879Z" fill="#FFE26C"/>
<path d="M456.353 273.469C460.053 271.846 465.068 269.919 469.424 269.005C472.442 268.354 475.472 270.082 476.384 273.023L479.028 281.513C479.939 284.454 478.358 287.586 475.432 288.57C471.842 289.737 466.832 291.217 461.833 292.08C458.344 292.686 454.968 290.53 453.995 287.127L452.443 281.69C451.528 278.335 453.163 274.837 456.353 273.469Z" fill="#FFE26C"/>
<path d="M84.5908 92.8126L11.2393 76.4414L69.3363 62.4178L67.8709 73.3766L83.5983 82.868L84.5908 92.8126Z" fill="#CA5F00"/>
<path d="M11.2393 76.4414L80.4524 68.4772L138.231 87.0671L11.2393 76.4414Z" fill="#F1A34F"/>
<path d="M69.3361 62.418L11.2393 76.4416L65.6047 40.821L69.3361 62.418Z" fill="#F1A34F"/>
<path d="M590.879 497.659L641.587 505.229L608.04 482.053L606.298 489.397L593.935 491.573L590.879 497.659Z" fill="#CA5F00"/>
<path d="M641.587 505.228L599.478 483.176L558.087 480.82L641.587 505.228Z" fill="#F1A34F"/>
<path d="M608.04 482.051L641.587 505.227L615.735 469.197L608.04 482.051Z" fill="#F1A34F"/>
<defs>
<linearGradient id="paint0_linear" x1="407.604" y1="141.701" x2="-11.6018" y2="436.99" gradientUnits="userSpaceOnUse">
<stop offset="0.163632" stop-color="#FFCC00"/>
<stop offset="1" stop-color="#FFCC00" stop-opacity="0"/>
</linearGradient>
<linearGradient id="paint1_linear" x1="489253" y1="321812" x2="595170" y2="321812" gradientUnits="userSpaceOnUse">
<stop stop-color="#FFC444"/>
<stop offset="1" stop-color="#F36F56"/>
</linearGradient>
<linearGradient id="paint2_linear" x1="496.337" y1="251.422" x2="337.795" y2="213.242" gradientUnits="userSpaceOnUse">
<stop stop-color="#FFC444"/>
<stop offset="1" stop-color="#F36F56"/>
</linearGradient>
</defs>
</svg>
