<svg width="1871" height="719" viewBox="0 0 1871 719" fill="none" xmlns="http://www.w3.org/2000/svg">
<path d="M143.274 347.916C81.5428 333.75 49.3981 99.7747 64.6008 33.5257C79.8036 -32.7233 163.552 41.6349 225.283 55.8008C287.014 69.9668 334.623 106.04 319.42 172.289C304.218 238.538 205.005 362.082 143.274 347.916Z" fill="#EBF3FA"/>
<path d="M1667.33 153.353C1687.69 126.195 1839.77 109 1855.57 181.997C1856.94 188.306 1865.73 209.658 1865.96 222.115C1867.97 332.876 1880.87 297.026 1828.75 403.647C1788.34 486.309 1772.91 485.482 1676.61 498.185C1613.39 506.525 1564.44 465.568 1520.48 433.902C1502.47 420.929 1408.08 402.779 1397.24 421.878C1394.3 427.068 1337.34 461.407 1316.64 461.407C1233.24 461.407 1236.92 427.505 1209.97 366.397C1183.92 307.323 1227.62 226.194 1075.5 193.116C938.531 163.333 865.187 322.872 853.391 421.642C848.618 461.607 802.218 557.135 771.302 584.353C742.912 609.348 744.114 619.105 705.658 643.409C615.884 700.144 571.821 692.992 490.499 656.926C466.269 655.897 354.22 573.982 339.714 550.718C286.989 466.158 333.52 238.992 307.379 198.852C281.236 158.712 244.549 161.196 204.821 164.353" stroke="#585858" stroke-opacity="0.44" stroke-width="3" stroke-miterlimit="22.9256" stroke-linecap="round" stroke-dasharray="2.12 10.58"/>
<path d="M996.971 645.188C902.801 590.165 885.759 521.836 950.744 382.572C992.68 292.703 1119.5 285.436 1186.83 340.303C1215.5 363.672 1285.64 440.156 1343.58 265.297C1411.31 60.913 1805.05 208.972 1730.31 428.652C1684.64 562.898 1786.8 532.141 1776.02 645.187C1765.24 758.234 1091.14 700.21 996.971 645.188Z" fill="#EBF3FA"/>
<g clip-path="url(#clip0)">
<path d="M1469.22 132.549C1470.95 129.686 1470.38 127.981 1470.38 127.981C1470.38 127.981 1439.42 112.417 1436.38 111.269C1434.3 110.485 1411.22 97.7122 1399.89 89.3203C1394.26 85.151 1389.18 88.3955 1383.25 91.6327L1378.38 94.3032C1372.49 97.5169 1372.82 106.698 1378.94 109.815C1396.19 118.614 1423.42 126.744 1428.58 128.574C1441.41 133.13 1465.28 136.604 1465.28 136.604C1465.28 136.604 1467.73 135.012 1469.22 132.549V132.549Z" fill="#FFE26C"/>
<path d="M1568.71 143.16L1564.35 142.924C1564.35 142.924 1557.01 139.148 1552.11 146.669C1552.11 146.669 1550.32 149.924 1552.97 150.388C1555.62 150.845 1554.66 150.284 1558.38 151.017C1562.1 151.743 1565.82 150.691 1567.31 148.356L1569.91 146.597L1568.71 143.161L1568.71 143.16Z" fill="#FFB27D"/>
<path d="M1565.19 145.903C1564.59 142.816 1564.86 142.37 1564.86 142.37C1564.86 142.37 1592.91 131.064 1595.49 129.893C1598.08 128.717 1628.68 102.729 1628.68 102.729L1655.78 113.608C1655.78 113.608 1608.75 141.696 1602.15 144.545C1591.23 149.253 1567.11 149.882 1567.11 149.882C1567.11 149.882 1565.65 148.327 1565.19 145.903Z" fill="#FFE270"/>
<path d="M1593.5 168.56L1481.37 179.741L1469.22 57.5708L1581.35 46.3897L1593.5 168.56Z" fill="#D57912"/>
<path d="M1545.73 173.323L1463.68 181.511L1451.52 59.3325L1533.57 51.153L1545.73 173.323Z" fill="#E69D43"/>
<path d="M1545.73 173.325L1463.68 181.513L1461.33 157.881L1519.99 52.5102L1533.57 51.1543L1545.73 173.325Z" fill="#E78B37"/>
<path d="M1474.97 292.125C1474.97 292.125 1478.72 297.308 1488.9 295.844C1488.9 295.844 1497.09 294.913 1498.41 299.094C1498.41 299.094 1487.65 304.34 1484.36 305.701C1481.88 306.727 1479.22 308.484 1477.32 309.858C1475.82 310.943 1473.71 310.539 1472.7 308.984C1472.24 308.259 1471.72 307.404 1471.14 306.408C1469.53 303.638 1466.05 294.872 1466.05 294.872L1474.97 292.124L1474.97 292.125Z" fill="#233862"/>
<path d="M1479.04 290.082C1479.04 290.082 1474.09 298.727 1465.19 296.049C1465.19 296.049 1448.35 278.669 1437.4 261.337C1433.84 255.713 1430.9 250.085 1429.37 245.069C1423.1 224.59 1403.57 192.913 1390.73 176.538L1428.4 167.443C1428.4 167.443 1437.41 192.084 1449.66 222.479C1458.49 244.378 1469 269.263 1479.04 290.083L1479.04 290.082Z" fill="#2B478B"/>
<path d="M1449.66 222.479L1437.4 261.337C1433.84 255.713 1430.9 250.085 1429.37 245.069C1423.1 224.59 1403.57 192.913 1390.73 176.538L1428.4 167.443C1428.4 167.443 1437.41 192.084 1449.66 222.479L1449.66 222.479Z" fill="#233862"/>
<path d="M1412.15 290.492C1412.15 290.492 1410.95 297.701 1419.62 299.635C1419.62 299.635 1424.91 300.336 1424.41 304.948L1398.61 302.085C1398.61 302.085 1398.08 300.145 1398.34 296.136C1398.54 293.061 1402.53 285.404 1402.53 285.404L1412.15 290.492Z" fill="#233862"/>
<path d="M1416.52 166.128C1416.52 166.128 1430.69 185.656 1437.38 218.752C1441.02 236.765 1420.39 278.731 1415.63 293.58C1415.63 293.58 1404.94 293.304 1398.01 289.7C1398.01 289.7 1400.94 258.27 1407.85 234.556C1411.72 221.285 1389.83 203.251 1382.22 177.651C1377.04 160.234 1385.55 161.47 1396.09 162.234L1416.52 166.128L1416.52 166.128Z" fill="#2B478B"/>
<path d="M1406.67 84.9051C1397.14 88.9863 1379.28 82.2718 1379.28 82.2718C1379.28 82.2718 1387.69 74.5571 1385.82 60.4356L1392.47 64.7978L1399.61 69.4848C1399.61 69.4848 1399.84 71.968 1399.7 76.3656C1399.66 77.4974 1399.59 78.7623 1399.5 80.138C1403.95 82.046 1406.67 84.9057 1406.67 84.9057L1406.67 84.9051Z" fill="#FFB07B"/>
<path d="M1430.91 166.79C1430.74 168.369 1428.84 168.927 1428.44 168.96C1424.74 169.218 1414.2 172.036 1404.99 171.923C1397.24 171.881 1390.2 170.326 1382.56 167.885C1381.54 167.56 1379.19 166.638 1379.12 165.628C1379.02 164.516 1355.73 101.176 1381.88 77.9765C1382.49 77.4344 1386.97 79.0304 1391.06 80.4944C1394.84 81.8456 1398.46 81.7263 1401.78 80.8036L1405.49 83.317C1410.03 86.5578 1418.12 97.1608 1418.36 104.805C1418.48 108.691 1420.36 111.771 1420.62 115.203C1420.71 116.478 1420.81 117.72 1420.93 118.933C1421.15 121.309 1421.39 123.575 1421.66 125.737C1422.41 131.582 1423.31 136.642 1424.26 141.032C1425.27 145.692 1426.34 149.598 1427.31 152.869C1428.58 157.116 1429.69 160.303 1430.34 162.727C1430.8 164.434 1431.03 165.753 1430.91 166.791L1430.91 166.79Z" fill="#FFCC00"/>
<path d="M1430.34 162.726C1390.28 138.102 1379.88 98.1992 1379.88 98.1992C1379.88 98.1992 1412.69 113.18 1420.8 117.419C1421.02 119.795 1421.39 123.575 1421.66 125.737C1422.41 131.582 1423.31 136.642 1424.26 141.033C1425.27 145.692 1426.34 149.599 1427.31 152.869C1428.58 157.116 1429.7 160.304 1430.34 162.727L1430.34 162.726Z" fill="#FFCC00"/>
<path d="M1456.25 67.2196L1457.48 63.498C1457.48 63.498 1452.04 56.3078 1460.36 51.4465C1460.36 51.4465 1464.01 49.6755 1464.89 52.2762C1465.78 54.869 1464.99 53.9425 1466.34 57.5884C1467.68 61.2391 1466.91 64.9076 1464.33 66.3818L1462.57 68.9382L1456.25 67.2196V67.2196Z" fill="#FFB07B"/>
<path d="M1399.7 76.365C1390.81 75.8832 1385.88 67.9531 1385.88 67.9531C1385.88 67.9531 1390.12 66.1856 1392.47 64.7972L1399.61 69.4842C1399.61 69.4842 1399.84 71.9673 1399.7 76.365Z" fill="#EA8E50"/>
<path d="M1404.46 67.7156C1404.46 67.7156 1390.02 75.8337 1385.1 66.7613C1380.2 57.6823 1375.02 52.6254 1384.03 47.052C1393.04 41.4849 1396.72 43.9683 1399.1 46.5978C1401.48 49.2286 1408.09 65.367 1404.46 67.7156V67.7156Z" fill="#FFB07B"/>
<path d="M1401.36 39.1447C1401.24 35.8471 1400.41 33.4462 1400.41 33.4462C1400.41 33.4462 1399.19 36.8359 1392.89 35.6532C1386.58 34.4647 1376.39 34.4554 1372.23 41.3284C1371.96 41.7678 1371.72 42.216 1371.5 42.6814C1371.07 41.0155 1371.19 38.5916 1371.19 38.5916C1369.63 41.5732 1370.42 45.6101 1370.42 45.6101C1370.38 45.7212 1370.36 45.8315 1370.33 45.9491C1368.79 46.9795 1367.21 50.5349 1367.21 50.5349C1367.74 49.5499 1368.85 48.9968 1369.81 48.685C1369.16 54.3174 1370.83 60.0822 1374.66 62.171C1380.26 65.2215 1380.42 63.3833 1385.88 67.9548C1385.88 67.9548 1387.68 66.1655 1386.75 64.725C1385.82 63.2857 1381.95 60.9177 1384.45 59.2466C1386.93 57.584 1387.54 59.8317 1388.52 58.6043C1389.5 57.3774 1385.73 53.0723 1391.53 50.0777C1397.32 47.0746 1401.48 42.4336 1401.36 39.1447V39.1447Z" fill="#3F3F3F"/>
<path d="M1688.98 312.853C1688.98 312.853 1693.01 317.527 1691.81 320.4C1690.6 323.264 1686.32 324.794 1685.38 328.355C1684.43 331.918 1682.02 333.654 1680.04 333.434C1678.06 333.214 1670.61 332.389 1670.61 332.389C1670.61 332.389 1669.45 329.68 1673.05 329.298C1676.63 328.92 1678.44 324.807 1678.66 320.823C1678.87 316.846 1680.01 311.637 1680.01 311.637L1687.67 310.709L1688.98 312.853L1688.98 312.853Z" fill="#2C3A64"/>
<path d="M1630.55 327.787C1630.43 327.83 1630.25 327.86 1630 327.883L1605.03 325.113C1605.33 324.257 1606.3 322.588 1609.36 322.439C1613.38 322.236 1620.45 320.704 1622.52 315.833C1622.59 315.676 1622.65 315.519 1622.71 315.356C1624.51 310.105 1632.51 318.113 1632.51 318.113C1632.51 318.113 1632.51 318.327 1632.5 318.694C1632.5 320.691 1632.31 327.136 1630.55 327.787L1630.55 327.787Z" fill="#2C3A64"/>
<path d="M1626.05 181.559C1626.05 181.559 1625.54 198.358 1624.88 218.551C1624 245.975 1622.85 279.658 1622.41 286.011C1621.63 297.047 1621.43 314.81 1621.43 314.81C1621.43 314.81 1625.14 319.45 1633.69 318.615C1633.69 318.615 1643.9 294.357 1648.97 268.052C1649.05 267.62 1649.14 267.183 1649.21 266.751C1654.18 239.944 1663.57 183.392 1663.57 183.392L1626.05 181.56L1626.05 181.559Z" fill="#2B478B"/>
<path d="M1626.05 181.56C1626.05 181.56 1625.54 198.358 1624.88 218.551L1648.97 268.052C1649.05 267.62 1649.14 267.183 1649.21 266.751C1654.18 239.944 1663.57 183.392 1663.57 183.392L1626.05 181.56L1626.05 181.56Z" fill="#233862"/>
<path d="M1631.93 184.214C1631.93 184.214 1649.26 247.185 1661.93 277.277C1674.59 307.368 1678.65 315.82 1678.65 315.82C1678.65 315.82 1688.12 313.203 1689.21 310.822C1689.21 310.822 1689.22 255.441 1680.13 240.931C1674.99 232.735 1670.47 209.338 1671.01 201.39C1671.56 193.45 1671.49 177.595 1671.49 177.595L1631.93 184.214L1631.93 184.214Z" fill="#2B478B"/>
<path d="M1645.2 87.2392C1645.2 87.2392 1631.43 101.737 1621.53 101.624C1621.53 101.624 1623.32 96.0542 1626.56 92.7477C1625.9 91.4084 1625.32 90.1932 1624.85 89.1178C1623.23 85.506 1622.56 83.3791 1622.56 83.3791L1627.86 75.6158L1631.44 70.3498C1632.02 72.4901 1632.77 74.3781 1633.62 76.0415C1638.01 84.6224 1645.2 87.2398 1645.2 87.2398L1645.2 87.2392Z" fill="#94420A"/>
<path d="M1633.62 76.0415C1633.62 76.0415 1632.68 84.7769 1624.85 89.1179C1623.23 85.506 1622.56 83.3792 1622.56 83.3792L1627.86 75.6159C1631.52 75.4183 1633.62 76.0415 1633.62 76.0415V76.0415Z" fill="#AF4B05"/>
<path d="M1619.74 84.0048C1619.74 84.0048 1635.43 81.9587 1634.01 72.2016C1632.58 62.4419 1633.65 55.604 1623.57 56.4961C1613.5 57.3899 1612.09 61.3986 1611.78 64.7745C1611.46 68.1428 1615.61 84.2871 1619.74 84.0048V84.0048Z" fill="#94420A"/>
<path d="M1673 185.965C1665.17 192.843 1619.26 193.271 1621.21 187.645C1621.94 185.495 1623.16 181.68 1623.99 176.3C1624.19 175.043 1624.37 173.699 1624.51 172.272C1625.28 164.44 1625.08 154.087 1622.04 141.4C1621.81 140.451 1621.57 139.492 1621.31 138.512C1619.99 133.568 1619.09 128.459 1618.64 123.578C1617.8 114.189 1618.63 105.612 1621.48 100.578L1625.38 92.4049C1635.44 90.458 1639.08 83.229 1639.08 83.229C1639.08 83.229 1668.49 96.3765 1675.59 141.704C1675.59 141.704 1679.82 179.978 1673 185.964L1673 185.965Z" fill="#FFCC00"/>
<path d="M1623.99 176.302C1624.19 175.045 1624.37 173.7 1624.51 172.273C1625.28 164.441 1625.08 154.088 1622.04 141.401C1624.53 135.601 1627.15 130.904 1629.22 129.016C1637.64 121.323 1641.56 120.772 1641.56 120.772C1641.56 120.772 1641.18 161.907 1623.99 176.302L1623.99 176.302Z" fill="#FFCC00"/>
<path d="M1640.13 56.2377C1640.29 56.0714 1640.63 55.9312 1641.39 55.8879C1641.39 55.8879 1640.78 55.4989 1639.96 55.4745C1639.81 54.3981 1639.24 52.4788 1637.42 52.0151C1637.42 52.0151 1638.4 52.5502 1638.52 53.6997C1636.4 51.4825 1631.86 49.8699 1619.29 50.8721C1602.72 52.1887 1608.17 62.976 1610.33 64.2656C1612.46 65.549 1617.86 62.033 1621.86 62.3561C1625.85 62.6777 1626.61 68.5524 1627.97 69.3577C1629.32 70.1615 1628.79 68.7386 1630.63 67.8971C1632.47 67.0573 1632.63 70.145 1632.1 72.1542C1631.56 74.1616 1634.08 76.8148 1634.08 76.8148C1634.08 76.8148 1634.08 76.8148 1636.64 74.0294C1639.19 71.2413 1641.59 59.4343 1640.44 56.9127C1640.34 56.6944 1640.25 56.4725 1640.13 56.2383L1640.13 56.2377Z" fill="black"/>
<path d="M1583.03 162.496C1583.03 162.496 1577.5 162.187 1576.28 162.471C1575.05 162.754 1571.01 165.262 1571.01 165.617C1571.01 165.981 1571.26 166.235 1572.01 166.162C1572.77 166.098 1575.18 165.384 1575.07 165.707C1574.97 166.028 1568.09 168.564 1568.24 170.008C1568.39 171.445 1572.7 173.48 1576.02 173.13C1579.33 172.787 1586.44 168.531 1586.9 168.212C1587.37 167.895 1583.03 162.496 1583.03 162.496L1583.03 162.496Z" fill="#94420A"/>
<path d="M1583.07 165.342C1581.32 162.498 1582.6 161.204 1582.6 161.204C1582.6 161.204 1609.77 140.072 1611.91 137.937C1614.04 135.8 1624.01 101.674 1624.01 101.674C1624.01 101.674 1628.44 93.6871 1636.37 92.1939C1643.27 90.8982 1647.05 88.5039 1650.14 92.5142C1653.82 97.2922 1654.17 103.868 1651.07 109.059C1644.11 120.703 1630.06 143.808 1625.97 147.746C1618.07 155.361 1594.31 166.341 1588.15 169.118C1587.25 169.524 1586.19 169.298 1585.54 168.559C1584.78 167.713 1583.8 166.54 1583.07 165.342V165.342Z" fill="#FFE270"/>
<path d="M1465.18 67.0347C1465.18 67.0347 1464.17 65.0055 1461.35 64.0235C1457.77 62.7815 1456.14 62.2092 1456.14 62.2092C1456.14 62.2092 1434.4 90.7158 1432.54 93.6083C1432.14 94.2468 1431.44 95.2616 1430.44 96.6575C1429.67 97.7177 1428.28 98.1322 1427.07 97.6553C1420.18 94.9588 1412.65 91.665 1407.13 88.3311C1400.94 84.5891 1393.19 84.5685 1386.97 88.2687L1381.85 91.3264C1375.67 95.0105 1376.4 104.187 1383.09 106.839C1399.25 113.264 1423.26 118.63 1433.3 120.936C1437.84 121.98 1444.7 111.166 1448.2 105.023L1448.17 105.013C1455.59 92.2854 1465.18 67.0348 1465.18 67.0348L1465.18 67.0347Z" fill="#FFE26C"/>
</g>
<path d="M1164.16 716.664H1346.87V443.691H1164.16V716.664Z" fill="#E58435"/>
<path d="M1138.71 716.664H1321.42V443.691H1138.71V716.664Z" fill="#F1A34F"/>
<path d="M1321.43 459.526L1330.19 473.16H1346.88V443.691H1321.43V459.526Z" fill="#CE732E"/>
<path d="M1346.88 443.691L1362.48 465.188H1337.02L1321.43 443.691H1346.88Z" fill="#F1A34F"/>
<path d="M1227.18 717.526H1321.42V716.699H1227.18V717.526Z" fill="#F7E5D5"/>
<path d="M1321.43 556.519H1227.18V465.185L1321.43 456.129V556.519Z" fill="#F0B77D"/>
<path d="M1138.71 465.188L1153.55 473.16H1312.61L1321.43 459.526V443.691L1138.71 465.188Z" fill="#EB9342"/>
<path d="M1138.71 443.691H1321.43L1308.52 465.188H1125.82L1138.71 443.691Z" fill="#F1A34F"/>
<path d="M1447.43 459.029C1447.43 459.029 1447.33 459.117 1447.17 459.286C1447.25 459.196 1447.35 459.109 1447.43 459.029ZM1447.53 454.519C1454.24 451.145 1459.75 438.774 1459.18 436.564C1459.1 436.306 1458.8 435.61 1458.29 434.594L1426.35 421.059C1426.35 421.059 1429.77 401.065 1439.99 398.338C1440.28 394.436 1442.33 385.988 1454.59 385.988C1454.59 385.988 1449.77 387.301 1447.27 389.929C1447.27 389.929 1457.44 383.947 1468.48 393.134C1479.55 402.309 1472.68 425.33 1476.04 429.7C1479.39 434.067 1492.5 434.945 1490.9 449.067C1489.29 463.198 1449.34 480.904 1451.91 492.589C1451.91 492.589 1437.23 471.001 1446.44 460.074C1444.83 461.885 1441.82 465.825 1441.42 470.295C1441.42 470.295 1439.95 458.342 1447.54 454.52L1447.53 454.519Z" fill="#B5453C"/>
<path d="M1484.72 708.96L1492.65 707.795C1492.65 707.795 1519.28 686.606 1523.24 647.065C1523.65 643.034 1523.73 638.955 1523.45 634.834C1523.4 634.365 1523.45 633.889 1523.71 633.49V633.479C1524.56 632.167 1526.7 628.892 1529.57 624.226C1532.39 619.636 1537.25 610.958 1542.58 601.215C1552.17 583.669 1563.37 562.68 1567.19 556.002C1579.41 534.693 1573.52 520.371 1573.52 520.371C1573.52 520.371 1539.42 516.998 1530.09 508.816L1526.74 514.013C1526.74 514.013 1519.34 546.746 1519.68 546.894C1519.32 548.01 1518.95 549.144 1518.59 550.3C1512.75 568.312 1506.04 590.825 1502.38 609.156C1500.33 619.478 1499.25 628.463 1499.84 634.585C1500.05 636.686 1499.78 639.92 1499.23 643.901C1495.94 667.398 1484.72 708.96 1484.72 708.96V708.96Z" fill="#2B478B"/>
<path d="M1468.11 718.993H1501.14C1501.14 718.993 1501.94 713.948 1500.21 710.125C1498.56 706.453 1496.2 706.333 1499.92 700.582C1497.83 702.752 1491.08 703.647 1486.28 703C1485.69 703.955 1482.5 710.325 1480.57 711.728C1478.41 713.281 1468.78 712.733 1468.11 718.994L1468.11 718.993Z" fill="#233862"/>
<path d="M1518.59 550.3C1521.47 566.241 1528.28 592.765 1542.58 601.215C1552.17 583.669 1563.37 562.68 1567.19 556.002C1579.41 534.693 1573.52 520.371 1573.52 520.371C1573.52 520.371 1539.42 516.998 1530.09 508.816L1526.74 514.013C1526.74 514.013 1519.34 546.746 1519.68 546.894C1519.32 548.01 1518.95 549.144 1518.59 550.3V550.3Z" fill="#233862"/>
<path d="M1541.76 522.841L1541.66 516.65C1553.96 518.203 1584.11 501.91 1584.11 501.91C1584.11 501.91 1597 510.489 1598.77 534.993C1599.62 546.956 1605.07 597.524 1605.68 612.632C1605.88 618.104 1605.96 622.006 1605.98 623.569V623.58C1605.98 624.056 1606.23 624.475 1606.51 624.852C1609.05 628.098 1611.27 631.532 1613.18 635.095C1631.99 670.097 1622.15 717.669 1622.15 717.669L1617.77 716.554C1617.77 716.554 1601.9 667.25 1591.51 645.922C1589.74 642.3 1588.15 639.493 1586.81 637.861C1582.89 633.113 1578.78 625.052 1574.72 615.339C1567.05 596.995 1559.61 572.792 1554.31 554.042C1553.92 554.111 1541.76 522.842 1541.76 522.842V522.841Z" fill="#2B478B"/>
<path d="M1370.75 552.35C1371.63 551.951 1379.72 553.903 1379.72 553.903C1379.72 553.903 1384.9 552.041 1390.69 548.37C1402.61 540.776 1420.35 528.066 1423.44 526.454C1428.75 523.679 1444.95 487.193 1456.34 467.257C1462.34 456.757 1478.07 458.021 1481.97 469.478C1482.66 471.538 1482.91 473.776 1482.44 476.176C1479.86 489.472 1442.47 534.875 1438.02 538.628C1429.91 545.475 1387.52 556.87 1387.52 556.87C1386.55 557.159 1386.18 558.612 1385.67 559.139C1384.47 560.363 1383.58 560.572 1383.58 560.572C1383.58 560.572 1378.33 560.9 1376.79 561.519L1375.18 562.104C1375.18 562.104 1374.57 561.009 1376.08 560.273C1376.44 560.093 1377.11 559.766 1377.76 559.277L1375.55 558.791C1375.37 558.75 1375.16 558.691 1374.98 558.611C1373.78 558.064 1372.62 557.347 1371.26 557.097C1369.88 556.839 1368.41 556.979 1367.33 556.9C1366.28 556.819 1361.44 555.664 1361.44 555.664C1361.24 555.206 1369.2 553.058 1370.75 552.351L1370.75 552.35Z" fill="#ED985F"/>
<path d="M1469.69 481.536C1489.82 476.91 1476.97 448.585 1475.79 449.082C1473.01 448.514 1466.89 443.609 1461.4 434.035L1460.67 434.68L1448.29 445.53C1448.29 445.53 1451.15 449.749 1453.55 453.889C1455.42 457.125 1457.03 460.318 1456.79 461.403C1455.79 462.188 1464.33 482.771 1469.69 481.536Z" fill="#FFB27D"/>
<path d="M1457.64 458.418C1457.64 458.418 1453.43 469.655 1450.28 475.158C1447.13 480.661 1438.35 498.455 1438.35 498.455C1438.35 498.455 1445.44 511.433 1458.82 513.734C1458.82 513.734 1468.41 504.16 1468.13 493.53C1467.84 482.9 1457.64 458.418 1457.64 458.418V458.418Z" fill="#FFE270"/>
<path d="M1448.29 445.53C1448.29 445.53 1451.15 449.749 1453.55 453.888C1461.26 449.142 1461.26 439.617 1460.67 434.68L1448.29 445.53Z" fill="#ED985F"/>
<path d="M1447.96 450.975C1447.96 450.975 1466.62 440.575 1459.98 429.031C1453.33 417.495 1451.26 408.379 1439.06 414.54C1426.86 420.69 1427.1 426.414 1428.38 430.802C1429.67 435.202 1442.92 453.385 1447.96 450.975V450.975Z" fill="#FFB27D"/>
<path d="M1425.23 424.076C1426.09 418.959 1428.69 418.462 1430.5 418.81C1437.39 407.395 1453.23 409.216 1453.23 409.216C1459.27 416.769 1463.37 420.691 1463.37 420.691C1463.37 420.691 1461.2 424.731 1452.27 427.23C1449.55 427.995 1446.46 427.529 1443.47 426.521C1449.65 429.975 1456.13 431.3 1456.13 431.3C1444.38 432.386 1433.18 421.617 1432.02 420.462C1431.47 422.133 1430.54 425.628 1431.09 428.176C1431.88 431.648 1434.95 437.937 1433.08 438.745C1433.08 438.745 1423.95 431.758 1425.23 424.076H1425.23Z" fill="#B5453C"/>
<path d="M1595.88 718.991H1628.91C1628.91 718.991 1629.71 713.946 1627.98 710.123C1626.33 706.452 1623.73 704.778 1624.36 700.34C1622.25 702.51 1618.83 704.927 1614.05 704.293C1613.48 705.237 1610.27 710.323 1608.32 711.725C1606.17 713.278 1596.53 712.731 1595.88 718.991H1595.88Z" fill="#233862"/>
<path d="M1467.32 503.99C1471.59 505.472 1477.54 506.287 1483.64 506.955C1492.34 507.899 1501.31 508.546 1506 510.427C1506.92 510.796 1509.6 511.911 1512.28 513.85V513.861C1512.28 513.861 1512.34 513.901 1512.47 514.001C1513.34 514.648 1514.24 515.393 1515.05 516.24C1516.31 517.524 1517.39 519.016 1518.1 520.738C1519.81 525.007 1517.53 536.822 1516.06 543.28C1515.47 545.879 1516.69 548.566 1519.07 549.799C1522.37 551.51 1525.62 553.084 1528.81 554.537C1528.97 554.606 1529.14 554.676 1529.32 554.755C1529.28 554.099 1529.28 553.453 1529.28 552.815C1529.26 548.355 1529.83 544.644 1529.83 544.644C1530.62 549.142 1533.57 554 1536.33 557.741C1580.69 575.557 1611.67 567.813 1611.17 558.936C1609.42 528.124 1588.66 501.908 1588.66 501.908C1549.93 456.844 1471.64 444.982 1471.64 444.982C1471.64 444.982 1467.88 444.524 1463.37 449.968C1456.84 457.81 1456.52 459.86 1456.52 459.86C1456.52 459.86 1454.81 499.62 1467.31 503.99H1467.32Z" fill="#FFCC00"/>
<path d="M1483.66 506.958C1492.34 507.902 1501.31 508.549 1506 510.43C1507.93 481.698 1494.39 460.082 1494.39 460.082C1494.39 460.082 1485.55 496.079 1483.66 506.958H1483.66Z" fill="#FFCC00"/>
<path d="M1516.07 543.282C1515.48 545.882 1516.7 548.568 1519.07 549.801C1522.37 551.513 1525.62 553.086 1528.81 554.539C1528.97 553.992 1529.14 553.424 1529.28 552.817C1529.77 550.568 1530.01 547.87 1529.83 544.646C1529.1 531.002 1519.81 520.681 1515.05 516.242C1516.31 517.526 1517.39 519.019 1518.1 520.74C1519.81 525.009 1517.53 536.825 1516.07 543.282H1516.07Z" fill="#FFE26C"/>
<path d="M1471.65 444.984C1471.65 444.984 1468.23 440.664 1465.91 440.804C1465.91 440.804 1456.6 453.86 1456.52 459.863C1456.52 459.863 1468.15 444.376 1471.65 444.985V444.984Z" fill="#91CECF"/>
<path d="M1431.92 637.467L1337.57 636.943L1338.14 534.105L1432.48 534.632L1431.92 637.467Z" fill="#D57912"/>
<path d="M1391.65 637.829L1306.08 637.446L1306.79 533.477L1392.35 533.867L1391.65 637.829Z" fill="#E69D43"/>
<path d="M1421.05 603.266C1421.45 602.112 1423.93 594.03 1426.62 593.135C1429.3 592.249 1432.65 588.765 1432.65 588.765C1432.65 588.765 1453.94 545.194 1457.44 541.004C1462.92 534.417 1462.84 459.236 1469.82 453.773C1469.82 453.773 1491.69 454.201 1494.54 468.194C1497.4 482.176 1479.35 541.483 1476.54 546.947C1471.4 556.9 1439.32 592.14 1439.32 592.14C1435.58 598.012 1436.92 598.091 1435.52 603.625C1434.14 609.169 1425.44 612.014 1423.95 612.303C1422.47 612.581 1423.53 609.915 1425.35 606.848C1427.2 603.785 1427.39 598.51 1426.98 598.131C1426.57 597.743 1425.8 598.558 1424.7 600.559C1423.61 602.57 1420.62 604.431 1421.04 603.266H1421.05Z" fill="#FFB27D"/>
<path d="M1460.81 481.628C1460.81 481.628 1455.71 445.38 1484.25 451.999C1512.77 458.607 1485.55 523.775 1485.55 523.775C1485.55 523.775 1469.15 524.262 1462.21 510.439L1460.81 481.628Z" fill="#FFE26C"/>
<g clip-path="url(#clip1)">
<path fill-rule="evenodd" clip-rule="evenodd" d="M204.536 142.353C204.536 147.204 197.739 156.061 194.659 159.821C193.896 160.756 192.462 160.756 191.698 159.821C188.618 156.064 181.821 147.204 181.821 142.353C181.821 136.083 186.905 130.992 193.182 130.992C199.452 130.992 204.536 136.08 204.536 142.353V142.353Z" fill="#FFCC00"/>
<path d="M199.45 143.234C199.935 139.769 197.52 136.567 194.055 136.082C190.591 135.597 187.389 138.012 186.903 141.477C186.418 144.941 188.833 148.143 192.298 148.629C195.763 149.114 198.965 146.699 199.45 143.234Z" fill="white"/>
<path d="M193.182 167.671C194.463 167.671 195.502 166.632 195.502 165.351C195.502 164.07 194.463 163.031 193.182 163.031C191.9 163.031 190.862 164.07 190.862 165.351C190.862 166.632 191.9 167.671 193.182 167.671Z" fill="url(#paint0_linear)"/>
</g>
<defs>
<linearGradient id="paint0_linear" x1="196.13" y1="160.822" x2="188.717" y2="172.087" gradientUnits="userSpaceOnUse">
<stop stop-color="#FFCC00"/>
<stop offset="1" stop-color="#FB6FBB"/>
</linearGradient>
<clipPath id="clip0">
<rect width="361.462" height="286.158" fill="white" transform="translate(1371.37 12.9922) rotate(6.3298)"/>
</clipPath>
<clipPath id="clip1">
<rect width="22.7152" height="36.6792" fill="white" transform="translate(181.821 130.992)"/>
</clipPath>
</defs>
</svg>
