<svg width="825" height="808" viewBox="0 0 825 808" fill="none" xmlns="http://www.w3.org/2000/svg">
<path d="M608.748 664.927C542.266 762.615 219.227 608.975 110.524 534.996C1.81964 461.018 84.9009 335.026 151.383 237.338C217.865 139.649 561.152 168.946 669.856 242.924C778.56 316.903 675.23 567.238 608.748 664.927Z" fill="#EBF3FA"/>
<path d="M218.5 188C204.979 188 194 199.103 194 212.818C194 226.515 218.5 257 218.5 257C218.5 257 243 226.534 243 212.818C242.981 199.122 232.02 188 218.5 188ZM218.5 224.171C212.185 224.171 207.046 218.985 207.046 212.569C207.046 206.172 212.166 200.966 218.5 200.966C224.815 200.966 229.954 206.153 229.954 212.569C229.935 218.985 224.815 224.171 218.5 224.171Z" fill="#FFCC00"/>
<path d="M397.894 498.086C320.314 466.606 280.307 546.807 307.835 373.682C314.701 330.491 276.162 312.071 235.746 351.326C195.047 390.855 206.974 319.282 214.447 288.574" stroke="#F36F56" stroke-width="2.11762" stroke-miterlimit="22.9256" stroke-linecap="round" stroke-dasharray="2.12 10.58"/>
</svg>
