<svg xmlns="http://www.w3.org/2000/svg" xmlns:xlink="http://www.w3.org/1999/xlink">
    <symbol id="phone-icon"  viewBox="0 0 18 18">
        <path d="M15.0835 11.6073V13.6396C15.0843 13.8283 15.0455 14.015 14.9698 14.1879C14.8941 14.3608 14.783 14.516 14.6437 14.6435C14.5044 14.771 14.34 14.8681 14.1609 14.9286C13.9818 14.989 13.792 15.0115 13.6038 14.9945C11.5151 14.768 9.50871 14.0557 7.74593 12.9148C6.10589 11.8747 4.71543 10.487 3.67328 8.8502C2.52613 7.08292 1.81224 5.0708 1.58943 2.97687C1.57247 2.78953 1.59478 2.60073 1.65493 2.42247C1.71509 2.24422 1.81178 2.08041 1.93884 1.94149C2.06591 1.80257 2.22056 1.69158 2.39296 1.61558C2.56536 1.53958 2.75173 1.50024 2.9402 1.50007H4.97653C5.30594 1.49683 5.6253 1.61325 5.87506 1.82763C6.12483 2.042 6.28797 2.33971 6.33408 2.66525C6.42003 3.31563 6.57942 3.95421 6.80922 4.56883C6.90055 4.8113 6.92031 5.07481 6.86618 5.32815C6.81204 5.58149 6.68627 5.81402 6.50377 5.99821L5.64173 6.85855C6.608 8.55453 8.01504 9.95878 9.71438 10.9231L10.5764 10.0628C10.761 9.88066 10.994 9.75514 11.2478 9.70111C11.5017 9.64709 11.7657 9.66681 12.0086 9.75796C12.6245 9.9873 13.2643 10.1464 13.916 10.2322C14.2457 10.2786 14.5469 10.4443 14.7621 10.6979C14.9774 10.9514 15.0918 11.2751 15.0835 11.6073Z" stroke-width="2" stroke-linecap="round" stroke-linejoin="round"/>
    </symbol>
    <symbol id="evenlope-icon"  viewBox="0 0 18 18">
        <path d="M3 3H15C15.825 3 16.5 3.675 16.5 4.5V13.5C16.5 14.325 15.825 15 15 15H3C2.175 15 1.5 14.325 1.5 13.5V4.5C1.5 3.675 2.175 3 3 3Z"  stroke-width="2" stroke-linecap="round" stroke-linejoin="round"/>
        <path d="M16.5 4.5L9 9.75L1.5 4.5" stroke-width="2" stroke-linecap="round" stroke-linejoin="round"/>
    </symbol>
    <symbol id="mark-icon"  viewBox="0 0 18 18">
        <g clip-path="url(#clip0)">
            <path d="M15.75 7.5C15.75 12.75 9 17.25 9 17.25C9 17.25 2.25 12.75 2.25 7.5C2.25 5.70979 2.96116 3.9929 4.22703 2.72703C5.4929 1.46116 7.20979 0.75 9 0.75C10.7902 0.75 12.5071 1.46116 13.773 2.72703C15.0388 3.9929 15.75 5.70979 15.75 7.5Z"  stroke-width="2" stroke-linecap="round" stroke-linejoin="round"/>
            <path d="M9 9.75C10.2426 9.75 11.25 8.74264 11.25 7.5C11.25 6.25736 10.2426 5.25 9 5.25C7.75736 5.25 6.75 6.25736 6.75 7.5C6.75 8.74264 7.75736 9.75 9 9.75Z"  stroke-width="2" stroke-linecap="round" stroke-linejoin="round"/>
        </g>
        <defs>
            <clipPath id="clip0">
                <rect  fill="white"/>
            </clipPath>
        </defs>
    </symbol>
    <symbol id="lang-icon" viewBox="0 0 18 18">
        <path d="M9 16.5C13.1421 16.5 16.5 13.1421 16.5 9C16.5 4.85786 13.1421 1.5 9 1.5C4.85786 1.5 1.5 4.85786 1.5 9C1.5 13.1421 4.85786 16.5 9 16.5Z"  stroke-width="2" stroke-linecap="round" stroke-linejoin="round"/>
        <path d="M1.5 9H16.5"  stroke-width="2" stroke-linecap="round" stroke-linejoin="round"/>
        <path d="M9 1.5C10.876 3.55376 11.9421 6.21903 12 9C11.9421 11.781 10.876 14.4462 9 16.5C7.12404 14.4462 6.05794 11.781 6 9C6.05794 6.21903 7.12404 3.55376 9 1.5V1.5Z" stroke-width="2" stroke-linecap="round" stroke-linejoin="round"/>
    </symbol>
    <symbol id="angle-down-icon" viewBox="0 0 11 7">
        <path d="M9.53674e-06 1.49994C-0.00152683 1.23414 0.102823 0.978658 0.290009 0.789939C0.477777 0.600626 0.733372 0.494141 1.00001 0.494141C1.26665 0.494141 1.52224 0.600626 1.71001 0.789939L5.00001 4.09994L8.31001 0.919939C8.70005 0.532215 9.32997 0.532215 9.72001 0.919939C9.90932 1.10771 10.0158 1.3633 10.0158 1.62994C10.0158 1.89658 9.90932 2.15217 9.72001 2.33994L5.72001 6.19994C5.33117 6.58108 4.70885 6.58108 4.32001 6.19994L0.32001 2.19994C0.124224 2.01864 0.00901222 1.76662 9.53674e-06 1.49994Z" />
    </symbol>
    <symbol id="angle-right-icon" viewBox="0 0 11 18">
        <path d="M1.84653 18C1.35855 18.0027 0.889519 17.8152 0.543052 17.4788C0.195496 17.1413 0 16.682 0 16.2028C0 15.7236 0.195496 15.2643 0.543052 14.9268L6.61984 9.01418L0.781717 3.06559C0.0699009 2.36463 0.0699009 1.23256 0.781717 0.531596C1.12644 0.191372 1.59568 0 2.0852 0C2.57471 0 3.04396 0.191372 3.38868 0.531596L10.4752 7.72023C11.1749 8.41904 11.1749 9.53744 10.4752 10.2362L3.13165 17.4249C2.79882 17.7767 2.33613 17.9838 1.84653 18Z"/>
    </symbol>
    <symbol id="angle-left-icon" viewBox="0 0 11 18">
        <path d="M9.15347 18C9.64145 18.0027 10.1105 17.8152 10.4569 17.4788C10.8045 17.1413 11 16.682 11 16.2028C11 15.7236 10.8045 15.2643 10.4569 14.9268L4.38016 9.01418L10.2183 3.06559C10.9301 2.36463 10.9301 1.23256 10.2183 0.531596C9.87356 0.191372 9.40432 0 8.9148 0C8.42529 0 7.95604 0.191372 7.61132 0.531596L0.524801 7.72023C-0.174933 8.41904 -0.174933 9.53744 0.524801 10.2362L7.86835 17.4249C8.20118 17.7767 8.66387 17.9838 9.15347 18Z"/>
    </symbol>
    <symbol id="menu-icon" viewBox="0 0 24 24">
        <rect opacity="0.01" width="24" height="24" fill="black"/>
        <path d="M9 3H5C3.89543 3 3 3.89543 3 5V9C3 10.1046 3.89543 11 5 11H9C10.1046 11 11 10.1046 11 9V5C11 3.89543 10.1046 3 9 3Z" />
        <path d="M19 3H15C13.8954 3 13 3.89543 13 5V9C13 10.1046 13.8954 11 15 11H19C20.1046 11 21 10.1046 21 9V5C21 3.89543 20.1046 3 19 3Z"/>
        <path d="M9 13H5C3.89543 13 3 13.8954 3 15V19C3 20.1046 3.89543 21 5 21H9C10.1046 21 11 20.1046 11 19V15C11 13.8954 10.1046 13 9 13Z" />
        <path d="M19 13H15C13.8954 13 13 13.8954 13 15V19C13 20.1046 13.8954 21 15 21H19C20.1046 21 21 20.1046 21 19V15C21 13.8954 20.1046 13 19 13Z"/>
    </symbol>
    <symbol id="star-icon" viewBox="0 0 24 24">
        <rect opacity="0.01" x="24" width="24" height="24" transform="rotate(90 24 0)" />
        <path d="M17.56 21C17.4001 21.0006 17.2423 20.9629 17.1 20.89L12 18.22L6.9 20.89C6.56214 21.0676 6.1526 21.0374 5.84443 20.8122C5.53626 20.5869 5.38323 20.2058 5.45 19.83L6.45 14.2L2.33 10.2C2.06806 9.93856 1.97189 9.55387 2.08 9.19996C2.19825 8.83738 2.51242 8.57363 2.89 8.51996L8.59 7.68996L11.1 2.55996C11.2671 2.21497 11.6167 1.99585 12 1.99585C12.3833 1.99585 12.7329 2.21497 12.9 2.55996L15.44 7.67996L21.14 8.50996C21.5176 8.56363 21.8318 8.82738 21.95 9.18996C22.0581 9.54387 21.9619 9.92856 21.7 10.19L17.58 14.19L18.58 19.82C18.6529 20.2028 18.4968 20.593 18.18 20.82C17.9989 20.9469 17.7809 21.0102 17.56 21Z" />
    </symbol>
    <symbol id="coppy-icon" viewBox="0 0 24 24">
        <rect opacity="0.01" x="24" y="24" width="24" height="24" transform="rotate(180 24 24)" fill="black"/>
        <path d="M3.24 7.29003L11.76 11.92C11.91 12 12.09 12 12.24 11.92L20.76 7.29003C20.9189 7.21154 21.0153 7.04534 21.0043 6.86841C20.9934 6.69147 20.8774 6.53838 20.71 6.48003L12.19 3.00003C12.0683 2.95002 11.9317 2.95002 11.81 3.00003L3.29 6.48003C3.12261 6.53838 3.00658 6.69147 2.99566 6.86841C2.98474 7.04534 3.08106 7.21154 3.24 7.29003Z" />
        <path d="M20.71 10.66L18.88 9.88L12.24 13.49C12.09 13.57 11.91 13.57 11.76 13.49L5.11999 9.88L3.28999 10.66C3.13204 10.7429 3.0331 10.9066 3.0331 11.085C3.0331 11.2634 3.13204 11.4271 3.28999 11.51L11.81 16.41C11.9573 16.5001 12.1427 16.5001 12.29 16.41L20.81 11.51C20.9604 11.4099 21.0419 11.2338 21.0208 11.0543C20.9997 10.8749 20.8795 10.7225 20.71 10.66Z" />
        <path d="M20.71 15.1L19.15 14.42L12.24 18.18C12.09 18.26 11.91 18.26 11.76 18.18L4.85 14.42L3.29 15.1C3.12754 15.1843 3.02556 15.352 3.02556 15.535C3.02556 15.718 3.12754 15.8858 3.29 15.97L11.81 20.97C11.96 21.05 12.14 21.05 12.29 20.97L20.81 15.97C20.965 15.8685 21.0494 15.6883 21.0283 15.5042C21.0071 15.3201 20.884 15.1638 20.71 15.1Z"/>
    </symbol>
    <symbol id="calculator-icon" viewBox="0 0 20 20">
        <path d="M17.7083 20H2.29167C1.0275 20 0 18.9725 0 17.7083V2.29167C0 1.0275 1.0275 0 2.29167 0H17.7083C18.9725 0 20 1.0275 20 2.29167V17.7083C20 18.9725 18.9725 20 17.7083 20ZM2.29167 1.25C1.7175 1.25 1.25 1.7175 1.25 2.29167V17.7083C1.25 18.2825 1.7175 18.75 2.29167 18.75H17.7083C18.2825 18.75 18.75 18.2825 18.75 17.7083V2.29167C18.75 1.7175 18.2825 1.25 17.7083 1.25H2.29167Z"/>
        <path d="M10 20C9.655 20 9.375 19.72 9.375 19.375V0.625C9.375 0.28 9.655 0 10 0C10.345 0 10.625 0.28 10.625 0.625V19.375C10.625 19.72 10.345 20 10 20Z" />
        <path d="M19.375 10.625H0.625C0.28 10.625 0 10.345 0 10C0 9.655 0.28 9.375 0.625 9.375H19.375C19.72 9.375 20 9.655 20 10C20 10.345 19.72 10.625 19.375 10.625Z" />
        <path d="M5 7.4987C4.655 7.4987 4.375 7.2187 4.375 6.8737V3.95703C4.375 3.61203 4.655 3.33203 5 3.33203C5.345 3.33203 5.625 3.61203 5.625 3.95703V6.8737C5.625 7.2187 5.345 7.4987 5 7.4987Z" />
        <path d="M6.45841 6.04297H3.54175C3.19675 6.04297 2.91675 5.76297 2.91675 5.41797C2.91675 5.07297 3.19675 4.79297 3.54175 4.79297H6.45841C6.80341 4.79297 7.08341 5.07297 7.08341 5.41797C7.08341 5.76297 6.80341 6.04297 6.45841 6.04297Z"/>
        <path d="M3.95829 16.666C3.79829 16.666 3.63829 16.6052 3.51662 16.4827C3.27245 16.2385 3.27245 15.8427 3.51662 15.5985L5.59996 13.5152C5.84412 13.271 6.23996 13.271 6.48412 13.5152C6.72829 13.7593 6.72829 14.1552 6.48412 14.3993L4.40079 16.4827C4.27829 16.6052 4.11829 16.666 3.95829 16.666Z"/>
        <path d="M6.04162 16.666C5.88162 16.666 5.72162 16.6052 5.59996 16.4827L3.51662 14.3993C3.27245 14.1552 3.27245 13.7593 3.51662 13.5152C3.76079 13.271 4.15662 13.271 4.40079 13.5152L6.48412 15.5985C6.72829 15.8427 6.72829 16.2385 6.48412 16.4827C6.36162 16.6052 6.20162 16.666 6.04162 16.666Z"/>
        <path d="M16.875 5.83203H13.125C12.78 5.83203 12.5 5.55203 12.5 5.20703C12.5 4.86203 12.78 4.58203 13.125 4.58203H16.875C17.22 4.58203 17.5 4.86203 17.5 5.20703C17.5 5.55203 17.22 5.83203 16.875 5.83203Z"/>
        <path d="M16.875 16.668H13.125C12.78 16.668 12.5 16.388 12.5 16.043C12.5 15.698 12.78 15.418 13.125 15.418H16.875C17.22 15.418 17.5 15.698 17.5 16.043C17.5 16.388 17.22 16.668 16.875 16.668Z"/>
        <path d="M16.875 14.168H13.125C12.78 14.168 12.5 13.888 12.5 13.543C12.5 13.198 12.78 12.918 13.125 12.918H16.875C17.22 12.918 17.5 13.198 17.5 13.543C17.5 13.888 17.22 14.168 16.875 14.168Z"/>
    </symbol>
    <symbol id="reception-icon" viewBox="0 0 25 25">
        <path d="M24.2188 23.4375H23.6569L23.0236 20.9043C22.9366 20.5565 22.6241 20.3125 22.2656 20.3125H19.5312V19.1406H21.875C22.3065 19.1406 22.6562 18.7908 22.6562 18.3594C22.6562 17.9279 22.3065 17.5781 21.875 17.5781V17.1875C21.875 12.2812 18.0864 8.24365 13.2812 7.84531V6.64062H14.4531C14.8846 6.64062 15.2344 6.29082 15.2344 5.85938C15.2344 5.42793 14.8846 5.07812 14.4531 5.07812H10.5469C10.1154 5.07812 9.76562 5.42793 9.76562 5.85938C9.76562 6.29082 10.1154 6.64062 10.5469 6.64062H11.7188V7.84531C6.91357 8.24365 3.125 12.2812 3.125 17.1875V17.5781C2.69351 17.5781 2.34375 17.9279 2.34375 18.3594C2.34375 18.7908 2.69351 19.1406 3.125 19.1406H5.46875V20.3125H2.73438C2.37588 20.3125 2.06343 20.5565 1.97646 20.9043L1.34312 23.4375H0.78125C0.349756 23.4375 0 23.7873 0 24.2188C0 24.6502 0.349756 25 0.78125 25H24.2188C24.6502 25 25 24.6502 25 24.2188C25 23.7873 24.6502 23.4375 24.2188 23.4375ZM4.6875 17.1875C4.6875 12.8797 8.19214 9.375 12.5 9.375C16.8079 9.375 20.3125 12.8797 20.3125 17.1875V17.5781C17.938 17.5781 5.38589 17.5781 4.6875 17.5781V17.1875ZM7.03125 19.1406H17.9688V20.3125H7.03125V19.1406ZM2.95371 23.4375L3.34434 21.875H21.6557L22.0463 23.4375H2.95371Z"/>
        <path d="M0.78125 13.2812H2.34375C2.77524 13.2812 3.125 12.9314 3.125 12.5C3.125 12.0686 2.77524 11.7188 2.34375 11.7188H0.78125C0.349756 11.7188 0 12.0686 0 12.5C0 12.9314 0.349756 13.2812 0.78125 13.2812Z"/>
        <path d="M22.6562 13.2812H24.2188C24.6502 13.2812 25 12.9314 25 12.5C25 12.0686 24.6502 11.7188 24.2188 11.7188H22.6562C22.2248 11.7188 21.875 12.0686 21.875 12.5C21.875 12.9314 22.2248 13.2812 22.6562 13.2812Z"/>
        <path d="M4.76602 5.8709C5.0711 6.17598 5.56577 6.17603 5.87085 5.8709C6.17598 5.56578 6.17598 5.07115 5.87085 4.76607L4.76597 3.66114C4.46089 3.35606 3.96621 3.35601 3.66113 3.66114C3.35601 3.96627 3.35601 4.46089 3.66113 4.76597L4.76602 5.8709Z"/>
        <path d="M19.6815 6.09972C19.8815 6.09972 20.0814 6.0234 20.2339 5.87091L21.3388 4.76608C21.6439 4.46095 21.6439 3.96632 21.3388 3.66124C21.0338 3.35616 20.5391 3.35616 20.234 3.66124L19.1291 4.76608C18.6355 5.25958 18.9918 6.09972 19.6815 6.09972Z"/>
        <path d="M12.5 3.125C12.9315 3.125 13.2812 2.7752 13.2812 2.34375V0.78125C13.2812 0.349805 12.9315 0 12.5 0C12.0685 0 11.7188 0.349805 11.7188 0.78125V2.34375C11.7188 2.7752 12.0685 3.125 12.5 3.125Z"/>
    </symbol>
    <symbol id="interview-icon" viewBox="0 0 19 22">
        <path d="M15.2475 0H3.8C1.72744 0 0.0475464 1.67384 0.0475464 3.74564V20.8857C0.0475464 21.6129 0.882971 22.0382 1.47255 21.5969L5.05082 18.9181H15.2475C17.3201 18.9181 19 17.2442 19 15.1724V3.74564C19 1.67685 17.3231 0 15.2475 0V0ZM17.2188 15.1724C17.2188 16.2601 16.3376 17.14 15.2475 17.14H4.75394C4.56121 17.14 4.3738 17.2025 4.21957 17.3178L1.8288 19.1077V3.74564C1.8288 2.658 2.70991 1.77802 3.8 1.77802H15.2475C16.3372 1.77802 17.2188 2.65753 17.2188 3.74564V15.1724Z"/>
        <path d="M14.2936 4.76105H4.75394C4.26201 4.76105 3.86332 5.15925 3.86332 5.65006C3.86332 6.14109 4.26201 6.53906 4.75394 6.53906H14.2936C14.7853 6.53906 15.1842 6.14109 15.1842 5.65006C15.1842 5.15925 14.7855 4.76105 14.2936 4.76105Z"/>
        <path d="M14.2936 8.57013H4.75394C4.26201 8.57013 3.86332 8.9681 3.86332 9.45914C3.86332 9.94995 4.26201 10.3481 4.75394 10.3481H14.2936C14.7853 10.3481 15.1842 9.94995 15.1842 9.45914C15.1842 8.9681 14.7855 8.57013 14.2936 8.57013Z"/>
        <path d="M9.52366 12.379H4.75394C4.26201 12.379 3.86332 12.7769 3.86332 13.268C3.86332 13.759 4.26201 14.157 4.75394 14.157H9.52366C10.0156 14.157 10.4143 13.759 10.4143 13.268C10.4143 12.7769 10.0156 12.379 9.52366 12.379Z"/>
    </symbol>
</svg>