<svg width="131" height="92" viewBox="0 0 131 92" fill="none" xmlns="http://www.w3.org/2000/svg">
<path fill-rule="evenodd" clip-rule="evenodd" d="M32.026 16.7016C31.4646 16.6709 31.0117 16.1279 31.0118 15.6582C31.0108 14.4426 32.4181 14.0894 32.9948 14.5417C33.708 15.101 33.6027 16.7871 32.026 16.7016ZM40.1143 23.2392C40.0169 22.8985 39.8986 22.5462 39.7549 22.1828C38.7773 19.7089 37.685 18.2642 35.0874 16.1945C35.0571 12.0324 31.0739 11.9124 29.7038 14.0591C28.8633 15.3767 29.2546 17.0498 30.284 17.8858C31.7409 19.0686 32.9098 18.4861 34.0799 17.9391C36.8939 19.8187 38.3037 23.1237 38.4979 25.4246C38.5137 25.613 38.5261 25.7962 38.5352 25.9733L40.1142 23.2393L40.1143 23.2392Z" fill="#1A1A1A"/>
<path fill-rule="evenodd" clip-rule="evenodd" d="M41.7583 20.4544C47.1745 20.3539 62.8727 21.2519 66.6905 19.5662C72.915 16.8184 75.1155 8.41393 69.8134 2.97091C64.8588 -2.1145 57.0892 -0.157114 52.3163 4.96413C51.2251 6.13525 50.3812 6.9328 49.2956 8.27805C47.4302 10.5884 42.455 18.1118 41.7583 20.4544ZM45.7199 18.4824C50.0125 18.4029 62.4536 19.1145 65.4795 17.7788C70.4122 15.6008 72.1561 8.94014 67.9543 4.62631C64.0276 0.596295 57.8701 2.14725 54.0875 6.20607C53.2226 7.13439 52.554 7.76653 51.6934 8.83236C50.2153 10.6634 46.2722 16.6257 45.7198 18.4823L45.7199 18.4824Z" fill="#1A1A1A"/>
<path fill-rule="evenodd" clip-rule="evenodd" d="M60.0633 4.94715C57.5704 5.54878 54.573 8.10532 53.6121 9.67927C52.9195 10.8143 54.183 11.8525 55.1665 10.9057C55.836 10.2612 56.2118 9.63478 56.9181 9.0037C57.6783 8.32394 58.1113 7.93595 59.1053 7.38796C59.6622 7.08129 61.4369 6.73368 61.7216 6.33292C62.4635 5.28752 61.4108 4.6221 60.0632 4.94722L60.0633 4.94715Z" fill="#1A1A1A"/>
<path fill-rule="evenodd" clip-rule="evenodd" d="M63.4709 5.50775C63.195 5.67052 62.9283 5.65186 62.8813 6.27514C62.8128 7.18763 64.5311 8.33414 65.3332 7.90989C66.7778 7.14619 64.4968 4.90214 63.4709 5.50775Z" fill="#1A1A1A"/>
<path d="M60.9617 37.8711L54.588 37.9407L49.7029 29.6088L66.6644 29.4694L71.2977 37.801L60.9617 37.8711ZM33.5128 38.4654L42.6935 22.4516L51.9819 38.2882L42.7928 54.4559L33.5128 38.4654ZM62.0835 21.4817L65.7958 28.1202L48.9587 28.2801L44.929 21.6999L62.0836 21.4817H62.0835ZM73.3555 38.1438L63.3131 20.062L41.8517 20.2039L41.7887 20.2046L41.5835 20.5596L41.5855 20.562L33.0564 35.5681C31.1711 37.3397 31.2919 39.2203 33.0521 41.191L41.8279 56.1538L42.0368 56.5088L42.448 56.5065L62.7924 56.3685L62.9985 56.3669L73.3556 38.1438L73.3555 38.1438Z" fill="#1A1A1A"/>
<path fill-rule="evenodd" clip-rule="evenodd" d="M42.6937 22.4512L51.9817 38.2883L42.7929 54.4558L35.0531 41.1185C33.1869 39.5562 32.7555 37.844 34.9962 35.8784L42.6937 22.4512V22.4512Z" fill="#FFCC00"/>
<path fill-rule="evenodd" clip-rule="evenodd" d="M62.0832 21.4814L65.7958 28.1199L48.9587 28.2799L44.9292 21.6998L62.0832 21.4814Z" fill="#FFCC00"/>
<path fill-rule="evenodd" clip-rule="evenodd" d="M66.6644 29.4697L71.2977 37.8009L54.5877 37.9406L49.5993 29.6383L66.6644 29.4697Z" fill="#FFCC00"/>
<path fill-rule="evenodd" clip-rule="evenodd" d="M41.7366 31.4956C43.5418 31.4956 45.0055 32.9589 45.0055 34.7643C45.0055 36.5696 43.5419 38.0329 41.7366 38.0329C39.9312 38.0329 38.4677 36.5696 38.4677 34.7643C38.4677 32.9589 39.9312 31.4956 41.7366 31.4956Z" fill="#1A1A1A"/>
<path d="M56.6759 45.6458C56.7069 45.7377 56.8433 45.7542 56.9213 45.7554L60.1934 45.7749C60.6605 45.7768 61.3777 45.3417 61.7612 44.824C61.9513 44.5672 61.9879 44.385 61.9625 44.3063C61.9327 44.2103 61.7953 44.1966 61.7172 44.197L61.4906 44.1956C60.9771 44.7783 60.1998 45.2124 59.6283 45.209L56.8351 45.1921C56.6875 45.4121 56.6509 45.5711 56.676 45.6458L56.6759 45.6458ZM58.5812 43.5137L61.8536 43.5332C62.2147 43.5352 62.4676 43.6924 62.5615 43.977C62.665 44.2973 62.5427 44.7284 62.2235 45.1594C61.6895 45.8807 60.7371 46.443 60.057 46.4387L56.7842 46.4199C56.5853 46.4186 56.42 46.3707 56.2956 46.2805C56.1934 46.2063 56.1196 46.1032 56.0769 45.9743C55.9737 45.6537 56.0956 45.2239 56.4148 44.793C56.949 44.0715 57.9002 43.5097 58.5813 43.5137H58.5812Z" fill="#FFCC00"/>
<path d="M31.8282 21.5967L20.2898 42.6677V55.8187H11.5383V42.7655L0 21.5967H9.82708L15.8896 34.2589L22.0011 21.5967H31.8282Z" fill="#1A1A1A"/>
<path d="M99.575 21.5503V30.0081H91.1169V55.7723H82.3653V30.0081H73.9072V21.5503H99.575ZM121.185 55.7723L119.718 50.8346H108.327L106.86 55.7723H97.375L108.669 21.5503H119.327L130.621 55.7723H121.185ZM110.576 43.3058H117.469L113.998 31.6703L110.576 43.3058Z" fill="#1A1A1A"/>
<path fill-rule="evenodd" clip-rule="evenodd" d="M0.94519 67.936C0.94519 65.7269 2.73605 63.936 4.94519 63.936H127C129.209 63.936 131 65.7269 131 67.936V88.0002C131 90.2094 129.209 92.0002 127 92.0002H4.94519C2.73605 92.0002 0.94519 90.2094 0.94519 88.0002V67.936Z" fill="#1A1A1A"/>
<path d="M27.347 70.7647V85.4039H24.7403V74.9682L19.9124 82.3297H19.5952L14.767 74.9473V85.4039H12.1605V70.7647H14.9711L19.7538 78.0842L24.5591 70.7647H27.347ZM48.2442 83.4694C46.65 84.9404 44.7043 85.6757 42.4077 85.6757C40.1107 85.6757 38.1652 84.9404 36.5709 83.4694C34.9767 81.9985 34.1795 80.2034 34.1795 78.0843C34.1795 75.965 34.9767 74.17 36.5709 72.6991C38.1652 71.2282 40.1107 70.4927 42.4077 70.4927C44.7043 70.4927 46.65 71.2283 48.2442 72.6991C49.8385 74.17 50.6356 75.965 50.6356 78.0843C50.6356 80.2034 49.8385 81.9986 48.2442 83.4694ZM38.4069 81.8382C39.4872 82.8351 40.8208 83.3335 42.4077 83.3335C43.9942 83.3335 45.3279 82.8351 46.4083 81.8382C47.4886 80.8414 48.0289 79.5901 48.0289 78.0843C48.0289 76.5785 47.4886 75.3273 46.4083 74.3303C45.3279 73.3335 43.9942 72.835 42.4077 72.835C40.8208 72.835 39.4872 73.3335 38.4069 74.3303C37.3265 75.3273 36.7863 76.5786 36.7863 78.0843C36.7863 79.5901 37.3265 80.8414 38.4069 81.8382ZM60.8228 85.404L55.3148 70.7647H58.1707L62.3868 82.497L66.6254 70.7647H69.4588L63.9508 85.404H60.8228ZM75.6114 70.7647H78.2179V85.404H75.6114V70.7647ZM95.3639 70.7647H97.9705V85.404H95.9306L88.4506 75.4702V85.404H85.844V70.7647H87.8839L95.3639 80.6985V70.7647ZM121.033 77.8333V78.8373C121.033 80.845 120.315 82.4866 118.879 83.7623C117.444 85.0381 115.57 85.6758 113.258 85.6758C110.81 85.6758 108.789 84.9439 107.195 83.4799C105.6 82.0161 104.803 80.2175 104.803 78.0844C104.803 75.9651 105.6 74.1701 107.195 72.6991C108.789 71.2283 110.764 70.4927 113.122 70.4927C114.603 70.4927 115.955 70.8066 117.179 71.4339C118.403 72.0614 119.355 72.9049 120.035 73.9645L117.791 75.1566C117.368 74.4593 116.741 73.8981 115.91 73.4731C115.079 73.0479 114.149 72.8351 113.122 72.8351C111.46 72.8351 110.092 73.337 109.019 74.341C107.946 75.3447 107.41 76.5996 107.41 78.1053C107.41 79.6111 107.95 80.8589 109.031 81.8488C110.111 82.8387 111.527 83.3336 113.281 83.3336C114.686 83.3336 115.83 83.0304 116.714 82.424C117.598 81.8175 118.161 81.0053 118.403 79.9876H113.099V77.8335H121.032L121.033 77.8333Z" fill="white"/>
</svg>
