<svg width="111" height="78" viewBox="0 0 111 78" fill="none" xmlns="http://www.w3.org/2000/svg">
<g clip-path="url(#clip0)">
<path fill-rule="evenodd" clip-rule="evenodd" d="M27.1366 14.1603C26.6609 14.1343 26.2771 13.6739 26.2773 13.2757C26.2764 12.245 27.4688 11.9456 27.9575 12.3291C28.5617 12.8033 28.4725 14.2328 27.1366 14.1603ZM33.99 19.703C33.9075 19.4142 33.8072 19.1155 33.6855 18.8074C32.8571 16.71 31.9316 15.4851 29.7305 13.7304C29.7049 10.2016 26.3299 10.0999 25.1689 11.9199C24.4567 13.037 24.7883 14.4555 25.6605 15.1643C26.895 16.1671 27.8854 15.6732 28.8769 15.2095C31.2613 16.8031 32.4558 19.6052 32.6204 21.5559C32.6338 21.7156 32.6443 21.871 32.652 22.0211L33.9899 19.7031L33.99 19.703Z" fill="#1A1A1A"/>
<path fill-rule="evenodd" clip-rule="evenodd" d="M35.3831 17.3417C39.9724 17.2566 53.2739 18.0179 56.5088 16.5887C61.783 14.2591 63.6476 7.13355 59.1549 2.51881C54.9567 -1.79273 48.3733 -0.133206 44.3292 4.20872C43.4045 5.20163 42.6895 5.87781 41.7696 7.01835C40.189 8.9771 35.9734 15.3556 35.3831 17.3417ZM38.7398 15.6698C42.3771 15.6025 52.9188 16.2058 55.4827 15.0733C59.6623 13.2268 61.14 7.57969 57.5797 3.9223C54.2524 0.505555 49.035 1.82049 45.8299 5.26167C45.0971 6.04872 44.5305 6.58467 43.8013 7.4883C42.5489 9.04075 39.2078 14.0957 38.7398 15.6698L38.7398 15.6698Z" fill="#1A1A1A"/>
<path fill-rule="evenodd" clip-rule="evenodd" d="M50.8933 4.1943C48.781 4.70438 46.2412 6.87188 45.4271 8.20631C44.8402 9.16861 45.9108 10.0488 46.7441 9.24615C47.3114 8.69973 47.6298 8.16859 48.2283 7.63355C48.8725 7.05723 49.2393 6.72829 50.0816 6.26368C50.5534 6.00368 52.0572 5.70896 52.2984 5.36919C52.9271 4.48288 52.0351 3.91871 50.8933 4.19436L50.8933 4.1943Z" fill="#1A1A1A"/>
<path fill-rule="evenodd" clip-rule="evenodd" d="M53.7806 4.6694C53.5469 4.80741 53.3209 4.79158 53.2811 5.32001C53.2231 6.09365 54.679 7.06569 55.3587 6.706C56.5827 6.05852 54.6499 4.15595 53.7806 4.6694Z" fill="#1A1A1A"/>
<path d="M51.6546 32.108L46.254 32.1671L42.1146 25.1031L56.4866 24.9849L60.4125 32.0486L51.6546 32.108ZM28.3964 32.6119L36.1754 19.035L44.0457 32.4616L36.2595 46.1691L28.3964 32.6119ZM52.6051 18.2127L55.7506 23.841L41.4841 23.9766L38.0696 18.3977L52.6052 18.2127H52.6051ZM62.1562 32.3392L53.6469 17.009L35.4621 17.1293L35.4088 17.1299L35.2349 17.4309L35.2366 17.433L28.0096 30.1555C26.4121 31.6575 26.5145 33.2519 28.006 34.9228L35.4419 47.6086L35.619 47.9096L35.9673 47.9076L53.2058 47.7906L53.3804 47.7892L62.1563 32.3393L62.1562 32.3392Z" fill="#1A1A1A"/>
<path fill-rule="evenodd" clip-rule="evenodd" d="M36.1756 19.0345L44.0456 32.4616L36.2596 46.1688L29.7014 34.861C28.1202 33.5365 27.7546 32.0849 29.6533 30.4184L36.1756 19.0344V19.0345Z" fill="#FFCC00"/>
<path fill-rule="evenodd" clip-rule="evenodd" d="M52.6049 18.2124L55.7507 23.8407L41.4842 23.9763L38.0698 18.3976L52.6049 18.2124Z" fill="#FFCC00"/>
<path fill-rule="evenodd" clip-rule="evenodd" d="M56.4866 24.9851L60.4125 32.0485L46.2537 32.1669L42.0269 25.128L56.4866 24.9851Z" fill="#FFCC00"/>
<path fill-rule="evenodd" clip-rule="evenodd" d="M35.3646 26.7026C36.8942 26.7026 38.1344 27.9433 38.1344 29.4739C38.1344 31.0045 36.8943 32.2451 35.3646 32.2451C33.8348 32.2451 32.5947 31.0045 32.5947 29.4739C32.5947 27.9433 33.8348 26.7026 35.3646 26.7026Z" fill="#1A1A1A"/>
<path d="M48.0231 38.6995C48.0494 38.7775 48.165 38.7914 48.2311 38.7924L51.0037 38.809C51.3994 38.8106 52.0071 38.4417 52.332 38.0027C52.4931 37.7851 52.5241 37.6306 52.5027 37.5638C52.4774 37.4825 52.3609 37.4709 52.2947 37.4712L52.1028 37.47C51.6676 37.9641 51.009 38.3321 50.5247 38.3292L48.158 38.3148C48.0329 38.5014 48.0019 38.6362 48.0232 38.6996L48.0231 38.6995ZM49.6376 36.8919L52.4103 36.9084C52.7163 36.9101 52.9306 37.0434 53.0102 37.2846C53.0978 37.5562 52.9943 37.9217 52.7238 38.2872C52.2713 38.8987 51.4643 39.3754 50.888 39.3718L48.1149 39.3558C47.9464 39.3547 47.8063 39.3141 47.7009 39.2376C47.6143 39.1748 47.5517 39.0873 47.5156 38.978C47.4281 38.7062 47.5314 38.3418 47.8019 37.9765C48.2546 37.3648 49.0605 36.8885 49.6376 36.8919H49.6376Z" fill="#FFCC00"/>
<path d="M26.9689 18.3101L17.1921 36.1747V47.3244H9.77677V36.2576L0 18.3101H8.32676L13.4637 29.0454L18.6421 18.3101H26.9689Z" fill="#1A1A1A"/>
<path d="M84.3728 18.2708V25.4415H77.206V47.2851H69.7905V25.4415H62.6237V18.2708H84.3728ZM102.683 47.2851L101.441 43.0988H91.7881L90.5453 47.2851H82.5086L92.0782 18.2708H101.109L110.679 47.2851H102.683ZM93.6938 36.7156H99.535L96.5937 26.8508L93.6938 36.7156Z" fill="#1A1A1A"/>
<path fill-rule="evenodd" clip-rule="evenodd" d="M0.800903 58.2065C0.800903 55.9974 2.59176 54.2065 4.8009 54.2065H107C109.209 54.2065 111 55.9974 111 58.2065V74.0001C111 76.2092 109.209 78.0001 107 78.0001H4.8009C2.59176 78.0001 0.800903 76.2092 0.800903 74.0001V58.2065Z" fill="#1A1A1A"/>
<path d="M23.1719 59.996V72.4075H20.9632V63.5599L16.8723 69.8011H16.6036L12.5125 63.5421V72.4075H10.304V59.996H12.6854L16.7379 66.2017L20.8096 59.996H23.1719ZM40.8786 70.7674C39.5278 72.0145 37.8792 72.638 35.9333 72.638C33.987 72.638 32.3385 72.0145 30.9876 70.7674C29.6368 69.5203 28.9613 67.9984 28.9613 66.2018C28.9613 64.405 29.6368 62.8831 30.9876 61.636C32.3385 60.389 33.987 59.7654 35.9333 59.7654C37.8792 59.7654 39.5279 60.389 40.8786 61.636C42.2296 62.8831 42.9049 64.405 42.9049 66.2018C42.9049 67.9984 42.2296 69.5204 40.8786 70.7674ZM32.5433 69.3844C33.4586 70.2296 34.5886 70.6522 35.9333 70.6522C37.2776 70.6522 38.4076 70.2296 39.323 69.3844C40.2384 68.5393 40.6963 67.4785 40.6963 66.2018C40.6963 64.9251 40.2384 63.8643 39.323 63.019C38.4076 62.1739 37.2776 61.7513 35.9333 61.7513C34.5886 61.7513 33.4586 62.1739 32.5433 63.019C31.6278 63.8643 31.17 64.9252 31.17 66.2018C31.17 67.4785 31.6278 68.5393 32.5433 69.3844ZM51.5369 72.4076L46.8698 59.996H49.2896L52.8621 69.943L56.4536 59.996H58.8544L54.1873 72.4076H51.5369ZM64.0677 59.996H66.2763V72.4076H64.0677V59.996ZM80.8045 59.996H83.0132V72.4076H81.2847L74.9467 63.9854V72.4076H72.738V59.996H74.4665L80.8045 68.4182V59.996ZM102.554 65.989V66.8402C102.554 68.5424 101.946 69.9341 100.73 71.0157C99.5132 72.0973 97.9256 72.6381 95.9664 72.6381C93.8923 72.6381 92.1799 72.0175 90.8289 70.7763C89.4781 69.5353 88.8026 68.0103 88.8026 66.2018C88.8026 64.405 89.4781 62.8832 90.8289 61.6361C92.1799 60.389 93.8538 59.7654 95.8513 59.7654C97.1061 59.7654 98.2521 60.0315 99.2893 60.5634C100.326 61.0954 101.133 61.8105 101.709 62.7089L99.8078 63.7196C99.4493 63.1284 98.9179 62.6526 98.2137 62.2923C97.5094 61.9317 96.722 61.7514 95.8513 61.7514C94.4429 61.7514 93.2841 62.1769 92.375 63.0281C91.466 63.8791 91.0115 64.943 91.0115 66.2196C91.0115 67.4963 91.4691 68.5541 92.3847 69.3934C93.3001 70.2327 94.5004 70.6523 95.9858 70.6523C97.1765 70.6523 98.1464 70.3952 98.8954 69.8811C99.6445 69.3669 100.121 68.6783 100.326 67.8154H95.832V65.9891H102.554L102.554 65.989Z" fill="white"/>
</g>
<defs>
<clipPath id="clip0">
<rect width="111" height="78" fill="white"/>
</clipPath>
</defs>
</svg>
