<svg width="20" height="20" viewBox="0 0 20 20" fill="none" xmlns="http://www.w3.org/2000/svg">
    <g clip-path="url(#clip0)">
        <path d="M17.7083 20H2.29167C1.0275 20 0 18.9725 0 17.7083V2.29167C0 1.0275 1.0275 0 2.29167 0H17.7083C18.9725 0 20 1.0275 20 2.29167V17.7083C20 18.9725 18.9725 20 17.7083 20ZM2.29167 1.25C1.7175 1.25 1.25 1.7175 1.25 2.29167V17.7083C1.25 18.2825 1.7175 18.75 2.29167 18.75H17.7083C18.2825 18.75 18.75 18.2825 18.75 17.7083V2.29167C18.75 1.7175 18.2825 1.25 17.7083 1.25H2.29167Z" fill="white"/>
        <path d="M10 20C9.655 20 9.375 19.72 9.375 19.375V0.625C9.375 0.28 9.655 0 10 0C10.345 0 10.625 0.28 10.625 0.625V19.375C10.625 19.72 10.345 20 10 20Z" fill="white"/>
        <path d="M19.375 10.625H0.625C0.28 10.625 0 10.345 0 10C0 9.655 0.28 9.375 0.625 9.375H19.375C19.72 9.375 20 9.655 20 10C20 10.345 19.72 10.625 19.375 10.625Z" fill="white"/>
        <path d="M5 7.50001C4.655 7.50001 4.375 7.22001 4.375 6.87501V3.95834C4.375 3.61334 4.655 3.33334 5 3.33334C5.345 3.33334 5.625 3.61334 5.625 3.95834V6.87501C5.625 7.22001 5.345 7.50001 5 7.50001Z" fill="white"/>
        <path d="M6.45833 6.04166H3.54166C3.19666 6.04166 2.91666 5.76166 2.91666 5.41666C2.91666 5.07166 3.19666 4.79166 3.54166 4.79166H6.45833C6.80333 4.79166 7.08333 5.07166 7.08333 5.41666C7.08333 5.76166 6.80333 6.04166 6.45833 6.04166Z" fill="white"/>
        <path d="M3.95833 16.6667C3.79833 16.6667 3.63833 16.6058 3.51667 16.4833C3.2725 16.2392 3.2725 15.8433 3.51667 15.5992L5.6 13.5158C5.84417 13.2717 6.24 13.2717 6.48417 13.5158C6.72833 13.76 6.72833 14.1558 6.48417 14.4L4.40083 16.4833C4.27833 16.6058 4.11833 16.6667 3.95833 16.6667Z" fill="white"/>
        <path d="M6.04167 16.6667C5.88167 16.6667 5.72167 16.6058 5.6 16.4833L3.51667 14.4C3.2725 14.1558 3.2725 13.76 3.51667 13.5158C3.76083 13.2717 4.15667 13.2717 4.40083 13.5158L6.48417 15.5992C6.72833 15.8433 6.72833 16.2392 6.48417 16.4833C6.36167 16.6058 6.20167 16.6667 6.04167 16.6667Z" fill="white"/>
        <path d="M16.875 5.83334H13.125C12.78 5.83334 12.5 5.55334 12.5 5.20834C12.5 4.86334 12.78 4.58334 13.125 4.58334H16.875C17.22 4.58334 17.5 4.86334 17.5 5.20834C17.5 5.55334 17.22 5.83334 16.875 5.83334Z" fill="white"/>
        <path d="M16.875 16.6667H13.125C12.78 16.6667 12.5 16.3867 12.5 16.0417C12.5 15.6967 12.78 15.4167 13.125 15.4167H16.875C17.22 15.4167 17.5 15.6967 17.5 16.0417C17.5 16.3867 17.22 16.6667 16.875 16.6667Z" fill="white"/>
        <path d="M16.875 14.1667H13.125C12.78 14.1667 12.5 13.8867 12.5 13.5417C12.5 13.1967 12.78 12.9167 13.125 12.9167H16.875C17.22 12.9167 17.5 13.1967 17.5 13.5417C17.5 13.8867 17.22 14.1667 16.875 14.1667Z" fill="white"/>
    </g>
    <defs>
        <clipPath id="clip0">
            <rect width="20" height="20" fill="white"/>
        </clipPath>
    </defs>
</svg>
