<svg width="19" height="22" viewBox="0 0 19 22" fill="none" xmlns="http://www.w3.org/2000/svg">
    <path d="M15.2475 0H3.8C1.72744 0 0.0475464 1.67384 0.0475464 3.74564V20.8857C0.0475464 21.6129 0.882971 22.0382 1.47255 21.5969L5.05082 18.9181H15.2475C17.3201 18.9181 19 17.2442 19 15.1724V3.74564C19 1.67685 17.3231 0 15.2475 0V0ZM17.2188 15.1724C17.2188 16.2601 16.3376 17.14 15.2475 17.14H4.75394C4.56121 17.14 4.3738 17.2025 4.21957 17.3178L1.8288 19.1077V3.74564C1.8288 2.658 2.70991 1.77802 3.8 1.77802H15.2475C16.3372 1.77802 17.2188 2.65753 17.2188 3.74564V15.1724Z" fill="white"/>
    <path d="M14.2936 4.76105H4.75394C4.26201 4.76105 3.86332 5.15925 3.86332 5.65006C3.86332 6.14109 4.26201 6.53906 4.75394 6.53906H14.2936C14.7853 6.53906 15.1842 6.14109 15.1842 5.65006C15.1842 5.15925 14.7855 4.76105 14.2936 4.76105Z" fill="white"/>
    <path d="M14.2936 8.57013H4.75394C4.26201 8.57013 3.86332 8.9681 3.86332 9.45914C3.86332 9.94995 4.26201 10.3481 4.75394 10.3481H14.2936C14.7853 10.3481 15.1842 9.94995 15.1842 9.45914C15.1842 8.9681 14.7855 8.57013 14.2936 8.57013Z" fill="white"/>
    <path d="M9.52366 12.379H4.75394C4.26201 12.379 3.86332 12.7769 3.86332 13.268C3.86332 13.759 4.26201 14.157 4.75394 14.157H9.52366C10.0156 14.157 10.4143 13.759 10.4143 13.268C10.4143 12.7769 10.0156 12.379 9.52366 12.379Z" fill="white"/>
</svg>
