<svg width="25" height="25" viewBox="0 0 25 25" fill="none" xmlns="http://www.w3.org/2000/svg">
    <path d="M24.2188 23.4375H23.6569L23.0236 20.9043C22.9366 20.5565 22.6241 20.3125 22.2656 20.3125H19.5312V19.1406H21.875C22.3065 19.1406 22.6562 18.7908 22.6562 18.3594C22.6562 17.9279 22.3065 17.5781 21.875 17.5781V17.1875C21.875 12.2812 18.0864 8.24365 13.2812 7.84531V6.64062H14.4531C14.8846 6.64062 15.2344 6.29082 15.2344 5.85938C15.2344 5.42793 14.8846 5.07812 14.4531 5.07812H10.5469C10.1154 5.07812 9.76562 5.42793 9.76562 5.85938C9.76562 6.29082 10.1154 6.64062 10.5469 6.64062H11.7188V7.84531C6.91357 8.24365 3.125 12.2812 3.125 17.1875V17.5781C2.69351 17.5781 2.34375 17.9279 2.34375 18.3594C2.34375 18.7908 2.69351 19.1406 3.125 19.1406H5.46875V20.3125H2.73438C2.37588 20.3125 2.06343 20.5565 1.97646 20.9043L1.34312 23.4375H0.78125C0.349756 23.4375 0 23.7873 0 24.2188C0 24.6502 0.349756 25 0.78125 25H24.2188C24.6502 25 25 24.6502 25 24.2188C25 23.7873 24.6502 23.4375 24.2188 23.4375ZM4.6875 17.1875C4.6875 12.8797 8.19214 9.375 12.5 9.375C16.8079 9.375 20.3125 12.8797 20.3125 17.1875V17.5781C17.938 17.5781 5.38589 17.5781 4.6875 17.5781V17.1875ZM7.03125 19.1406H17.9688V20.3125H7.03125V19.1406ZM2.95371 23.4375L3.34434 21.875H21.6557L22.0463 23.4375H2.95371Z" fill="white"/>
    <path d="M0.78125 13.2812H2.34375C2.77524 13.2812 3.125 12.9314 3.125 12.5C3.125 12.0686 2.77524 11.7188 2.34375 11.7188H0.78125C0.349756 11.7188 0 12.0686 0 12.5C0 12.9314 0.349756 13.2812 0.78125 13.2812Z" fill="white"/>
    <path d="M22.6562 13.2812H24.2188C24.6502 13.2812 25 12.9314 25 12.5C25 12.0686 24.6502 11.7188 24.2188 11.7188H22.6562C22.2248 11.7188 21.875 12.0686 21.875 12.5C21.875 12.9314 22.2248 13.2812 22.6562 13.2812Z" fill="white"/>
    <path d="M4.76602 5.8709C5.0711 6.17598 5.56577 6.17603 5.87085 5.8709C6.17598 5.56578 6.17598 5.07115 5.87085 4.76607L4.76597 3.66114C4.46089 3.35606 3.96621 3.35601 3.66113 3.66114C3.35601 3.96627 3.35601 4.46089 3.66113 4.76597L4.76602 5.8709Z" fill="white"/>
    <path d="M19.6815 6.09972C19.8815 6.09972 20.0814 6.0234 20.2339 5.87091L21.3388 4.76608C21.6439 4.46095 21.6439 3.96632 21.3388 3.66124C21.0338 3.35616 20.5391 3.35616 20.234 3.66124L19.1291 4.76608C18.6355 5.25958 18.9918 6.09972 19.6815 6.09972Z" fill="white"/>
    <path d="M12.5 3.125C12.9315 3.125 13.2812 2.7752 13.2812 2.34375V0.78125C13.2812 0.349805 12.9315 0 12.5 0C12.0685 0 11.7188 0.349805 11.7188 0.78125V2.34375C11.7188 2.7752 12.0685 3.125 12.5 3.125Z" fill="white"/>
</svg>
