<svg width="192" height="125" viewBox="0 0 192 125" fill="none" xmlns="http://www.w3.org/2000/svg">
<g clip-path="url(#clip0)">
<path d="M80.8813 107.443L49.1357 106.137L57.9244 85.4325L78.3768 86.6461L83.8489 95.6452L80.8813 107.443Z" fill="url(#paint0_linear)"/>
<path d="M110.665 74.5302C110.876 74.5302 111.085 74.5455 111.293 74.566L114.592 74.5302L114.573 75.8308C117.768 78.0677 119.987 82.9612 119.987 88.6417C119.987 94.5462 117.59 99.6004 114.186 101.705L114.17 102.752H110.665C105.516 102.752 101.343 96.4352 101.343 88.6417C101.343 80.8481 105.512 74.5302 110.665 74.5302Z" fill="url(#paint1_linear)"/>
<path d="M114.588 102.752C119.736 102.752 123.91 96.4346 123.91 88.6416C123.91 80.8486 119.736 74.5311 114.588 74.5311C109.44 74.5311 105.266 80.8486 105.266 88.6416C105.266 96.4346 109.44 102.752 114.588 102.752Z" fill="url(#paint2_linear)"/>
<path d="M19.571 85.2462C19.8305 85.2462 20.086 85.2616 20.3414 85.2851L24.3826 85.2462L24.3582 86.7024C28.2742 89.2095 30.9914 94.6904 30.9914 101.054C30.9914 107.669 28.0554 113.334 23.8901 115.688L23.8707 116.862H19.571C13.2614 116.862 8.15161 109.783 8.15161 101.052C8.15161 92.3214 13.2644 85.2462 19.571 85.2462Z" fill="url(#paint3_linear)"/>
<path d="M24.3826 116.864C30.69 116.864 35.8031 109.786 35.8031 101.054C35.8031 92.3233 30.69 85.2452 24.3826 85.2452C18.0753 85.2452 12.9622 92.3233 12.9622 101.054C12.9622 109.786 18.0753 116.864 24.3826 116.864Z" fill="url(#paint4_linear)"/>
<path d="M62.9986 92.5865C63.254 92.5865 63.5074 92.6029 63.7567 92.6275L67.7349 92.5865L67.7115 94.0796C71.5654 96.6491 74.2409 102.266 74.2409 108.794C74.2409 115.574 71.3507 121.381 67.2505 123.798L67.2311 125H62.9986C56.7907 125 51.7562 117.744 51.7562 108.794C51.7562 99.8439 56.7897 92.5865 62.9986 92.5865Z" fill="url(#paint5_linear)"/>
<path d="M67.7349 125C73.9438 125 78.9772 117.744 78.9772 108.793C78.9772 99.8417 73.9438 92.5854 67.7349 92.5854C61.5259 92.5854 56.4926 99.8417 56.4926 108.793C56.4926 117.744 61.5259 125 67.7349 125Z" fill="url(#paint6_linear)"/>
<path d="M69.3154 117.898C72.8035 117.898 75.6311 113.822 75.6311 108.793C75.6311 103.764 72.8035 99.6873 69.3154 99.6873C65.8273 99.6873 62.9996 103.764 62.9996 108.793C62.9996 113.822 65.8273 117.898 69.3154 117.898Z" fill="#D8DEE8"/>
<path d="M68.3598 117.246C71.3201 117.246 73.7199 113.462 73.7199 108.793C73.7199 104.124 71.3201 100.339 68.3598 100.339C65.3994 100.339 62.9996 104.124 62.9996 108.793C62.9996 113.462 65.3994 117.246 68.3598 117.246Z" fill="url(#paint7_linear)"/>
<path d="M175.118 74.5302V91.4005C175.118 92.4387 174.898 93.4651 174.474 94.4117C174.05 95.3583 173.431 96.2035 172.657 96.8914C171.884 97.5793 170.974 98.0943 169.988 98.4022C169.002 98.71 167.962 98.8038 166.937 98.6773L126.144 93.6395V74.5302H175.118Z" fill="url(#paint8_linear)"/>
<path d="M156.752 72.1887L145.558 89.6874C144.767 90.9231 143.715 91.9681 142.476 92.7478C141.238 93.5275 139.843 94.0228 138.392 94.1982L101.349 98.6742L98.5136 79.8339L156.752 72.1887Z" fill="url(#paint9_linear)"/>
<path d="M154.171 80.7141C154.382 80.7141 154.591 80.7284 154.799 80.7489L158.098 80.7141L158.079 82.0137C161.274 84.2517 163.493 89.1442 163.493 94.8246C163.493 100.729 161.096 105.784 157.692 107.888L157.682 108.934H154.171C149.022 108.934 144.849 102.616 144.849 94.8226C144.849 87.029 149.022 80.7141 154.171 80.7141Z" fill="url(#paint10_linear)"/>
<path d="M158.098 108.935C163.246 108.935 167.42 102.618 167.42 94.8246C167.42 87.0316 163.246 80.7141 158.098 80.7141C152.95 80.7141 148.776 87.0316 148.776 94.8246C148.776 102.618 152.95 108.935 158.098 108.935Z" fill="url(#paint11_linear)"/>
<path d="M159.409 102.752C162.301 102.752 164.646 99.2028 164.646 94.8245C164.646 90.4462 162.301 86.8969 159.409 86.8969C156.516 86.8969 154.172 90.4462 154.172 94.8245C154.172 99.2028 156.516 102.752 159.409 102.752Z" fill="#D8DEE8"/>
<path d="M158.616 102.184C161.07 102.184 163.06 98.8891 163.06 94.8244C163.06 90.7598 161.07 87.4647 158.616 87.4647C156.161 87.4647 154.172 90.7598 154.172 94.8244C154.172 98.8891 156.161 102.184 158.616 102.184Z" fill="url(#paint12_linear)"/>
<path d="M113.718 85.4325L189.817 74.835C190.423 74.7506 190.977 74.4487 191.379 73.985C191.781 73.5214 192.002 72.9274 192.002 72.3126V4.8935C192.002 4.23194 191.746 3.59643 191.288 3.12144C190.83 2.64644 190.206 2.36924 189.548 2.3485L113.718 0V85.4325Z" fill="url(#paint13_linear)"/>
<path d="M53.9799 80.714L113.718 85.4325V0L56.9515 3.01366C56.1507 3.05636 55.3967 3.40627 54.8448 3.9913C54.2929 4.57634 53.9851 5.35193 53.985 6.1583L53.9799 80.714Z" fill="#FFCC00"/>
<path style="mix-blend-mode:multiply" opacity="0.3" d="M141.17 32.7093C152.232 18.6898 174.221 29.0345 185.321 13.3092C187.616 10.0514 189.452 6.48947 190.775 2.7251C191.147 2.95033 191.454 3.26824 191.668 3.6481C191.882 4.02797 191.995 4.45694 191.996 4.8935V72.3125C191.996 72.9274 191.775 73.5214 191.373 73.985C190.971 74.4486 190.417 74.7506 189.811 74.835L120.943 84.4255C125.292 79.6477 129.658 73.5426 132.819 65.9117C139.762 49.158 133.947 41.8638 141.17 32.7093Z" fill="url(#paint14_linear)"/>
<path d="M102.169 35.3514C104.23 44.6533 109.037 71.4847 103.672 100.321C103.474 101.369 102.959 102.329 102.197 103.071C101.435 103.814 100.464 104.301 99.4163 104.467L80.8802 107.443C80.8802 107.443 80.695 89.7979 71.7893 88.6416C62.8835 87.4852 54.5375 95.8785 53.9798 110.428C53.9798 110.428 34.6876 113.039 5.5626 106.324C5.5626 106.324 1.66692 105.484 -0.0020752 101.054L1.31276 80.761C1.36677 79.9361 1.58356 79.1302 1.95048 78.3904C2.3174 77.6505 2.8271 76.9916 3.44989 76.4518L20.5907 61.5544C20.5907 61.5544 36.1704 39.3587 41.3677 35.0679C41.3677 35.0679 44.15 30.592 66.596 30.0322C82.0546 29.6464 92.6996 30.6769 97.8287 31.3554C98.8726 31.4928 99.8492 31.9501 100.626 32.665C101.402 33.3799 101.941 34.3179 102.169 35.3514Z" fill="url(#paint15_linear)"/>
<path style="mix-blend-mode:multiply" opacity="0.6" d="M2.30093 77.7803L3.15375 78.7177C2.78229 89.1626 0.531186 92.8558 19.571 94.8246C38.6108 96.7935 38.0287 80.7141 38.0287 80.7141L62.9985 69.7647L83.8488 36.7484C87.9867 33.3961 95.2184 32.4802 100.122 32.2673C101.162 33.0042 101.892 34.1041 102.169 35.3526C104.23 44.6546 109.037 71.4859 103.673 100.322C103.475 101.37 102.959 102.331 102.197 103.073C101.435 103.815 100.463 104.303 99.4153 104.468L80.8802 107.444C80.8802 107.444 80.695 89.7981 71.7893 88.6418C62.8835 87.4854 54.5375 95.8787 53.9798 110.428C53.9798 110.428 34.6876 113.04 5.5626 106.325C5.5626 106.325 1.66692 105.485 -0.0020752 101.055L1.31276 80.7612C1.38399 79.6991 1.72415 78.673 2.30093 77.7803Z" fill="url(#paint16_linear)"/>
<path d="M63.254 64.9468C62.9233 65.493 62.443 65.9318 61.8706 66.2104C61.2982 66.489 60.6581 66.5957 60.0269 66.5176L20.489 61.6446L20.5907 61.5566C20.5907 61.5566 33.5224 43.1369 39.7516 36.6133L76.2101 38.8185C76.4971 38.8363 76.7748 38.9283 77.016 39.0857C77.2573 39.2431 77.454 39.4605 77.5871 39.7169C77.7202 39.9733 77.7852 40.2598 77.7757 40.5489C77.7663 40.8379 77.6827 41.1196 77.5331 41.3666L63.254 64.9468Z" fill="url(#paint17_linear)"/>
<g style="mix-blend-mode:overlay" opacity="0.3">
<path d="M39.7109 52.5667C50.476 48.3107 59.4214 53.3546 66.825 47.4041C69.6745 45.1139 71.37 41.9355 72.3714 38.5862L76.2101 38.8185C76.4971 38.8362 76.7748 38.9282 77.016 39.0856C77.2573 39.243 77.454 39.4605 77.5871 39.7168C77.7202 39.9732 77.7852 40.2598 77.7757 40.5488C77.7663 40.8379 77.6827 41.1195 77.5331 41.3665L63.2519 64.9467C62.9213 65.493 62.441 65.9317 61.8686 66.2103C61.2962 66.4889 60.656 66.5956 60.0249 66.5175L27.2148 62.4755C31.5277 56.8472 35.9669 54.0484 39.7109 52.5667Z" fill="white"/>
</g>
<path d="M4.76878 80.4714C4.78723 80.2968 4.86967 80.1353 5.00004 80.0184C5.1304 79.9015 5.29937 79.8375 5.47404 79.839C15.3262 79.926 27.7145 82.0095 31.8167 82.7503C32.0002 82.7826 32.1753 82.852 32.3312 82.9544C32.4872 83.0568 32.6208 83.19 32.724 83.3459C32.8272 83.5018 32.8977 83.6772 32.9314 83.8614C32.9651 84.0456 32.9612 84.2347 32.9199 84.4173C32.118 87.8588 30.7828 90.1868 29.8078 91.5376C29.4803 91.9911 29.0588 92.3677 28.5725 92.6416C28.0862 92.9154 27.5466 93.0799 26.9909 93.1237C23.891 93.3693 17.0176 93.7848 13.6806 92.9866C10.7151 92.2774 7.87985 90.8622 6.35332 90.019C5.91347 89.7801 5.53405 89.4428 5.24433 89.0331C4.95461 88.6234 4.76231 88.1524 4.68228 87.6562C4.30676 85.2278 4.61308 81.858 4.76878 80.4714Z" fill="url(#paint18_linear)"/>
<path d="M52.9785 81.4271C53.0442 81.294 53.0814 81.1485 53.0876 81.0001C53.0938 80.8516 53.0689 80.7034 53.0145 80.5652C52.9601 80.4271 52.8774 80.3019 52.7718 80.198C52.6662 80.094 52.54 80.0135 52.4015 79.9618C51.5313 79.6384 50.3386 79.2649 49.6456 79.3478C48.7378 79.4552 41.0564 81.4609 37.5433 82.386C37.016 82.5218 36.5521 82.8377 36.2309 83.2795C35.9098 83.7214 35.7513 84.2618 35.7827 84.8082C35.9394 87.213 36.8431 91.0217 40.9505 91.4495C46.6526 92.041 50.2542 86.9858 52.9785 81.4271Z" fill="url(#paint19_linear)"/>
<path d="M16.0457 95.6452C30.9914 97.7441 34.0231 92.5866 34.0231 92.5866C37.5606 93.1156 42.5879 92.4187 45.4364 91.9194C46.5233 91.729 47.5735 92.2478 48.1842 93.1729C48.638 93.8647 49.4654 94.5647 50.9675 94.8246C53.4201 95.2503 57.5967 94.3129 59.6422 93.7828C56.6655 97.8914 54.5813 103.217 54.3065 110.406C54.3065 110.406 34.6897 113.04 5.56463 106.325C5.56463 106.325 1.66894 105.484 -6.10352e-05 101.055L0.857851 87.8199C2.38336 90.1685 6.37572 94.2873 16.0457 95.6452Z" fill="url(#paint20_linear)"/>
<path style="mix-blend-mode:multiply" opacity="0.6" d="M40.3532 98.2555C40.7428 98.218 41.136 98.2641 41.5066 98.3908C41.8772 98.5175 42.2169 98.7219 42.5031 98.9904C42.7893 99.2589 43.0155 99.5855 43.1668 99.9486C43.3181 100.312 43.391 100.703 43.3808 101.096C43.3034 104.667 43.6657 108.403 43.9914 110.926C35.5293 110.946 22.1458 110.145 5.56982 106.321C5.56982 106.321 1.67413 105.481 0.00512695 101.051L0.504812 93.3385C12.4402 100.149 32.5424 99.0169 40.3532 98.2555Z" fill="url(#paint21_linear)"/>
<path d="M95.7944 40.7463L90.4241 42.053C88.669 42.4798 87.133 43.5445 86.1121 45.0421L72.8181 64.5404C71.9114 65.8707 73.0827 67.6339 74.65 67.3033L97.6832 62.4037C98.134 62.3089 98.5406 62.0658 98.8388 61.7128C99.1369 61.3598 99.3097 60.917 99.3298 60.4543C99.4743 57.1132 99.628 49.1978 98.3264 42.402C98.2746 42.1228 98.167 41.8571 98.01 41.621C97.8531 41.3849 97.65 41.1833 97.4133 41.0285C97.1765 40.8736 96.9109 40.7688 96.6326 40.7203C96.3543 40.6718 96.0691 40.6806 95.7944 40.7463Z" fill="url(#paint22_linear)"/>
</g>
<defs>
<linearGradient id="paint0_linear" x1="83.8489" y1="96.4382" x2="49.1357" y2="96.4382" gradientUnits="userSpaceOnUse">
<stop stop-color="#444B8C"/>
<stop offset="1" stop-color="#26264F"/>
</linearGradient>
<linearGradient id="paint1_linear" x1="119.983" y1="88.6417" x2="101.339" y2="88.6417" gradientUnits="userSpaceOnUse">
<stop stop-color="#311944"/>
<stop offset="1" stop-color="#6B3976"/>
</linearGradient>
<linearGradient id="paint2_linear" x1="-72163.6" y1="81698.8" x2="-75579" y2="81698.8" gradientUnits="userSpaceOnUse">
<stop stop-color="#311944"/>
<stop offset="1" stop-color="#6B3976"/>
</linearGradient>
<linearGradient id="paint3_linear" x1="109774" y1="95595.1" x2="114900" y2="95595.1" gradientUnits="userSpaceOnUse">
<stop stop-color="#311944"/>
<stop offset="1" stop-color="#6B3976"/>
</linearGradient>
<linearGradient id="paint4_linear" x1="-108184" y1="95396.4" x2="-113310" y2="95396.4" gradientUnits="userSpaceOnUse">
<stop stop-color="#311944"/>
<stop offset="1" stop-color="#6B3976"/>
</linearGradient>
<linearGradient id="paint5_linear" x1="98555.1" y1="100465" x2="103523" y2="100465" gradientUnits="userSpaceOnUse">
<stop stop-color="#311944"/>
<stop offset="1" stop-color="#6B3976"/>
</linearGradient>
<linearGradient id="paint6_linear" x1="-96993.2" y1="100260" x2="-101961" y2="100260" gradientUnits="userSpaceOnUse">
<stop stop-color="#311944"/>
<stop offset="1" stop-color="#6B3976"/>
</linearGradient>
<linearGradient id="paint7_linear" x1="60.718" y1="107.963" x2="71.0152" y2="109.069" gradientUnits="userSpaceOnUse">
<stop offset="0.01" stop-color="#D8DEE8"/>
<stop offset="1" stop-color="#F4F7FA"/>
</linearGradient>
<linearGradient id="paint8_linear" x1="-165737" y1="69777.2" x2="-189305" y2="69777.2" gradientUnits="userSpaceOnUse">
<stop stop-color="#444B8C"/>
<stop offset="1" stop-color="#26264F"/>
</linearGradient>
<linearGradient id="paint9_linear" x1="-207625" y1="76041.5" x2="-240959" y2="76041.5" gradientUnits="userSpaceOnUse">
<stop stop-color="#444B8C"/>
<stop offset="1" stop-color="#26264F"/>
</linearGradient>
<linearGradient id="paint10_linear" x1="65471.5" y1="83615.2" x2="68886.9" y2="83615.2" gradientUnits="userSpaceOnUse">
<stop stop-color="#311944"/>
<stop offset="1" stop-color="#6B3976"/>
</linearGradient>
<linearGradient id="paint11_linear" x1="-64235.7" y1="83410.2" x2="-67651.2" y2="83410.2" gradientUnits="userSpaceOnUse">
<stop stop-color="#311944"/>
<stop offset="1" stop-color="#6B3976"/>
</linearGradient>
<linearGradient id="paint12_linear" x1="32536.5" y1="43839.7" x2="31258.3" y2="43735.8" gradientUnits="userSpaceOnUse">
<stop offset="0.01" stop-color="#D8DEE8"/>
<stop offset="1" stop-color="#F4F7FA"/>
</linearGradient>
<linearGradient id="paint13_linear" x1="191.999" y1="42.7163" x2="113.716" y2="42.7163" gradientUnits="userSpaceOnUse">
<stop stop-color="#FFC444"/>
<stop offset="1" stop-color="#F36F56"/>
</linearGradient>
<linearGradient id="paint14_linear" x1="229179" y1="200929" x2="278785" y2="200929" gradientUnits="userSpaceOnUse">
<stop stop-color="#FFC444"/>
<stop offset="1" stop-color="#F36F56"/>
</linearGradient>
<linearGradient id="paint15_linear" x1="-431289" y1="220441" x2="-541960" y2="220441" gradientUnits="userSpaceOnUse">
<stop offset="0.01" stop-color="#D8DEE8"/>
<stop offset="1" stop-color="#F4F7FA"/>
</linearGradient>
<linearGradient id="paint16_linear" x1="-485909" y1="215598" x2="-453716" y2="284370" gradientUnits="userSpaceOnUse">
<stop offset="0.01" stop-color="#D8DEE8"/>
<stop offset="1" stop-color="#F4F7FA"/>
</linearGradient>
<linearGradient id="paint17_linear" x1="-248606" y1="75982.3" x2="-280857" y2="75982.3" gradientUnits="userSpaceOnUse">
<stop stop-color="#2B478B"/>
<stop offset="1" stop-color="#26264F"/>
</linearGradient>
<linearGradient id="paint18_linear" x1="-139810" y1="37946.9" x2="-139775" y2="42315.6" gradientUnits="userSpaceOnUse">
<stop stop-color="#444B8C"/>
<stop offset="1" stop-color="#26264F"/>
</linearGradient>
<linearGradient id="paint19_linear" x1="48.8253" y1="74.9322" x2="32.1771" y2="104.139" gradientUnits="userSpaceOnUse">
<stop stop-color="#FCB148"/>
<stop offset="0.05" stop-color="#FDBA46"/>
<stop offset="0.14" stop-color="#FFC244"/>
<stop offset="0.32" stop-color="#FFC444"/>
<stop offset="0.48" stop-color="#FDB946"/>
<stop offset="0.78" stop-color="#F99C4D"/>
<stop offset="0.87" stop-color="#F8924F"/>
<stop offset="1" stop-color="#F8924F"/>
</linearGradient>
<linearGradient id="paint20_linear" x1="-269449" y1="69476.1" x2="-304403" y2="69476.1" gradientUnits="userSpaceOnUse">
<stop stop-color="#2B478B"/>
<stop offset="1" stop-color="#26264F"/>
</linearGradient>
<linearGradient id="paint21_linear" x1="-205382" y1="53412.5" x2="-224394" y2="53412.5" gradientUnits="userSpaceOnUse">
<stop stop-color="#444B8C"/>
<stop offset="1" stop-color="#26264F"/>
</linearGradient>
<linearGradient id="paint22_linear" x1="-110960" y1="68310.7" x2="-118083" y2="68310.7" gradientUnits="userSpaceOnUse">
<stop stop-color="#444B8C"/>
<stop offset="0.0001" stop-color="#2B478B"/>
<stop offset="1" stop-color="#26264F"/>
</linearGradient>
<clipPath id="clip0">
<rect width="192" height="125" fill="white"/>
</clipPath>
</defs>
</svg>
