<svg width="170" height="159" viewBox="0 0 170 159" fill="none" xmlns="http://www.w3.org/2000/svg">
<path d="M33.314 112.102C32.9491 112.102 32.5842 111.931 32.3514 111.62C31.9554 111.092 32.0719 110.339 32.5998 109.944C32.5998 109.944 33.0655 109.602 33.8651 108.996C34.393 108.601 35.146 108.701 35.5419 109.229C35.9378 109.757 35.8369 110.51 35.309 110.906C34.4939 111.527 34.0282 111.869 34.0282 111.869C33.8108 112.032 33.5624 112.102 33.314 112.102Z" fill="url(#paint0_linear)"/>
<path d="M70.5297 39.8285C70.5297 54.4539 50.0354 81.1508 40.7664 92.477C38.4608 95.2949 34.1446 95.2949 31.839 92.477C22.5623 81.143 2.06802 54.4539 2.06802 39.8285C2.06802 20.9256 17.3921 5.59375 36.3027 5.59375C55.2056 5.59375 70.5297 20.9179 70.5297 39.8285Z" fill="url(#paint1_linear)"/>
<path d="M49.802 53.3246C57.2567 45.8699 57.2567 33.7834 49.802 26.3287C42.3473 18.874 30.2608 18.874 22.8061 26.3287C15.3514 33.7834 15.3514 45.8699 22.8061 53.3246C30.2608 60.7793 42.3473 60.7793 49.802 53.3246Z" fill="white"/>
<path d="M36.3027 116.123C40.1656 116.123 43.2972 112.991 43.2972 109.128C43.2972 105.266 40.1656 102.134 36.3027 102.134C32.4398 102.134 29.3083 105.266 29.3083 109.128C29.3083 112.991 32.4398 116.123 36.3027 116.123Z" fill="url(#paint2_linear)"/>
<path d="M164.198 71.416C164.198 78.0688 154.874 90.2179 150.651 95.3725C149.603 96.6534 147.639 96.6534 146.591 95.3725C142.368 90.2179 133.045 78.0688 133.045 71.416C133.045 62.8146 140.016 55.8357 148.625 55.8357C157.227 55.8357 164.198 62.8146 164.198 71.416Z" fill="url(#paint3_linear)"/>
<path d="M157.221 72.6226C157.887 67.8716 154.575 63.4807 149.824 62.8153C145.073 62.1498 140.682 65.4619 140.016 70.2129C139.351 74.964 142.663 79.3549 147.414 80.0203C152.165 80.6857 156.556 77.3737 157.221 72.6226Z" fill="white"/>
<path d="M149.183 106.366C150.941 106.366 152.366 104.941 152.366 103.183C152.366 101.425 150.941 100 149.183 100C147.425 100 146 101.425 146 103.183C146 104.941 147.425 106.366 149.183 106.366Z" fill="url(#paint4_linear)"/>
<line x1="46.4669" y1="119.693" x2="49.6934" y2="124.533" stroke="#646464" stroke-width="5" stroke-linecap="round"/>
<line x1="55.0697" y1="129.246" x2="61.2459" y2="130.93" stroke="#646464" stroke-width="5" stroke-linecap="round"/>
<line x1="70.2692" y1="129.7" x2="74.7001" y2="127.731" stroke="#646464" stroke-width="5" stroke-linecap="round"/>
<line x1="79.5049" y1="120.796" x2="81.7962" y2="114.495" stroke="#646464" stroke-width="5" stroke-linecap="round"/>
<line x1="82.5" y1="105.5" x2="82.5" y2="98.5" stroke="#646464" stroke-width="5" stroke-linecap="round"/>
<line x1="82.5" y1="89.5" x2="82.5" y2="82.5" stroke="#646464" stroke-width="5" stroke-linecap="round"/>
<line x1="126.945" y1="68.123" x2="128.123" y2="61.055" stroke="#646464" stroke-width="5" stroke-linecap="round"/>
<line x1="121.882" y1="80.6459" x2="124.646" y2="75.118" stroke="#646464" stroke-width="5" stroke-linecap="round"/>
<line x1="114.882" y1="93.6459" x2="117.646" y2="88.118" stroke="#646464" stroke-width="5" stroke-linecap="round"/>
<line x1="107.882" y1="105.646" x2="110.646" y2="100.118" stroke="#646464" stroke-width="5" stroke-linecap="round"/>
<line x1="100.882" y1="118.646" x2="103.646" y2="113.118" stroke="#646464" stroke-width="5" stroke-linecap="round"/>
<line x1="99.5" y1="131.5" x2="99.5" y2="126.5" stroke="#646464" stroke-width="5" stroke-linecap="round"/>
<line x1="82.945" y1="74.123" x2="84.123" y2="67.055" stroke="#646464" stroke-width="5" stroke-linecap="round"/>
<line x1="86.5615" y1="58.4918" x2="90.4918" y2="53.4385" stroke="#646464" stroke-width="5" stroke-linecap="round"/>
<line x1="96.9976" y1="49.6081" x2="103.608" y2="46.0024" stroke="#646464" stroke-width="5" stroke-linecap="round"/>
<line x1="111.113" y1="45.3238" x2="116.324" y2="46.8871" stroke="#646464" stroke-width="5" stroke-linecap="round"/>
<line x1="122.528" y1="49.7648" x2="126.765" y2="53.4723" stroke="#646464" stroke-width="5" stroke-linecap="round"/>
<line x1="143.754" y1="125.07" x2="142.07" y2="131.246" stroke="#646464" stroke-width="5" stroke-linecap="round"/>
<line x1="146.754" y1="112.07" x2="145.07" y2="118.246" stroke="#646464" stroke-width="5" stroke-linecap="round"/>
<line x1="104.646" y1="142.882" x2="102.882" y2="139.354" stroke="#646464" stroke-width="5" stroke-linecap="round"/>
<line x1="115.7" y1="149.269" x2="111.269" y2="147.3" stroke="#646464" stroke-width="5" stroke-linecap="round"/>
<line x1="129.039" y1="149.942" x2="123.942" y2="150.961" stroke="#646464" stroke-width="5" stroke-linecap="round"/>
<line x1="137.857" y1="139.43" x2="134.43" y2="145.143" stroke="#646464" stroke-width="5" stroke-linecap="round"/>
<defs>
<linearGradient id="paint0_linear" x1="32.1142" y1="110.43" x2="149.824" y2="110.43" gradientUnits="userSpaceOnUse">
<stop stop-color="#AA80F9"/>
<stop offset="0.9964" stop-color="#6165D7"/>
</linearGradient>
<linearGradient id="paint1_linear" x1="31.8857" y1="27.3968" x2="66.3596" y2="116.193" gradientUnits="userSpaceOnUse">
<stop stop-color="#2B478B"/>
<stop offset="0.9964" stop-color="#6165D7"/>
</linearGradient>
<linearGradient id="paint2_linear" x1="45.2742" y1="95.5111" x2="22.8843" y2="129.496" gradientUnits="userSpaceOnUse">
<stop stop-color="#2B478B"/>
<stop offset="0.9964" stop-color="#6165D7"/>
</linearGradient>
<linearGradient id="paint3_linear" x1="146.612" y1="65.7598" x2="162.3" y2="106.167" gradientUnits="userSpaceOnUse">
<stop stop-color="#FF9085"/>
<stop offset="1" stop-color="#FFC444"/>
</linearGradient>
<linearGradient id="paint4_linear" x1="153.262" y1="96.9816" x2="143.073" y2="112.447" gradientUnits="userSpaceOnUse">
<stop stop-color="#FF9085"/>
<stop offset="1" stop-color="#FB6FBB"/>
</linearGradient>
</defs>
</svg>
