<svg width="189" height="138" viewBox="0 0 189 138" fill="none" xmlns="http://www.w3.org/2000/svg">
<path d="M113.478 69.0006H51.1889V0.259277H113.478V69.0006Z" fill="#FCC32A"/>
<path d="M51.1889 69.0006H113.478L113.476 0.261284H113.478V0.259277H51.1889V69.0006Z" fill="#F1A34F"/>
<path d="M145.639 69.0046H113.477V0.26123H145.639V69.0046Z" fill="#FCC32A"/>
<path d="M113.478 69.0005L113.476 0.26123V69.0005H113.478Z" fill="#A97C24"/>
<path d="M113.476 69.0046H123.833C126.039 41.303 128.377 11.113 128.346 7.88222C128.331 6.22622 128.385 3.61234 128.494 0.26123H113.476V69.0046Z" fill="#FFC444"/>
<path d="M87.618 15.116H85.3092L84.7435 13.9716L83.9514 15.116L82.8755 12.7609L81.857 15.116H77.6097L77.1286 13.5443L76.6747 15.116H75.8121V0.26123H87.618V15.116Z" fill="url(#paint0_linear)"/>
<path d="M62.2883 137.743H4.57764e-05V69.0038H62.2883V137.743Z" fill="#FCC32A"/>
<path d="M4.57764e-05 137.743H62.2883V69.0038H4.57764e-05V137.743Z" fill="#F1A34F"/>
<path d="M94.4509 137.747H62.2882V69.0046H94.4509V137.747Z" fill="#FCC32A"/>
<path d="M36.4291 83.8595H34.1213L33.5546 82.715L32.7625 83.8595L31.6856 81.5043L30.6671 83.8595H26.4208L25.9387 82.2887L25.4868 83.8595H24.6222V69.0046H36.4291V83.8595Z" fill="url(#paint1_linear)"/>
<path d="M156.424 137.996H94.1359V69.2565H156.424V137.996Z" fill="#FCC32A"/>
<path d="M94.1359 137.996H156.424V69.2565H94.1359V137.996Z" fill="#F1A34F"/>
<path d="M188.586 138H156.424V69.2576H188.586V138Z" fill="#FCC32A"/>
<path d="M130.565 84.1134H128.257L127.689 82.9689L126.898 84.1134L125.821 81.7583L124.803 84.1134H120.557L120.075 82.5416L119.623 84.1134H118.758V69.2576H130.565V84.1134Z" fill="url(#paint2_linear)"/>
<defs>
<linearGradient id="paint0_linear" x1="82.4761" y1="3.90047" x2="76.86" y2="18.8454" gradientUnits="userSpaceOnUse">
<stop stop-color="#2B478B"/>
<stop offset="0.9964" stop-color="#6165D7"/>
</linearGradient>
<linearGradient id="paint1_linear" x1="31.2868" y1="72.6439" x2="25.6711" y2="87.5891" gradientUnits="userSpaceOnUse">
<stop stop-color="#2B478B"/>
<stop offset="0.9964" stop-color="#6165D7"/>
</linearGradient>
<linearGradient id="paint2_linear" x1="125.423" y1="72.8971" x2="119.806" y2="87.8431" gradientUnits="userSpaceOnUse">
<stop stop-color="#2B478B"/>
<stop offset="0.9964" stop-color="#6165D7"/>
</linearGradient>
</defs>
</svg>
